0
SECTION
2
HEADER
9
$INSUNITS
70
4
9
$ACADVER
1
AC1014
9
$HANDSEED
5
FFFF
0
ENDSEC
0
SECTION
2
TABLES
0
TABLE
2
VPORT
5
8
100
AcDbSymbolTable
0
ENDTAB
0
TABLE
2
LTYPE
5
5
100
AcDbSymbolTable
0
LTYPE
5
14
100
AcDbSymbolTableRecord
100
AcDbLinetypeTableRecord
2
BYBLOCK
70
0
0
LTYPE
5
15
100
AcDbSymbolTableRecord
100
AcDbLinetypeTableRecord
2
BYLAYER
70
0
0
ENDTAB
0
TABLE
2
LAYER
5
2
100
AcDbSymbolTable
70
2
0
LAYER
5
50
100
AcDbSymbolTableRecord
100
AcDbLayerTableRecord
2
0
70
0
6
CONTINUOUS
0
ENDTAB
0
TABLE
2
STYLE
5
3
100
AcDbSymbolTable
70
1
0
STYLE
5
11
100
AcDbSymbolTableRecord
100
AcDbTextStyleTableRecord
2
STANDARD
70
0
0
ENDTAB
0
TABLE
2
VIEW
5
6
100
AcDbSymbolTable
70
0
0
ENDTAB
0
TABLE
2
UCS
5
7
100
AcDbSymbolTable
70
0
0
ENDTAB
0
TABLE
2
APPID
5
9
100
AcDbSymbolTable
70
2
0
APPID
5
12
100
AcDbSymbolTableRecord
100
AcDbRegAppTableRecord
2
ACAD
70
0
0
ENDTAB
0
TABLE
2
DIMSTYLE
5
A
100
AcDbSymbolTable
70
1
0
ENDTAB
0
TABLE
2
BLOCK_RECORD
5
1
100
AcDbSymbolTable
70
1
0
BLOCK_RECORD
5
1F
100
AcDbSymbolTableRecord
100
AcDbBlockTableRecord
2
*MODEL_SPACE
0
BLOCK_RECORD
5
1B
100
AcDbSymbolTableRecord
100
AcDbBlockTableRecord
2
*PAPER_SPACE
0
ENDTAB
0
ENDSEC
0
SECTION
2
BLOCKS
0
BLOCK
5
20
100
AcDbEntity
100
AcDbBlockBegin
2
*MODEL_SPACE
0
ENDBLK
5
21
100
AcDbEntity
100
AcDbBlockEnd
0
BLOCK
5
1C
100
AcDbEntity
100
AcDbBlockBegin
2
*PAPER_SPACE
0
ENDBLK
5
1D
100
AcDbEntity
100
AcDbBlockEnd
0
ENDSEC
0
SECTION
2
ENTITIES
0
CIRCLE
5
100
100
AcDbEntity
8
0
100
AcDbCircle
10
40.456250000000004
20
-50.841726961855194
30
0
40
1.25
210
0
220
0
230
1
0
CIRCLE
5
101
100
AcDbEntity
8
0
100
AcDbCircle
10
-121.46875000000003
20
-50.841726961855194
30
0
40
1.25
210
0
220
0
230
1
0
CIRCLE
5
102
100
AcDbEntity
8
0
100
AcDbCircle
10
-40.506250000000001
20
-50.841726961855187
30
0
40
1.25
210
0
220
0
230
1
0
CIRCLE
5
103
100
AcDbEntity
8
0
100
AcDbCircle
10
121.41874999999999
20
-50.841726961855187
30
0
40
1.25
210
0
220
0
230
1
0
LWPOLYLINE
5
104
100
AcDbEntity
8
0
100
AcDbPolyline
90
8
70
1
43
0.0
10
140.85000000000002
20
47.649999999999991
42
-0.4142135623730937
10
142.84999999999999
20
45.649999999999991
10
142.84999999999999
20
-69.412500000000023
42
-0.41421356237309503
10
140.85000000000002
20
-71.412500000000009
10
-140.90000000000001
20
-71.412500000000023
42
-0.41421356237309115
10
-142.89999999999998
20
-69.412500000000023
10
-142.89999999999998
20
45.649999999999991
42
-0.41421356237309503
10
-140.90000000000001
20
47.649999999999991
0
LWPOLYLINE
5
105
100
AcDbEntity
8
0
100
AcDbPolyline
90
8
70
1
43
0.0
10
-69.224999999999994
20
-44.575000000000017
10
-69.224999999999994
20
-31.57500000000001
42
0.41421356237310281
10
-69.724999999999994
20
-31.074999999999999
10
-82.725000000000009
20
-31.07500000000001
42
0.41421356237310802
10
-83.225000000000023
20
-31.57500000000001
10
-83.225000000000023
20
-44.575000000000017
42
0.41421356237310025
10
-82.725000000000009
20
-45.07500000000001
10
-69.724999999999994
20
-45.07500000000001
42
0.41421356237310542
0
LWPOLYLINE
5
106
100
AcDbEntity
8
0
100
AcDbPolyline
90
8
70
1
43
0.0
10
111.75
20
-25.525000000000013
42
-0.41421356237310542
10
111.25
20
-26.025000000000009
10
98.25
20
-26.025000000000009
42
-0.41421356237308982
10
97.750000000000028
20
-25.525000000000013
10
97.750000000000043
20
-12.525000000000004
42
-0.41421356237308721
10
98.250000000000014
20
-12.025000000000006
10
111.25
20
-12.025000000000016
42
-0.41421356237310414
10
111.75
20
-12.525000000000004
0
LWPOLYLINE
5
107
100
AcDbEntity
8
0
100
AcDbPolyline
90
8
70
1
43
0.0
10
-50.175000000000026
20
-44.575000000000017
42
-0.41421356237310542
10
-50.675000000000026
20
-45.07500000000001
10
-63.675000000000033
20
-45.075000000000017
42
-0.41421356237311585
10
-64.17500000000004
20
-44.575000000000017
10
-64.17500000000004
20
-31.57500000000001
42
-0.41421356237309243
10
-63.675000000000033
20
-31.07500000000001
10
-50.675000000000026
20
-31.07500000000001
42
-0.41421356237310281
10
-50.175000000000018
20
-31.57500000000001
0
LWPOLYLINE
5
108
100
AcDbEntity
8
0
100
AcDbPolyline
90
8
70
1
43
0.0
10
-88.775000000000006
20
-31.07500000000001
10
-101.77500000000002
20
-31.07500000000001
42
0.41421356237310802
10
-102.27500000000003
20
-31.57500000000001
10
-102.27500000000003
20
-44.575000000000017
42
0.41421356237310025
10
-101.77500000000002
20
-45.075000000000017
10
-88.775000000000006
20
-45.07500000000001
42
0.41421356237310542
10
-88.275000000000006
20
-44.575000000000017
10
-88.275000000000006
20
-31.57500000000001
42
0.41421356237309503
0
LWPOLYLINE
5
109
100
AcDbEntity
8
0
100
AcDbPolyline
90
8
70
1
43
0.0
10
83.174999999999983
20
-44.575000000000017
10
83.174999999999983
20
-31.57500000000001
42
0.4142135623730846
10
82.674999999999997
20
-31.07500000000001
10
69.674999999999997
20
-31.07500000000001
42
0.41421356237308721
10
69.175000000000011
20
-31.57500000000001
10
69.175000000000011
20
-44.575000000000017
42
0.41421356237310025
10
69.675000000000011
20
-45.07500000000001
10
82.674999999999997
20
-45.07500000000001
42
0.41421356237310542
0
LWPOLYLINE
5
110
100
AcDbEntity
8
0
100
AcDbPolyline
90
8
70
1
43
0.0
10
26.024999999999988
20
-44.575000000000017
42
-0.41421356237309764
10
25.524999999999984
20
-45.07500000000001
10
12.525000000000013
20
-45.075000000000017
42
-0.41421356237310542
10
12.025000000000006
20
-44.575000000000017
10
12.025000000000013
20
-31.575000000000017
42
-0.41421356237309892
10
12.525000000000013
20
-31.07500000000001
10
25.524999999999984
20
-31.074999999999999
42
-0.41421356237309243
10
26.024999999999991
20
-31.57500000000001
0
LWPOLYLINE
5
111
100
AcDbEntity
8
0
100
AcDbPolyline
90
8
70
1
43
0.0
10
107.77500000000001
20
-45.075000000000003
42
-0.41421356237310542
10
107.27499999999999
20
-44.575000000000017
10
107.27499999999999
20
-31.57500000000001
42
-0.41421356237310802
10
107.77500000000001
20
-31.07500000000001
10
120.77500000000001
20
-31.075000000000017
42
-0.41421356237310802
10
121.27500000000001
20
-31.57500000000001
10
121.27500000000001
20
-44.575000000000017
42
-0.41421356237310542
10
120.77500000000001
20
-45.07500000000001
0
LWPOLYLINE
5
112
100
AcDbEntity
8
0
100
AcDbPolyline
90
8
70
1
43
0.0
10
-26.07500000000001
20
-31.57500000000001
42
-0.41421356237310281
10
-25.57500000000001
20
-31.07500000000001
10
-12.575000000000021
20
-31.075000000000003
42
-0.41421356237309503
10
-12.075000000000014
20
-31.57500000000001
10
-12.075000000000017
20
-44.575000000000017
42
-0.41421356237309764
10
-12.575000000000021
20
-45.07500000000001
10
-25.57500000000001
20
-45.075000000000031
42
-0.41421356237310025
10
-26.075000000000017
20
-44.575000000000017
0
LWPOLYLINE
5
113
100
AcDbEntity
8
0
100
AcDbPolyline
90
8
70
1
43
0.0
10
31.074999999999989
20
-31.57500000000001
42
-0.41421356237310281
10
31.574999999999989
20
-31.07500000000001
10
44.574999999999996
20
-31.07500000000001
42
-0.41421356237310281
10
45.075000000000003
20
-31.57500000000001
10
45.074999999999996
20
-44.575000000000017
42
-0.41421356237310542
10
44.574999999999996
20
-45.07500000000001
10
31.574999999999989
20
-45.075000000000031
42
-0.41421356237310025
10
31.074999999999982
20
-44.575000000000017
0
LWPOLYLINE
5
114
100
AcDbEntity
8
0
100
AcDbPolyline
90
8
70
1
43
0.0
10
79.200000000000003
20
-26.025000000000009
10
92.199999999999989
20
-26.025000000000009
42
0.41421356237311063
10
92.699999999999989
20
-25.525000000000013
10
92.699999999999989
20
-12.525000000000004
42
0.41421356237309764
10
92.199999999999989
20
-12.025000000000006
10
79.200000000000003
20
-12.025000000000006
42
0.41421356237309764
10
78.700000000000017
20
-12.525000000000004
10
78.700000000000003
20
-25.525000000000013
42
0.41421356237309764
0
LWPOLYLINE
5
115
100
AcDbEntity
8
0
100
AcDbPolyline
90
8
70
1
43
0.0
10
63.625000000000007
20
-31.07500000000001
10
50.625
20
-31.07500000000001
42
0.41421356237309243
10
50.124999999999993
20
-31.57500000000001
10
50.124999999999993
20
-44.575000000000017
42
0.41421356237311585
10
50.625
20
-45.075000000000017
10
63.625000000000007
20
-45.07500000000001
42
0.41421356237310542
10
64.125000000000014
20
-44.575000000000017
10
64.125
20
-31.57500000000001
42
0.41421356237309764
0
LWPOLYLINE
5
116
100
AcDbEntity
8
0
100
AcDbPolyline
90
8
70
1
43
0.0
10
6.9749999999999934
20
-44.575000000000017
42
-0.41421356237309764
10
6.4749999999999908
20
-45.07500000000001
10
-6.5249999999999986
20
-45.075000000000017
42
-0.41421356237310281
10
-7.0250000000000057
20
-44.575000000000017
10
-7.0250000000000004
20
-31.57500000000001
42
-0.41421356237309959
10
-6.5249999999999986
20
-31.07500000000001
10
6.4749999999999908
20
-31.074999999999999
42
-0.41421356237309309
10
6.9749999999999979
20
-31.57500000000001
0
LWPOLYLINE
5
117
100
AcDbEntity
8
0
100
AcDbPolyline
90
8
70
1
43
0.0
10
102.22499999999999
20
-44.575000000000017
42
-0.41421356237310542
10
101.72500000000001
20
-45.07500000000001
10
88.724999999999994
20
-45.075000000000017
42
-0.41421356237309503
10
88.225000000000023
20
-44.575000000000017
10
88.225000000000023
20
-31.57500000000001
42
-0.41421356237307683
10
88.725000000000009
20
-31.07500000000001
10
101.72499999999999
20
-31.075000000000003
42
-0.41421356237309503
10
102.22499999999999
20
-31.57500000000001
0
LWPOLYLINE
5
118
100
AcDbEntity
8
0
100
AcDbPolyline
90
8
70
1
43
0.0
10
-103.06250000000003
20
-54.887500000000017
10
-116.06250000000003
20
-54.887500000000017
42
0.41421356237308982
10
-116.56250000000003
20
-55.38750000000001
10
-116.56250000000003
20
-68.387500000000017
42
0.41421356237310025
10
-116.06250000000003
20
-68.887500000000017
10
-103.06250000000003
20
-68.887500000000003
42
0.41421356237310542
10
-102.56250000000001
20
-68.387500000000017
10
-102.56250000000001
20
-55.38750000000001
42
0.41421356237309503
0
LWPOLYLINE
5
119
100
AcDbEntity
8
0
100
AcDbPolyline
90
8
70
1
43
0.0
10
-139.87500000000006
20
-68.887500000000017
10
-126.87500000000003
20
-68.887500000000017
42
0.41421356237310542
10
-126.37500000000003
20
-68.387500000000017
10
-126.37500000000003
20
-55.38750000000001
42
0.41421356237309503
10
-126.87500000000003
20
-54.887500000000017
10
-139.87500000000006
20
-54.887500000000017
42
0.41421356237308982
10
-140.37500000000006
20
-55.38750000000001
10
-140.37500000000006
20
-68.387500000000017
42
0.41421356237310025
0
LWPOLYLINE
5
120
100
AcDbEntity
8
0
100
AcDbPolyline
90
8
70
1
43
0.0
10
-83.512500000000003
20
-68.387500000000017
10
-83.512500000000003
20
-55.38750000000001
42
0.41421356237309503
10
-84.012500000000017
20
-54.887500000000017
10
-97.012500000000017
20
-54.887500000000017
42
0.41421356237308982
10
-97.512500000000017
20
-55.38750000000001
10
-97.512500000000017
20
-68.387500000000017
42
0.41421356237310025
10
-97.012500000000017
20
-68.887500000000017
10
-84.012500000000017
20
-68.887500000000003
42
0.41421356237310542
0
LWPOLYLINE
5
121
100
AcDbEntity
8
0
100
AcDbPolyline
90
8
70
1
43
0.0
10
-78.462500000000006
20
-55.38750000000001
42
-0.41421356237309503
10
-77.962500000000006
20
-54.887500000000017
10
-64.962500000000006
20
-54.887500000000017
42
-0.41421356237311063
10
-64.462499999999991
20
-55.38750000000001
10
-64.462500000000006
20
-68.387500000000017
42
-0.41421356237310542
10
-64.962500000000006
20
-68.887500000000003
10
-77.962500000000006
20
-68.887500000000017
42
-0.41421356237311585
10
-78.462500000000006
20
-68.387500000000017
0
LWPOLYLINE
5
122
100
AcDbEntity
8
0
100
AcDbPolyline
90
8
70
1
43
0.0
10
-21.600000000000001
20
-68.387500000000017
10
-21.600000000000001
20
-55.38750000000001
42
0.41421356237309503
10
-22.100000000000009
20
-54.887500000000003
10
-35.09999999999998
20
-54.887500000000017
42
0.41421356237309503
10
-35.599999999999987
20
-55.38750000000001
10
-35.599999999999987
20
-68.387500000000017
42
0.41421356237310025
10
-35.09999999999998
20
-68.887500000000017
10
-22.100000000000009
20
-68.887500000000003
42
0.41421356237309764
0
LWPOLYLINE
5
123
100
AcDbEntity
8
0
100
AcDbPolyline
90
8
70
1
43
0.0
10
126.82499999999999
20
-68.887500000000017
42
-0.41421356237307422
10
126.32499999999999
20
-68.387500000000017
10
126.32499999999999
20
-55.38750000000001
42
-0.414213562373069
10
126.82499999999999
20
-54.887500000000017
10
139.82500000000002
20
-54.887500000000017
42
-0.41421356237305862
10
140.32500000000002
20
-55.38750000000001
10
140.32499999999999
20
-68.387500000000017
42
-0.41421356237307422
10
139.82499999999999
20
-68.887500000000003
0
LWPOLYLINE
5
124
100
AcDbEntity
8
0
100
AcDbPolyline
90
8
70
1
43
0.0
10
139.82499999999999
20
-31.075000000000017
42
-0.41421356237308721
10
140.32500000000002
20
-31.57500000000001
10
140.32499999999999
20
-44.575000000000017
42
-0.41421356237310542
10
139.82499999999999
20
-45.07500000000001
10
126.82500000000002
20
-45.075000000000017
42
-0.4142135623730846
10
126.32499999999999
20
-44.575000000000017
10
126.325
20
-31.57500000000001
42
-0.41421356237307683
10
126.82499999999999
20
-31.07500000000001
0
LWPOLYLINE
5
125
100
AcDbEntity
8
0
100
AcDbPolyline
90
8
70
1
43
0.0
10
102.51249999999999
20
-55.38750000000001
10
102.51249999999999
20
-68.387500000000017
42
0.41421356237308982
10
103.01249999999999
20
-68.887500000000017
10
116.0125
20
-68.887500000000003
42
0.41421356237310542
10
116.51250000000002
20
-68.387500000000017
10
116.51250000000002
20
-55.38750000000001
42
0.41421356237308982
10
116.0125
20
-54.887500000000017
10
103.01249999999999
20
-54.887500000000017
42
0.41421356237308982
0
LWPOLYLINE
5
126
100
AcDbEntity
8
0
100
AcDbPolyline
90
8
70
1
43
0.0
10
-59.412500000000001
20
-55.38750000000001
10
-59.412500000000001
20
-68.387500000000017
42
0.41421356237311585
10
-58.912499999999994
20
-68.887500000000017
10
-45.912499999999987
20
-68.887500000000003
42
0.41421356237310542
10
-45.41249999999998
20
-68.387500000000017
10
-45.41249999999998
20
-55.38750000000001
42
0.41421356237311063
10
-45.912499999999987
20
-54.887500000000017
10
-58.912499999999994
20
-54.887500000000017
42
0.41421356237309503
0
LWPOLYLINE
5
127
100
AcDbEntity
8
0
100
AcDbPolyline
90
8
70
1
43
0.0
10
-2.5500000000000078
20
-68.387500000000017
10
-2.5500000000000078
20
-55.38750000000001
42
0.41421356237309798
10
-3.0500000000000149
20
-54.887500000000017
10
-16.050000000000004
20
-54.887500000000017
42
0.4142135623730937
10
-16.550000000000011
20
-55.38750000000001
10
-16.550000000000011
20
-68.387500000000017
42
0.41421356237310542
10
-16.050000000000004
20
-68.887500000000017
10
-3.0500000000000149
20
-68.887500000000003
42
0.41421356237309664
0
LWPOLYLINE
5
128
100
AcDbEntity
8
0
100
AcDbPolyline
90
8
70
1
43
0.0
10
64.412499999999994
20
-55.38750000000001
42
-0.41421356237309503
10
64.912499999999994
20
-54.887500000000017
10
77.912499999999994
20
-54.887500000000017
42
-0.41421356237309503
10
78.412499999999994
20
-55.38750000000001
10
78.412499999999994
20
-68.387500000000017
42
-0.41421356237310542
10
77.912499999999994
20
-68.887500000000003
10
64.912500000000009
20
-68.887500000000003
42
-0.41421356237310025
10
64.412499999999994
20
-68.387500000000017
0
LWPOLYLINE
5
129
100
AcDbEntity
8
0
100
AcDbPolyline
90
8
70
1
43
0.0
10
45.862499999999997
20
-68.887500000000017
42
-0.41421356237311585
10
45.36249999999999
20
-68.387500000000017
10
45.362499999999997
20
-55.38750000000001
42
-0.41421356237309503
10
45.862499999999997
20
-54.887500000000017
10
58.862500000000004
20
-54.887500000000017
42
-0.41421356237311063
10
59.362500000000011
20
-55.38750000000001
10
59.362500000000004
20
-68.387500000000017
42
-0.41421356237310542
10
58.862500000000004
20
-68.887500000000003
0
LWPOLYLINE
5
130
100
AcDbEntity
8
0
100
AcDbPolyline
90
8
70
1
43
0.0
10
3.0000000000000071
20
-68.887500000000017
10
15.999999999999996
20
-68.887500000000017
42
0.41421356237309631
10
16.500000000000004
20
-68.387500000000017
10
16.500000000000004
20
-55.38750000000001
42
0.41421356237310025
10
15.999999999999996
20
-54.887500000000003
10
3.0000000000000071
20
-54.887500000000017
42
0.41421356237309404
10
2.5
20
-55.38750000000001
10
2.5
20
-68.387500000000017
42
0.41421356237310314
0
LWPOLYLINE
5
131
100
AcDbEntity
8
0
100
AcDbPolyline
90
8
70
1
43
0.0
10
-44.624999999999986
20
-45.07500000000001
10
-31.625000000000014
20
-45.07500000000001
42
0.41421356237309764
10
-31.125000000000007
20
-44.575000000000017
10
-31.125000000000007
20
-31.57500000000001
42
0.41421356237309243
10
-31.625000000000014
20
-31.07500000000001
10
-44.624999999999986
20
-31.07500000000001
42
0.41421356237309243
10
-45.124999999999993
20
-31.57500000000001
10
-45.124999999999993
20
-44.575000000000017
42
0.41421356237311585
0
LWPOLYLINE
5
132
100
AcDbEntity
8
0
100
AcDbPolyline
90
14
70
1
43
0.0
10
-52.55625000000002
20
31.624999999999996
10
-52.55625000000002
20
44.624999999999986
42
0.41421356237311585
10
-53.056250000000027
20
45.124999999999993
10
-66.056250000000006
20
45.124999999999993
42
0.41421356237311585
10
-66.556250000000006
20
44.624999999999986
10
-66.556250000000006
20
31.624999999999996
42
0.41421356237310025
10
-66.056250000000006
20
31.124999999999989
10
-60.675000000000026
20
31.124999999999989
10
-60.675000000000026
20
30.624999999999982
42
0.41421356237310025
10
-60.175000000000018
20
30.124999999999975
10
-54.175000000000004
20
30.124999999999975
42
0.41421356237310025
10
-53.674999999999997
20
30.624999999999982
10
-53.675000000000033
20
31.124999999999989
10
-53.056250000000027
20
31.124999999999989
42
0.41421356237310025
0
LWPOLYLINE
5
133
100
AcDbEntity
8
0
100
AcDbPolyline
90
8
70
1
43
0.0
10
35.549999999999997
20
-68.387500000000017
10
35.549999999999997
20
-55.38750000000001
42
0.41421356237309503
10
35.04999999999999
20
-54.887500000000003
10
22.050000000000001
20
-54.887500000000017
42
0.41421356237309503
10
21.549999999999994
20
-55.38750000000001
10
21.549999999999994
20
-68.387500000000017
42
0.41421356237310025
10
22.050000000000001
20
-68.887500000000017
10
35.04999999999999
20
-68.887500000000003
42
0.41421356237309764
0
LWPOLYLINE
5
134
100
AcDbEntity
8
0
100
AcDbPolyline
90
8
70
1
43
0.0
10
-73.987499999999983
20
31.624999999999996
42
-0.41421356237310025
10
-74.487500000000011
20
31.124999999999989
10
-89.868750000000006
20
31.124999999999993
42
-0.41421356237309243
10
-90.36875000000002
20
31.624999999999996
10
-90.36875000000002
20
44.624999999999986
42
-0.41421356237310025
10
-89.868750000000006
20
45.124999999999993
10
-74.487500000000011
20
45.124999999999993
42
-0.41421356237311585
10
-73.987499999999997
20
44.624999999999986
0
LWPOLYLINE
5
135
100
AcDbEntity
8
0
100
AcDbPolyline
90
8
70
1
43
0.0
10
-83.512499999999989
20
-6.4750000000000085
42
-0.4142135623731048
10
-84.012500000000017
20
-6.9750000000000068
10
-97.012500000000017
20
-6.9750000000000139
42
-0.4142135623730937
10
-97.512500000000017
20
-6.4750000000000085
10
-97.512500000000045
20
6.5249999999999897
42
-0.4142135623731048
10
-97.012500000000017
20
7.0249999999999879
10
-84.012500000000017
20
7.024999999999995
42
-0.4142135623730937
10
-83.512500000000003
20
6.5249999999999897
0
LWPOLYLINE
5
136
100
AcDbEntity
8
0
100
AcDbPolyline
90
8
70
1
43
0.0
10
96.962499999999991
20
-54.887500000000017
10
83.962499999999977
20
-54.887500000000017
42
0.41421356237305862
10
83.462499999999991
20
-55.38750000000001
10
83.462500000000006
20
-68.387500000000017
42
0.41421356237309503
10
83.962499999999977
20
-68.887500000000017
10
96.962500000000006
20
-68.887500000000003
42
0.41421356237307422
10
97.462500000000006
20
-68.387500000000017
10
97.462500000000006
20
-55.38750000000001
42
0.41421356237311063
0
LWPOLYLINE
5
137
100
AcDbEntity
8
0
100
AcDbPolyline
90
8
70
1
43
0.0
10
-58.912499999999994
20
-6.9750000000000112
42
-0.41421356237310281
10
-59.412500000000001
20
-6.4750000000000085
10
-59.41249999999998
20
6.5249999999999897
42
-0.41421356237309764
10
-58.912499999999994
20
7.0249999999999879
10
-45.912499999999987
20
7.0249999999999924
42
-0.41421356237310281
10
-45.41249999999998
20
6.5249999999999897
10
-45.412499999999994
20
-6.4750000000000085
42
-0.41421356237309764
10
-45.912499999999987
20
-6.9750000000000068
0
LWPOLYLINE
5
138
100
AcDbEntity
8
0
100
AcDbPolyline
90
8
70
1
43
0.0
10
-64.962500000000006
20
7.0249999999999924
42
-0.41421356237310281
10
-64.462499999999991
20
6.5249999999999897
10
-64.462500000000006
20
-6.4750000000000085
42
-0.41421356237309764
10
-64.962500000000006
20
-6.9750000000000068
10
-77.962500000000006
20
-6.9750000000000112
42
-0.41421356237310281
10
-78.462500000000006
20
-6.4750000000000085
10
-78.462499999999991
20
6.5249999999999897
42
-0.41421356237309764
10
-77.962500000000006
20
7.0249999999999879
0
LWPOLYLINE
5
139
100
AcDbEntity
8
0
100
AcDbPolyline
90
8
70
1
43
0.0
10
-106.03074999999998
20
-6.4750000000000085
42
-0.4142135623731048
10
-106.53075000000001
20
-6.9750000000000068
10
-112.53075000000003
20
-6.9750000000000139
42
-0.4142135623730937
10
-113.03075000000004
20
-6.4750000000000085
10
-113.03075000000005
20
7.524999999999995
42
-0.4142135623731048
10
-112.53075000000003
20
8.0249999999999932
10
-106.53075000000001
20
8.0250000000000004
42
-0.4142135623730937
10
-106.03075000000001
20
7.524999999999995
0
LWPOLYLINE
5
140
100
AcDbEntity
8
0
100
AcDbPolyline
90
8
70
1
43
0.0
10
114.91875
20
12.074999999999978
10
127.91875000000002
20
12.074999999999978
42
0.41421356237306511
10
128.41875000000002
20
12.574999999999985
10
128.41874999999999
20
25.574999999999992
42
0.41421356237306384
10
127.91875000000002
20
26.074999999999999
10
114.91875
20
26.074999999999999
42
0.41421356237309243
10
114.41874999999999
20
25.574999999999992
10
114.41874999999999
20
12.574999999999985
42
0.41421356237310414
0
LWPOLYLINE
5
141
100
AcDbEntity
8
0
100
AcDbPolyline
90
8
70
1
43
0.0
10
-129.90675000000005
20
-6.4750000000000085
10
-129.90675000000005
20
7.524999999999995
42
0.4142135623730937
10
-130.40675000000005
20
8.0249999999999932
10
-136.40675000000002
20
8.0249999999999932
42
0.4142135623731048
10
-136.90675000000002
20
7.524999999999995
10
-136.90675000000002
20
-6.4750000000000085
42
0.4142135623730937
10
-136.40675000000002
20
-6.9750000000000156
10
-130.40675000000005
20
-6.9750000000000068
42
0.4142135623731048
0
LWPOLYLINE
5
142
100
AcDbEntity
8
0
100
AcDbPolyline
90
8
70
1
43
0.0
10
-114.96875000000003
20
7.024999999999995
42
-0.4142135623730937
10
-114.46875000000003
20
6.5249999999999897
10
-114.46875
20
-6.4750000000000085
42
-0.4142135623731048
10
-114.96875000000003
20
-6.9750000000000068
10
-127.96875000000003
20
-6.9750000000000139
42
-0.4142135623730937
10
-128.46875000000006
20
-6.4750000000000085
10
-128.46875000000006
20
6.5249999999999897
42
-0.4142135623731048
10
-127.96875000000003
20
7.0249999999999879
0
LWPOLYLINE
5
143
100
AcDbEntity
8
0
100
AcDbPolyline
90
8
70
1
43
0.0
10
68.887499999999989
20
-6.4750000000000085
10
68.887499999999989
20
6.5249999999999897
42
0.41421356237309764
10
68.387499999999989
20
7.0249999999999879
10
55.387499999999989
20
7.0249999999999879
42
0.41421356237309764
10
54.887499999999974
20
6.5249999999999897
10
54.887499999999974
20
-6.4750000000000085
42
0.41421356237310281
10
55.387499999999989
20
-6.9750000000000068
10
68.387499999999989
20
-6.9750000000000068
42
0.41421356237309764
0
LWPOLYLINE
5
144
100
AcDbEntity
8
0
100
AcDbPolyline
90
8
70
1
43
0.0
10
35.837499999999991
20
6.5249999999999897
42
-0.41421356237309631
10
36.337499999999991
20
7.0249999999999879
10
49.337499999999999
20
7.0249999999999924
42
-0.41421356237310281
10
49.837500000000006
20
6.5249999999999897
10
49.837499999999991
20
-6.4750000000000085
42
-0.41421356237309764
10
49.337499999999999
20
-6.9750000000000068
10
36.337499999999991
20
-6.9750000000000165
42
-0.41421356237309048
10
35.837499999999984
20
-6.4750000000000085
0
LWPOLYLINE
5
145
100
AcDbEntity
8
0
100
AcDbPolyline
90
8
70
1
43
0.0
10
30.287499999999987
20
7.0249999999999879
10
17.287499999999998
20
7.0249999999999879
42
0.41421356237309764
10
16.787499999999991
20
6.5249999999999897
10
16.787499999999991
20
-6.4750000000000085
42
0.41421356237309698
10
17.287499999999998
20
-6.9750000000000156
10
30.287499999999987
20
-6.9750000000000068
42
0.41421356237309631
10
30.787499999999994
20
-6.4750000000000085
10
30.787499999999994
20
6.5249999999999897
42
0.41421356237309048
0
LWPOLYLINE
5
146
100
AcDbEntity
8
0
100
AcDbPolyline
90
8
70
1
43
0.0
10
137.94374999999999
20
31.624999999999996
42
-0.41421356237307161
10
137.44374999999999
20
31.124999999999989
10
122.0625
20
31.125
42
-0.41421356237311063
10
121.5625
20
31.624999999999996
10
121.5625
20
44.624999999999986
42
-0.41421356237307944
10
122.06249999999999
20
45.124999999999993
10
137.44375000000002
20
45.124999999999993
42
-0.41421356237306384
10
137.94374999999999
20
44.624999999999986
0
LWPOLYLINE
5
147
100
AcDbEntity
8
0
100
AcDbPolyline
90
11
70
1
43
0.0
10
-132.14425000000006
20
26.574999999999989
10
-132.14425000000003
20
26.074999999999999
10
-139.87500000000006
20
26.074999999999999
42
0.41421356237309243
10
-140.37500000000006
20
25.574999999999992
10
-140.37500000000006
20
12.574999999999985
42
0.41421356237309631
10
-139.87500000000006
20
12.074999999999978
10
-125.64425000000003
20
12.074999999999978
42
0.41421356237309631
10
-125.14425000000003
20
12.574999999999985
10
-125.14425000000003
20
26.574999999999989
42
0.41421356237309243
10
-125.64425000000003
20
27.074999999999996
10
-131.64425000000006
20
27.074999999999996
42
0.41421356237309243
0
LWPOLYLINE
5
148
100
AcDbEntity
8
0
100
AcDbPolyline
90
8
70
1
43
0.0
10
-6.5249999999999986
20
31.124999999999989
10
18.381249999999998
20
31.124999999999989
42
0.41421356237309243
10
18.881250000000005
20
31.624999999999996
10
18.881250000000005
20
44.624999999999986
42
0.41421356237310542
10
18.381249999999998
20
45.124999999999993
10
-6.5249999999999986
20
45.124999999999993
42
0.41421356237310281
10
-7.0250000000000057
20
44.624999999999986
10
-7.0250000000000057
20
31.624999999999996
42
0.41421356237309048
0
LWPOLYLINE
5
149
100
AcDbEntity
8
0
100
AcDbPolyline
90
8
70
1
43
0.0
10
113.63124999999999
20
45.124999999999972
10
98.25
20
45.124999999999993
42
0.414213562373069
10
97.749999999999986
20
44.624999999999986
10
97.750000000000028
20
31.624999999999996
42
0.41421356237308982
10
98.25
20
31.124999999999989
10
113.63124999999999
20
31.124999999999989
42
0.41421356237309243
10
114.13125000000001
20
31.624999999999996
10
114.13125000000001
20
44.624999999999986
42
0.41421356237310542
0
LWPOLYLINE
5
150
100
AcDbEntity
8
0
100
AcDbPolyline
90
8
70
1
43
0.0
10
-35.88750000000001
20
12.574999999999985
10
-35.88750000000001
20
25.574999999999992
42
0.41421356237308982
10
-36.387500000000017
20
26.074999999999999
10
-49.387500000000024
20
26.074999999999999
42
0.41421356237310025
10
-49.887500000000031
20
25.574999999999992
10
-49.887500000000031
20
12.574999999999985
42
0.41421356237310542
10
-49.387500000000024
20
12.074999999999978
10
-36.387500000000017
20
12.074999999999978
42
0.41421356237309243
0
LWPOLYLINE
5
151
100
AcDbEntity
8
0
100
AcDbPolyline
90
8
70
1
43
0.0
10
-41.118750000000013
20
30.124999999999986
42
-0.41421356237310025
10
-41.61875000000002
20
30.624999999999982
10
-41.61875000000002
20
44.624999999999986
42
-0.41421356237311585
10
-41.118750000000013
20
45.124999999999993
10
-35.118749999999999
20
45.125
42
-0.41421356237310025
10
-34.618749999999991
20
44.624999999999986
10
-34.618749999999991
20
30.624999999999982
42
-0.41421356237308982
10
-35.118749999999999
20
30.124999999999975
0
LWPOLYLINE
5
152
100
AcDbEntity
8
0
100
AcDbPolyline
90
14
70
1
43
0.0
10
-123.20625
20
12.074999999999976
42
-0.41421356237309631
10
-123.70625000000001
20
12.574999999999985
10
-123.70625000000001
20
25.574999999999992
42
-0.41421356237309243
10
-123.20625
20
26.074999999999999
10
-108.26824999999999
20
26.074999999999999
10
-108.26824999999999
20
26.574999999999989
42
-0.41421356237309243
10
-107.76824999999999
20
27.074999999999996
10
-101.76825000000001
20
27.074999999999992
42
-0.41421356237309243
10
-101.26824999999999
20
26.574999999999989
10
-101.26824999999999
20
26.074999999999999
10
-100.68125000000002
20
26.074999999999996
42
-0.41421356237309243
10
-100.18125000000001
20
25.574999999999992
10
-100.18125000000001
20
12.574999999999985
42
-0.41421356237309631
10
-100.68125000000002
20
12.074999999999978
0
LWPOLYLINE
5
153
100
AcDbEntity
8
0
100
AcDbPolyline
90
8
70
1
43
0.0
10
-87.987500000000011
20
25.574999999999992
42
-0.41421356237309243
10
-87.487500000000011
20
26.074999999999999
10
-74.487500000000011
20
26.074999999999989
42
-0.41421356237310025
10
-73.987499999999997
20
25.574999999999992
10
-73.987499999999997
20
12.574999999999985
42
-0.41421356237310542
10
-74.487500000000011
20
12.074999999999978
10
-87.487500000000011
20
12.074999999999976
42
-0.41421356237309631
10
-87.987500000000011
20
12.574999999999985
0
LWPOLYLINE
5
154
100
AcDbEntity
8
0
100
AcDbPolyline
90
8
70
1
43
0.0
10
74.437500000000014
20
31.124999999999989
10
89.818749999999994
20
31.124999999999989
42
0.41421356237308204
10
90.318749999999994
20
31.624999999999996
10
90.318749999999994
20
44.624999999999986
42
0.41421356237311585
10
89.818749999999994
20
45.124999999999972
10
74.4375
20
45.124999999999993
42
0.41421356237311063
10
73.9375
20
44.624999999999986
10
73.9375
20
31.624999999999996
42
0.41421356237310025
0
LWPOLYLINE
5
155
100
AcDbEntity
8
0
100
AcDbPolyline
90
8
70
1
43
0.0
10
-16.837499999999999
20
12.574999999999985
42
-0.41421356237310025
10
-17.337500000000006
20
12.074999999999978
10
-30.337500000000013
20
12.074999999999974
42
-0.41421356237309243
10
-30.83750000000002
20
12.574999999999985
10
-30.83750000000002
20
25.574999999999992
42
-0.41421356237308982
10
-30.337500000000013
20
26.074999999999999
10
-17.337500000000006
20
26.074999999999996
42
-0.41421356237309243
10
-16.837499999999999
20
25.574999999999992
0
LWPOLYLINE
5
156
100
AcDbEntity
8
0
100
AcDbPolyline
90
8
70
1
43
0.0
10
-68.4375
20
12.074999999999978
42
-0.41421356237310542
10
-68.9375
20
12.574999999999985
10
-68.937500000000014
20
25.574999999999992
42
-0.41421356237310025
10
-68.4375
20
26.074999999999999
10
-55.437499999999993
20
26.074999999999989
42
-0.41421356237310025
10
-54.937499999999986
20
25.574999999999992
10
-54.937499999999986
20
12.574999999999985
42
-0.41421356237310542
10
-55.437499999999993
20
12.074999999999978
0
LWPOLYLINE
5
157
100
AcDbEntity
8
0
100
AcDbPolyline
90
8
70
1
43
0.0
10
77.912499999999994
20
26.074999999999999
10
64.912500000000009
20
26.074999999999999
42
0.41421356237310025
10
64.412499999999994
20
25.574999999999992
10
64.412499999999994
20
12.574999999999985
42
0.41421356237310025
10
64.912500000000009
20
12.074999999999978
10
77.912499999999994
20
12.074999999999978
42
0.41421356237310542
10
78.412500000000009
20
12.574999999999985
10
78.412499999999994
20
25.574999999999992
42
0.41421356237309764
0
LWPOLYLINE
5
158
100
AcDbEntity
8
0
100
AcDbPolyline
90
8
70
1
43
0.0
10
112.98075
20
12.574999999999985
10
112.98075
20
26.574999999999989
42
0.41421356237310542
10
112.48075
20
27.074999999999996
10
106.48075
20
27.074999999999996
42
0.41421356237307161
10
105.98074999999997
20
26.574999999999989
10
105.98075000000001
20
12.574999999999985
42
0.41421356237307683
10
106.48074999999999
20
12.074999999999978
10
112.48075
20
12.074999999999978
42
0.41421356237309631
0
LWPOLYLINE
5
159
100
AcDbEntity
8
0
100
AcDbPolyline
90
8
70
1
43
0.0
10
97.46250000000002
20
12.574999999999985
42
-0.41421356237307555
10
96.962500000000006
20
12.074999999999978
10
83.962499999999977
20
12.074999999999974
42
-0.41421356237307683
10
83.462500000000006
20
12.574999999999985
10
83.462499999999991
20
25.574999999999992
42
-0.41421356237307161
10
83.962500000000006
20
26.074999999999999
10
96.962499999999991
20
26.074999999999989
42
-0.41421356237311063
10
97.462500000000006
20
25.574999999999992
0
LWPOLYLINE
5
160
100
AcDbEntity
8
0
100
AcDbPolyline
90
8
70
1
43
0.0
10
45.862499999999997
20
12.074999999999978
42
-0.41421356237310542
10
45.36249999999999
20
12.574999999999985
10
45.362499999999983
20
25.574999999999992
42
-0.41421356237310025
10
45.862499999999997
20
26.074999999999999
10
58.862500000000004
20
26.074999999999989
42
-0.41421356237310025
10
59.362500000000011
20
25.574999999999992
10
59.362500000000011
20
12.574999999999985
42
-0.41421356237310542
10
58.862500000000004
20
12.074999999999978
0
LWPOLYLINE
5
161
100
AcDbEntity
8
0
100
AcDbPolyline
90
8
70
1
43
0.0
10
2.2125000000000128
20
12.574999999999985
10
2.2125000000000128
20
25.574999999999992
42
0.41421356237309098
10
1.7125000000000057
20
26.074999999999999
10
-11.287500000000001
20
26.074999999999999
42
0.41421356237309243
10
-11.787500000000009
20
25.574999999999992
10
-11.787500000000009
20
12.574999999999985
42
0.41421356237310025
10
-11.287500000000001
20
12.074999999999978
10
1.7125000000000057
20
12.074999999999978
42
0.41421356237309698
0
LWPOLYLINE
5
162
100
AcDbEntity
8
0
100
AcDbPolyline
90
8
70
1
43
0.0
10
40.3125
20
12.574999999999985
42
-0.41421356237310153
10
39.812499999999993
20
12.074999999999978
10
26.812500000000004
20
12.074999999999974
42
-0.41421356237309243
10
26.312499999999996
20
12.574999999999985
10
26.312499999999996
20
25.574999999999992
42
-0.41421356237308982
10
26.812500000000004
20
26.074999999999999
10
39.812499999999993
20
26.074999999999996
42
-0.41421356237309764
10
40.3125
20
25.574999999999992
0
LWPOLYLINE
5
163
100
AcDbEntity
8
0
100
AcDbPolyline
90
8
70
1
43
0.0
10
20.762499999999982
20
26.074999999999999
42
-0.41421356237308982
10
21.262499999999989
20
25.574999999999992
10
21.262499999999985
20
12.574999999999985
42
-0.41421356237309243
10
20.762499999999982
20
12.074999999999978
10
7.7624999999999922
20
12.074999999999978
42
-0.41421356237309698
10
7.2624999999999851
20
12.574999999999985
10
7.2624999999999842
20
25.574999999999992
42
-0.41421356237309048
10
7.7624999999999922
20
26.074999999999999
0
LWPOLYLINE
5
164
100
AcDbEntity
8
0
100
AcDbPolyline
90
8
70
1
43
0.0
10
-122.1125
20
45.125
42
-0.41421356237310025
10
-121.61249999999998
20
44.624999999999986
10
-121.61249999999998
20
31.624999999999996
42
-0.41421356237309243
10
-122.1125
20
31.124999999999989
10
-137.49375000000001
20
31.124999999999993
42
-0.41421356237309243
10
-137.99375000000001
20
31.624999999999996
10
-137.99375000000001
20
44.624999999999986
42
-0.41421356237310025
10
-137.49375000000001
20
45.124999999999993
0
LWPOLYLINE
5
165
100
AcDbEntity
8
0
100
AcDbPolyline
90
8
70
1
43
0.0
10
130.35675000000001
20
12.074999999999978
10
136.35674999999998
20
12.074999999999978
42
0.41421356237308593
10
136.85675000000001
20
12.574999999999985
10
136.85675000000001
20
26.574999999999989
42
0.4142135623730846
10
136.35674999999998
20
27.074999999999996
10
130.35675000000001
20
27.074999999999996
42
0.41421356237307161
10
129.85675000000001
20
26.574999999999989
10
129.85674999999998
20
12.574999999999985
42
0.41421356237308593
0
LWPOLYLINE
5
166
100
AcDbEntity
8
0
100
AcDbPolyline
90
8
70
1
43
0.0
10
-98.300000000000011
20
45.124999999999993
10
-113.68125000000003
20
45.124999999999993
42
0.41421356237310025
10
-114.18125000000003
20
44.624999999999986
10
-114.18125000000003
20
31.624999999999996
42
0.41421356237309243
10
-113.68125000000003
20
31.124999999999989
10
-98.300000000000011
20
31.124999999999989
42
0.41421356237309243
10
-97.800000000000011
20
31.624999999999996
10
-97.800000000000011
20
44.624999999999986
42
0.41421356237310025
0
LWPOLYLINE
5
167
100
AcDbEntity
8
0
100
AcDbPolyline
90
8
70
1
43
0.0
10
65.381250000000009
20
30.624999999999982
10
65.381250000000009
20
44.624999999999986
42
0.41421356237310542
10
64.881249999999994
20
45.124999999999972
10
54.125
20
45.124999999999993
42
0.41421356237311585
10
53.624999999999986
20
44.624999999999986
10
53.624999999999986
20
30.624999999999982
42
0.41421356237310025
10
54.125
20
30.124999999999975
10
64.881249999999994
20
30.124999999999975
42
0.41421356237310025
0
LWPOLYLINE
5
168
100
AcDbEntity
8
0
100
AcDbPolyline
90
8
70
1
43
0.0
10
73.9375
20
6.5249999999999897
10
73.9375
20
-6.4750000000000085
42
0.41421356237310025
10
74.437500000000014
20
-6.9750000000000068
10
87.4375
20
-6.9750000000000068
42
0.41421356237309892
10
87.9375
20
-6.4750000000000085
10
87.9375
20
6.5249999999999897
42
0.41421356237310936
10
87.437499999999986
20
7.0249999999999879
10
74.4375
20
7.0249999999999879
42
0.41421356237309503
0
LWPOLYLINE
5
169
100
AcDbEntity
8
0
100
AcDbPolyline
90
8
70
1
43
0.0
10
-21.312500000000014
20
6.5249999999999897
10
-21.312500000000014
20
-6.4750000000000085
42
0.41421356237309048
10
-20.812500000000007
20
-6.9750000000000068
10
-7.8125
20
-6.9750000000000068
42
0.41421356237309764
10
-7.3124999999999929
20
-6.4750000000000085
10
-7.3124999999999929
20
6.5249999999999897
42
0.4142135623730937
10
-7.8125
20
7.0249999999999879
10
-20.812500000000007
20
7.0249999999999879
42
0.41421356237309631
0
LWPOLYLINE
5
170
100
AcDbEntity
8
0
100
AcDbPolyline
90
8
70
1
43
0.0
10
119.18125000000001
20
6.5249999999999897
10
119.18125000000001
20
-6.4750000000000085
42
0.4142135623731048
10
119.68125000000001
20
-6.9750000000000068
10
137.44374999999999
20
-6.9750000000000068
42
0.41421356237309892
10
137.94374999999999
20
-6.4750000000000085
10
137.94374999999999
20
6.5249999999999897
42
0.41421356237306384
10
137.44375000000002
20
7.0249999999999879
10
119.68125000000001
20
7.0249999999999879
42
0.4142135623731048
0
LWPOLYLINE
5
171
100
AcDbEntity
8
0
100
AcDbPolyline
90
8
70
1
43
0.0
10
-2.2625000000000206
20
6.5249999999999897
10
-2.2625000000000206
20
-6.4750000000000085
42
0.41421356237309404
10
-1.7625000000000135
20
-6.9750000000000156
10
11.237499999999976
20
-6.9750000000000068
42
0.41421356237309764
10
11.737499999999983
20
-6.4750000000000085
10
11.737499999999983
20
6.5249999999999897
42
0.41421356237309698
10
11.237499999999976
20
7.0249999999999879
10
-1.7625000000000135
20
7.0249999999999879
42
0.4142135623730962
0
LWPOLYLINE
5
172
100
AcDbEntity
8
0
100
AcDbPolyline
90
8
70
1
43
0.0
10
-59.700000000000045
20
-25.525000000000013
42
-0.41421356237309764
10
-60.200000000000031
20
-26.025000000000009
10
-73.200000000000045
20
-26.025000000000009
42
-0.41421356237310025
10
-73.700000000000045
20
-25.525000000000013
10
-73.700000000000031
20
-12.525000000000004
42
-0.41421356237309764
10
-73.200000000000045
20
-12.025000000000006
10
-60.200000000000031
20
-12.024999999999997
42
-0.41421356237310542
10
-59.700000000000024
20
-12.525000000000004
0
LWPOLYLINE
5
173
100
AcDbEntity
8
0
100
AcDbPolyline
90
8
70
1
43
0.0
10
35.549999999999997
20
-25.525000000000013
10
35.549999999999997
20
-12.525000000000004
42
0.41421356237309243
10
35.04999999999999
20
-12.024999999999997
10
22.050000000000001
20
-12.025000000000006
42
0.41421356237309631
10
21.549999999999994
20
-12.525000000000004
10
21.549999999999994
20
-25.525000000000013
42
0.41421356237308982
10
22.050000000000001
20
-26.02500000000002
10
35.04999999999999
20
-26.025000000000009
42
0.41421356237309503
0
LWPOLYLINE
5
174
100
AcDbEntity
8
0
100
AcDbPolyline
90
8
70
1
43
0.0
10
59.649999999999977
20
-12.525000000000004
10
59.649999999999977
20
-25.525000000000013
42
0.41421356237310025
10
60.149999999999991
20
-26.025000000000009
10
73.149999999999991
20
-26.025000000000009
42
0.41421356237309764
10
73.649999999999977
20
-25.525000000000013
10
73.649999999999991
20
-12.525000000000004
42
0.41421356237309764
10
73.149999999999991
20
-12.025000000000006
10
60.149999999999991
20
-12.025000000000006
42
0.41421356237309764
0
LWPOLYLINE
5
175
100
AcDbEntity
8
0
100
AcDbPolyline
90
8
70
1
43
0.0
10
135.0625
20
-12.024999999999995
42
-0.41421356237307555
10
135.5625
20
-12.525000000000004
10
135.5625
20
-25.525000000000013
42
-0.41421356237310025
10
135.0625
20
-26.025000000000009
10
122.0625
20
-26.025000000000009
42
-0.41421356237311063
10
121.5625
20
-25.525000000000013
10
121.56250000000001
20
-12.525000000000004
42
-0.41421356237308721
10
122.06249999999999
20
-12.025000000000006
0
LWPOLYLINE
5
176
100
AcDbEntity
8
0
100
AcDbPolyline
90
8
70
1
43
0.0
10
-92.750000000000043
20
-12.525000000000004
42
-0.41421356237310414
10
-92.250000000000014
20
-12.025000000000006
10
-79.25
20
-12.024999999999997
42
-0.41421356237310542
10
-78.75
20
-12.525000000000004
10
-78.750000000000014
20
-25.525000000000013
42
-0.41421356237309764
10
-79.25
20
-26.025000000000009
10
-92.250000000000014
20
-26.025000000000013
42
-0.41421356237309243
10
-92.750000000000028
20
-25.525000000000013
0
LWPOLYLINE
5
177
100
AcDbEntity
8
0
100
AcDbPolyline
90
8
70
1
43
0.0
10
-111.80000000000004
20
-12.525000000000004
10
-111.80000000000004
20
-25.525000000000013
42
0.41421356237309243
10
-111.30000000000003
20
-26.025000000000009
10
-98.300000000000011
20
-26.025000000000009
42
0.41421356237310542
10
-97.800000000000011
20
-25.525000000000013
10
-97.800000000000011
20
-12.525000000000004
42
0.41421356237309631
10
-98.300000000000011
20
-12.025000000000006
10
-111.30000000000003
20
-12.025000000000006
42
0.41421356237310414
0
LWPOLYLINE
5
178
100
AcDbEntity
8
0
100
AcDbPolyline
90
20
70
1
43
0.0
10
-139.87500000000006
20
-45.075000000000031
42
-0.41421356237310025
10
-140.37500000000006
20
-44.575000000000017
10
-140.37500000000006
20
-31.57500000000001
42
-0.41421356237310802
10
-139.87500000000006
20
-31.07500000000001
10
-139.28799999999998
20
-31.07500000000001
10
-139.28799999999998
20
-30.57500000000001
42
-0.41421356237310542
10
-138.78799999999998
20
-30.07500000000001
10
-132.78800000000001
20
-30.075000000000006
42
-0.41421356237309243
10
-132.28800000000001
20
-30.57500000000001
10
-132.28800000000001
20
-31.07500000000001
10
-115.41200000000003
20
-31.07500000000001
10
-115.41200000000003
20
-30.57500000000001
42
-0.41421356237310542
10
-114.91200000000003
20
-30.07500000000001
10
-108.91200000000001
20
-30.075000000000006
42
-0.41421356237309243
10
-108.41200000000001
20
-30.57500000000001
10
-108.41200000000001
20
-31.07500000000001
10
-107.82500000000002
20
-31.075000000000003
42
-0.41421356237309503
10
-107.32500000000002
20
-31.57500000000001
10
-107.32500000000002
20
-44.575000000000017
42
-0.41421356237310542
10
-107.82500000000002
20
-45.07500000000001
0
LWPOLYLINE
5
179
100
AcDbEntity
8
0
100
AcDbPolyline
90
8
70
1
43
0.0
10
106.98750000000001
20
-6.4750000000000085
10
106.98750000000001
20
6.5249999999999897
42
0.4142135623731048
10
106.4875
20
7.0249999999999879
10
93.487500000000011
20
7.0249999999999879
42
0.41421356237309892
10
92.987499999999983
20
6.5249999999999897
10
92.987500000000011
20
-6.4750000000000085
42
0.41421356237308854
10
93.487499999999983
20
-6.9750000000000068
10
106.4875
20
-6.9750000000000068
42
0.4142135623731048
0
LWPOLYLINE
5
180
100
AcDbEntity
8
0
100
AcDbPolyline
90
8
70
1
43
0.0
10
-35.09999999999998
20
-26.025000000000009
10
-22.100000000000009
20
-26.025000000000009
42
0.41421356237309503
10
-21.600000000000001
20
-25.525000000000013
10
-21.600000000000001
20
-12.525000000000004
42
0.41421356237309243
10
-22.100000000000009
20
-12.025000000000006
10
-35.09999999999998
20
-12.025000000000006
42
0.41421356237309631
10
-35.599999999999987
20
-12.525000000000004
10
-35.599999999999987
20
-25.525000000000013
42
0.41421356237308982
0
LWPOLYLINE
5
181
100
AcDbEntity
8
0
100
AcDbPolyline
90
8
70
1
43
0.0
10
-40.362500000000018
20
6.5249999999999897
42
-0.41421356237310025
10
-39.862500000000018
20
7.0249999999999879
10
-26.862500000000011
20
7.0249999999999977
42
-0.41421356237309048
10
-26.362500000000004
20
6.5249999999999897
10
-26.362500000000011
20
-6.4750000000000085
42
-0.41421356237309631
10
-26.862500000000011
20
-6.9750000000000068
10
-39.862500000000018
20
-6.9750000000000112
42
-0.41421356237310281
10
-40.362500000000026
20
-6.4750000000000085
0
LWPOLYLINE
5
182
100
AcDbEntity
8
0
100
AcDbPolyline
90
8
70
1
43
0.0
10
-54.150000000000027
20
-26.025000000000009
42
-0.41421356237310025
10
-54.650000000000034
20
-25.525000000000013
10
-54.65000000000002
20
-12.525000000000004
42
-0.41421356237309764
10
-54.150000000000027
20
-12.025000000000006
10
-41.15000000000002
20
-12.024999999999997
42
-0.41421356237310542
10
-40.650000000000013
20
-12.525000000000004
10
-40.650000000000034
20
-25.525000000000013
42
-0.41421356237309764
10
-41.15000000000002
20
-26.025000000000009
0
LWPOLYLINE
5
183
100
AcDbEntity
8
0
100
AcDbPolyline
90
8
70
1
43
0.0
10
-121.61249999999998
20
-25.525000000000013
10
-121.61249999999998
20
-12.525000000000004
42
0.41421356237309631
10
-122.1125
20
-12.025000000000006
10
-135.11250000000001
20
-12.025000000000006
42
0.41421356237310414
10
-135.61250000000001
20
-12.525000000000004
10
-135.61250000000001
20
-25.525000000000013
42
0.41421356237309243
10
-135.11250000000001
20
-26.025000000000009
10
-122.1125
20
-26.025000000000009
42
0.41421356237310542
0
LWPOLYLINE
5
184
100
AcDbEntity
8
0
100
AcDbPolyline
90
8
70
1
43
0.0
10
3.0000000000000071
20
-26.025000000000009
10
15.999999999999996
20
-26.025000000000009
42
0.41421356237309631
10
16.499999999999986
20
-25.525000000000013
10
16.500000000000004
20
-12.525000000000004
42
0.41421356237310025
10
15.999999999999996
20
-12.024999999999997
10
3.0000000000000071
20
-12.025000000000006
42
0.4142135623730957
10
2.5
20
-12.525000000000004
10
2.5
20
-25.525000000000013
42
0.41421356237309115
0
LWPOLYLINE
5
185
100
AcDbEntity
8
0
100
AcDbPolyline
90
8
70
1
43
0.0
10
-3.0500000000000149
20
-12.025000000000006
10
-16.050000000000004
20
-12.025000000000006
42
0.41421356237309764
10
-16.550000000000011
20
-12.525000000000004
10
-16.550000000000011
20
-25.525000000000013
42
0.41421356237309243
10
-16.050000000000004
20
-26.02500000000002
10
-3.0500000000000149
20
-26.025000000000009
42
0.4142135623730957
10
-2.5500000000000078
20
-25.525000000000013
10
-2.5500000000000078
20
-12.525000000000004
42
0.41421356237309698
0
LWPOLYLINE
5
186
100
AcDbEntity
8
0
100
AcDbPolyline
90
8
70
1
43
0.0
10
40.600000000000009
20
-12.525000000000004
42
-0.41421356237309764
10
41.099999999999994
20
-12.025000000000006
10
54.100000000000001
20
-12.024999999999997
42
-0.41421356237310542
10
54.600000000000009
20
-12.525000000000004
10
54.599999999999994
20
-25.525000000000013
42
-0.41421356237309764
10
54.100000000000001
20
-26.025000000000009
10
41.099999999999994
20
-26.025000000000009
42
-0.41421356237310025
10
40.599999999999987
20
-25.525000000000013
0
ENDSEC
0
SECTION
2
OBJECTS
0
DICTIONARY
5
C
100
AcDbDictionary
3
ACAD_GROUP
350
D
3
ACAD_MLINESTYLE
350
17
0
DICTIONARY
5
D
100
AcDbDictionary
0
DICTIONARY
5
1A
330
C
100
AcDbDictionary
0
DICTIONARY
5
17
100
AcDbDictionary
0
ENDSEC
0
EOF
