M48
; DRILL file {KiCad (5.1.4)-1} date 11/15/21 23:14:36
; FORMAT={-:-/ absolute / inch / decimal}
; #@! TF.CreationDate,2021-11-15T23:14:36+08:00
; #@! TF.GenerationSoftware,Kicad,Pcbnew,(5.1.4)-1
; #@! TF.FileFunction,Plated,1,2,PTH
FMAT,2
INCH
T1C0.0157
T2C0.0866
%
G90
G05
T1
X10.4153Y-1.5989
X10.4343Y-1.553
X10.4343Y-1.6448
X10.4803Y-1.5339
X10.4803Y-1.6638
X10.5262Y-1.553
X10.5262Y-1.6448
X10.5452Y-1.5989
X0.8528Y-1.5989
X0.8718Y-1.553
X0.8718Y-1.6448
X0.9178Y-1.5339
X0.9178Y-1.6638
X0.9637Y-1.553
X0.9637Y-1.6448
X0.9827Y-1.5989
X7.2278Y-1.5989
X7.2468Y-1.553
X7.2468Y-1.6448
X7.2928Y-1.5339
X7.2928Y-1.6638
X7.3387Y-1.553
X7.3387Y-1.6448
X7.3577Y-1.5989
X4.0403Y-1.5989
X4.0593Y-1.553
X4.0593Y-1.6448
X4.1053Y-1.5339
X4.1053Y-1.6638
X4.1512Y-1.553
X4.1512Y-1.6448
X4.1702Y-1.5989
T2
X10.4803Y-1.5989
X0.9178Y-1.5989
X7.2928Y-1.5989
X4.1053Y-1.5989
T0
M30
