M48
; DRILL file {KiCad (5.1.4)-1} date 30/10/2021 11:29:12 pm
; FORMAT={-:-/ absolute / inch / decimal}
; #@! TF.CreationDate,2021-10-30T23:29:12+08:00
; #@! TF.GenerationSoftware,Kicad,Pcbnew,(5.1.4)-1
; #@! TF.FileFunction,Plated,1,2,PTH
FMAT,2
INCH
T1C0.0157
T2C0.0394
T3C0.0579
%
G90
G05
T1
X0.0493Y-0.4107
X0.25Y0.8438
X0.2875Y-1.0556
X0.316Y-0.9062
X0.3214Y-1.1124
X0.3591Y-1.027
X0.4065Y-1.0238
X0.4394Y-0.8776
X0.4504Y-1.0274
X0.5356Y-0.0962
X0.5454Y-0.9087
X0.547Y-0.849
X0.5693Y-0.1976
X0.5861Y-3.0962
X0.615Y-2.3461
X0.6185Y-0.1976
X0.6438Y-0.8388
X0.6677Y-0.1976
X0.6791Y-1.6122
X0.7852Y-1.7705
X0.8016Y-0.8384
X0.8525Y-0.5611
X0.8709Y-1.5457
X0.8824Y-1.7965
X0.9017Y-0.5611
X0.9448Y-1.5581
X0.9509Y-0.5611
X0.9941Y-0.8055
X1.0978Y-1.5587
X1.133Y-0.9
X1.2297Y-0.4299
X1.2554Y-0.9472
X1.321Y-0.1976
X1.5828Y-0.9149
X10.6553Y-1.6556
T2
X-0.15Y-0.2649
X-0.15Y-0.3649
X-0.15Y-0.4649
X-0.05Y-0.2649
X-0.05Y-0.3649
X-0.05Y-0.4649
T3
X10.2562Y-2.9
X10.5062Y-2.8
X6.225Y-0.65
X6.475Y-0.55
X0.6Y0.1
X0.85Y0.2
X3.975Y1.0375
X4.225Y1.1375
X0.0375Y-2.9
X0.2875Y-2.8
X7.1625Y-1.4
X7.4125Y-1.3
X4.35Y0.1
X4.6Y0.2
X2.85Y0.1
X3.1Y0.2
X5.1Y-2.9
X5.35Y-2.8
X6.4125Y-1.4
X6.6625Y-1.3
X3.6Y0.1
X3.85Y0.2
X10.1625Y-0.65
X10.4125Y-0.55
X9.975Y0.1
X10.225Y0.2
X6.225Y1.0375
X6.475Y1.1375
X8.6625Y1.0375
X8.9125Y1.1375
X-0.15Y1.0375
X0.1Y1.1375
X1.8187Y-2.9
X2.0688Y-2.8
X-0.0563Y-1.4
X0.1938Y-1.3
X4.725Y1.0375
X4.975Y1.1375
X0.7875Y1.0375
X1.0375Y1.1375
X6.7875Y-2.15
X7.0375Y-2.05
X7.725Y-0.65
X7.975Y-0.55
X4.5375Y-2.15
X4.7875Y-2.05
X8.2875Y-2.15
X8.5375Y-2.05
X8.3812Y-2.9
X8.6312Y-2.8
X9.6Y0.1
X9.85Y0.2
X1.5375Y-2.15
X1.7875Y-2.05
X1.9125Y-2.9
X2.1625Y-2.8
X1.1625Y-1.4
X1.4125Y-1.3
X6.6Y0.1
X6.85Y0.2
X8.6625Y-1.4
X8.9125Y-1.3
X7.5375Y-2.15
X7.7875Y-2.05
X4.1625Y-1.4
X4.4125Y-1.3
X5.1Y0.1
X5.35Y0.2
X0.975Y-2.9
X1.225Y-2.8
X2.6625Y-1.4
X2.9125Y-1.3
X1.5375Y1.0375
X1.7875Y1.1375
X5.6625Y-1.4
X5.9125Y-1.3
X4.9125Y-1.4
X5.1625Y-1.3
X10.35Y0.1
X10.6Y0.2
X8.2875Y-2.9
X8.5375Y-2.8
X10.1625Y-2.9
X10.4125Y-2.8
X-0.0563Y-2.9
X0.1938Y-2.8
X7.9125Y-1.4
X8.1625Y-1.3
X7.35Y0.1
X7.6Y0.2
X5.475Y1.0375
X5.725Y1.1375
X2.2875Y1.0375
X2.5375Y1.1375
X0.8812Y-2.9
X1.1312Y-2.8
X4.725Y-0.65
X4.975Y-0.55
X10.35Y1.0375
X10.6Y1.1375
X6.0375Y-2.15
X6.2875Y-2.05
X4.6312Y-2.9
X4.8812Y-2.8
X1.725Y-0.65
X1.975Y-0.55
X3.7875Y-2.15
X4.0375Y-2.05
X9.3187Y-2.9
X9.5687Y-2.8
X2.475Y-0.65
X2.725Y-0.55
X7.9125Y1.0375
X8.1625Y1.1375
X0.3187Y-2.15
X0.5687Y-2.05
X9.225Y-2.9
X9.475Y-2.8
X0.1313Y-1.4
X0.3812Y-1.3
X-0.15Y0.1
X0.1Y0.2
X3.0375Y1.0375
X3.2875Y1.1375
X5.475Y-0.65
X5.725Y-0.55
X1.35Y0.1
X1.6Y0.2
X9.225Y-0.65
X9.475Y-0.55
X5.85Y0.1
X6.1Y0.2
X8.85Y0.1
X9.1Y0.2
X1.9125Y-1.4
X2.1625Y-1.3
X3.4125Y-1.4
X3.6625Y-1.3
X0.0375Y-0.65
X0.2875Y-0.55
X7.4437Y-2.9
X7.6937Y-2.8
X2.2875Y-2.15
X2.5375Y-2.05
X8.475Y-0.65
X8.725Y-0.55
X2.1Y0.1
X2.35Y0.2
X7.1625Y1.0375
X7.4125Y1.1375
X9.3187Y-2.15
X9.5687Y-2.05
X3.225Y-0.65
X3.475Y-0.55
X0.975Y-0.65
X1.225Y-0.55
X5.2875Y-2.15
X5.5375Y-2.05
X3.975Y-0.65
X4.225Y-0.55
X10.35Y-2.15
X10.6Y-2.05
X9.6937Y-2.15
X9.9437Y-2.05
X3.0375Y-2.15
X3.2875Y-2.05
X8.1Y0.1
X8.35Y0.2
X9.4125Y1.0375
X9.6625Y1.1375
X6.975Y-0.65
X7.225Y-0.55
X9.8812Y-1.4
X10.1312Y-1.3
T0
M30
