M48
; DRILL file {KiCad (5.1.4)-1} date 30/10/2021 11:29:12 pm
; FORMAT={-:-/ absolute / inch / decimal}
; #@! TF.CreationDate,2021-10-30T23:29:12+08:00
; #@! TF.GenerationSoftware,Kicad,Pcbnew,(5.1.4)-1
; #@! TF.FileFunction,NonPlated,1,2,NPTH
FMAT,2
INCH
T1C0.0689
T2C0.1200
T3C0.1570
%
G90
G05
T1
X10.2062Y-3.0
X10.6062Y-3.0
X6.175Y-0.75
X6.575Y-0.75
X0.55Y0.0
X0.95Y0.0
X3.925Y0.9375
X4.325Y0.9375
X-0.0125Y-3.0
X0.3875Y-3.0
X7.1125Y-1.5
X7.5125Y-1.5
X4.3Y0.0
X4.7Y0.0
X2.8Y0.0
X3.2Y0.0
X5.05Y-3.0
X5.45Y-3.0
X6.3625Y-1.5
X6.7625Y-1.5
X3.55Y0.0
X3.95Y0.0
X10.1125Y-0.75
X10.5125Y-0.75
X9.925Y0.0
X10.325Y0.0
X6.175Y0.9375
X6.575Y0.9375
X8.6125Y0.9375
X9.0125Y0.9375
X-0.2Y0.9375
X0.2Y0.9375
X1.7688Y-3.0
X2.1687Y-3.0
X-0.1062Y-1.5
X0.2938Y-1.5
X4.675Y0.9375
X5.075Y0.9375
X0.7375Y0.9375
X1.1375Y0.9375
X6.7375Y-2.25
X7.1375Y-2.25
X7.675Y-0.75
X8.075Y-0.75
X4.4875Y-2.25
X4.8875Y-2.25
X8.2375Y-2.25
X8.6375Y-2.25
X8.3312Y-3.0
X8.7312Y-3.0
X9.55Y0.0
X9.95Y0.0
X1.4875Y-2.25
X1.8875Y-2.25
X1.8625Y-3.0
X2.2625Y-3.0
X1.1125Y-1.5
X1.5125Y-1.5
X6.55Y0.0
X6.95Y0.0
X8.6125Y-1.5
X9.0125Y-1.5
X7.4875Y-2.25
X7.8875Y-2.25
X4.1125Y-1.5
X4.5125Y-1.5
X5.05Y0.0
X5.45Y0.0
X0.925Y-3.0
X1.325Y-3.0
X2.6125Y-1.5
X3.0125Y-1.5
X1.4875Y0.9375
X1.8875Y0.9375
X5.6125Y-1.5
X6.0125Y-1.5
X4.8625Y-1.5
X5.2625Y-1.5
X10.3Y0.0
X10.7Y0.0
X8.2375Y-3.0
X8.6375Y-3.0
X10.1125Y-3.0
X10.5125Y-3.0
X-0.1062Y-3.0
X0.2938Y-3.0
X7.8625Y-1.5
X8.2625Y-1.5
X7.3Y0.0
X7.7Y0.0
X5.425Y0.9375
X5.825Y0.9375
X2.2375Y0.9375
X2.6375Y0.9375
X0.8312Y-3.0
X1.2312Y-3.0
X4.675Y-0.75
X5.075Y-0.75
X10.3Y0.9375
X10.7Y0.9375
X5.9875Y-2.25
X6.3875Y-2.25
X4.5812Y-3.0
X4.9813Y-3.0
X1.675Y-0.75
X2.075Y-0.75
X3.7375Y-2.25
X4.1375Y-2.25
X9.2687Y-3.0
X9.6687Y-3.0
X2.425Y-0.75
X2.825Y-0.75
X7.8625Y0.9375
X8.2625Y0.9375
X0.2687Y-2.25
X0.6687Y-2.25
X9.175Y-3.0
X9.575Y-3.0
X0.0813Y-1.5
X0.4813Y-1.5
X-0.2Y0.0
X0.2Y0.0
X2.9875Y0.9375
X3.3875Y0.9375
X5.425Y-0.75
X5.825Y-0.75
X1.3Y0.0
X1.7Y0.0
X9.175Y-0.75
X9.575Y-0.75
X5.8Y0.0
X6.2Y0.0
X8.8Y0.0
X9.2Y0.0
X1.8625Y-1.5
X2.2625Y-1.5
X3.3625Y-1.5
X3.7625Y-1.5
X-0.0125Y-0.75
X0.3875Y-0.75
X7.3937Y-3.0
X7.7938Y-3.0
X2.2375Y-2.25
X2.6375Y-2.25
X8.425Y-0.75
X8.825Y-0.75
X2.05Y0.0
X2.45Y0.0
X7.1125Y0.9375
X7.5125Y0.9375
X9.2687Y-2.25
X9.6687Y-2.25
X3.175Y-0.75
X3.575Y-0.75
X0.925Y-0.75
X1.325Y-0.75
X5.2375Y-2.25
X5.6375Y-2.25
X3.925Y-0.75
X4.325Y-0.75
X10.3Y-2.25
X10.7Y-2.25
X9.6437Y-2.25
X10.0437Y-2.25
X2.9875Y-2.25
X3.3875Y-2.25
X8.05Y0.0
X8.45Y0.0
X9.3625Y0.9375
X9.7625Y0.9375
X6.925Y-0.75
X7.325Y-0.75
X9.8312Y-1.5
X10.2312Y-1.5
T2
X2.8127Y-3.275
X6.7497Y-3.275
X0.0Y-1.975
X0.9375Y-1.975
X9.375Y-1.975
X10.3125Y-1.975
X9.5625Y-1.225
X10.5Y-1.225
X3.0Y-3.275
X7.5Y-3.275
X9.6562Y0.275
X10.5938Y0.275
T3
X4.875Y0.9375
X0.9375Y0.9375
X6.9375Y-2.25
X7.875Y-0.75
X4.6875Y-2.25
X8.4375Y-2.25
X8.5312Y-3.0
X9.75Y0.0
X1.6875Y-2.25
X2.0625Y-3.0
X1.3125Y-1.5
X6.75Y0.0
X8.8125Y-1.5
X7.6875Y-2.25
X4.3125Y-1.5
X5.25Y0.0
X1.125Y-3.0
X2.8125Y-1.5
X1.6875Y0.9375
X5.8125Y-1.5
X5.0625Y-1.5
X10.5Y0.0
X8.4375Y-3.0
X10.3125Y-3.0
X0.0938Y-3.0
X8.0625Y-1.5
X7.5Y0.0
X5.625Y0.9375
X2.4375Y0.9375
X1.0312Y-3.0
X4.875Y-0.75
X10.5Y0.9375
X6.1875Y-2.25
X2.8127Y-2.675
X4.7812Y-3.0
X6.7497Y-2.675
X1.875Y-0.75
X3.9375Y-2.25
X9.4688Y-3.0
X2.625Y-0.75
X8.0625Y0.9375
X0.0Y-2.575
X0.4688Y-2.25
X0.9375Y-2.575
X9.375Y-3.0
X0.2812Y-1.5
X0.0Y0.0
X3.1875Y0.9375
X5.625Y-0.75
X1.5Y0.0
X9.375Y-0.75
X6.0Y0.0
X9.0Y0.0
X2.0625Y-1.5
X3.5625Y-1.5
X0.1875Y-0.75
X7.5938Y-3.0
X2.4375Y-2.25
X8.625Y-0.75
X2.25Y0.0
X7.3125Y0.9375
X9.4688Y-2.25
X3.375Y-0.75
X1.125Y-0.75
X5.4375Y-2.25
X4.125Y-0.75
X10.5Y-2.25
X9.375Y-2.575
X9.8438Y-2.25
X10.3125Y-2.575
X3.1875Y-2.25
X8.25Y0.0
X9.5625Y0.9375
X7.125Y-0.75
X9.5625Y-1.825
X10.0312Y-1.5
X10.5Y-1.825
X10.4062Y-3.0
X6.375Y-0.75
X0.75Y0.0
X4.125Y0.9375
X0.1875Y-3.0
X7.3125Y-1.5
X4.5Y0.0
X3.0Y0.0
X3.0Y-2.675
X5.25Y-3.0
X7.5Y-2.675
X6.5625Y-1.5
X3.75Y0.0
X10.3125Y-0.75
X9.6562Y-0.325
X10.125Y0.0
X10.5938Y-0.325
X6.375Y0.9375
X8.8125Y0.9375
X0.0Y0.9375
X1.9688Y-3.0
X0.0938Y-1.5
T0
M30
