G04 #@! TF.GenerationSoftware,KiCad,Pcbnew,(5.1.4)-1*
G04 #@! TF.CreationDate,2021-10-30T23:29:11+08:00*
G04 #@! TF.ProjectId,bakeneko-60-pcb,62616b65-6e65-46b6-9f2d-36302d706362,rev?*
G04 #@! TF.SameCoordinates,Original*
G04 #@! TF.FileFunction,Copper,L2,Bot*
G04 #@! TF.FilePolarity,Positive*
%FSLAX46Y46*%
G04 Gerber Fmt 4.6, Leading zero omitted, Abs format (unit mm)*
G04 Created by KiCad (PCBNEW (5.1.4)-1) date 2021-10-30 23:29:11*
%MOMM*%
%LPD*%
G04 APERTURE LIST*
%ADD10C,0.750000*%
%ADD11C,0.100000*%
%ADD12C,2.250000*%
%ADD13R,1.200000X0.900000*%
%ADD14R,0.650000X1.060000*%
%ADD15R,1.400000X1.200000*%
%ADD16R,1.500000X0.550000*%
%ADD17R,0.550000X1.500000*%
%ADD18R,1.700000X1.000000*%
%ADD19C,0.975000*%
%ADD20R,1.700000X1.700000*%
%ADD21C,1.700000*%
%ADD22C,0.600000*%
%ADD23C,1.200000*%
%ADD24C,1.250000*%
%ADD25C,0.800000*%
%ADD26C,0.381000*%
%ADD27C,0.250000*%
%ADD28C,0.200000*%
%ADD29C,0.254000*%
G04 APERTURE END LIST*
D10*
X256293750Y13327232D02*
X257293750Y14755803D01*
X258008035Y13327232D02*
X258008035Y16327232D01*
X256865178Y16327232D01*
X256579464Y16184375D01*
X256436607Y16041517D01*
X256293750Y15755803D01*
X256293750Y15327232D01*
X256436607Y15041517D01*
X256579464Y14898660D01*
X256865178Y14755803D01*
X258008035Y14755803D01*
X255008035Y13327232D02*
X255008035Y16327232D01*
X254008035Y14184375D01*
X253008035Y16327232D01*
X253008035Y13327232D01*
X251579464Y13327232D02*
X251579464Y16327232D01*
D11*
G36*
X260293750Y17684375D02*
G01*
X249293750Y17684375D01*
X249293750Y17184375D01*
X260293750Y17184375D01*
X260293750Y17684375D01*
G37*
X260293750Y17684375D02*
X249293750Y17684375D01*
X249293750Y17184375D01*
X260293750Y17184375D01*
X260293750Y17684375D01*
G36*
X260293750Y11934375D02*
G01*
X249293750Y11934375D01*
X249293750Y11434375D01*
X260293750Y11434375D01*
X260293750Y11934375D01*
G37*
X260293750Y11934375D02*
X249293750Y11934375D01*
X249293750Y11434375D01*
X260293750Y11434375D01*
X260293750Y11934375D01*
G36*
X260293750Y17184375D02*
G01*
X259793750Y17184375D01*
X259793750Y11934375D01*
X260293750Y11934375D01*
X260293750Y17184375D01*
G37*
X260293750Y17184375D02*
X259793750Y17184375D01*
X259793750Y11934375D01*
X260293750Y11934375D01*
X260293750Y17184375D01*
G36*
X249793750Y17184375D02*
G01*
X249293750Y17184375D01*
X249293750Y11934375D01*
X249793750Y11934375D01*
X249793750Y17184375D01*
G37*
X249793750Y17184375D02*
X249293750Y17184375D01*
X249293750Y11934375D01*
X249793750Y11934375D01*
X249793750Y17184375D01*
D12*
X269240000Y28892500D03*
X262890000Y26352500D03*
X245427500Y28892500D03*
X239077500Y26352500D03*
X226377500Y28892500D03*
X220027500Y26352500D03*
X207327500Y28892500D03*
X200977500Y26352500D03*
X188277500Y28892500D03*
X181927500Y26352500D03*
X164465000Y28892500D03*
X158115000Y26352500D03*
X145415000Y28892500D03*
X139065000Y26352500D03*
X126365000Y28892500D03*
X120015000Y26352500D03*
X107315000Y28892500D03*
X100965000Y26352500D03*
X83502500Y28892500D03*
X77152500Y26352500D03*
X64452500Y28892500D03*
X58102500Y26352500D03*
X45402500Y28892500D03*
X39052500Y26352500D03*
X26352500Y28892500D03*
X20002500Y26352500D03*
X2540000Y28892500D03*
X-3810000Y26352500D03*
D13*
X257175000Y24668750D03*
X257175000Y21368750D03*
X233362500Y24668750D03*
X233362500Y21368750D03*
X214312500Y24668750D03*
X214312500Y21368750D03*
X195262500Y24668750D03*
X195262500Y21368750D03*
X176212500Y24668750D03*
X176212500Y21368750D03*
X152400000Y24668750D03*
X152400000Y21368750D03*
X133350000Y24668750D03*
X133350000Y21368750D03*
X114300000Y24668750D03*
X114300000Y21368750D03*
X95250000Y24668750D03*
X95250000Y21368750D03*
X71437500Y24668750D03*
X71437500Y21368750D03*
X52387500Y24668750D03*
X52387500Y21368750D03*
X33337500Y24668750D03*
X33337500Y21368750D03*
X14287500Y24668750D03*
X14287500Y21368750D03*
X7937500Y24668750D03*
X7937500Y21368750D03*
D14*
X30273750Y-9600000D03*
X29323750Y-9600000D03*
X28373750Y-9600000D03*
X28373750Y-7400000D03*
X30273750Y-7400000D03*
X29323750Y-7400000D03*
D12*
X24765000Y-16510000D03*
X31115000Y-13970000D03*
X43815000Y-16510000D03*
X50165000Y-13970000D03*
X258127500Y-73660000D03*
X264477500Y-71120000D03*
X234315000Y-73660000D03*
X240665000Y-71120000D03*
X129540000Y-73660000D03*
X135890000Y-71120000D03*
X48577500Y-73660000D03*
X54927500Y-71120000D03*
X24765000Y-73660000D03*
X31115000Y-71120000D03*
X952500Y-73660000D03*
X7302500Y-71120000D03*
X260508750Y-73660000D03*
X266858750Y-71120000D03*
X236696250Y-73660000D03*
X243046250Y-71120000D03*
X212883750Y-73660000D03*
X219233750Y-71120000D03*
X189071250Y-73660000D03*
X195421250Y-71120000D03*
X246221250Y-54610000D03*
X252571250Y-52070000D03*
X191452500Y-54610000D03*
X197802500Y-52070000D03*
D13*
X228550000Y-75343750D03*
X228550000Y-78643750D03*
X204787500Y-75343750D03*
X204787500Y-78643750D03*
X183315000Y-75343750D03*
X183315000Y-78643750D03*
D12*
X143827500Y-35560000D03*
X150177500Y-33020000D03*
X48577500Y-35560000D03*
X54927500Y-33020000D03*
D13*
X44450000Y-37243750D03*
X44450000Y-40543750D03*
X41275000Y-37243750D03*
X41275000Y-40543750D03*
D12*
X177165000Y-16510000D03*
X183515000Y-13970000D03*
X100965000Y-16510000D03*
X107315000Y-13970000D03*
D13*
X77787500Y-18193750D03*
X77787500Y-21493750D03*
X74612500Y-18193750D03*
X74612500Y-21493750D03*
X55562500Y-18193750D03*
X55562500Y-21493750D03*
X58737500Y-18193750D03*
X58737500Y-21493750D03*
X239655000Y856250D03*
X239655000Y-2443750D03*
D12*
X224790000Y2540000D03*
X231140000Y5080000D03*
D13*
X219075000Y856250D03*
X219075000Y-2443750D03*
X11112500Y856250D03*
X11112500Y-2443750D03*
X7937500Y856250D03*
X7937500Y-2443750D03*
X-3175000Y-18987500D03*
X-3175000Y-22287500D03*
X236585000Y856250D03*
X236585000Y-2443750D03*
D12*
X129540000Y2540000D03*
X135890000Y5080000D03*
X91440000Y2540000D03*
X97790000Y5080000D03*
X72390000Y2540000D03*
X78740000Y5080000D03*
X210502500Y-73660000D03*
X216852500Y-71120000D03*
X117633750Y-73660000D03*
X123983750Y-71120000D03*
X46196250Y-73660000D03*
X52546250Y-71120000D03*
X22383750Y-73660000D03*
X28733750Y-71120000D03*
X-1428750Y-73660000D03*
X4921250Y-71120000D03*
X262890000Y-54610000D03*
X269240000Y-52070000D03*
X236696250Y-54610000D03*
X243046250Y-52070000D03*
X210502500Y-54610000D03*
X216852500Y-52070000D03*
X172402500Y-54610000D03*
X178752500Y-52070000D03*
X153352500Y-54610000D03*
X159702500Y-52070000D03*
X134302500Y-54610000D03*
X140652500Y-52070000D03*
X115252500Y-54610000D03*
X121602500Y-52070000D03*
X96202500Y-54610000D03*
X102552500Y-52070000D03*
X77152500Y-54610000D03*
X83502500Y-52070000D03*
X58102500Y-54610000D03*
X64452500Y-52070000D03*
X39052500Y-54610000D03*
X45402500Y-52070000D03*
X8096250Y-54610000D03*
X14446250Y-52070000D03*
X250983750Y-35560000D03*
X257333750Y-33020000D03*
X220027500Y-35560000D03*
X226377500Y-33020000D03*
X200977500Y-35560000D03*
X207327500Y-33020000D03*
X181927500Y-35560000D03*
X188277500Y-33020000D03*
X162877500Y-35560000D03*
X169227500Y-33020000D03*
X124777500Y-35560000D03*
X131127500Y-33020000D03*
X105727500Y-35560000D03*
X112077500Y-33020000D03*
X86677500Y-35560000D03*
X93027500Y-33020000D03*
X67627500Y-35560000D03*
X73977500Y-33020000D03*
X29527500Y-35560000D03*
X35877500Y-33020000D03*
X3333750Y-35560000D03*
X9683750Y-33020000D03*
X-1428750Y-35560000D03*
X4921250Y-33020000D03*
X258127500Y-16510000D03*
X264477500Y-13970000D03*
X234315000Y-16510000D03*
X240665000Y-13970000D03*
X215265000Y-16510000D03*
X221615000Y-13970000D03*
X196215000Y-16510000D03*
X202565000Y-13970000D03*
X158115000Y-16510000D03*
X164465000Y-13970000D03*
X139065000Y-16510000D03*
X145415000Y-13970000D03*
X120015000Y-16510000D03*
X126365000Y-13970000D03*
X81915000Y-16510000D03*
X88265000Y-13970000D03*
X62865000Y-16510000D03*
X69215000Y-13970000D03*
X952500Y-16510000D03*
X7302500Y-13970000D03*
X253365000Y2540000D03*
X259715000Y5080000D03*
X262890000Y2540000D03*
X269240000Y5080000D03*
X243840000Y2540000D03*
X250190000Y5080000D03*
X205740000Y2540000D03*
X212090000Y5080000D03*
X186690000Y2540000D03*
X193040000Y5080000D03*
X167640000Y2540000D03*
X173990000Y5080000D03*
X148590000Y2540000D03*
X154940000Y5080000D03*
X110490000Y2540000D03*
X116840000Y5080000D03*
X53340000Y2540000D03*
X59690000Y5080000D03*
X34290000Y2540000D03*
X40640000Y5080000D03*
X15240000Y2540000D03*
X21590000Y5080000D03*
X2540000Y5080000D03*
X-3810000Y2540000D03*
D13*
X252362500Y-75343750D03*
X252362500Y-78643750D03*
X111918750Y-75343750D03*
X111918750Y-78643750D03*
X40481250Y-75343750D03*
X40481250Y-78643750D03*
X16668750Y-75343750D03*
X16668750Y-78643750D03*
X12747500Y-75343750D03*
X12747500Y-78643750D03*
X258715000Y-56293750D03*
X258715000Y-59593750D03*
X230981250Y-56293750D03*
X230981250Y-59593750D03*
X204787500Y-56293750D03*
X204787500Y-59593750D03*
X185737500Y-56293750D03*
X185737500Y-59593750D03*
X166687500Y-56293750D03*
X166687500Y-59593750D03*
X147637500Y-56293750D03*
X147637500Y-59593750D03*
X128587500Y-56293750D03*
X128587500Y-59593750D03*
X109537500Y-56293750D03*
X109537500Y-59593750D03*
X90487500Y-56293750D03*
X90487500Y-59593750D03*
X71437500Y-56293750D03*
X71437500Y-59593750D03*
X52387500Y-56293750D03*
X52387500Y-59593750D03*
X33337500Y-56293750D03*
X33337500Y-59593750D03*
X19843750Y-56293750D03*
X19843750Y-59593750D03*
X245268750Y-37243750D03*
X245268750Y-40543750D03*
X214312500Y-37243750D03*
X214312500Y-40543750D03*
X195262500Y-37243750D03*
X195262500Y-40543750D03*
X176212500Y-37243750D03*
X176212500Y-40543750D03*
X157162500Y-37243750D03*
X157162500Y-40543750D03*
X138112500Y-37243750D03*
X138112500Y-40543750D03*
X119062500Y-37243750D03*
X119062500Y-40543750D03*
X100012500Y-37243750D03*
X100012500Y-40543750D03*
X80962500Y-37243750D03*
X80962500Y-40543750D03*
X61912500Y-37243750D03*
X61912500Y-40543750D03*
X15081250Y-37243750D03*
X15081250Y-40543750D03*
X252412500Y-18193750D03*
X252412500Y-21493750D03*
X228600000Y-18193750D03*
X228600000Y-21493750D03*
X209550000Y-18193750D03*
X209550000Y-21493750D03*
X190500000Y-18193750D03*
X190500000Y-21493750D03*
X171450000Y-18193750D03*
X171450000Y-21493750D03*
X152400000Y-18193750D03*
X152400000Y-21493750D03*
X133350000Y-18193750D03*
X133350000Y-21493750D03*
X114300000Y-18193750D03*
X114300000Y-21493750D03*
X95250000Y-18193750D03*
X95250000Y-21493750D03*
X200025000Y856250D03*
X200025000Y-2443750D03*
X180975000Y856250D03*
X180975000Y-2443750D03*
X161925000Y856250D03*
X161925000Y-2443750D03*
X142875000Y856250D03*
X142875000Y-2443750D03*
X123825000Y856250D03*
X123825000Y-2443750D03*
X104775000Y856250D03*
X104775000Y-2443750D03*
X85725000Y856250D03*
X85725000Y-2443750D03*
X66675000Y856250D03*
X66675000Y-2443750D03*
X47625000Y856250D03*
X47625000Y-2443750D03*
X28575000Y856250D03*
X28575000Y-2443750D03*
D15*
X33060000Y-27820000D03*
X30860000Y-27820000D03*
X30860000Y-29520000D03*
X33060000Y-29520000D03*
D16*
X13853750Y-24758750D03*
X13853750Y-25558750D03*
X13853750Y-26358750D03*
X13853750Y-27158750D03*
X13853750Y-27958750D03*
X13853750Y-28758750D03*
X13853750Y-29558750D03*
X13853750Y-30358750D03*
X13853750Y-31158750D03*
X13853750Y-31958750D03*
X13853750Y-32758750D03*
D17*
X15553750Y-34458750D03*
X16353750Y-34458750D03*
X17153750Y-34458750D03*
X17953750Y-34458750D03*
X18753750Y-34458750D03*
X19553750Y-34458750D03*
X20353750Y-34458750D03*
X21153750Y-34458750D03*
X21953750Y-34458750D03*
X22753750Y-34458750D03*
X23553750Y-34458750D03*
D16*
X25253750Y-32758750D03*
X25253750Y-31958750D03*
X25253750Y-31158750D03*
X25253750Y-30358750D03*
X25253750Y-29558750D03*
X25253750Y-28758750D03*
X25253750Y-27958750D03*
X25253750Y-27158750D03*
X25253750Y-26358750D03*
X25253750Y-25558750D03*
X25253750Y-24758750D03*
D17*
X23553750Y-23058750D03*
X22753750Y-23058750D03*
X21953750Y-23058750D03*
X21153750Y-23058750D03*
X20353750Y-23058750D03*
X19553750Y-23058750D03*
X18753750Y-23058750D03*
X17953750Y-23058750D03*
X17153750Y-23058750D03*
X16353750Y-23058750D03*
X15553750Y-23058750D03*
D18*
X49393750Y-24585000D03*
X43093750Y-24585000D03*
X49393750Y-28385000D03*
X43093750Y-28385000D03*
D11*
G36*
X21303892Y-45526174D02*
G01*
X21327553Y-45529684D01*
X21350757Y-45535496D01*
X21373279Y-45543554D01*
X21394903Y-45553782D01*
X21415420Y-45566079D01*
X21434633Y-45580329D01*
X21452357Y-45596393D01*
X21468421Y-45614117D01*
X21482671Y-45633330D01*
X21494968Y-45653847D01*
X21505196Y-45675471D01*
X21513254Y-45697993D01*
X21519066Y-45721197D01*
X21522576Y-45744858D01*
X21523750Y-45768750D01*
X21523750Y-46256250D01*
X21522576Y-46280142D01*
X21519066Y-46303803D01*
X21513254Y-46327007D01*
X21505196Y-46349529D01*
X21494968Y-46371153D01*
X21482671Y-46391670D01*
X21468421Y-46410883D01*
X21452357Y-46428607D01*
X21434633Y-46444671D01*
X21415420Y-46458921D01*
X21394903Y-46471218D01*
X21373279Y-46481446D01*
X21350757Y-46489504D01*
X21327553Y-46495316D01*
X21303892Y-46498826D01*
X21280000Y-46500000D01*
X20367500Y-46500000D01*
X20343608Y-46498826D01*
X20319947Y-46495316D01*
X20296743Y-46489504D01*
X20274221Y-46481446D01*
X20252597Y-46471218D01*
X20232080Y-46458921D01*
X20212867Y-46444671D01*
X20195143Y-46428607D01*
X20179079Y-46410883D01*
X20164829Y-46391670D01*
X20152532Y-46371153D01*
X20142304Y-46349529D01*
X20134246Y-46327007D01*
X20128434Y-46303803D01*
X20124924Y-46280142D01*
X20123750Y-46256250D01*
X20123750Y-45768750D01*
X20124924Y-45744858D01*
X20128434Y-45721197D01*
X20134246Y-45697993D01*
X20142304Y-45675471D01*
X20152532Y-45653847D01*
X20164829Y-45633330D01*
X20179079Y-45614117D01*
X20195143Y-45596393D01*
X20212867Y-45580329D01*
X20232080Y-45566079D01*
X20252597Y-45553782D01*
X20274221Y-45543554D01*
X20296743Y-45535496D01*
X20319947Y-45529684D01*
X20343608Y-45526174D01*
X20367500Y-45525000D01*
X21280000Y-45525000D01*
X21303892Y-45526174D01*
X21303892Y-45526174D01*
G37*
D19*
X20823750Y-46012500D03*
D11*
G36*
X21303892Y-47401174D02*
G01*
X21327553Y-47404684D01*
X21350757Y-47410496D01*
X21373279Y-47418554D01*
X21394903Y-47428782D01*
X21415420Y-47441079D01*
X21434633Y-47455329D01*
X21452357Y-47471393D01*
X21468421Y-47489117D01*
X21482671Y-47508330D01*
X21494968Y-47528847D01*
X21505196Y-47550471D01*
X21513254Y-47572993D01*
X21519066Y-47596197D01*
X21522576Y-47619858D01*
X21523750Y-47643750D01*
X21523750Y-48131250D01*
X21522576Y-48155142D01*
X21519066Y-48178803D01*
X21513254Y-48202007D01*
X21505196Y-48224529D01*
X21494968Y-48246153D01*
X21482671Y-48266670D01*
X21468421Y-48285883D01*
X21452357Y-48303607D01*
X21434633Y-48319671D01*
X21415420Y-48333921D01*
X21394903Y-48346218D01*
X21373279Y-48356446D01*
X21350757Y-48364504D01*
X21327553Y-48370316D01*
X21303892Y-48373826D01*
X21280000Y-48375000D01*
X20367500Y-48375000D01*
X20343608Y-48373826D01*
X20319947Y-48370316D01*
X20296743Y-48364504D01*
X20274221Y-48356446D01*
X20252597Y-48346218D01*
X20232080Y-48333921D01*
X20212867Y-48319671D01*
X20195143Y-48303607D01*
X20179079Y-48285883D01*
X20164829Y-48266670D01*
X20152532Y-48246153D01*
X20142304Y-48224529D01*
X20134246Y-48202007D01*
X20128434Y-48178803D01*
X20124924Y-48155142D01*
X20123750Y-48131250D01*
X20123750Y-47643750D01*
X20124924Y-47619858D01*
X20128434Y-47596197D01*
X20134246Y-47572993D01*
X20142304Y-47550471D01*
X20152532Y-47528847D01*
X20164829Y-47508330D01*
X20179079Y-47489117D01*
X20195143Y-47471393D01*
X20212867Y-47455329D01*
X20232080Y-47441079D01*
X20252597Y-47428782D01*
X20274221Y-47418554D01*
X20296743Y-47410496D01*
X20319947Y-47404684D01*
X20343608Y-47401174D01*
X20367500Y-47400000D01*
X21280000Y-47400000D01*
X21303892Y-47401174D01*
X21303892Y-47401174D01*
G37*
D19*
X20823750Y-47887500D03*
D11*
G36*
X24545142Y-6551174D02*
G01*
X24568803Y-6554684D01*
X24592007Y-6560496D01*
X24614529Y-6568554D01*
X24636153Y-6578782D01*
X24656670Y-6591079D01*
X24675883Y-6605329D01*
X24693607Y-6621393D01*
X24709671Y-6639117D01*
X24723921Y-6658330D01*
X24736218Y-6678847D01*
X24746446Y-6700471D01*
X24754504Y-6722993D01*
X24760316Y-6746197D01*
X24763826Y-6769858D01*
X24765000Y-6793750D01*
X24765000Y-7706250D01*
X24763826Y-7730142D01*
X24760316Y-7753803D01*
X24754504Y-7777007D01*
X24746446Y-7799529D01*
X24736218Y-7821153D01*
X24723921Y-7841670D01*
X24709671Y-7860883D01*
X24693607Y-7878607D01*
X24675883Y-7894671D01*
X24656670Y-7908921D01*
X24636153Y-7921218D01*
X24614529Y-7931446D01*
X24592007Y-7939504D01*
X24568803Y-7945316D01*
X24545142Y-7948826D01*
X24521250Y-7950000D01*
X24033750Y-7950000D01*
X24009858Y-7948826D01*
X23986197Y-7945316D01*
X23962993Y-7939504D01*
X23940471Y-7931446D01*
X23918847Y-7921218D01*
X23898330Y-7908921D01*
X23879117Y-7894671D01*
X23861393Y-7878607D01*
X23845329Y-7860883D01*
X23831079Y-7841670D01*
X23818782Y-7821153D01*
X23808554Y-7799529D01*
X23800496Y-7777007D01*
X23794684Y-7753803D01*
X23791174Y-7730142D01*
X23790000Y-7706250D01*
X23790000Y-6793750D01*
X23791174Y-6769858D01*
X23794684Y-6746197D01*
X23800496Y-6722993D01*
X23808554Y-6700471D01*
X23818782Y-6678847D01*
X23831079Y-6658330D01*
X23845329Y-6639117D01*
X23861393Y-6621393D01*
X23879117Y-6605329D01*
X23898330Y-6591079D01*
X23918847Y-6578782D01*
X23940471Y-6568554D01*
X23962993Y-6560496D01*
X23986197Y-6554684D01*
X24009858Y-6551174D01*
X24033750Y-6550000D01*
X24521250Y-6550000D01*
X24545142Y-6551174D01*
X24545142Y-6551174D01*
G37*
D19*
X24277500Y-7250000D03*
D11*
G36*
X22670142Y-6551174D02*
G01*
X22693803Y-6554684D01*
X22717007Y-6560496D01*
X22739529Y-6568554D01*
X22761153Y-6578782D01*
X22781670Y-6591079D01*
X22800883Y-6605329D01*
X22818607Y-6621393D01*
X22834671Y-6639117D01*
X22848921Y-6658330D01*
X22861218Y-6678847D01*
X22871446Y-6700471D01*
X22879504Y-6722993D01*
X22885316Y-6746197D01*
X22888826Y-6769858D01*
X22890000Y-6793750D01*
X22890000Y-7706250D01*
X22888826Y-7730142D01*
X22885316Y-7753803D01*
X22879504Y-7777007D01*
X22871446Y-7799529D01*
X22861218Y-7821153D01*
X22848921Y-7841670D01*
X22834671Y-7860883D01*
X22818607Y-7878607D01*
X22800883Y-7894671D01*
X22781670Y-7908921D01*
X22761153Y-7921218D01*
X22739529Y-7931446D01*
X22717007Y-7939504D01*
X22693803Y-7945316D01*
X22670142Y-7948826D01*
X22646250Y-7950000D01*
X22158750Y-7950000D01*
X22134858Y-7948826D01*
X22111197Y-7945316D01*
X22087993Y-7939504D01*
X22065471Y-7931446D01*
X22043847Y-7921218D01*
X22023330Y-7908921D01*
X22004117Y-7894671D01*
X21986393Y-7878607D01*
X21970329Y-7860883D01*
X21956079Y-7841670D01*
X21943782Y-7821153D01*
X21933554Y-7799529D01*
X21925496Y-7777007D01*
X21919684Y-7753803D01*
X21916174Y-7730142D01*
X21915000Y-7706250D01*
X21915000Y-6793750D01*
X21916174Y-6769858D01*
X21919684Y-6746197D01*
X21925496Y-6722993D01*
X21933554Y-6700471D01*
X21943782Y-6678847D01*
X21956079Y-6658330D01*
X21970329Y-6639117D01*
X21986393Y-6621393D01*
X22004117Y-6605329D01*
X22023330Y-6591079D01*
X22043847Y-6578782D01*
X22065471Y-6568554D01*
X22087993Y-6560496D01*
X22111197Y-6554684D01*
X22134858Y-6551174D01*
X22158750Y-6550000D01*
X22646250Y-6550000D01*
X22670142Y-6551174D01*
X22670142Y-6551174D01*
G37*
D19*
X22402500Y-7250000D03*
D11*
G36*
X24545142Y-9051174D02*
G01*
X24568803Y-9054684D01*
X24592007Y-9060496D01*
X24614529Y-9068554D01*
X24636153Y-9078782D01*
X24656670Y-9091079D01*
X24675883Y-9105329D01*
X24693607Y-9121393D01*
X24709671Y-9139117D01*
X24723921Y-9158330D01*
X24736218Y-9178847D01*
X24746446Y-9200471D01*
X24754504Y-9222993D01*
X24760316Y-9246197D01*
X24763826Y-9269858D01*
X24765000Y-9293750D01*
X24765000Y-10206250D01*
X24763826Y-10230142D01*
X24760316Y-10253803D01*
X24754504Y-10277007D01*
X24746446Y-10299529D01*
X24736218Y-10321153D01*
X24723921Y-10341670D01*
X24709671Y-10360883D01*
X24693607Y-10378607D01*
X24675883Y-10394671D01*
X24656670Y-10408921D01*
X24636153Y-10421218D01*
X24614529Y-10431446D01*
X24592007Y-10439504D01*
X24568803Y-10445316D01*
X24545142Y-10448826D01*
X24521250Y-10450000D01*
X24033750Y-10450000D01*
X24009858Y-10448826D01*
X23986197Y-10445316D01*
X23962993Y-10439504D01*
X23940471Y-10431446D01*
X23918847Y-10421218D01*
X23898330Y-10408921D01*
X23879117Y-10394671D01*
X23861393Y-10378607D01*
X23845329Y-10360883D01*
X23831079Y-10341670D01*
X23818782Y-10321153D01*
X23808554Y-10299529D01*
X23800496Y-10277007D01*
X23794684Y-10253803D01*
X23791174Y-10230142D01*
X23790000Y-10206250D01*
X23790000Y-9293750D01*
X23791174Y-9269858D01*
X23794684Y-9246197D01*
X23800496Y-9222993D01*
X23808554Y-9200471D01*
X23818782Y-9178847D01*
X23831079Y-9158330D01*
X23845329Y-9139117D01*
X23861393Y-9121393D01*
X23879117Y-9105329D01*
X23898330Y-9091079D01*
X23918847Y-9078782D01*
X23940471Y-9068554D01*
X23962993Y-9060496D01*
X23986197Y-9054684D01*
X24009858Y-9051174D01*
X24033750Y-9050000D01*
X24521250Y-9050000D01*
X24545142Y-9051174D01*
X24545142Y-9051174D01*
G37*
D19*
X24277500Y-9750000D03*
D11*
G36*
X22670142Y-9051174D02*
G01*
X22693803Y-9054684D01*
X22717007Y-9060496D01*
X22739529Y-9068554D01*
X22761153Y-9078782D01*
X22781670Y-9091079D01*
X22800883Y-9105329D01*
X22818607Y-9121393D01*
X22834671Y-9139117D01*
X22848921Y-9158330D01*
X22861218Y-9178847D01*
X22871446Y-9200471D01*
X22879504Y-9222993D01*
X22885316Y-9246197D01*
X22888826Y-9269858D01*
X22890000Y-9293750D01*
X22890000Y-10206250D01*
X22888826Y-10230142D01*
X22885316Y-10253803D01*
X22879504Y-10277007D01*
X22871446Y-10299529D01*
X22861218Y-10321153D01*
X22848921Y-10341670D01*
X22834671Y-10360883D01*
X22818607Y-10378607D01*
X22800883Y-10394671D01*
X22781670Y-10408921D01*
X22761153Y-10421218D01*
X22739529Y-10431446D01*
X22717007Y-10439504D01*
X22693803Y-10445316D01*
X22670142Y-10448826D01*
X22646250Y-10450000D01*
X22158750Y-10450000D01*
X22134858Y-10448826D01*
X22111197Y-10445316D01*
X22087993Y-10439504D01*
X22065471Y-10431446D01*
X22043847Y-10421218D01*
X22023330Y-10408921D01*
X22004117Y-10394671D01*
X21986393Y-10378607D01*
X21970329Y-10360883D01*
X21956079Y-10341670D01*
X21943782Y-10321153D01*
X21933554Y-10299529D01*
X21925496Y-10277007D01*
X21919684Y-10253803D01*
X21916174Y-10230142D01*
X21915000Y-10206250D01*
X21915000Y-9293750D01*
X21916174Y-9269858D01*
X21919684Y-9246197D01*
X21925496Y-9222993D01*
X21933554Y-9200471D01*
X21943782Y-9178847D01*
X21956079Y-9158330D01*
X21970329Y-9139117D01*
X21986393Y-9121393D01*
X22004117Y-9105329D01*
X22023330Y-9091079D01*
X22043847Y-9078782D01*
X22065471Y-9068554D01*
X22087993Y-9060496D01*
X22111197Y-9054684D01*
X22134858Y-9051174D01*
X22158750Y-9050000D01*
X22646250Y-9050000D01*
X22670142Y-9051174D01*
X22670142Y-9051174D01*
G37*
D19*
X22402500Y-9750000D03*
D11*
G36*
X41190142Y-25971174D02*
G01*
X41213803Y-25974684D01*
X41237007Y-25980496D01*
X41259529Y-25988554D01*
X41281153Y-25998782D01*
X41301670Y-26011079D01*
X41320883Y-26025329D01*
X41338607Y-26041393D01*
X41354671Y-26059117D01*
X41368921Y-26078330D01*
X41381218Y-26098847D01*
X41391446Y-26120471D01*
X41399504Y-26142993D01*
X41405316Y-26166197D01*
X41408826Y-26189858D01*
X41410000Y-26213750D01*
X41410000Y-26701250D01*
X41408826Y-26725142D01*
X41405316Y-26748803D01*
X41399504Y-26772007D01*
X41391446Y-26794529D01*
X41381218Y-26816153D01*
X41368921Y-26836670D01*
X41354671Y-26855883D01*
X41338607Y-26873607D01*
X41320883Y-26889671D01*
X41301670Y-26903921D01*
X41281153Y-26916218D01*
X41259529Y-26926446D01*
X41237007Y-26934504D01*
X41213803Y-26940316D01*
X41190142Y-26943826D01*
X41166250Y-26945000D01*
X40253750Y-26945000D01*
X40229858Y-26943826D01*
X40206197Y-26940316D01*
X40182993Y-26934504D01*
X40160471Y-26926446D01*
X40138847Y-26916218D01*
X40118330Y-26903921D01*
X40099117Y-26889671D01*
X40081393Y-26873607D01*
X40065329Y-26855883D01*
X40051079Y-26836670D01*
X40038782Y-26816153D01*
X40028554Y-26794529D01*
X40020496Y-26772007D01*
X40014684Y-26748803D01*
X40011174Y-26725142D01*
X40010000Y-26701250D01*
X40010000Y-26213750D01*
X40011174Y-26189858D01*
X40014684Y-26166197D01*
X40020496Y-26142993D01*
X40028554Y-26120471D01*
X40038782Y-26098847D01*
X40051079Y-26078330D01*
X40065329Y-26059117D01*
X40081393Y-26041393D01*
X40099117Y-26025329D01*
X40118330Y-26011079D01*
X40138847Y-25998782D01*
X40160471Y-25988554D01*
X40182993Y-25980496D01*
X40206197Y-25974684D01*
X40229858Y-25971174D01*
X40253750Y-25970000D01*
X41166250Y-25970000D01*
X41190142Y-25971174D01*
X41190142Y-25971174D01*
G37*
D19*
X40710000Y-26457500D03*
D11*
G36*
X41190142Y-24096174D02*
G01*
X41213803Y-24099684D01*
X41237007Y-24105496D01*
X41259529Y-24113554D01*
X41281153Y-24123782D01*
X41301670Y-24136079D01*
X41320883Y-24150329D01*
X41338607Y-24166393D01*
X41354671Y-24184117D01*
X41368921Y-24203330D01*
X41381218Y-24223847D01*
X41391446Y-24245471D01*
X41399504Y-24267993D01*
X41405316Y-24291197D01*
X41408826Y-24314858D01*
X41410000Y-24338750D01*
X41410000Y-24826250D01*
X41408826Y-24850142D01*
X41405316Y-24873803D01*
X41399504Y-24897007D01*
X41391446Y-24919529D01*
X41381218Y-24941153D01*
X41368921Y-24961670D01*
X41354671Y-24980883D01*
X41338607Y-24998607D01*
X41320883Y-25014671D01*
X41301670Y-25028921D01*
X41281153Y-25041218D01*
X41259529Y-25051446D01*
X41237007Y-25059504D01*
X41213803Y-25065316D01*
X41190142Y-25068826D01*
X41166250Y-25070000D01*
X40253750Y-25070000D01*
X40229858Y-25068826D01*
X40206197Y-25065316D01*
X40182993Y-25059504D01*
X40160471Y-25051446D01*
X40138847Y-25041218D01*
X40118330Y-25028921D01*
X40099117Y-25014671D01*
X40081393Y-24998607D01*
X40065329Y-24980883D01*
X40051079Y-24961670D01*
X40038782Y-24941153D01*
X40028554Y-24919529D01*
X40020496Y-24897007D01*
X40014684Y-24873803D01*
X40011174Y-24850142D01*
X40010000Y-24826250D01*
X40010000Y-24338750D01*
X40011174Y-24314858D01*
X40014684Y-24291197D01*
X40020496Y-24267993D01*
X40028554Y-24245471D01*
X40038782Y-24223847D01*
X40051079Y-24203330D01*
X40065329Y-24184117D01*
X40081393Y-24166393D01*
X40099117Y-24150329D01*
X40118330Y-24136079D01*
X40138847Y-24123782D01*
X40160471Y-24113554D01*
X40182993Y-24105496D01*
X40206197Y-24099684D01*
X40229858Y-24096174D01*
X40253750Y-24095000D01*
X41166250Y-24095000D01*
X41190142Y-24096174D01*
X41190142Y-24096174D01*
G37*
D19*
X40710000Y-24582500D03*
D20*
X-1270000Y-6727501D03*
D21*
X-3810000Y-6727501D03*
X-1270000Y-9267501D03*
X-3810000Y-9267501D03*
X-1270000Y-11807501D03*
X-3810000Y-11807501D03*
D11*
G36*
X36639703Y-6700722D02*
G01*
X36654264Y-6702882D01*
X36668543Y-6706459D01*
X36682403Y-6711418D01*
X36695710Y-6717712D01*
X36708336Y-6725280D01*
X36720159Y-6734048D01*
X36731066Y-6743934D01*
X36740952Y-6754841D01*
X36749720Y-6766664D01*
X36757288Y-6779290D01*
X36763582Y-6792597D01*
X36768541Y-6806457D01*
X36772118Y-6820736D01*
X36774278Y-6835297D01*
X36775000Y-6850000D01*
X36775000Y-7150000D01*
X36774278Y-7164703D01*
X36772118Y-7179264D01*
X36768541Y-7193543D01*
X36763582Y-7207403D01*
X36757288Y-7220710D01*
X36749720Y-7233336D01*
X36740952Y-7245159D01*
X36731066Y-7256066D01*
X36720159Y-7265952D01*
X36708336Y-7274720D01*
X36695710Y-7282288D01*
X36682403Y-7288582D01*
X36668543Y-7293541D01*
X36654264Y-7297118D01*
X36639703Y-7299278D01*
X36625000Y-7300000D01*
X35375000Y-7300000D01*
X35360297Y-7299278D01*
X35345736Y-7297118D01*
X35331457Y-7293541D01*
X35317597Y-7288582D01*
X35304290Y-7282288D01*
X35291664Y-7274720D01*
X35279841Y-7265952D01*
X35268934Y-7256066D01*
X35259048Y-7245159D01*
X35250280Y-7233336D01*
X35242712Y-7220710D01*
X35236418Y-7207403D01*
X35231459Y-7193543D01*
X35227882Y-7179264D01*
X35225722Y-7164703D01*
X35225000Y-7150000D01*
X35225000Y-6850000D01*
X35225722Y-6835297D01*
X35227882Y-6820736D01*
X35231459Y-6806457D01*
X35236418Y-6792597D01*
X35242712Y-6779290D01*
X35250280Y-6766664D01*
X35259048Y-6754841D01*
X35268934Y-6743934D01*
X35279841Y-6734048D01*
X35291664Y-6725280D01*
X35304290Y-6717712D01*
X35317597Y-6711418D01*
X35331457Y-6706459D01*
X35345736Y-6702882D01*
X35360297Y-6700722D01*
X35375000Y-6700000D01*
X36625000Y-6700000D01*
X36639703Y-6700722D01*
X36639703Y-6700722D01*
G37*
D22*
X36000000Y-7000000D03*
D11*
G36*
X36639703Y-7700722D02*
G01*
X36654264Y-7702882D01*
X36668543Y-7706459D01*
X36682403Y-7711418D01*
X36695710Y-7717712D01*
X36708336Y-7725280D01*
X36720159Y-7734048D01*
X36731066Y-7743934D01*
X36740952Y-7754841D01*
X36749720Y-7766664D01*
X36757288Y-7779290D01*
X36763582Y-7792597D01*
X36768541Y-7806457D01*
X36772118Y-7820736D01*
X36774278Y-7835297D01*
X36775000Y-7850000D01*
X36775000Y-8150000D01*
X36774278Y-8164703D01*
X36772118Y-8179264D01*
X36768541Y-8193543D01*
X36763582Y-8207403D01*
X36757288Y-8220710D01*
X36749720Y-8233336D01*
X36740952Y-8245159D01*
X36731066Y-8256066D01*
X36720159Y-8265952D01*
X36708336Y-8274720D01*
X36695710Y-8282288D01*
X36682403Y-8288582D01*
X36668543Y-8293541D01*
X36654264Y-8297118D01*
X36639703Y-8299278D01*
X36625000Y-8300000D01*
X35375000Y-8300000D01*
X35360297Y-8299278D01*
X35345736Y-8297118D01*
X35331457Y-8293541D01*
X35317597Y-8288582D01*
X35304290Y-8282288D01*
X35291664Y-8274720D01*
X35279841Y-8265952D01*
X35268934Y-8256066D01*
X35259048Y-8245159D01*
X35250280Y-8233336D01*
X35242712Y-8220710D01*
X35236418Y-8207403D01*
X35231459Y-8193543D01*
X35227882Y-8179264D01*
X35225722Y-8164703D01*
X35225000Y-8150000D01*
X35225000Y-7850000D01*
X35225722Y-7835297D01*
X35227882Y-7820736D01*
X35231459Y-7806457D01*
X35236418Y-7792597D01*
X35242712Y-7779290D01*
X35250280Y-7766664D01*
X35259048Y-7754841D01*
X35268934Y-7743934D01*
X35279841Y-7734048D01*
X35291664Y-7725280D01*
X35304290Y-7717712D01*
X35317597Y-7711418D01*
X35331457Y-7706459D01*
X35345736Y-7702882D01*
X35360297Y-7700722D01*
X35375000Y-7700000D01*
X36625000Y-7700000D01*
X36639703Y-7700722D01*
X36639703Y-7700722D01*
G37*
D22*
X36000000Y-8000000D03*
D11*
G36*
X36639703Y-8700722D02*
G01*
X36654264Y-8702882D01*
X36668543Y-8706459D01*
X36682403Y-8711418D01*
X36695710Y-8717712D01*
X36708336Y-8725280D01*
X36720159Y-8734048D01*
X36731066Y-8743934D01*
X36740952Y-8754841D01*
X36749720Y-8766664D01*
X36757288Y-8779290D01*
X36763582Y-8792597D01*
X36768541Y-8806457D01*
X36772118Y-8820736D01*
X36774278Y-8835297D01*
X36775000Y-8850000D01*
X36775000Y-9150000D01*
X36774278Y-9164703D01*
X36772118Y-9179264D01*
X36768541Y-9193543D01*
X36763582Y-9207403D01*
X36757288Y-9220710D01*
X36749720Y-9233336D01*
X36740952Y-9245159D01*
X36731066Y-9256066D01*
X36720159Y-9265952D01*
X36708336Y-9274720D01*
X36695710Y-9282288D01*
X36682403Y-9288582D01*
X36668543Y-9293541D01*
X36654264Y-9297118D01*
X36639703Y-9299278D01*
X36625000Y-9300000D01*
X35375000Y-9300000D01*
X35360297Y-9299278D01*
X35345736Y-9297118D01*
X35331457Y-9293541D01*
X35317597Y-9288582D01*
X35304290Y-9282288D01*
X35291664Y-9274720D01*
X35279841Y-9265952D01*
X35268934Y-9256066D01*
X35259048Y-9245159D01*
X35250280Y-9233336D01*
X35242712Y-9220710D01*
X35236418Y-9207403D01*
X35231459Y-9193543D01*
X35227882Y-9179264D01*
X35225722Y-9164703D01*
X35225000Y-9150000D01*
X35225000Y-8850000D01*
X35225722Y-8835297D01*
X35227882Y-8820736D01*
X35231459Y-8806457D01*
X35236418Y-8792597D01*
X35242712Y-8779290D01*
X35250280Y-8766664D01*
X35259048Y-8754841D01*
X35268934Y-8743934D01*
X35279841Y-8734048D01*
X35291664Y-8725280D01*
X35304290Y-8717712D01*
X35317597Y-8711418D01*
X35331457Y-8706459D01*
X35345736Y-8702882D01*
X35360297Y-8700722D01*
X35375000Y-8700000D01*
X36625000Y-8700000D01*
X36639703Y-8700722D01*
X36639703Y-8700722D01*
G37*
D22*
X36000000Y-9000000D03*
D11*
G36*
X36639703Y-9700722D02*
G01*
X36654264Y-9702882D01*
X36668543Y-9706459D01*
X36682403Y-9711418D01*
X36695710Y-9717712D01*
X36708336Y-9725280D01*
X36720159Y-9734048D01*
X36731066Y-9743934D01*
X36740952Y-9754841D01*
X36749720Y-9766664D01*
X36757288Y-9779290D01*
X36763582Y-9792597D01*
X36768541Y-9806457D01*
X36772118Y-9820736D01*
X36774278Y-9835297D01*
X36775000Y-9850000D01*
X36775000Y-10150000D01*
X36774278Y-10164703D01*
X36772118Y-10179264D01*
X36768541Y-10193543D01*
X36763582Y-10207403D01*
X36757288Y-10220710D01*
X36749720Y-10233336D01*
X36740952Y-10245159D01*
X36731066Y-10256066D01*
X36720159Y-10265952D01*
X36708336Y-10274720D01*
X36695710Y-10282288D01*
X36682403Y-10288582D01*
X36668543Y-10293541D01*
X36654264Y-10297118D01*
X36639703Y-10299278D01*
X36625000Y-10300000D01*
X35375000Y-10300000D01*
X35360297Y-10299278D01*
X35345736Y-10297118D01*
X35331457Y-10293541D01*
X35317597Y-10288582D01*
X35304290Y-10282288D01*
X35291664Y-10274720D01*
X35279841Y-10265952D01*
X35268934Y-10256066D01*
X35259048Y-10245159D01*
X35250280Y-10233336D01*
X35242712Y-10220710D01*
X35236418Y-10207403D01*
X35231459Y-10193543D01*
X35227882Y-10179264D01*
X35225722Y-10164703D01*
X35225000Y-10150000D01*
X35225000Y-9850000D01*
X35225722Y-9835297D01*
X35227882Y-9820736D01*
X35231459Y-9806457D01*
X35236418Y-9792597D01*
X35242712Y-9779290D01*
X35250280Y-9766664D01*
X35259048Y-9754841D01*
X35268934Y-9743934D01*
X35279841Y-9734048D01*
X35291664Y-9725280D01*
X35304290Y-9717712D01*
X35317597Y-9711418D01*
X35331457Y-9706459D01*
X35345736Y-9702882D01*
X35360297Y-9700722D01*
X35375000Y-9700000D01*
X36625000Y-9700000D01*
X36639703Y-9700722D01*
X36639703Y-9700722D01*
G37*
D22*
X36000000Y-10000000D03*
D11*
G36*
X40549505Y-5101204D02*
G01*
X40573773Y-5104804D01*
X40597572Y-5110765D01*
X40620671Y-5119030D01*
X40642850Y-5129520D01*
X40663893Y-5142132D01*
X40683599Y-5156747D01*
X40701777Y-5173223D01*
X40718253Y-5191401D01*
X40732868Y-5211107D01*
X40745480Y-5232150D01*
X40755970Y-5254329D01*
X40764235Y-5277428D01*
X40770196Y-5301227D01*
X40773796Y-5325495D01*
X40775000Y-5349999D01*
X40775000Y-6050001D01*
X40773796Y-6074505D01*
X40770196Y-6098773D01*
X40764235Y-6122572D01*
X40755970Y-6145671D01*
X40745480Y-6167850D01*
X40732868Y-6188893D01*
X40718253Y-6208599D01*
X40701777Y-6226777D01*
X40683599Y-6243253D01*
X40663893Y-6257868D01*
X40642850Y-6270480D01*
X40620671Y-6280970D01*
X40597572Y-6289235D01*
X40573773Y-6295196D01*
X40549505Y-6298796D01*
X40525001Y-6300000D01*
X39224999Y-6300000D01*
X39200495Y-6298796D01*
X39176227Y-6295196D01*
X39152428Y-6289235D01*
X39129329Y-6280970D01*
X39107150Y-6270480D01*
X39086107Y-6257868D01*
X39066401Y-6243253D01*
X39048223Y-6226777D01*
X39031747Y-6208599D01*
X39017132Y-6188893D01*
X39004520Y-6167850D01*
X38994030Y-6145671D01*
X38985765Y-6122572D01*
X38979804Y-6098773D01*
X38976204Y-6074505D01*
X38975000Y-6050001D01*
X38975000Y-5349999D01*
X38976204Y-5325495D01*
X38979804Y-5301227D01*
X38985765Y-5277428D01*
X38994030Y-5254329D01*
X39004520Y-5232150D01*
X39017132Y-5211107D01*
X39031747Y-5191401D01*
X39048223Y-5173223D01*
X39066401Y-5156747D01*
X39086107Y-5142132D01*
X39107150Y-5129520D01*
X39129329Y-5119030D01*
X39152428Y-5110765D01*
X39176227Y-5104804D01*
X39200495Y-5101204D01*
X39224999Y-5100000D01*
X40525001Y-5100000D01*
X40549505Y-5101204D01*
X40549505Y-5101204D01*
G37*
D23*
X39875000Y-5700000D03*
D11*
G36*
X40549505Y-10701204D02*
G01*
X40573773Y-10704804D01*
X40597572Y-10710765D01*
X40620671Y-10719030D01*
X40642850Y-10729520D01*
X40663893Y-10742132D01*
X40683599Y-10756747D01*
X40701777Y-10773223D01*
X40718253Y-10791401D01*
X40732868Y-10811107D01*
X40745480Y-10832150D01*
X40755970Y-10854329D01*
X40764235Y-10877428D01*
X40770196Y-10901227D01*
X40773796Y-10925495D01*
X40775000Y-10949999D01*
X40775000Y-11650001D01*
X40773796Y-11674505D01*
X40770196Y-11698773D01*
X40764235Y-11722572D01*
X40755970Y-11745671D01*
X40745480Y-11767850D01*
X40732868Y-11788893D01*
X40718253Y-11808599D01*
X40701777Y-11826777D01*
X40683599Y-11843253D01*
X40663893Y-11857868D01*
X40642850Y-11870480D01*
X40620671Y-11880970D01*
X40597572Y-11889235D01*
X40573773Y-11895196D01*
X40549505Y-11898796D01*
X40525001Y-11900000D01*
X39224999Y-11900000D01*
X39200495Y-11898796D01*
X39176227Y-11895196D01*
X39152428Y-11889235D01*
X39129329Y-11880970D01*
X39107150Y-11870480D01*
X39086107Y-11857868D01*
X39066401Y-11843253D01*
X39048223Y-11826777D01*
X39031747Y-11808599D01*
X39017132Y-11788893D01*
X39004520Y-11767850D01*
X38994030Y-11745671D01*
X38985765Y-11722572D01*
X38979804Y-11698773D01*
X38976204Y-11674505D01*
X38975000Y-11650001D01*
X38975000Y-10949999D01*
X38976204Y-10925495D01*
X38979804Y-10901227D01*
X38985765Y-10877428D01*
X38994030Y-10854329D01*
X39004520Y-10832150D01*
X39017132Y-10811107D01*
X39031747Y-10791401D01*
X39048223Y-10773223D01*
X39066401Y-10756747D01*
X39086107Y-10742132D01*
X39107150Y-10729520D01*
X39129329Y-10719030D01*
X39152428Y-10710765D01*
X39176227Y-10704804D01*
X39200495Y-10701204D01*
X39224999Y-10700000D01*
X40525001Y-10700000D01*
X40549505Y-10701204D01*
X40549505Y-10701204D01*
G37*
D23*
X39875000Y-11300000D03*
D11*
G36*
X14709504Y-7246204D02*
G01*
X14733773Y-7249804D01*
X14757571Y-7255765D01*
X14780671Y-7264030D01*
X14802849Y-7274520D01*
X14823893Y-7287133D01*
X14843598Y-7301747D01*
X14861777Y-7318223D01*
X14878253Y-7336402D01*
X14892867Y-7356107D01*
X14905480Y-7377151D01*
X14915970Y-7399329D01*
X14924235Y-7422429D01*
X14930196Y-7446227D01*
X14933796Y-7470496D01*
X14935000Y-7495000D01*
X14935000Y-8745000D01*
X14933796Y-8769504D01*
X14930196Y-8793773D01*
X14924235Y-8817571D01*
X14915970Y-8840671D01*
X14905480Y-8862849D01*
X14892867Y-8883893D01*
X14878253Y-8903598D01*
X14861777Y-8921777D01*
X14843598Y-8938253D01*
X14823893Y-8952867D01*
X14802849Y-8965480D01*
X14780671Y-8975970D01*
X14757571Y-8984235D01*
X14733773Y-8990196D01*
X14709504Y-8993796D01*
X14685000Y-8995000D01*
X13935000Y-8995000D01*
X13910496Y-8993796D01*
X13886227Y-8990196D01*
X13862429Y-8984235D01*
X13839329Y-8975970D01*
X13817151Y-8965480D01*
X13796107Y-8952867D01*
X13776402Y-8938253D01*
X13758223Y-8921777D01*
X13741747Y-8903598D01*
X13727133Y-8883893D01*
X13714520Y-8862849D01*
X13704030Y-8840671D01*
X13695765Y-8817571D01*
X13689804Y-8793773D01*
X13686204Y-8769504D01*
X13685000Y-8745000D01*
X13685000Y-7495000D01*
X13686204Y-7470496D01*
X13689804Y-7446227D01*
X13695765Y-7422429D01*
X13704030Y-7399329D01*
X13714520Y-7377151D01*
X13727133Y-7356107D01*
X13741747Y-7336402D01*
X13758223Y-7318223D01*
X13776402Y-7301747D01*
X13796107Y-7287133D01*
X13817151Y-7274520D01*
X13839329Y-7264030D01*
X13862429Y-7255765D01*
X13886227Y-7249804D01*
X13910496Y-7246204D01*
X13935000Y-7245000D01*
X14685000Y-7245000D01*
X14709504Y-7246204D01*
X14709504Y-7246204D01*
G37*
D24*
X14310000Y-8120000D03*
D11*
G36*
X17509504Y-7246204D02*
G01*
X17533773Y-7249804D01*
X17557571Y-7255765D01*
X17580671Y-7264030D01*
X17602849Y-7274520D01*
X17623893Y-7287133D01*
X17643598Y-7301747D01*
X17661777Y-7318223D01*
X17678253Y-7336402D01*
X17692867Y-7356107D01*
X17705480Y-7377151D01*
X17715970Y-7399329D01*
X17724235Y-7422429D01*
X17730196Y-7446227D01*
X17733796Y-7470496D01*
X17735000Y-7495000D01*
X17735000Y-8745000D01*
X17733796Y-8769504D01*
X17730196Y-8793773D01*
X17724235Y-8817571D01*
X17715970Y-8840671D01*
X17705480Y-8862849D01*
X17692867Y-8883893D01*
X17678253Y-8903598D01*
X17661777Y-8921777D01*
X17643598Y-8938253D01*
X17623893Y-8952867D01*
X17602849Y-8965480D01*
X17580671Y-8975970D01*
X17557571Y-8984235D01*
X17533773Y-8990196D01*
X17509504Y-8993796D01*
X17485000Y-8995000D01*
X16735000Y-8995000D01*
X16710496Y-8993796D01*
X16686227Y-8990196D01*
X16662429Y-8984235D01*
X16639329Y-8975970D01*
X16617151Y-8965480D01*
X16596107Y-8952867D01*
X16576402Y-8938253D01*
X16558223Y-8921777D01*
X16541747Y-8903598D01*
X16527133Y-8883893D01*
X16514520Y-8862849D01*
X16504030Y-8840671D01*
X16495765Y-8817571D01*
X16489804Y-8793773D01*
X16486204Y-8769504D01*
X16485000Y-8745000D01*
X16485000Y-7495000D01*
X16486204Y-7470496D01*
X16489804Y-7446227D01*
X16495765Y-7422429D01*
X16504030Y-7399329D01*
X16514520Y-7377151D01*
X16527133Y-7356107D01*
X16541747Y-7336402D01*
X16558223Y-7318223D01*
X16576402Y-7301747D01*
X16596107Y-7287133D01*
X16617151Y-7274520D01*
X16639329Y-7264030D01*
X16662429Y-7255765D01*
X16686227Y-7249804D01*
X16710496Y-7246204D01*
X16735000Y-7245000D01*
X17485000Y-7245000D01*
X17509504Y-7246204D01*
X17509504Y-7246204D01*
G37*
D24*
X17110000Y-8120000D03*
D11*
G36*
X19600142Y-18921174D02*
G01*
X19623803Y-18924684D01*
X19647007Y-18930496D01*
X19669529Y-18938554D01*
X19691153Y-18948782D01*
X19711670Y-18961079D01*
X19730883Y-18975329D01*
X19748607Y-18991393D01*
X19764671Y-19009117D01*
X19778921Y-19028330D01*
X19791218Y-19048847D01*
X19801446Y-19070471D01*
X19809504Y-19092993D01*
X19815316Y-19116197D01*
X19818826Y-19139858D01*
X19820000Y-19163750D01*
X19820000Y-19651250D01*
X19818826Y-19675142D01*
X19815316Y-19698803D01*
X19809504Y-19722007D01*
X19801446Y-19744529D01*
X19791218Y-19766153D01*
X19778921Y-19786670D01*
X19764671Y-19805883D01*
X19748607Y-19823607D01*
X19730883Y-19839671D01*
X19711670Y-19853921D01*
X19691153Y-19866218D01*
X19669529Y-19876446D01*
X19647007Y-19884504D01*
X19623803Y-19890316D01*
X19600142Y-19893826D01*
X19576250Y-19895000D01*
X18663750Y-19895000D01*
X18639858Y-19893826D01*
X18616197Y-19890316D01*
X18592993Y-19884504D01*
X18570471Y-19876446D01*
X18548847Y-19866218D01*
X18528330Y-19853921D01*
X18509117Y-19839671D01*
X18491393Y-19823607D01*
X18475329Y-19805883D01*
X18461079Y-19786670D01*
X18448782Y-19766153D01*
X18438554Y-19744529D01*
X18430496Y-19722007D01*
X18424684Y-19698803D01*
X18421174Y-19675142D01*
X18420000Y-19651250D01*
X18420000Y-19163750D01*
X18421174Y-19139858D01*
X18424684Y-19116197D01*
X18430496Y-19092993D01*
X18438554Y-19070471D01*
X18448782Y-19048847D01*
X18461079Y-19028330D01*
X18475329Y-19009117D01*
X18491393Y-18991393D01*
X18509117Y-18975329D01*
X18528330Y-18961079D01*
X18548847Y-18948782D01*
X18570471Y-18938554D01*
X18592993Y-18930496D01*
X18616197Y-18924684D01*
X18639858Y-18921174D01*
X18663750Y-18920000D01*
X19576250Y-18920000D01*
X19600142Y-18921174D01*
X19600142Y-18921174D01*
G37*
D19*
X19120000Y-19407500D03*
D11*
G36*
X19600142Y-17046174D02*
G01*
X19623803Y-17049684D01*
X19647007Y-17055496D01*
X19669529Y-17063554D01*
X19691153Y-17073782D01*
X19711670Y-17086079D01*
X19730883Y-17100329D01*
X19748607Y-17116393D01*
X19764671Y-17134117D01*
X19778921Y-17153330D01*
X19791218Y-17173847D01*
X19801446Y-17195471D01*
X19809504Y-17217993D01*
X19815316Y-17241197D01*
X19818826Y-17264858D01*
X19820000Y-17288750D01*
X19820000Y-17776250D01*
X19818826Y-17800142D01*
X19815316Y-17823803D01*
X19809504Y-17847007D01*
X19801446Y-17869529D01*
X19791218Y-17891153D01*
X19778921Y-17911670D01*
X19764671Y-17930883D01*
X19748607Y-17948607D01*
X19730883Y-17964671D01*
X19711670Y-17978921D01*
X19691153Y-17991218D01*
X19669529Y-18001446D01*
X19647007Y-18009504D01*
X19623803Y-18015316D01*
X19600142Y-18018826D01*
X19576250Y-18020000D01*
X18663750Y-18020000D01*
X18639858Y-18018826D01*
X18616197Y-18015316D01*
X18592993Y-18009504D01*
X18570471Y-18001446D01*
X18548847Y-17991218D01*
X18528330Y-17978921D01*
X18509117Y-17964671D01*
X18491393Y-17948607D01*
X18475329Y-17930883D01*
X18461079Y-17911670D01*
X18448782Y-17891153D01*
X18438554Y-17869529D01*
X18430496Y-17847007D01*
X18424684Y-17823803D01*
X18421174Y-17800142D01*
X18420000Y-17776250D01*
X18420000Y-17288750D01*
X18421174Y-17264858D01*
X18424684Y-17241197D01*
X18430496Y-17217993D01*
X18438554Y-17195471D01*
X18448782Y-17173847D01*
X18461079Y-17153330D01*
X18475329Y-17134117D01*
X18491393Y-17116393D01*
X18509117Y-17100329D01*
X18528330Y-17086079D01*
X18548847Y-17073782D01*
X18570471Y-17063554D01*
X18592993Y-17055496D01*
X18616197Y-17049684D01*
X18639858Y-17046174D01*
X18663750Y-17045000D01*
X19576250Y-17045000D01*
X19600142Y-17046174D01*
X19600142Y-17046174D01*
G37*
D19*
X19120000Y-17532500D03*
D11*
G36*
X31290142Y-30771174D02*
G01*
X31313803Y-30774684D01*
X31337007Y-30780496D01*
X31359529Y-30788554D01*
X31381153Y-30798782D01*
X31401670Y-30811079D01*
X31420883Y-30825329D01*
X31438607Y-30841393D01*
X31454671Y-30859117D01*
X31468921Y-30878330D01*
X31481218Y-30898847D01*
X31491446Y-30920471D01*
X31499504Y-30942993D01*
X31505316Y-30966197D01*
X31508826Y-30989858D01*
X31510000Y-31013750D01*
X31510000Y-31926250D01*
X31508826Y-31950142D01*
X31505316Y-31973803D01*
X31499504Y-31997007D01*
X31491446Y-32019529D01*
X31481218Y-32041153D01*
X31468921Y-32061670D01*
X31454671Y-32080883D01*
X31438607Y-32098607D01*
X31420883Y-32114671D01*
X31401670Y-32128921D01*
X31381153Y-32141218D01*
X31359529Y-32151446D01*
X31337007Y-32159504D01*
X31313803Y-32165316D01*
X31290142Y-32168826D01*
X31266250Y-32170000D01*
X30778750Y-32170000D01*
X30754858Y-32168826D01*
X30731197Y-32165316D01*
X30707993Y-32159504D01*
X30685471Y-32151446D01*
X30663847Y-32141218D01*
X30643330Y-32128921D01*
X30624117Y-32114671D01*
X30606393Y-32098607D01*
X30590329Y-32080883D01*
X30576079Y-32061670D01*
X30563782Y-32041153D01*
X30553554Y-32019529D01*
X30545496Y-31997007D01*
X30539684Y-31973803D01*
X30536174Y-31950142D01*
X30535000Y-31926250D01*
X30535000Y-31013750D01*
X30536174Y-30989858D01*
X30539684Y-30966197D01*
X30545496Y-30942993D01*
X30553554Y-30920471D01*
X30563782Y-30898847D01*
X30576079Y-30878330D01*
X30590329Y-30859117D01*
X30606393Y-30841393D01*
X30624117Y-30825329D01*
X30643330Y-30811079D01*
X30663847Y-30798782D01*
X30685471Y-30788554D01*
X30707993Y-30780496D01*
X30731197Y-30774684D01*
X30754858Y-30771174D01*
X30778750Y-30770000D01*
X31266250Y-30770000D01*
X31290142Y-30771174D01*
X31290142Y-30771174D01*
G37*
D19*
X31022500Y-31470000D03*
D11*
G36*
X33165142Y-30771174D02*
G01*
X33188803Y-30774684D01*
X33212007Y-30780496D01*
X33234529Y-30788554D01*
X33256153Y-30798782D01*
X33276670Y-30811079D01*
X33295883Y-30825329D01*
X33313607Y-30841393D01*
X33329671Y-30859117D01*
X33343921Y-30878330D01*
X33356218Y-30898847D01*
X33366446Y-30920471D01*
X33374504Y-30942993D01*
X33380316Y-30966197D01*
X33383826Y-30989858D01*
X33385000Y-31013750D01*
X33385000Y-31926250D01*
X33383826Y-31950142D01*
X33380316Y-31973803D01*
X33374504Y-31997007D01*
X33366446Y-32019529D01*
X33356218Y-32041153D01*
X33343921Y-32061670D01*
X33329671Y-32080883D01*
X33313607Y-32098607D01*
X33295883Y-32114671D01*
X33276670Y-32128921D01*
X33256153Y-32141218D01*
X33234529Y-32151446D01*
X33212007Y-32159504D01*
X33188803Y-32165316D01*
X33165142Y-32168826D01*
X33141250Y-32170000D01*
X32653750Y-32170000D01*
X32629858Y-32168826D01*
X32606197Y-32165316D01*
X32582993Y-32159504D01*
X32560471Y-32151446D01*
X32538847Y-32141218D01*
X32518330Y-32128921D01*
X32499117Y-32114671D01*
X32481393Y-32098607D01*
X32465329Y-32080883D01*
X32451079Y-32061670D01*
X32438782Y-32041153D01*
X32428554Y-32019529D01*
X32420496Y-31997007D01*
X32414684Y-31973803D01*
X32411174Y-31950142D01*
X32410000Y-31926250D01*
X32410000Y-31013750D01*
X32411174Y-30989858D01*
X32414684Y-30966197D01*
X32420496Y-30942993D01*
X32428554Y-30920471D01*
X32438782Y-30898847D01*
X32451079Y-30878330D01*
X32465329Y-30859117D01*
X32481393Y-30841393D01*
X32499117Y-30825329D01*
X32518330Y-30811079D01*
X32538847Y-30798782D01*
X32560471Y-30788554D01*
X32582993Y-30780496D01*
X32606197Y-30774684D01*
X32629858Y-30771174D01*
X32653750Y-30770000D01*
X33141250Y-30770000D01*
X33165142Y-30771174D01*
X33165142Y-30771174D01*
G37*
D19*
X32897500Y-31470000D03*
D11*
G36*
X31290142Y-25171174D02*
G01*
X31313803Y-25174684D01*
X31337007Y-25180496D01*
X31359529Y-25188554D01*
X31381153Y-25198782D01*
X31401670Y-25211079D01*
X31420883Y-25225329D01*
X31438607Y-25241393D01*
X31454671Y-25259117D01*
X31468921Y-25278330D01*
X31481218Y-25298847D01*
X31491446Y-25320471D01*
X31499504Y-25342993D01*
X31505316Y-25366197D01*
X31508826Y-25389858D01*
X31510000Y-25413750D01*
X31510000Y-26326250D01*
X31508826Y-26350142D01*
X31505316Y-26373803D01*
X31499504Y-26397007D01*
X31491446Y-26419529D01*
X31481218Y-26441153D01*
X31468921Y-26461670D01*
X31454671Y-26480883D01*
X31438607Y-26498607D01*
X31420883Y-26514671D01*
X31401670Y-26528921D01*
X31381153Y-26541218D01*
X31359529Y-26551446D01*
X31337007Y-26559504D01*
X31313803Y-26565316D01*
X31290142Y-26568826D01*
X31266250Y-26570000D01*
X30778750Y-26570000D01*
X30754858Y-26568826D01*
X30731197Y-26565316D01*
X30707993Y-26559504D01*
X30685471Y-26551446D01*
X30663847Y-26541218D01*
X30643330Y-26528921D01*
X30624117Y-26514671D01*
X30606393Y-26498607D01*
X30590329Y-26480883D01*
X30576079Y-26461670D01*
X30563782Y-26441153D01*
X30553554Y-26419529D01*
X30545496Y-26397007D01*
X30539684Y-26373803D01*
X30536174Y-26350142D01*
X30535000Y-26326250D01*
X30535000Y-25413750D01*
X30536174Y-25389858D01*
X30539684Y-25366197D01*
X30545496Y-25342993D01*
X30553554Y-25320471D01*
X30563782Y-25298847D01*
X30576079Y-25278330D01*
X30590329Y-25259117D01*
X30606393Y-25241393D01*
X30624117Y-25225329D01*
X30643330Y-25211079D01*
X30663847Y-25198782D01*
X30685471Y-25188554D01*
X30707993Y-25180496D01*
X30731197Y-25174684D01*
X30754858Y-25171174D01*
X30778750Y-25170000D01*
X31266250Y-25170000D01*
X31290142Y-25171174D01*
X31290142Y-25171174D01*
G37*
D19*
X31022500Y-25870000D03*
D11*
G36*
X33165142Y-25171174D02*
G01*
X33188803Y-25174684D01*
X33212007Y-25180496D01*
X33234529Y-25188554D01*
X33256153Y-25198782D01*
X33276670Y-25211079D01*
X33295883Y-25225329D01*
X33313607Y-25241393D01*
X33329671Y-25259117D01*
X33343921Y-25278330D01*
X33356218Y-25298847D01*
X33366446Y-25320471D01*
X33374504Y-25342993D01*
X33380316Y-25366197D01*
X33383826Y-25389858D01*
X33385000Y-25413750D01*
X33385000Y-26326250D01*
X33383826Y-26350142D01*
X33380316Y-26373803D01*
X33374504Y-26397007D01*
X33366446Y-26419529D01*
X33356218Y-26441153D01*
X33343921Y-26461670D01*
X33329671Y-26480883D01*
X33313607Y-26498607D01*
X33295883Y-26514671D01*
X33276670Y-26528921D01*
X33256153Y-26541218D01*
X33234529Y-26551446D01*
X33212007Y-26559504D01*
X33188803Y-26565316D01*
X33165142Y-26568826D01*
X33141250Y-26570000D01*
X32653750Y-26570000D01*
X32629858Y-26568826D01*
X32606197Y-26565316D01*
X32582993Y-26559504D01*
X32560471Y-26551446D01*
X32538847Y-26541218D01*
X32518330Y-26528921D01*
X32499117Y-26514671D01*
X32481393Y-26498607D01*
X32465329Y-26480883D01*
X32451079Y-26461670D01*
X32438782Y-26441153D01*
X32428554Y-26419529D01*
X32420496Y-26397007D01*
X32414684Y-26373803D01*
X32411174Y-26350142D01*
X32410000Y-26326250D01*
X32410000Y-25413750D01*
X32411174Y-25389858D01*
X32414684Y-25366197D01*
X32420496Y-25342993D01*
X32428554Y-25320471D01*
X32438782Y-25298847D01*
X32451079Y-25278330D01*
X32465329Y-25259117D01*
X32481393Y-25241393D01*
X32499117Y-25225329D01*
X32518330Y-25211079D01*
X32538847Y-25198782D01*
X32560471Y-25188554D01*
X32582993Y-25180496D01*
X32606197Y-25174684D01*
X32629858Y-25171174D01*
X32653750Y-25170000D01*
X33141250Y-25170000D01*
X33165142Y-25171174D01*
X33165142Y-25171174D01*
G37*
D19*
X32897500Y-25870000D03*
D11*
G36*
X13453892Y-19051174D02*
G01*
X13477553Y-19054684D01*
X13500757Y-19060496D01*
X13523279Y-19068554D01*
X13544903Y-19078782D01*
X13565420Y-19091079D01*
X13584633Y-19105329D01*
X13602357Y-19121393D01*
X13618421Y-19139117D01*
X13632671Y-19158330D01*
X13644968Y-19178847D01*
X13655196Y-19200471D01*
X13663254Y-19222993D01*
X13669066Y-19246197D01*
X13672576Y-19269858D01*
X13673750Y-19293750D01*
X13673750Y-20206250D01*
X13672576Y-20230142D01*
X13669066Y-20253803D01*
X13663254Y-20277007D01*
X13655196Y-20299529D01*
X13644968Y-20321153D01*
X13632671Y-20341670D01*
X13618421Y-20360883D01*
X13602357Y-20378607D01*
X13584633Y-20394671D01*
X13565420Y-20408921D01*
X13544903Y-20421218D01*
X13523279Y-20431446D01*
X13500757Y-20439504D01*
X13477553Y-20445316D01*
X13453892Y-20448826D01*
X13430000Y-20450000D01*
X12942500Y-20450000D01*
X12918608Y-20448826D01*
X12894947Y-20445316D01*
X12871743Y-20439504D01*
X12849221Y-20431446D01*
X12827597Y-20421218D01*
X12807080Y-20408921D01*
X12787867Y-20394671D01*
X12770143Y-20378607D01*
X12754079Y-20360883D01*
X12739829Y-20341670D01*
X12727532Y-20321153D01*
X12717304Y-20299529D01*
X12709246Y-20277007D01*
X12703434Y-20253803D01*
X12699924Y-20230142D01*
X12698750Y-20206250D01*
X12698750Y-19293750D01*
X12699924Y-19269858D01*
X12703434Y-19246197D01*
X12709246Y-19222993D01*
X12717304Y-19200471D01*
X12727532Y-19178847D01*
X12739829Y-19158330D01*
X12754079Y-19139117D01*
X12770143Y-19121393D01*
X12787867Y-19105329D01*
X12807080Y-19091079D01*
X12827597Y-19078782D01*
X12849221Y-19068554D01*
X12871743Y-19060496D01*
X12894947Y-19054684D01*
X12918608Y-19051174D01*
X12942500Y-19050000D01*
X13430000Y-19050000D01*
X13453892Y-19051174D01*
X13453892Y-19051174D01*
G37*
D19*
X13186250Y-19750000D03*
D11*
G36*
X15328892Y-19051174D02*
G01*
X15352553Y-19054684D01*
X15375757Y-19060496D01*
X15398279Y-19068554D01*
X15419903Y-19078782D01*
X15440420Y-19091079D01*
X15459633Y-19105329D01*
X15477357Y-19121393D01*
X15493421Y-19139117D01*
X15507671Y-19158330D01*
X15519968Y-19178847D01*
X15530196Y-19200471D01*
X15538254Y-19222993D01*
X15544066Y-19246197D01*
X15547576Y-19269858D01*
X15548750Y-19293750D01*
X15548750Y-20206250D01*
X15547576Y-20230142D01*
X15544066Y-20253803D01*
X15538254Y-20277007D01*
X15530196Y-20299529D01*
X15519968Y-20321153D01*
X15507671Y-20341670D01*
X15493421Y-20360883D01*
X15477357Y-20378607D01*
X15459633Y-20394671D01*
X15440420Y-20408921D01*
X15419903Y-20421218D01*
X15398279Y-20431446D01*
X15375757Y-20439504D01*
X15352553Y-20445316D01*
X15328892Y-20448826D01*
X15305000Y-20450000D01*
X14817500Y-20450000D01*
X14793608Y-20448826D01*
X14769947Y-20445316D01*
X14746743Y-20439504D01*
X14724221Y-20431446D01*
X14702597Y-20421218D01*
X14682080Y-20408921D01*
X14662867Y-20394671D01*
X14645143Y-20378607D01*
X14629079Y-20360883D01*
X14614829Y-20341670D01*
X14602532Y-20321153D01*
X14592304Y-20299529D01*
X14584246Y-20277007D01*
X14578434Y-20253803D01*
X14574924Y-20230142D01*
X14573750Y-20206250D01*
X14573750Y-19293750D01*
X14574924Y-19269858D01*
X14578434Y-19246197D01*
X14584246Y-19222993D01*
X14592304Y-19200471D01*
X14602532Y-19178847D01*
X14614829Y-19158330D01*
X14629079Y-19139117D01*
X14645143Y-19121393D01*
X14662867Y-19105329D01*
X14682080Y-19091079D01*
X14702597Y-19078782D01*
X14724221Y-19068554D01*
X14746743Y-19060496D01*
X14769947Y-19054684D01*
X14793608Y-19051174D01*
X14817500Y-19050000D01*
X15305000Y-19050000D01*
X15328892Y-19051174D01*
X15328892Y-19051174D01*
G37*
D19*
X15061250Y-19750000D03*
D11*
G36*
X24265142Y-37211174D02*
G01*
X24288803Y-37214684D01*
X24312007Y-37220496D01*
X24334529Y-37228554D01*
X24356153Y-37238782D01*
X24376670Y-37251079D01*
X24395883Y-37265329D01*
X24413607Y-37281393D01*
X24429671Y-37299117D01*
X24443921Y-37318330D01*
X24456218Y-37338847D01*
X24466446Y-37360471D01*
X24474504Y-37382993D01*
X24480316Y-37406197D01*
X24483826Y-37429858D01*
X24485000Y-37453750D01*
X24485000Y-38366250D01*
X24483826Y-38390142D01*
X24480316Y-38413803D01*
X24474504Y-38437007D01*
X24466446Y-38459529D01*
X24456218Y-38481153D01*
X24443921Y-38501670D01*
X24429671Y-38520883D01*
X24413607Y-38538607D01*
X24395883Y-38554671D01*
X24376670Y-38568921D01*
X24356153Y-38581218D01*
X24334529Y-38591446D01*
X24312007Y-38599504D01*
X24288803Y-38605316D01*
X24265142Y-38608826D01*
X24241250Y-38610000D01*
X23753750Y-38610000D01*
X23729858Y-38608826D01*
X23706197Y-38605316D01*
X23682993Y-38599504D01*
X23660471Y-38591446D01*
X23638847Y-38581218D01*
X23618330Y-38568921D01*
X23599117Y-38554671D01*
X23581393Y-38538607D01*
X23565329Y-38520883D01*
X23551079Y-38501670D01*
X23538782Y-38481153D01*
X23528554Y-38459529D01*
X23520496Y-38437007D01*
X23514684Y-38413803D01*
X23511174Y-38390142D01*
X23510000Y-38366250D01*
X23510000Y-37453750D01*
X23511174Y-37429858D01*
X23514684Y-37406197D01*
X23520496Y-37382993D01*
X23528554Y-37360471D01*
X23538782Y-37338847D01*
X23551079Y-37318330D01*
X23565329Y-37299117D01*
X23581393Y-37281393D01*
X23599117Y-37265329D01*
X23618330Y-37251079D01*
X23638847Y-37238782D01*
X23660471Y-37228554D01*
X23682993Y-37220496D01*
X23706197Y-37214684D01*
X23729858Y-37211174D01*
X23753750Y-37210000D01*
X24241250Y-37210000D01*
X24265142Y-37211174D01*
X24265142Y-37211174D01*
G37*
D19*
X23997500Y-37910000D03*
D11*
G36*
X22390142Y-37211174D02*
G01*
X22413803Y-37214684D01*
X22437007Y-37220496D01*
X22459529Y-37228554D01*
X22481153Y-37238782D01*
X22501670Y-37251079D01*
X22520883Y-37265329D01*
X22538607Y-37281393D01*
X22554671Y-37299117D01*
X22568921Y-37318330D01*
X22581218Y-37338847D01*
X22591446Y-37360471D01*
X22599504Y-37382993D01*
X22605316Y-37406197D01*
X22608826Y-37429858D01*
X22610000Y-37453750D01*
X22610000Y-38366250D01*
X22608826Y-38390142D01*
X22605316Y-38413803D01*
X22599504Y-38437007D01*
X22591446Y-38459529D01*
X22581218Y-38481153D01*
X22568921Y-38501670D01*
X22554671Y-38520883D01*
X22538607Y-38538607D01*
X22520883Y-38554671D01*
X22501670Y-38568921D01*
X22481153Y-38581218D01*
X22459529Y-38591446D01*
X22437007Y-38599504D01*
X22413803Y-38605316D01*
X22390142Y-38608826D01*
X22366250Y-38610000D01*
X21878750Y-38610000D01*
X21854858Y-38608826D01*
X21831197Y-38605316D01*
X21807993Y-38599504D01*
X21785471Y-38591446D01*
X21763847Y-38581218D01*
X21743330Y-38568921D01*
X21724117Y-38554671D01*
X21706393Y-38538607D01*
X21690329Y-38520883D01*
X21676079Y-38501670D01*
X21663782Y-38481153D01*
X21653554Y-38459529D01*
X21645496Y-38437007D01*
X21639684Y-38413803D01*
X21636174Y-38390142D01*
X21635000Y-38366250D01*
X21635000Y-37453750D01*
X21636174Y-37429858D01*
X21639684Y-37406197D01*
X21645496Y-37382993D01*
X21653554Y-37360471D01*
X21663782Y-37338847D01*
X21676079Y-37318330D01*
X21690329Y-37299117D01*
X21706393Y-37281393D01*
X21724117Y-37265329D01*
X21743330Y-37251079D01*
X21763847Y-37238782D01*
X21785471Y-37228554D01*
X21807993Y-37220496D01*
X21831197Y-37214684D01*
X21854858Y-37211174D01*
X21878750Y-37210000D01*
X22366250Y-37210000D01*
X22390142Y-37211174D01*
X22390142Y-37211174D01*
G37*
D19*
X22122500Y-37910000D03*
D11*
G36*
X9378892Y-28859924D02*
G01*
X9402553Y-28863434D01*
X9425757Y-28869246D01*
X9448279Y-28877304D01*
X9469903Y-28887532D01*
X9490420Y-28899829D01*
X9509633Y-28914079D01*
X9527357Y-28930143D01*
X9543421Y-28947867D01*
X9557671Y-28967080D01*
X9569968Y-28987597D01*
X9580196Y-29009221D01*
X9588254Y-29031743D01*
X9594066Y-29054947D01*
X9597576Y-29078608D01*
X9598750Y-29102500D01*
X9598750Y-30015000D01*
X9597576Y-30038892D01*
X9594066Y-30062553D01*
X9588254Y-30085757D01*
X9580196Y-30108279D01*
X9569968Y-30129903D01*
X9557671Y-30150420D01*
X9543421Y-30169633D01*
X9527357Y-30187357D01*
X9509633Y-30203421D01*
X9490420Y-30217671D01*
X9469903Y-30229968D01*
X9448279Y-30240196D01*
X9425757Y-30248254D01*
X9402553Y-30254066D01*
X9378892Y-30257576D01*
X9355000Y-30258750D01*
X8867500Y-30258750D01*
X8843608Y-30257576D01*
X8819947Y-30254066D01*
X8796743Y-30248254D01*
X8774221Y-30240196D01*
X8752597Y-30229968D01*
X8732080Y-30217671D01*
X8712867Y-30203421D01*
X8695143Y-30187357D01*
X8679079Y-30169633D01*
X8664829Y-30150420D01*
X8652532Y-30129903D01*
X8642304Y-30108279D01*
X8634246Y-30085757D01*
X8628434Y-30062553D01*
X8624924Y-30038892D01*
X8623750Y-30015000D01*
X8623750Y-29102500D01*
X8624924Y-29078608D01*
X8628434Y-29054947D01*
X8634246Y-29031743D01*
X8642304Y-29009221D01*
X8652532Y-28987597D01*
X8664829Y-28967080D01*
X8679079Y-28947867D01*
X8695143Y-28930143D01*
X8712867Y-28914079D01*
X8732080Y-28899829D01*
X8752597Y-28887532D01*
X8774221Y-28877304D01*
X8796743Y-28869246D01*
X8819947Y-28863434D01*
X8843608Y-28859924D01*
X8867500Y-28858750D01*
X9355000Y-28858750D01*
X9378892Y-28859924D01*
X9378892Y-28859924D01*
G37*
D19*
X9111250Y-29558750D03*
D11*
G36*
X7503892Y-28859924D02*
G01*
X7527553Y-28863434D01*
X7550757Y-28869246D01*
X7573279Y-28877304D01*
X7594903Y-28887532D01*
X7615420Y-28899829D01*
X7634633Y-28914079D01*
X7652357Y-28930143D01*
X7668421Y-28947867D01*
X7682671Y-28967080D01*
X7694968Y-28987597D01*
X7705196Y-29009221D01*
X7713254Y-29031743D01*
X7719066Y-29054947D01*
X7722576Y-29078608D01*
X7723750Y-29102500D01*
X7723750Y-30015000D01*
X7722576Y-30038892D01*
X7719066Y-30062553D01*
X7713254Y-30085757D01*
X7705196Y-30108279D01*
X7694968Y-30129903D01*
X7682671Y-30150420D01*
X7668421Y-30169633D01*
X7652357Y-30187357D01*
X7634633Y-30203421D01*
X7615420Y-30217671D01*
X7594903Y-30229968D01*
X7573279Y-30240196D01*
X7550757Y-30248254D01*
X7527553Y-30254066D01*
X7503892Y-30257576D01*
X7480000Y-30258750D01*
X6992500Y-30258750D01*
X6968608Y-30257576D01*
X6944947Y-30254066D01*
X6921743Y-30248254D01*
X6899221Y-30240196D01*
X6877597Y-30229968D01*
X6857080Y-30217671D01*
X6837867Y-30203421D01*
X6820143Y-30187357D01*
X6804079Y-30169633D01*
X6789829Y-30150420D01*
X6777532Y-30129903D01*
X6767304Y-30108279D01*
X6759246Y-30085757D01*
X6753434Y-30062553D01*
X6749924Y-30038892D01*
X6748750Y-30015000D01*
X6748750Y-29102500D01*
X6749924Y-29078608D01*
X6753434Y-29054947D01*
X6759246Y-29031743D01*
X6767304Y-29009221D01*
X6777532Y-28987597D01*
X6789829Y-28967080D01*
X6804079Y-28947867D01*
X6820143Y-28930143D01*
X6837867Y-28914079D01*
X6857080Y-28899829D01*
X6877597Y-28887532D01*
X6899221Y-28877304D01*
X6921743Y-28869246D01*
X6944947Y-28863434D01*
X6968608Y-28859924D01*
X6992500Y-28858750D01*
X7480000Y-28858750D01*
X7503892Y-28859924D01*
X7503892Y-28859924D01*
G37*
D19*
X7236250Y-29558750D03*
D11*
G36*
X28640142Y-25371174D02*
G01*
X28663803Y-25374684D01*
X28687007Y-25380496D01*
X28709529Y-25388554D01*
X28731153Y-25398782D01*
X28751670Y-25411079D01*
X28770883Y-25425329D01*
X28788607Y-25441393D01*
X28804671Y-25459117D01*
X28818921Y-25478330D01*
X28831218Y-25498847D01*
X28841446Y-25520471D01*
X28849504Y-25542993D01*
X28855316Y-25566197D01*
X28858826Y-25589858D01*
X28860000Y-25613750D01*
X28860000Y-26101250D01*
X28858826Y-26125142D01*
X28855316Y-26148803D01*
X28849504Y-26172007D01*
X28841446Y-26194529D01*
X28831218Y-26216153D01*
X28818921Y-26236670D01*
X28804671Y-26255883D01*
X28788607Y-26273607D01*
X28770883Y-26289671D01*
X28751670Y-26303921D01*
X28731153Y-26316218D01*
X28709529Y-26326446D01*
X28687007Y-26334504D01*
X28663803Y-26340316D01*
X28640142Y-26343826D01*
X28616250Y-26345000D01*
X27703750Y-26345000D01*
X27679858Y-26343826D01*
X27656197Y-26340316D01*
X27632993Y-26334504D01*
X27610471Y-26326446D01*
X27588847Y-26316218D01*
X27568330Y-26303921D01*
X27549117Y-26289671D01*
X27531393Y-26273607D01*
X27515329Y-26255883D01*
X27501079Y-26236670D01*
X27488782Y-26216153D01*
X27478554Y-26194529D01*
X27470496Y-26172007D01*
X27464684Y-26148803D01*
X27461174Y-26125142D01*
X27460000Y-26101250D01*
X27460000Y-25613750D01*
X27461174Y-25589858D01*
X27464684Y-25566197D01*
X27470496Y-25542993D01*
X27478554Y-25520471D01*
X27488782Y-25498847D01*
X27501079Y-25478330D01*
X27515329Y-25459117D01*
X27531393Y-25441393D01*
X27549117Y-25425329D01*
X27568330Y-25411079D01*
X27588847Y-25398782D01*
X27610471Y-25388554D01*
X27632993Y-25380496D01*
X27656197Y-25374684D01*
X27679858Y-25371174D01*
X27703750Y-25370000D01*
X28616250Y-25370000D01*
X28640142Y-25371174D01*
X28640142Y-25371174D01*
G37*
D19*
X28160000Y-25857500D03*
D11*
G36*
X28640142Y-23496174D02*
G01*
X28663803Y-23499684D01*
X28687007Y-23505496D01*
X28709529Y-23513554D01*
X28731153Y-23523782D01*
X28751670Y-23536079D01*
X28770883Y-23550329D01*
X28788607Y-23566393D01*
X28804671Y-23584117D01*
X28818921Y-23603330D01*
X28831218Y-23623847D01*
X28841446Y-23645471D01*
X28849504Y-23667993D01*
X28855316Y-23691197D01*
X28858826Y-23714858D01*
X28860000Y-23738750D01*
X28860000Y-24226250D01*
X28858826Y-24250142D01*
X28855316Y-24273803D01*
X28849504Y-24297007D01*
X28841446Y-24319529D01*
X28831218Y-24341153D01*
X28818921Y-24361670D01*
X28804671Y-24380883D01*
X28788607Y-24398607D01*
X28770883Y-24414671D01*
X28751670Y-24428921D01*
X28731153Y-24441218D01*
X28709529Y-24451446D01*
X28687007Y-24459504D01*
X28663803Y-24465316D01*
X28640142Y-24468826D01*
X28616250Y-24470000D01*
X27703750Y-24470000D01*
X27679858Y-24468826D01*
X27656197Y-24465316D01*
X27632993Y-24459504D01*
X27610471Y-24451446D01*
X27588847Y-24441218D01*
X27568330Y-24428921D01*
X27549117Y-24414671D01*
X27531393Y-24398607D01*
X27515329Y-24380883D01*
X27501079Y-24361670D01*
X27488782Y-24341153D01*
X27478554Y-24319529D01*
X27470496Y-24297007D01*
X27464684Y-24273803D01*
X27461174Y-24250142D01*
X27460000Y-24226250D01*
X27460000Y-23738750D01*
X27461174Y-23714858D01*
X27464684Y-23691197D01*
X27470496Y-23667993D01*
X27478554Y-23645471D01*
X27488782Y-23623847D01*
X27501079Y-23603330D01*
X27515329Y-23584117D01*
X27531393Y-23566393D01*
X27549117Y-23550329D01*
X27568330Y-23536079D01*
X27588847Y-23523782D01*
X27610471Y-23513554D01*
X27632993Y-23505496D01*
X27656197Y-23499684D01*
X27679858Y-23496174D01*
X27703750Y-23495000D01*
X28616250Y-23495000D01*
X28640142Y-23496174D01*
X28640142Y-23496174D01*
G37*
D19*
X28160000Y-23982500D03*
D25*
X1251485Y-10431484D03*
X31887500Y-24060000D03*
X23997500Y-39576250D03*
X22413750Y-45630000D03*
X31233750Y-10920000D03*
X13893750Y-21565000D03*
X13603750Y-2443750D03*
X11160000Y-22290000D03*
X25250000Y-20460000D03*
X19943750Y-44970000D03*
X27883750Y-39590000D03*
X15621260Y-59590000D03*
X10326045Y-26005739D03*
X14887500Y-78643750D03*
X9121338Y-26086250D03*
X15710000Y-5020002D03*
X22902295Y-14252418D03*
X21652295Y-14252418D03*
X14460000Y-5020002D03*
X24152295Y-14252418D03*
X16960000Y-5020002D03*
X7302500Y-26811250D03*
X17248750Y-40950000D03*
X11441251Y-26095639D03*
X270643750Y-42053125D03*
X8027500Y-23018750D03*
X6350000Y21431250D03*
X16353750Y-21306250D03*
X20360000Y-21295000D03*
X22120000Y-39260000D03*
X8164520Y-28255480D03*
X28779382Y-22859382D03*
X13854251Y-23080501D03*
X33553750Y-5020002D03*
X40204145Y-23239605D03*
D26*
X17384750Y-25558750D02*
X18753750Y-24189750D01*
X18753750Y-24189750D02*
X18753750Y-23058750D01*
X13853750Y-25558750D02*
X17384750Y-25558750D01*
X14984750Y-31958750D02*
X17384750Y-29558750D01*
X13853750Y-31958750D02*
X14984750Y-31958750D01*
X23553750Y-34458750D02*
X23553750Y-33327750D01*
X23553750Y-33327750D02*
X19701250Y-29475250D01*
X17384750Y-29558750D02*
X17384750Y-29475250D01*
X19701250Y-29475250D02*
X17384750Y-29475250D01*
X17384750Y-29475250D02*
X17384750Y-25558750D01*
X22017750Y-27158750D02*
X19701250Y-29475250D01*
X25253750Y-27158750D02*
X22017750Y-27158750D01*
X9111250Y-29558750D02*
X10078750Y-29558750D01*
X49393750Y-28385000D02*
X43093750Y-28385000D01*
X12778750Y-31958750D02*
X13853750Y-31958750D01*
X10078750Y-29558750D02*
X10378750Y-29558750D01*
X10378750Y-29558750D02*
X12778750Y-31958750D01*
X18753750Y-20361250D02*
X18753750Y-21046250D01*
X19120000Y-19995000D02*
X18753750Y-20361250D01*
X19120000Y-19407500D02*
X19120000Y-19995000D01*
X18753750Y-23058750D02*
X18753750Y-21046250D01*
X23553750Y-34458750D02*
X23553750Y-35963750D01*
X23997500Y-36927500D02*
X23553750Y-36483750D01*
X23997500Y-37910000D02*
X23997500Y-36927500D01*
X23553750Y-36483750D02*
X23553750Y-35963750D01*
X32862902Y-27820000D02*
X33060000Y-27820000D01*
X31162902Y-29520000D02*
X32862902Y-27820000D01*
X30860000Y-29520000D02*
X31162902Y-29520000D01*
X33060000Y-26032500D02*
X32897500Y-25870000D01*
X33060000Y-27820000D02*
X33060000Y-26032500D01*
X34141000Y-27820000D02*
X33060000Y-27820000D01*
X34141000Y-27820000D02*
X34630000Y-28309000D01*
X34630000Y-28309000D02*
X34630000Y-30950000D01*
X34110000Y-31470000D02*
X32897500Y-31470000D01*
X34630000Y-30950000D02*
X34110000Y-31470000D01*
X25253750Y-27158750D02*
X27871250Y-27158750D01*
X28160000Y-26870000D02*
X28160000Y-25857500D01*
X27871250Y-27158750D02*
X28160000Y-26870000D01*
X28160000Y-25857500D02*
X29957500Y-24060000D01*
X31887500Y-24060000D02*
X29957500Y-24060000D01*
X32897500Y-25070000D02*
X31887500Y-24060000D01*
X32897500Y-25870000D02*
X32897500Y-25070000D01*
X43093750Y-28385000D02*
X40755000Y-28385000D01*
X40755000Y-28385000D02*
X38828990Y-26458990D01*
X31887500Y-24060000D02*
X32897500Y-23050000D01*
X32897500Y-23050000D02*
X38068328Y-23050000D01*
X38828990Y-23810662D02*
X38828990Y-26458990D01*
X38068328Y-23050000D02*
X38828990Y-23810662D01*
X23997500Y-37910000D02*
X23997500Y-39576250D01*
X20823750Y-47887500D02*
X21936250Y-47887500D01*
X21936250Y-47887500D02*
X22413750Y-47410000D01*
X22413750Y-47410000D02*
X22413750Y-45630000D01*
X11958991Y-24794991D02*
X12722750Y-25558750D01*
X12722750Y-25558750D02*
X13853750Y-25558750D01*
X11958991Y-20389759D02*
X11958991Y-21424759D01*
X12598750Y-19750000D02*
X11958991Y-20389759D01*
X13186250Y-19750000D02*
X12598750Y-19750000D01*
X11958991Y-21424759D02*
X11958991Y-24794991D01*
X13186250Y-19750000D02*
X13186250Y-18722740D01*
X35225000Y-10000000D02*
X36100000Y-10000000D01*
X31233750Y-10920000D02*
X32638240Y-9515510D01*
X34640510Y-9515510D02*
X35125000Y-10000000D01*
X29623750Y-10920000D02*
X31233750Y-10920000D01*
X29323750Y-9700000D02*
X29323750Y-10620000D01*
X29323750Y-10620000D02*
X29623750Y-10920000D01*
X32638240Y-9515510D02*
X34640510Y-9515510D01*
X13186250Y-18732740D02*
X13186250Y-19750000D01*
X13153750Y-9130000D02*
X13728990Y-9705240D01*
X13728990Y-18190000D02*
X13186250Y-18732740D01*
X1260000Y-10422969D02*
X1260000Y-10126705D01*
X1251485Y-10431484D02*
X1260000Y-10422969D01*
X1260000Y-10126705D02*
X5606705Y-5780000D01*
X13728990Y-9705240D02*
X13728990Y-18190000D01*
X5606705Y-5780000D02*
X12148328Y-5780000D01*
X12148328Y-5780000D02*
X13153750Y-6785422D01*
X13153750Y-6785422D02*
X13153750Y-9130000D01*
D27*
X31022500Y-27657500D02*
X30860000Y-27820000D01*
X31022500Y-25870000D02*
X31022500Y-27657500D01*
X28933750Y-27958750D02*
X28751250Y-27958750D01*
X28751250Y-27958750D02*
X25253750Y-27958750D01*
X29811250Y-26493750D02*
X29811250Y-27081250D01*
X30435000Y-25870000D02*
X29811250Y-26493750D01*
X31022500Y-25870000D02*
X30435000Y-25870000D01*
X29811250Y-27081250D02*
X28933750Y-27958750D01*
X32972500Y-29520000D02*
X33060000Y-29520000D01*
X31022500Y-31470000D02*
X32972500Y-29520000D01*
X25253750Y-28758750D02*
X28988750Y-28758750D01*
X29790000Y-29560000D02*
X28988750Y-28758750D01*
X29790000Y-30825000D02*
X29790000Y-29560000D01*
X30435000Y-31470000D02*
X29790000Y-30825000D01*
X31022500Y-31470000D02*
X30435000Y-31470000D01*
X7937500Y1556250D02*
X7937500Y856250D01*
X6953750Y2540000D02*
X7937500Y1556250D01*
X-3810000Y2540000D02*
X6953750Y2540000D01*
X14535000Y-21565000D02*
X13893750Y-21565000D01*
X15553750Y-23058750D02*
X15553750Y-22583750D01*
X15553750Y-22583750D02*
X14535000Y-21565000D01*
X7937500Y-2443750D02*
X13603750Y-2443750D01*
X11271250Y-2443750D02*
X13038065Y-2443750D01*
X13038065Y-2443750D02*
X13603750Y-2443750D01*
X14169435Y-2443750D02*
X13603750Y-2443750D01*
X239643750Y-2443750D02*
X14169435Y-2443750D01*
X11112500Y1556250D02*
X11112500Y856250D01*
X12096250Y2540000D02*
X11112500Y1556250D01*
X15240000Y2540000D02*
X12096250Y2540000D01*
X28575000Y1556250D02*
X28575000Y856250D01*
X29558750Y2540000D02*
X28575000Y1556250D01*
X34290000Y2540000D02*
X29558750Y2540000D01*
X51749010Y2540000D02*
X53340000Y2540000D01*
X48608750Y2540000D02*
X51749010Y2540000D01*
X47625000Y1556250D02*
X48608750Y2540000D01*
X47625000Y856250D02*
X47625000Y1556250D01*
X66675000Y1556250D02*
X66675000Y856250D01*
X67658750Y2540000D02*
X66675000Y1556250D01*
X72390000Y2540000D02*
X67658750Y2540000D01*
X85725000Y1556250D02*
X85725000Y856250D01*
X86708750Y2540000D02*
X85725000Y1556250D01*
X91440000Y2540000D02*
X86708750Y2540000D01*
X104775000Y1556250D02*
X104775000Y856250D01*
X105758750Y2540000D02*
X104775000Y1556250D01*
X110490000Y2540000D02*
X105758750Y2540000D01*
X123825000Y1556250D02*
X123825000Y856250D01*
X124808750Y2540000D02*
X123825000Y1556250D01*
X129540000Y2540000D02*
X124808750Y2540000D01*
X142875000Y1556250D02*
X142875000Y856250D01*
X143858750Y2540000D02*
X142875000Y1556250D01*
X148590000Y2540000D02*
X143858750Y2540000D01*
X161925000Y1556250D02*
X161925000Y856250D01*
X162908750Y2540000D02*
X161925000Y1556250D01*
X167640000Y2540000D02*
X162908750Y2540000D01*
X180975000Y1556250D02*
X180975000Y856250D01*
X181958750Y2540000D02*
X180975000Y1556250D01*
X186690000Y2540000D02*
X181958750Y2540000D01*
X200025000Y1556250D02*
X200025000Y856250D01*
X201008750Y2540000D02*
X200025000Y1556250D01*
X205740000Y2540000D02*
X201008750Y2540000D01*
X219075000Y1556250D02*
X219075000Y856250D01*
X220058750Y2540000D02*
X219075000Y1556250D01*
X224790000Y2540000D02*
X220058750Y2540000D01*
X239655000Y1556250D02*
X239655000Y856250D01*
X240638750Y2540000D02*
X239655000Y1556250D01*
X243840000Y2540000D02*
X240638750Y2540000D01*
X253365000Y2540000D02*
X262890000Y2540000D01*
X236585000Y1891250D02*
X236585000Y856250D01*
X239293750Y4600000D02*
X236585000Y1891250D01*
X247493750Y4600000D02*
X239293750Y4600000D01*
X253365000Y2540000D02*
X249553750Y2540000D01*
X249553750Y2540000D02*
X247493750Y4600000D01*
X-3175000Y-18287500D02*
X-3175000Y-18987500D01*
X-1397500Y-16510000D02*
X-3175000Y-18287500D01*
X952500Y-16510000D02*
X-1397500Y-16510000D01*
X26355990Y-16510000D02*
X24765000Y-16510000D01*
X57887500Y-18193750D02*
X55673750Y-15980000D01*
X41473750Y-16510000D02*
X26355990Y-16510000D01*
X58737500Y-18193750D02*
X57887500Y-18193750D01*
X55673750Y-15980000D02*
X45603750Y-15980000D01*
X45603750Y-15980000D02*
X44503750Y-14880000D01*
X44503750Y-14880000D02*
X43103750Y-14880000D01*
X43103750Y-14880000D02*
X41473750Y-16510000D01*
X-3175000Y-22287500D02*
X11157500Y-22287500D01*
X11157500Y-22287500D02*
X11160000Y-22290000D01*
X28435602Y-21493750D02*
X55562500Y-21493750D01*
X28435602Y-21493750D02*
X27129352Y-22800000D01*
X27129352Y-22800000D02*
X26082500Y-22800000D01*
X25253750Y-23628750D02*
X25253750Y-24758750D01*
X26082500Y-22800000D02*
X25253750Y-23628750D01*
X26082500Y-21292500D02*
X25250000Y-20460000D01*
X26082500Y-22800000D02*
X26082500Y-21292500D01*
X252350000Y-21493750D02*
X55562500Y-21493750D01*
X252393750Y-21450000D02*
X252350000Y-21493750D01*
X55562500Y-17493750D02*
X55562500Y-18193750D01*
X54578750Y-16510000D02*
X55562500Y-17493750D01*
X43815000Y-16510000D02*
X54578750Y-16510000D01*
X74612500Y-17493750D02*
X74612500Y-18193750D01*
X73628750Y-16510000D02*
X74612500Y-17493750D01*
X62865000Y-16510000D02*
X73628750Y-16510000D01*
X80324010Y-16510000D02*
X81915000Y-16510000D01*
X78771250Y-16510000D02*
X80324010Y-16510000D01*
X77787500Y-17493750D02*
X78771250Y-16510000D01*
X77787500Y-18193750D02*
X77787500Y-17493750D01*
X99374010Y-16510000D02*
X100965000Y-16510000D01*
X96233750Y-16510000D02*
X99374010Y-16510000D01*
X95250000Y-17493750D02*
X96233750Y-16510000D01*
X95250000Y-18193750D02*
X95250000Y-17493750D01*
X114300000Y-17493750D02*
X114300000Y-18193750D01*
X115283750Y-16510000D02*
X114300000Y-17493750D01*
X120015000Y-16510000D02*
X115283750Y-16510000D01*
X133350000Y-17493750D02*
X133350000Y-18193750D01*
X134333750Y-16510000D02*
X133350000Y-17493750D01*
X139065000Y-16510000D02*
X134333750Y-16510000D01*
X152400000Y-17493750D02*
X152400000Y-18193750D01*
X153383750Y-16510000D02*
X152400000Y-17493750D01*
X158115000Y-16510000D02*
X153383750Y-16510000D01*
X171450000Y-17493750D02*
X171450000Y-18193750D01*
X172433750Y-16510000D02*
X171450000Y-17493750D01*
X177165000Y-16510000D02*
X172433750Y-16510000D01*
X190500000Y-17493750D02*
X190500000Y-18193750D01*
X191483750Y-16510000D02*
X190500000Y-17493750D01*
X196215000Y-16510000D02*
X191483750Y-16510000D01*
X209550000Y-17493750D02*
X209550000Y-18193750D01*
X210533750Y-16510000D02*
X209550000Y-17493750D01*
X215265000Y-16510000D02*
X210533750Y-16510000D01*
X228600000Y-17493750D02*
X228600000Y-18193750D01*
X229583750Y-16510000D02*
X228600000Y-17493750D01*
X234315000Y-16510000D02*
X229583750Y-16510000D01*
X252412500Y-17493750D02*
X252412500Y-18193750D01*
X253396250Y-16510000D02*
X252412500Y-17493750D01*
X258127500Y-16510000D02*
X253396250Y-16510000D01*
X-1428750Y-35560000D02*
X3333750Y-35560000D01*
X13637350Y-33920010D02*
X14379991Y-34662651D01*
X15081250Y-36331409D02*
X15081250Y-37243750D01*
X14379991Y-34662651D02*
X14379991Y-35630150D01*
X14379991Y-35630150D02*
X15081250Y-36331409D01*
X10793750Y-35560000D02*
X12433740Y-33920010D01*
X3333750Y-35560000D02*
X10793750Y-35560000D01*
X12433740Y-33920010D02*
X13637350Y-33920010D01*
X41275000Y-36543750D02*
X41275000Y-37243750D01*
X40291250Y-35560000D02*
X41275000Y-36543750D01*
X29527500Y-35560000D02*
X40291250Y-35560000D01*
X44450000Y-36543750D02*
X44450000Y-37243750D01*
X45433750Y-35560000D02*
X44450000Y-36543750D01*
X48577500Y-35560000D02*
X45433750Y-35560000D01*
X9195000Y-27500000D02*
X12853750Y-31158750D01*
X7593750Y-27500000D02*
X9195000Y-27500000D01*
X7169260Y-31285510D02*
X6223750Y-30340000D01*
X10254798Y-31285510D02*
X7169260Y-31285510D01*
X12439288Y-33470000D02*
X10254798Y-31285510D01*
X13823750Y-33470000D02*
X12439288Y-33470000D01*
X15081250Y-40543750D02*
X15081250Y-39843750D01*
X6223750Y-28870000D02*
X7593750Y-27500000D01*
X12853750Y-31158750D02*
X13853750Y-31158750D01*
X16503704Y-38421296D02*
X16503704Y-37117453D01*
X16503704Y-37117453D02*
X14830001Y-35443749D01*
X6223750Y-30340000D02*
X6223750Y-28870000D01*
X14830001Y-35443749D02*
X14830001Y-34476251D01*
X14830001Y-34476251D02*
X13823750Y-33470000D01*
X41275000Y-40543750D02*
X44450000Y-40543750D01*
X45300000Y-40543750D02*
X45624991Y-40868741D01*
X44450000Y-40543750D02*
X45300000Y-40543750D01*
X61062500Y-40543750D02*
X60737509Y-40868741D01*
X61912500Y-40543750D02*
X61062500Y-40543750D01*
X60737509Y-40868741D02*
X45624991Y-40868741D01*
X62762500Y-40543750D02*
X63087491Y-40868741D01*
X61912500Y-40543750D02*
X62762500Y-40543750D01*
X80112500Y-40543750D02*
X79787509Y-40868741D01*
X80962500Y-40543750D02*
X80112500Y-40543750D01*
X100862500Y-40543750D02*
X101187491Y-40868741D01*
X100012500Y-40543750D02*
X100862500Y-40543750D01*
X118212500Y-40543750D02*
X117887509Y-40868741D01*
X119062500Y-40543750D02*
X118212500Y-40543750D01*
X119912500Y-40543750D02*
X120237491Y-40868741D01*
X119062500Y-40543750D02*
X119912500Y-40543750D01*
X137262500Y-40543750D02*
X136937509Y-40868741D01*
X138112500Y-40543750D02*
X137262500Y-40543750D01*
X138962500Y-40543750D02*
X139287491Y-40868741D01*
X138112500Y-40543750D02*
X138962500Y-40543750D01*
X156312500Y-40543750D02*
X155987509Y-40868741D01*
X157162500Y-40543750D02*
X156312500Y-40543750D01*
X158012500Y-40543750D02*
X158337491Y-40868741D01*
X157162500Y-40543750D02*
X158012500Y-40543750D01*
X175362500Y-40543750D02*
X175037509Y-40868741D01*
X176212500Y-40543750D02*
X175362500Y-40543750D01*
X177062500Y-40543750D02*
X177387491Y-40868741D01*
X176212500Y-40543750D02*
X177062500Y-40543750D01*
X194412500Y-40543750D02*
X194087509Y-40868741D01*
X195262500Y-40543750D02*
X194412500Y-40543750D01*
X196112500Y-40543750D02*
X196437491Y-40868741D01*
X195262500Y-40543750D02*
X196112500Y-40543750D01*
X213462500Y-40543750D02*
X213137509Y-40868741D01*
X214312500Y-40543750D02*
X213462500Y-40543750D01*
X215162500Y-40543750D02*
X215487491Y-40868741D01*
X214312500Y-40543750D02*
X215162500Y-40543750D01*
X244418750Y-40543750D02*
X244093759Y-40868741D01*
X245268750Y-40543750D02*
X244418750Y-40543750D01*
X244093759Y-40868741D02*
X215487491Y-40868741D01*
X213137509Y-40868741D02*
X196437491Y-40868741D01*
X194087509Y-40868741D02*
X177387491Y-40868741D01*
X175037509Y-40868741D02*
X158337491Y-40868741D01*
X155987509Y-40868741D02*
X139287491Y-40868741D01*
X136937509Y-40868741D02*
X120237491Y-40868741D01*
X117887509Y-40868741D02*
X101187491Y-40868741D01*
X79787509Y-40868741D02*
X63087491Y-40868741D01*
X15081250Y-39843750D02*
X15759375Y-39165625D01*
X15759375Y-39165625D02*
X16503704Y-38421296D01*
X40425000Y-40543750D02*
X41275000Y-40543750D01*
X40100009Y-40868741D02*
X40425000Y-40543750D01*
X28725899Y-40868741D02*
X40100009Y-40868741D01*
X15081250Y-41243750D02*
X15962510Y-42125010D01*
X15081250Y-40543750D02*
X15081250Y-41243750D01*
X15962510Y-42125010D02*
X17547910Y-42125010D01*
X17547910Y-42125010D02*
X19943750Y-44520850D01*
X19943750Y-44520850D02*
X19943750Y-44970000D01*
X27883750Y-39590000D02*
X27883750Y-40026592D01*
X27883750Y-40026592D02*
X28725899Y-40868741D01*
X81812500Y-40543750D02*
X80962500Y-40543750D01*
X82108750Y-40840000D02*
X81812500Y-40543750D01*
X98803750Y-40840000D02*
X82108750Y-40840000D01*
X99113750Y-40530000D02*
X98803750Y-40840000D01*
X100012500Y-40543750D02*
X99998750Y-40530000D01*
X99998750Y-40530000D02*
X99113750Y-40530000D01*
X61912500Y-36543750D02*
X61912500Y-37243750D01*
X62896250Y-35560000D02*
X61912500Y-36543750D01*
X67627500Y-35560000D02*
X62896250Y-35560000D01*
X80962500Y-36543750D02*
X80962500Y-37243750D01*
X81946250Y-35560000D02*
X80962500Y-36543750D01*
X86677500Y-35560000D02*
X81946250Y-35560000D01*
X100012500Y-36543750D02*
X100012500Y-37243750D01*
X100996250Y-35560000D02*
X100012500Y-36543750D01*
X105727500Y-35560000D02*
X100996250Y-35560000D01*
X119062500Y-36543750D02*
X119062500Y-37243750D01*
X120046250Y-35560000D02*
X119062500Y-36543750D01*
X124777500Y-35560000D02*
X120046250Y-35560000D01*
X138112500Y-36543750D02*
X138112500Y-37243750D01*
X139096250Y-35560000D02*
X138112500Y-36543750D01*
X143827500Y-35560000D02*
X139096250Y-35560000D01*
X157162500Y-36543750D02*
X157162500Y-37243750D01*
X158146250Y-35560000D02*
X157162500Y-36543750D01*
X162877500Y-35560000D02*
X158146250Y-35560000D01*
X176212500Y-36543750D02*
X176212500Y-37243750D01*
X177196250Y-35560000D02*
X176212500Y-36543750D01*
X181927500Y-35560000D02*
X177196250Y-35560000D01*
X195262500Y-36543750D02*
X195262500Y-37243750D01*
X196246250Y-35560000D02*
X195262500Y-36543750D01*
X200977500Y-35560000D02*
X196246250Y-35560000D01*
X214312500Y-36543750D02*
X214312500Y-37243750D01*
X215296250Y-35560000D02*
X214312500Y-36543750D01*
X220027500Y-35560000D02*
X215296250Y-35560000D01*
X245268750Y-36543750D02*
X245268750Y-37243750D01*
X246252500Y-35560000D02*
X245268750Y-36543750D01*
X250983750Y-35560000D02*
X246252500Y-35560000D01*
X19843750Y-55593750D02*
X19843750Y-56293750D01*
X18860000Y-54610000D02*
X19843750Y-55593750D01*
X8096250Y-54610000D02*
X18860000Y-54610000D01*
X33337500Y-55593750D02*
X33337500Y-56293750D01*
X34321250Y-54610000D02*
X33337500Y-55593750D01*
X39052500Y-54610000D02*
X34321250Y-54610000D01*
X52387500Y-55593750D02*
X52387500Y-56293750D01*
X53371250Y-54610000D02*
X52387500Y-55593750D01*
X58102500Y-54610000D02*
X53371250Y-54610000D01*
X71437500Y-55593750D02*
X71437500Y-56293750D01*
X72421250Y-54610000D02*
X71437500Y-55593750D01*
X77152500Y-54610000D02*
X72421250Y-54610000D01*
X90487500Y-55593750D02*
X90487500Y-56293750D01*
X91471250Y-54610000D02*
X90487500Y-55593750D01*
X96202500Y-54610000D02*
X91471250Y-54610000D01*
X19840000Y-59590000D02*
X19843750Y-59593750D01*
X15621260Y-59590000D02*
X19840000Y-59590000D01*
X13853750Y-28758750D02*
X12853750Y-28758750D01*
X257137500Y-59593750D02*
X257143750Y-59600000D01*
X19843750Y-59593750D02*
X257137500Y-59593750D01*
X257137500Y-59593750D02*
X258715000Y-59593750D01*
X12853750Y-28758750D02*
X10326045Y-26231045D01*
X10326045Y-26231045D02*
X10326045Y-26005739D01*
X109537500Y-55593750D02*
X109537500Y-56293750D01*
X110521250Y-54610000D02*
X109537500Y-55593750D01*
X115252500Y-54610000D02*
X110521250Y-54610000D01*
X128587500Y-55593750D02*
X128587500Y-56293750D01*
X129571250Y-54610000D02*
X128587500Y-55593750D01*
X134302500Y-54610000D02*
X129571250Y-54610000D01*
X147637500Y-55593750D02*
X147637500Y-56293750D01*
X148621250Y-54610000D02*
X147637500Y-55593750D01*
X153352500Y-54610000D02*
X148621250Y-54610000D01*
X166687500Y-55593750D02*
X166687500Y-56293750D01*
X167671250Y-54610000D02*
X166687500Y-55593750D01*
X172402500Y-54610000D02*
X167671250Y-54610000D01*
X185737500Y-55593750D02*
X185737500Y-56293750D01*
X186721250Y-54610000D02*
X185737500Y-55593750D01*
X191452500Y-54610000D02*
X186721250Y-54610000D01*
X204787500Y-55593750D02*
X204787500Y-56293750D01*
X205771250Y-54610000D02*
X204787500Y-55593750D01*
X210502500Y-54610000D02*
X205771250Y-54610000D01*
X230981250Y-55593750D02*
X230981250Y-56293750D01*
X231965000Y-54610000D02*
X230981250Y-55593750D01*
X236696250Y-54610000D02*
X231965000Y-54610000D01*
X238287240Y-54610000D02*
X246221250Y-54610000D01*
X236696250Y-54610000D02*
X238287240Y-54610000D01*
X258715000Y-55593750D02*
X258715000Y-56293750D01*
X259698750Y-54610000D02*
X258715000Y-55593750D01*
X262890000Y-54610000D02*
X259698750Y-54610000D01*
X12747500Y-74503750D02*
X12747500Y-75343750D01*
X-1428750Y-73660000D02*
X11903750Y-73660000D01*
X11903750Y-73660000D02*
X12747500Y-74503750D01*
X16668750Y-74643750D02*
X16668750Y-75343750D01*
X17652500Y-73660000D02*
X16668750Y-74643750D01*
X22383750Y-73660000D02*
X17652500Y-73660000D01*
X22383750Y-73660000D02*
X24765000Y-73660000D01*
X40481250Y-74643750D02*
X40481250Y-75343750D01*
X41465000Y-73660000D02*
X40481250Y-74643750D01*
X46196250Y-73660000D02*
X41465000Y-73660000D01*
X46196250Y-73660000D02*
X48577500Y-73660000D01*
X116042760Y-73660000D02*
X117633750Y-73660000D01*
X112902500Y-73660000D02*
X116042760Y-73660000D01*
X111918750Y-74643750D02*
X112902500Y-73660000D01*
X111918750Y-75343750D02*
X111918750Y-74643750D01*
X117633750Y-73660000D02*
X129540000Y-73660000D01*
X183315000Y-74643750D02*
X183315000Y-75343750D01*
X184298750Y-73660000D02*
X183315000Y-74643750D01*
X189071250Y-73660000D02*
X184298750Y-73660000D01*
X210502500Y-73660000D02*
X212883750Y-73660000D01*
X204787500Y-74643750D02*
X204787500Y-75343750D01*
X205771250Y-73660000D02*
X204787500Y-74643750D01*
X210502500Y-73660000D02*
X205771250Y-73660000D01*
X250143750Y-78643750D02*
X14887500Y-78643750D01*
X250143750Y-78643750D02*
X252362500Y-78643750D01*
X14887500Y-78643750D02*
X12747500Y-78643750D01*
X13853750Y-29558750D02*
X12853750Y-29558750D01*
X12853750Y-29558750D02*
X9381250Y-26086250D01*
X9381250Y-26086250D02*
X9121338Y-26086250D01*
X234315000Y-73660000D02*
X236696250Y-73660000D01*
X228550000Y-74643750D02*
X228550000Y-75343750D01*
X229533750Y-73660000D02*
X228550000Y-74643750D01*
X234315000Y-73660000D02*
X229533750Y-73660000D01*
X258127500Y-73660000D02*
X260508750Y-73660000D01*
X252362500Y-74643750D02*
X252362500Y-75343750D01*
X253346250Y-73660000D02*
X252362500Y-74643750D01*
X258127500Y-73660000D02*
X253346250Y-73660000D01*
D26*
X18283694Y-8120000D02*
X17110000Y-8120000D01*
X32628240Y-7484490D02*
X31163133Y-6019383D01*
X35125000Y-7000000D02*
X34640510Y-7484490D01*
X36100000Y-7000000D02*
X35225000Y-7000000D01*
X20384311Y-6019383D02*
X18283694Y-8120000D01*
X29323750Y-6019383D02*
X31163133Y-6019383D01*
X29814367Y-6019383D02*
X20384311Y-6019383D01*
X29323750Y-7400000D02*
X29323750Y-6340000D01*
X29323750Y-6340000D02*
X29644367Y-6019383D01*
X34640510Y-7484490D02*
X32628240Y-7484490D01*
D28*
X30870000Y-9600000D02*
X30273750Y-9600000D01*
X31665001Y-9600000D02*
X30870000Y-9600000D01*
X32540001Y-8725000D02*
X31665001Y-9600000D01*
X36100000Y-9000000D02*
X35225000Y-9000000D01*
X35125000Y-9000000D02*
X34850000Y-8725000D01*
X34850000Y-8725000D02*
X32540001Y-8725000D01*
X30273750Y-9150000D02*
X30273750Y-9600000D01*
X29848750Y-8725000D02*
X30273750Y-9150000D01*
X24277500Y-9750000D02*
X25302500Y-8725000D01*
X25302500Y-8725000D02*
X29848750Y-8725000D01*
X36100000Y-8000000D02*
X35225000Y-8000000D01*
X31665001Y-7400000D02*
X32540001Y-8275000D01*
X30273750Y-7400000D02*
X31665001Y-7400000D01*
X32540001Y-8275000D02*
X34850000Y-8275000D01*
X34850000Y-8275000D02*
X35125000Y-8000000D01*
X30273750Y-7810000D02*
X30273750Y-7400000D01*
X29808750Y-8275000D02*
X30273750Y-7810000D01*
X24277500Y-7250000D02*
X25302500Y-8275000D01*
X25302500Y-8275000D02*
X29808750Y-8275000D01*
D27*
X15013770Y-4210022D02*
X15823750Y-5020002D01*
X-67919Y-9267501D02*
X4989560Y-4210022D01*
X4989560Y-4210022D02*
X15013770Y-4210022D01*
X-1270000Y-9267501D02*
X-67919Y-9267501D01*
X22753750Y-23058750D02*
X22753750Y-20916411D01*
X22753750Y-20916411D02*
X21653739Y-19816400D01*
X21653739Y-16000975D02*
X22104232Y-15550482D01*
X21653739Y-19816400D02*
X21653739Y-16000975D01*
X21663750Y-15990963D02*
X22104232Y-15550482D01*
X22104232Y-15550482D02*
X22902295Y-14752418D01*
X22902295Y-14752418D02*
X22902295Y-14252418D01*
X21652295Y-14752418D02*
X21652295Y-14252418D01*
X21203728Y-15200985D02*
X21652295Y-14752418D01*
X21203728Y-20002800D02*
X21203728Y-15200985D01*
X21953750Y-23058750D02*
X21953750Y-20752822D01*
X21953750Y-20752822D02*
X21203728Y-20002800D01*
X-2537501Y-10540000D02*
X-3810000Y-9267501D01*
X-704008Y-10540000D02*
X-2537501Y-10540000D01*
X5175959Y-4660033D02*
X-704008Y-10540000D01*
X14460000Y-5020002D02*
X14100031Y-4660033D01*
X14100031Y-4660033D02*
X5175959Y-4660033D01*
X-5190000Y-8710000D02*
X-4480000Y-8000000D01*
X-5190000Y-10427501D02*
X-5190000Y-8710000D01*
X4783739Y-3760011D02*
X15813761Y-3760011D01*
X543750Y-8000000D02*
X4783739Y-3760011D01*
X-4480000Y-8000000D02*
X543750Y-8000000D01*
X-3810000Y-11807501D02*
X-5190000Y-10427501D01*
X22103750Y-16800963D02*
X24152295Y-14752418D01*
X22103750Y-19630000D02*
X22103750Y-16800963D01*
X23553750Y-21080000D02*
X22103750Y-19630000D01*
X23553750Y-23058750D02*
X23553750Y-21080000D01*
X15813761Y-3761258D02*
X17072505Y-5020002D01*
X15813761Y-3760011D02*
X15813761Y-3761258D01*
X24152295Y-14752418D02*
X24152295Y-14252418D01*
X12715160Y-30358750D02*
X13853750Y-30358750D01*
X9167660Y-26811250D02*
X12715160Y-30358750D01*
X7302500Y-26811250D02*
X9167660Y-26811250D01*
X30295000Y-13150000D02*
X31115000Y-13970000D01*
X21633750Y-13150000D02*
X30295000Y-13150000D01*
X20749972Y-14033778D02*
X21633750Y-13150000D01*
X20749972Y-20199200D02*
X20749972Y-14033778D01*
X21153750Y-23058750D02*
X21153750Y-20602980D01*
X21153750Y-20602980D02*
X20749972Y-20199200D01*
X13853750Y-27958750D02*
X12853750Y-27958750D01*
X40051383Y-46718883D02*
X40501389Y-47168889D01*
X26302699Y-46718883D02*
X40051383Y-46718883D01*
X40501389Y-47168889D02*
X45402500Y-52070000D01*
X26293750Y-46720000D02*
X26863750Y-46720000D01*
X23786355Y-44212605D02*
X26293750Y-46720000D01*
X20908317Y-44212605D02*
X23786355Y-44212605D01*
X17248750Y-40950000D02*
X17645716Y-40950000D01*
X17645716Y-40950000D02*
X20908317Y-44212605D01*
X12853750Y-27958750D02*
X11441251Y-26546251D01*
X11441251Y-26546251D02*
X11441251Y-26095639D01*
X63327501Y-50945001D02*
X64452500Y-52070000D01*
X17403723Y-40071600D02*
X21094717Y-43762594D01*
X17403723Y-36672313D02*
X17403723Y-40071600D01*
X58651372Y-46268872D02*
X63327501Y-50945001D01*
X16353750Y-35622340D02*
X17403723Y-36672313D01*
X16353750Y-34458750D02*
X16353750Y-35622340D01*
X26489099Y-46268872D02*
X58651372Y-46268872D01*
X23982821Y-43762594D02*
X26489099Y-46268872D01*
X21094717Y-43762594D02*
X23982821Y-43762594D01*
X82377501Y-50945001D02*
X83502500Y-52070000D01*
X77251361Y-45818861D02*
X82377501Y-50945001D01*
X26675499Y-45818861D02*
X77251361Y-45818861D01*
X24169221Y-43312583D02*
X26675499Y-45818861D01*
X21281117Y-43312583D02*
X24169221Y-43312583D01*
X17853734Y-39885199D02*
X21281117Y-43312583D01*
X17853734Y-36485913D02*
X17853734Y-39885199D01*
X17153750Y-35785929D02*
X17853734Y-36485913D01*
X17153750Y-34458750D02*
X17153750Y-35785929D01*
X101427501Y-50945001D02*
X102552500Y-52070000D01*
X95851350Y-45368850D02*
X101427501Y-50945001D01*
X26861899Y-45368850D02*
X95851350Y-45368850D01*
X24355621Y-42862572D02*
X26861899Y-45368850D01*
X21467517Y-42862572D02*
X24355621Y-42862572D01*
X18303745Y-36299513D02*
X18303745Y-39698799D01*
X17953750Y-35949518D02*
X18303745Y-36299513D01*
X17953750Y-34458750D02*
X17953750Y-35949518D01*
X18303745Y-39698799D02*
X21467517Y-42862572D01*
X27048299Y-44918839D02*
X114451339Y-44918839D01*
X24542021Y-42412561D02*
X27048299Y-44918839D01*
X21653917Y-42412561D02*
X24542021Y-42412561D01*
X18753750Y-39512394D02*
X21653917Y-42412561D01*
X18753750Y-34458750D02*
X18753750Y-39512394D01*
X114451339Y-44918839D02*
X120477501Y-50945001D01*
X120477501Y-50945001D02*
X121602500Y-52070000D01*
X139527501Y-50945001D02*
X140652500Y-52070000D01*
X133051328Y-44468828D02*
X139527501Y-50945001D01*
X27234699Y-44468828D02*
X133051328Y-44468828D01*
X24728421Y-41962550D02*
X27234699Y-44468828D01*
X21840317Y-41962550D02*
X24728421Y-41962550D01*
X19203767Y-39325998D02*
X21840317Y-41962550D01*
X19203767Y-36299500D02*
X19203767Y-39325998D01*
X19467378Y-36035889D02*
X19203767Y-36299500D01*
X19553750Y-35949518D02*
X19467378Y-36035889D01*
X19553750Y-34458750D02*
X19553750Y-35949518D01*
X151651317Y-44018817D02*
X158577501Y-50945001D01*
X24914821Y-41512539D02*
X27421099Y-44018817D01*
X22026717Y-41512539D02*
X24914821Y-41512539D01*
X19653778Y-36485900D02*
X19653778Y-39139598D01*
X20353750Y-35785928D02*
X19653778Y-36485900D01*
X20353750Y-34458750D02*
X20353750Y-35785928D01*
X27421099Y-44018817D02*
X151651317Y-44018817D01*
X19653778Y-39139598D02*
X22026717Y-41512539D01*
X158577501Y-50945001D02*
X159702500Y-52070000D01*
X27607499Y-43568806D02*
X170251306Y-43568806D01*
X25101221Y-41062528D02*
X27607499Y-43568806D01*
X22213117Y-41062528D02*
X25101221Y-41062528D01*
X20103789Y-36672300D02*
X20103789Y-38953198D01*
X21153750Y-35622340D02*
X20103789Y-36672300D01*
X20103789Y-38953198D02*
X22213117Y-41062528D01*
X177627501Y-50945001D02*
X178752500Y-52070000D01*
X21153750Y-34458750D02*
X21153750Y-35622340D01*
X170251306Y-43568806D02*
X177627501Y-50945001D01*
X196677501Y-50945001D02*
X197802500Y-52070000D01*
X188851295Y-43118795D02*
X196677501Y-50945001D01*
X20553800Y-38766798D02*
X22399517Y-40612517D01*
X21953750Y-35458750D02*
X20553800Y-36858700D01*
X25287621Y-40612517D02*
X27793899Y-43118795D01*
X21953750Y-34458750D02*
X21953750Y-35458750D01*
X20553800Y-36858700D02*
X20553800Y-38766798D01*
X27793899Y-43118795D02*
X188851295Y-43118795D01*
X22399517Y-40612517D02*
X25287621Y-40612517D01*
X215727501Y-50945001D02*
X216852500Y-52070000D01*
X207451284Y-42668784D02*
X215727501Y-50945001D01*
X27980299Y-42668784D02*
X207451284Y-42668784D01*
X24939957Y-39628442D02*
X27980299Y-42668784D01*
X24939957Y-33597543D02*
X24939957Y-39628442D01*
X25253750Y-32758750D02*
X25253750Y-33283750D01*
X25253750Y-33283750D02*
X24939957Y-33597543D01*
X26389989Y-32094989D02*
X26253750Y-31958750D01*
X26389989Y-35560780D02*
X26389989Y-32094989D01*
X25389968Y-36560800D02*
X26389989Y-35560780D01*
X28166699Y-42218773D02*
X25389968Y-39442042D01*
X233195023Y-42218773D02*
X28166699Y-42218773D01*
X25389968Y-39442042D02*
X25389968Y-36560800D01*
X243046250Y-52070000D02*
X233195023Y-42218773D01*
X26253750Y-31958750D02*
X25253750Y-31958750D01*
X26253750Y-31158750D02*
X25253750Y-31158750D01*
X257347772Y-41768762D02*
X28353099Y-41768762D01*
X25839979Y-36747200D02*
X26840000Y-35747180D01*
X269240000Y-52070000D02*
X267649010Y-52070000D01*
X267649010Y-52070000D02*
X257347772Y-41768762D01*
X28353099Y-41768762D02*
X25839979Y-39255642D01*
X25839979Y-39255642D02*
X25839979Y-36747200D01*
X26840000Y-35747180D02*
X26840000Y-31745000D01*
X26840000Y-31745000D02*
X26253750Y-31158750D01*
X259715000Y5080000D02*
X269240000Y5080000D01*
X28539499Y-41318751D02*
X269909376Y-41318751D01*
X26253750Y-30358750D02*
X27290011Y-31395011D01*
X27290011Y-31395011D02*
X27290011Y-35933580D01*
X269909376Y-41318751D02*
X270643750Y-42053125D01*
X25253750Y-30358750D02*
X26253750Y-30358750D01*
X27290011Y-35933580D02*
X26289990Y-36933600D01*
X26289990Y-36933600D02*
X26289990Y-39069242D01*
X26289990Y-39069242D02*
X28539499Y-41318751D01*
X12690160Y-27158750D02*
X13853750Y-27158750D01*
X12166252Y-26634842D02*
X12690160Y-27158750D01*
X12166252Y-25747638D02*
X12166252Y-26634842D01*
X8027500Y-23018750D02*
X9437364Y-23018750D01*
X9437364Y-23018750D02*
X12166252Y-25747638D01*
D26*
X16353750Y-21306250D02*
X16353750Y-23058750D01*
X22853749Y-34558749D02*
X22753750Y-34458750D01*
X7236250Y-29558750D02*
X7490000Y-29812500D01*
X12457078Y-32758750D02*
X13853750Y-32758750D01*
X10468328Y-30770000D02*
X12457078Y-32758750D01*
X20353750Y-23058750D02*
X20353750Y-21301250D01*
X20353750Y-21301250D02*
X20360000Y-21295000D01*
X-1270000Y-11807501D02*
X-1242468Y-11807501D01*
X7647500Y-30770000D02*
X10468328Y-30770000D01*
X7236250Y-30358750D02*
X7647500Y-30770000D01*
X7236250Y-29558750D02*
X7236250Y-30358750D01*
X22122500Y-39257500D02*
X22120000Y-39260000D01*
X22122500Y-37910000D02*
X22122500Y-39257500D01*
X22753750Y-36478750D02*
X22753750Y-35873750D01*
X22122500Y-37110000D02*
X22753750Y-36478750D01*
X22122500Y-37910000D02*
X22122500Y-37110000D01*
X22753750Y-34458750D02*
X22753750Y-35873750D01*
X7598835Y-28255480D02*
X8164520Y-28255480D01*
X7236250Y-28618065D02*
X7598835Y-28255480D01*
X7236250Y-29558750D02*
X7236250Y-28618065D01*
X26180291Y-26358750D02*
X25253750Y-26358750D01*
X27055510Y-25483531D02*
X26180291Y-26358750D01*
X27055510Y-24286990D02*
X27055510Y-25483531D01*
X27360000Y-23982500D02*
X27055510Y-24286990D01*
X28160000Y-23982500D02*
X27360000Y-23982500D01*
X28160000Y-23982500D02*
X28160000Y-23478764D01*
X28160000Y-23478764D02*
X28779382Y-22859382D01*
X29179381Y-22459383D02*
X28779382Y-22859382D01*
X38299383Y-22459383D02*
X29179381Y-22459383D01*
X39409999Y-23569999D02*
X38299383Y-22459383D01*
X39410000Y-25957500D02*
X39409999Y-23569999D01*
X39910000Y-26457500D02*
X39410000Y-25957500D01*
X40710000Y-26457500D02*
X39910000Y-26457500D01*
X13853750Y-23081002D02*
X13854251Y-23080501D01*
X13853750Y-24758750D02*
X13853750Y-23081002D01*
X16353750Y-20455000D02*
X16353750Y-20730000D01*
X15648750Y-19750000D02*
X16353750Y-20455000D01*
X15061250Y-19750000D02*
X15648750Y-19750000D01*
X16353750Y-21306250D02*
X16353750Y-20730000D01*
X15061250Y-18950000D02*
X15061250Y-19750000D01*
X14310000Y-18198750D02*
X15061250Y-18950000D01*
X14310000Y-8120000D02*
X14310000Y-18198750D01*
X3604391Y-6960641D02*
X3804524Y-6760509D01*
X-1242468Y-11807501D02*
X3604391Y-6960641D01*
X14310000Y-8120000D02*
X14310000Y-7120000D01*
X5366043Y-5198989D02*
X12388989Y-5198989D01*
X12388989Y-5198989D02*
X13614290Y-6424290D01*
X3604391Y-6960641D02*
X5366043Y-5198989D01*
X13614290Y-6424290D02*
X14310000Y-7120000D01*
D28*
X21377500Y-8725000D02*
X22402500Y-9750000D01*
X19519450Y-8725000D02*
X21377500Y-8725000D01*
X17778750Y-10465700D02*
X19519450Y-8725000D01*
X17778750Y-21758749D02*
X17778750Y-10465700D01*
X17953750Y-23058750D02*
X17953750Y-21933749D01*
X17953750Y-21933749D02*
X17778750Y-21758749D01*
X17328750Y-21758749D02*
X17153750Y-21933749D01*
X17153750Y-21933749D02*
X17153750Y-23058750D01*
X17333750Y-19171950D02*
X17328750Y-19176950D01*
X17328750Y-19176950D02*
X17328750Y-21758749D01*
X17328750Y-10279300D02*
X17328750Y-19176950D01*
X19333050Y-8275000D02*
X17328750Y-10279300D01*
X22402500Y-7250000D02*
X21377500Y-8275000D01*
X21377500Y-8275000D02*
X19333050Y-8275000D01*
D27*
X19553750Y-21028248D02*
X20299963Y-20282035D01*
X19553750Y-23058750D02*
X19553750Y-21028248D01*
X20299963Y-18712463D02*
X20299963Y-20282035D01*
X19120000Y-17532500D02*
X20299963Y-18712463D01*
X20823750Y-44764440D02*
X20823750Y-46012500D01*
X15553750Y-35458750D02*
X16953714Y-36858714D01*
X16953714Y-36858714D02*
X16953714Y-40050036D01*
X15553750Y-34458750D02*
X15553750Y-35458750D01*
X16953714Y-40050036D02*
X16523750Y-40480000D01*
X16900749Y-41675001D02*
X17734311Y-41675001D01*
X16523750Y-40480000D02*
X16523750Y-41298002D01*
X16523750Y-41298002D02*
X16900749Y-41675001D01*
X17734311Y-41675001D02*
X20823750Y-44764440D01*
X43093750Y-24585000D02*
X49393750Y-24585000D01*
X40712500Y-24585000D02*
X40710000Y-24582500D01*
X43093750Y-24585000D02*
X40712500Y-24585000D01*
X40710000Y-24582500D02*
X40710000Y-23745460D01*
X28621889Y-21943873D02*
X38908413Y-21943873D01*
X26540000Y-24025762D02*
X28621889Y-21943873D01*
X26540000Y-25270000D02*
X26540000Y-24025762D01*
X25253750Y-25558750D02*
X26251250Y-25558750D01*
X26251250Y-25558750D02*
X26540000Y-25270000D01*
X38908413Y-21943873D02*
X40204145Y-23239605D01*
X40204145Y-23239605D02*
X40710000Y-23745460D01*
X31843748Y-3310000D02*
X33553750Y-5020002D01*
X4573750Y-3310000D02*
X31843748Y-3310000D01*
X2413750Y-5470000D02*
X4573750Y-3310000D01*
X-3810000Y-6727501D02*
X-2552499Y-5470000D01*
X-2552499Y-5470000D02*
X2413750Y-5470000D01*
X7937500Y25368750D02*
X7937500Y24668750D01*
X6953750Y26352500D02*
X7937500Y25368750D01*
X-3810000Y26352500D02*
X6953750Y26352500D01*
X7937500Y21368750D02*
X14287500Y21368750D01*
X14287500Y21368750D02*
X33337500Y21368750D01*
X52387500Y21368750D02*
X33337500Y21368750D01*
X52387500Y21368750D02*
X71437500Y21368750D01*
X71437500Y21368750D02*
X95250000Y21368750D01*
X95250000Y21368750D02*
X114300000Y21368750D01*
X114300000Y21368750D02*
X133350000Y21368750D01*
X152400000Y21368750D02*
X133350000Y21368750D01*
X152400000Y21368750D02*
X176212500Y21368750D01*
X176212500Y21368750D02*
X195262500Y21368750D01*
X195262500Y21368750D02*
X214312500Y21368750D01*
X233362500Y21368750D02*
X214312500Y21368750D01*
X233362500Y21368750D02*
X257175000Y21368750D01*
X6412500Y21368750D02*
X6350000Y21431250D01*
X7937500Y21368750D02*
X6412500Y21368750D01*
X14287500Y25368750D02*
X14287500Y24668750D01*
X15271250Y26352500D02*
X14287500Y25368750D01*
X20002500Y26352500D02*
X15271250Y26352500D01*
X33337500Y25368750D02*
X33337500Y24668750D01*
X34321250Y26352500D02*
X33337500Y25368750D01*
X39052500Y26352500D02*
X34321250Y26352500D01*
X52387500Y25368750D02*
X52387500Y24668750D01*
X53371250Y26352500D02*
X52387500Y25368750D01*
X58102500Y26352500D02*
X53371250Y26352500D01*
X71437500Y25368750D02*
X71437500Y24668750D01*
X72421250Y26352500D02*
X71437500Y25368750D01*
X77152500Y26352500D02*
X72421250Y26352500D01*
X95250000Y25368750D02*
X95250000Y24668750D01*
X96233750Y26352500D02*
X95250000Y25368750D01*
X100965000Y26352500D02*
X96233750Y26352500D01*
X114300000Y25368750D02*
X114300000Y24668750D01*
X115283750Y26352500D02*
X114300000Y25368750D01*
X120015000Y26352500D02*
X115283750Y26352500D01*
X133350000Y25368750D02*
X133350000Y24668750D01*
X134333750Y26352500D02*
X133350000Y25368750D01*
X139065000Y26352500D02*
X134333750Y26352500D01*
X152400000Y25368750D02*
X152400000Y24668750D01*
X153383750Y26352500D02*
X152400000Y25368750D01*
X158115000Y26352500D02*
X153383750Y26352500D01*
X176212500Y25368750D02*
X176212500Y24668750D01*
X177196250Y26352500D02*
X176212500Y25368750D01*
X181927500Y26352500D02*
X177196250Y26352500D01*
X195262500Y25368750D02*
X195262500Y24668750D01*
X196246250Y26352500D02*
X195262500Y25368750D01*
X200977500Y26352500D02*
X196246250Y26352500D01*
X214312500Y25368750D02*
X214312500Y24668750D01*
X215296250Y26352500D02*
X214312500Y25368750D01*
X220027500Y26352500D02*
X215296250Y26352500D01*
X233362500Y25368750D02*
X233362500Y24668750D01*
X234346250Y26352500D02*
X233362500Y25368750D01*
X239077500Y26352500D02*
X234346250Y26352500D01*
X257175000Y25368750D02*
X257175000Y24668750D01*
X258158750Y26352500D02*
X257175000Y25368750D01*
X262890000Y26352500D02*
X258158750Y26352500D01*
D29*
G36*
X18924256Y-24339287D02*
G01*
X18947417Y-24351667D01*
X19039500Y-24443750D01*
X19153087Y-24434204D01*
X19154268Y-24434562D01*
X19278750Y-24446822D01*
X19828750Y-24446822D01*
X19953232Y-24434562D01*
X19953750Y-24434405D01*
X19954268Y-24434562D01*
X20078750Y-24446822D01*
X20628750Y-24446822D01*
X20753232Y-24434562D01*
X20753750Y-24434405D01*
X20754268Y-24434562D01*
X20878750Y-24446822D01*
X21428750Y-24446822D01*
X21553232Y-24434562D01*
X21553750Y-24434405D01*
X21554268Y-24434562D01*
X21678750Y-24446822D01*
X22228750Y-24446822D01*
X22353232Y-24434562D01*
X22353750Y-24434405D01*
X22354268Y-24434562D01*
X22478750Y-24446822D01*
X23028750Y-24446822D01*
X23153232Y-24434562D01*
X23153750Y-24434405D01*
X23154268Y-24434562D01*
X23278750Y-24446822D01*
X23828750Y-24446822D01*
X23869712Y-24442788D01*
X23865678Y-24483750D01*
X23865678Y-25033750D01*
X23877938Y-25158232D01*
X23878095Y-25158750D01*
X23877938Y-25159268D01*
X23865678Y-25283750D01*
X23865678Y-25833750D01*
X23877938Y-25958232D01*
X23878095Y-25958750D01*
X23877938Y-25959268D01*
X23865678Y-26083750D01*
X23865678Y-26633750D01*
X23877938Y-26758232D01*
X23878296Y-26759413D01*
X23868750Y-26873000D01*
X23960833Y-26965083D01*
X23973213Y-26988244D01*
X24013000Y-27036725D01*
X24013000Y-27280775D01*
X23973213Y-27329256D01*
X23960833Y-27352417D01*
X23868750Y-27444500D01*
X23878296Y-27558087D01*
X23877938Y-27559268D01*
X23865678Y-27683750D01*
X23865678Y-28233750D01*
X23877938Y-28358232D01*
X23878095Y-28358750D01*
X23877938Y-28359268D01*
X23865678Y-28483750D01*
X23865678Y-29033750D01*
X23877938Y-29158232D01*
X23878095Y-29158750D01*
X23877938Y-29159268D01*
X23865678Y-29283750D01*
X23865678Y-29833750D01*
X23877938Y-29958232D01*
X23878095Y-29958750D01*
X23877938Y-29959268D01*
X23865678Y-30083750D01*
X23865678Y-30633750D01*
X23877938Y-30758232D01*
X23878095Y-30758750D01*
X23877938Y-30759268D01*
X23865678Y-30883750D01*
X23865678Y-31433750D01*
X23877938Y-31558232D01*
X23878095Y-31558750D01*
X23877938Y-31559268D01*
X23865678Y-31683750D01*
X23865678Y-32233750D01*
X23877938Y-32358232D01*
X23878095Y-32358750D01*
X23877938Y-32359268D01*
X23865678Y-32483750D01*
X23865678Y-33033750D01*
X23869869Y-33076302D01*
X23839500Y-33073750D01*
X23720250Y-33193000D01*
X23401262Y-33193000D01*
X23383244Y-33178213D01*
X23360083Y-33165833D01*
X23268000Y-33073750D01*
X23154413Y-33083296D01*
X23153232Y-33082938D01*
X23028750Y-33070678D01*
X22478750Y-33070678D01*
X22354268Y-33082938D01*
X22353750Y-33083095D01*
X22353232Y-33082938D01*
X22228750Y-33070678D01*
X21678750Y-33070678D01*
X21554268Y-33082938D01*
X21553750Y-33083095D01*
X21553232Y-33082938D01*
X21428750Y-33070678D01*
X20878750Y-33070678D01*
X20754268Y-33082938D01*
X20753750Y-33083095D01*
X20753232Y-33082938D01*
X20628750Y-33070678D01*
X20078750Y-33070678D01*
X19954268Y-33082938D01*
X19953750Y-33083095D01*
X19953232Y-33082938D01*
X19828750Y-33070678D01*
X19278750Y-33070678D01*
X19154268Y-33082938D01*
X19153750Y-33083095D01*
X19153232Y-33082938D01*
X19028750Y-33070678D01*
X18478750Y-33070678D01*
X18354268Y-33082938D01*
X18353750Y-33083095D01*
X18353232Y-33082938D01*
X18228750Y-33070678D01*
X17678750Y-33070678D01*
X17554268Y-33082938D01*
X17553750Y-33083095D01*
X17553232Y-33082938D01*
X17428750Y-33070678D01*
X16878750Y-33070678D01*
X16754268Y-33082938D01*
X16753750Y-33083095D01*
X16753232Y-33082938D01*
X16628750Y-33070678D01*
X16078750Y-33070678D01*
X15954268Y-33082938D01*
X15953750Y-33083095D01*
X15953232Y-33082938D01*
X15828750Y-33070678D01*
X15278750Y-33070678D01*
X15237788Y-33074712D01*
X15241822Y-33033750D01*
X15241822Y-32483750D01*
X15229562Y-32359268D01*
X15229204Y-32358087D01*
X15238750Y-32244500D01*
X15146667Y-32152417D01*
X15134287Y-32129256D01*
X15117000Y-32108192D01*
X15117000Y-31809308D01*
X15134287Y-31788244D01*
X15146667Y-31765083D01*
X15238750Y-31673000D01*
X15229204Y-31559413D01*
X15229562Y-31558232D01*
X15241822Y-31433750D01*
X15241822Y-30883750D01*
X15229562Y-30759268D01*
X15229405Y-30758750D01*
X15229562Y-30758232D01*
X15241822Y-30633750D01*
X15241822Y-30083750D01*
X15229562Y-29959268D01*
X15229405Y-29958750D01*
X15229562Y-29958232D01*
X15241822Y-29833750D01*
X15241822Y-29283750D01*
X15229562Y-29159268D01*
X15229405Y-29158750D01*
X15229562Y-29158232D01*
X15241822Y-29033750D01*
X15241822Y-28483750D01*
X15229562Y-28359268D01*
X15229405Y-28358750D01*
X15229562Y-28358232D01*
X15241822Y-28233750D01*
X15241822Y-27683750D01*
X15229562Y-27559268D01*
X15229405Y-27558750D01*
X15229562Y-27558232D01*
X15241822Y-27433750D01*
X15241822Y-26883750D01*
X15229562Y-26759268D01*
X15229405Y-26758750D01*
X15229562Y-26758232D01*
X15241822Y-26633750D01*
X15241822Y-26083750D01*
X15229562Y-25959268D01*
X15229204Y-25958087D01*
X15238750Y-25844500D01*
X15146667Y-25752417D01*
X15134287Y-25729256D01*
X15117000Y-25708192D01*
X15117000Y-25409308D01*
X15134287Y-25388244D01*
X15146667Y-25365083D01*
X15238750Y-25273000D01*
X15229204Y-25159413D01*
X15229562Y-25158232D01*
X15241822Y-25033750D01*
X15241822Y-24483750D01*
X15237788Y-24442788D01*
X15278750Y-24446822D01*
X15828750Y-24446822D01*
X15953232Y-24434562D01*
X15953750Y-24434405D01*
X15954268Y-24434562D01*
X16078750Y-24446822D01*
X16628750Y-24446822D01*
X16753232Y-24434562D01*
X16753750Y-24434405D01*
X16754268Y-24434562D01*
X16878750Y-24446822D01*
X17428750Y-24446822D01*
X17553232Y-24434562D01*
X17553750Y-24434405D01*
X17554268Y-24434562D01*
X17678750Y-24446822D01*
X18228750Y-24446822D01*
X18353232Y-24434562D01*
X18354413Y-24434204D01*
X18468000Y-24443750D01*
X18560083Y-24351667D01*
X18583244Y-24339287D01*
X18634771Y-24297000D01*
X18872729Y-24297000D01*
X18924256Y-24339287D01*
X18924256Y-24339287D01*
G37*
X18924256Y-24339287D02*
X18947417Y-24351667D01*
X19039500Y-24443750D01*
X19153087Y-24434204D01*
X19154268Y-24434562D01*
X19278750Y-24446822D01*
X19828750Y-24446822D01*
X19953232Y-24434562D01*
X19953750Y-24434405D01*
X19954268Y-24434562D01*
X20078750Y-24446822D01*
X20628750Y-24446822D01*
X20753232Y-24434562D01*
X20753750Y-24434405D01*
X20754268Y-24434562D01*
X20878750Y-24446822D01*
X21428750Y-24446822D01*
X21553232Y-24434562D01*
X21553750Y-24434405D01*
X21554268Y-24434562D01*
X21678750Y-24446822D01*
X22228750Y-24446822D01*
X22353232Y-24434562D01*
X22353750Y-24434405D01*
X22354268Y-24434562D01*
X22478750Y-24446822D01*
X23028750Y-24446822D01*
X23153232Y-24434562D01*
X23153750Y-24434405D01*
X23154268Y-24434562D01*
X23278750Y-24446822D01*
X23828750Y-24446822D01*
X23869712Y-24442788D01*
X23865678Y-24483750D01*
X23865678Y-25033750D01*
X23877938Y-25158232D01*
X23878095Y-25158750D01*
X23877938Y-25159268D01*
X23865678Y-25283750D01*
X23865678Y-25833750D01*
X23877938Y-25958232D01*
X23878095Y-25958750D01*
X23877938Y-25959268D01*
X23865678Y-26083750D01*
X23865678Y-26633750D01*
X23877938Y-26758232D01*
X23878296Y-26759413D01*
X23868750Y-26873000D01*
X23960833Y-26965083D01*
X23973213Y-26988244D01*
X24013000Y-27036725D01*
X24013000Y-27280775D01*
X23973213Y-27329256D01*
X23960833Y-27352417D01*
X23868750Y-27444500D01*
X23878296Y-27558087D01*
X23877938Y-27559268D01*
X23865678Y-27683750D01*
X23865678Y-28233750D01*
X23877938Y-28358232D01*
X23878095Y-28358750D01*
X23877938Y-28359268D01*
X23865678Y-28483750D01*
X23865678Y-29033750D01*
X23877938Y-29158232D01*
X23878095Y-29158750D01*
X23877938Y-29159268D01*
X23865678Y-29283750D01*
X23865678Y-29833750D01*
X23877938Y-29958232D01*
X23878095Y-29958750D01*
X23877938Y-29959268D01*
X23865678Y-30083750D01*
X23865678Y-30633750D01*
X23877938Y-30758232D01*
X23878095Y-30758750D01*
X23877938Y-30759268D01*
X23865678Y-30883750D01*
X23865678Y-31433750D01*
X23877938Y-31558232D01*
X23878095Y-31558750D01*
X23877938Y-31559268D01*
X23865678Y-31683750D01*
X23865678Y-32233750D01*
X23877938Y-32358232D01*
X23878095Y-32358750D01*
X23877938Y-32359268D01*
X23865678Y-32483750D01*
X23865678Y-33033750D01*
X23869869Y-33076302D01*
X23839500Y-33073750D01*
X23720250Y-33193000D01*
X23401262Y-33193000D01*
X23383244Y-33178213D01*
X23360083Y-33165833D01*
X23268000Y-33073750D01*
X23154413Y-33083296D01*
X23153232Y-33082938D01*
X23028750Y-33070678D01*
X22478750Y-33070678D01*
X22354268Y-33082938D01*
X22353750Y-33083095D01*
X22353232Y-33082938D01*
X22228750Y-33070678D01*
X21678750Y-33070678D01*
X21554268Y-33082938D01*
X21553750Y-33083095D01*
X21553232Y-33082938D01*
X21428750Y-33070678D01*
X20878750Y-33070678D01*
X20754268Y-33082938D01*
X20753750Y-33083095D01*
X20753232Y-33082938D01*
X20628750Y-33070678D01*
X20078750Y-33070678D01*
X19954268Y-33082938D01*
X19953750Y-33083095D01*
X19953232Y-33082938D01*
X19828750Y-33070678D01*
X19278750Y-33070678D01*
X19154268Y-33082938D01*
X19153750Y-33083095D01*
X19153232Y-33082938D01*
X19028750Y-33070678D01*
X18478750Y-33070678D01*
X18354268Y-33082938D01*
X18353750Y-33083095D01*
X18353232Y-33082938D01*
X18228750Y-33070678D01*
X17678750Y-33070678D01*
X17554268Y-33082938D01*
X17553750Y-33083095D01*
X17553232Y-33082938D01*
X17428750Y-33070678D01*
X16878750Y-33070678D01*
X16754268Y-33082938D01*
X16753750Y-33083095D01*
X16753232Y-33082938D01*
X16628750Y-33070678D01*
X16078750Y-33070678D01*
X15954268Y-33082938D01*
X15953750Y-33083095D01*
X15953232Y-33082938D01*
X15828750Y-33070678D01*
X15278750Y-33070678D01*
X15237788Y-33074712D01*
X15241822Y-33033750D01*
X15241822Y-32483750D01*
X15229562Y-32359268D01*
X15229204Y-32358087D01*
X15238750Y-32244500D01*
X15146667Y-32152417D01*
X15134287Y-32129256D01*
X15117000Y-32108192D01*
X15117000Y-31809308D01*
X15134287Y-31788244D01*
X15146667Y-31765083D01*
X15238750Y-31673000D01*
X15229204Y-31559413D01*
X15229562Y-31558232D01*
X15241822Y-31433750D01*
X15241822Y-30883750D01*
X15229562Y-30759268D01*
X15229405Y-30758750D01*
X15229562Y-30758232D01*
X15241822Y-30633750D01*
X15241822Y-30083750D01*
X15229562Y-29959268D01*
X15229405Y-29958750D01*
X15229562Y-29958232D01*
X15241822Y-29833750D01*
X15241822Y-29283750D01*
X15229562Y-29159268D01*
X15229405Y-29158750D01*
X15229562Y-29158232D01*
X15241822Y-29033750D01*
X15241822Y-28483750D01*
X15229562Y-28359268D01*
X15229405Y-28358750D01*
X15229562Y-28358232D01*
X15241822Y-28233750D01*
X15241822Y-27683750D01*
X15229562Y-27559268D01*
X15229405Y-27558750D01*
X15229562Y-27558232D01*
X15241822Y-27433750D01*
X15241822Y-26883750D01*
X15229562Y-26759268D01*
X15229405Y-26758750D01*
X15229562Y-26758232D01*
X15241822Y-26633750D01*
X15241822Y-26083750D01*
X15229562Y-25959268D01*
X15229204Y-25958087D01*
X15238750Y-25844500D01*
X15146667Y-25752417D01*
X15134287Y-25729256D01*
X15117000Y-25708192D01*
X15117000Y-25409308D01*
X15134287Y-25388244D01*
X15146667Y-25365083D01*
X15238750Y-25273000D01*
X15229204Y-25159413D01*
X15229562Y-25158232D01*
X15241822Y-25033750D01*
X15241822Y-24483750D01*
X15237788Y-24442788D01*
X15278750Y-24446822D01*
X15828750Y-24446822D01*
X15953232Y-24434562D01*
X15953750Y-24434405D01*
X15954268Y-24434562D01*
X16078750Y-24446822D01*
X16628750Y-24446822D01*
X16753232Y-24434562D01*
X16753750Y-24434405D01*
X16754268Y-24434562D01*
X16878750Y-24446822D01*
X17428750Y-24446822D01*
X17553232Y-24434562D01*
X17553750Y-24434405D01*
X17554268Y-24434562D01*
X17678750Y-24446822D01*
X18228750Y-24446822D01*
X18353232Y-24434562D01*
X18354413Y-24434204D01*
X18468000Y-24443750D01*
X18560083Y-24351667D01*
X18583244Y-24339287D01*
X18634771Y-24297000D01*
X18872729Y-24297000D01*
X18924256Y-24339287D01*
G36*
X36203000Y-31549242D02*
G01*
X36025828Y-31514000D01*
X35729172Y-31514000D01*
X35438216Y-31571875D01*
X35164141Y-31685400D01*
X34917481Y-31850213D01*
X34707713Y-32059981D01*
X34542900Y-32306641D01*
X34429375Y-32580716D01*
X34371500Y-32871672D01*
X34371500Y-33168328D01*
X34372429Y-33173000D01*
X29732713Y-33173000D01*
X27752695Y-31187226D01*
X27712770Y-31112532D01*
X27649538Y-31035484D01*
X27630231Y-31019639D01*
X26629126Y-30018535D01*
X26613277Y-29999223D01*
X26536229Y-29935991D01*
X26469548Y-29900349D01*
X26386593Y-29817153D01*
X26386593Y-29283750D01*
X26384722Y-29264750D01*
X28779159Y-29264750D01*
X29284001Y-29769593D01*
X29284000Y-30800153D01*
X29281553Y-30825000D01*
X29284000Y-30849846D01*
X29284000Y-30849853D01*
X29291322Y-30924192D01*
X29320255Y-31019574D01*
X29367241Y-31107479D01*
X29430473Y-31184527D01*
X29449785Y-31200376D01*
X30059628Y-31810220D01*
X30075473Y-31829527D01*
X30152157Y-31892460D01*
X30152157Y-31926250D01*
X30164197Y-32048492D01*
X30199854Y-32166037D01*
X30257757Y-32274366D01*
X30335682Y-32369318D01*
X30430634Y-32447243D01*
X30538963Y-32505146D01*
X30656508Y-32540803D01*
X30778750Y-32552843D01*
X31266250Y-32552843D01*
X31388492Y-32540803D01*
X31506037Y-32505146D01*
X31614366Y-32447243D01*
X31709318Y-32369318D01*
X31787243Y-32274366D01*
X31843027Y-32170000D01*
X32027157Y-32170000D01*
X32034513Y-32244689D01*
X32056299Y-32316508D01*
X32091678Y-32382696D01*
X32139289Y-32440711D01*
X32197304Y-32488322D01*
X32263492Y-32523701D01*
X32335311Y-32545487D01*
X32410000Y-32552843D01*
X32738750Y-32551000D01*
X32834000Y-32455750D01*
X32834000Y-31533500D01*
X32961000Y-31533500D01*
X32961000Y-32455750D01*
X33056250Y-32551000D01*
X33385000Y-32552843D01*
X33459689Y-32545487D01*
X33531508Y-32523701D01*
X33597696Y-32488322D01*
X33655711Y-32440711D01*
X33703322Y-32382696D01*
X33738701Y-32316508D01*
X33760487Y-32244689D01*
X33767843Y-32170000D01*
X33766000Y-31628750D01*
X33670750Y-31533500D01*
X32961000Y-31533500D01*
X32834000Y-31533500D01*
X32124250Y-31533500D01*
X32029000Y-31628750D01*
X32027157Y-32170000D01*
X31843027Y-32170000D01*
X31845146Y-32166037D01*
X31880803Y-32048492D01*
X31892843Y-31926250D01*
X31892843Y-31315248D01*
X32028552Y-31179540D01*
X32029000Y-31311250D01*
X32124250Y-31406500D01*
X32834000Y-31406500D01*
X32834000Y-31386500D01*
X32961000Y-31386500D01*
X32961000Y-31406500D01*
X33670750Y-31406500D01*
X33766000Y-31311250D01*
X33767843Y-30770000D01*
X33760487Y-30695311D01*
X33738701Y-30623492D01*
X33703322Y-30557304D01*
X33658628Y-30502843D01*
X33760000Y-30502843D01*
X33834689Y-30495487D01*
X33906508Y-30473701D01*
X33972696Y-30438322D01*
X34030711Y-30390711D01*
X34078322Y-30332696D01*
X34113701Y-30266508D01*
X34135487Y-30194689D01*
X34142843Y-30120000D01*
X34142843Y-28920000D01*
X34135487Y-28845311D01*
X34113701Y-28773492D01*
X34078322Y-28707304D01*
X34047708Y-28670000D01*
X34078322Y-28632696D01*
X34113701Y-28566508D01*
X34135487Y-28494689D01*
X34142843Y-28420000D01*
X34141000Y-27978750D01*
X34045750Y-27883500D01*
X33123500Y-27883500D01*
X33123500Y-27903500D01*
X32996500Y-27903500D01*
X32996500Y-27883500D01*
X32074250Y-27883500D01*
X31979000Y-27978750D01*
X31977157Y-28420000D01*
X31984513Y-28494689D01*
X32006299Y-28566508D01*
X32041678Y-28632696D01*
X32072292Y-28670000D01*
X32041678Y-28707304D01*
X32006299Y-28773492D01*
X31984513Y-28845311D01*
X31977157Y-28920000D01*
X31977157Y-29799751D01*
X31941654Y-29835255D01*
X31941000Y-29678750D01*
X31845750Y-29583500D01*
X30923500Y-29583500D01*
X30923500Y-29603500D01*
X30796500Y-29603500D01*
X30796500Y-29583500D01*
X30776500Y-29583500D01*
X30776500Y-29456500D01*
X30796500Y-29456500D01*
X30796500Y-29436500D01*
X30923500Y-29436500D01*
X30923500Y-29456500D01*
X31845750Y-29456500D01*
X31941000Y-29361250D01*
X31942843Y-28920000D01*
X31935487Y-28845311D01*
X31913701Y-28773492D01*
X31878322Y-28707304D01*
X31847708Y-28670000D01*
X31878322Y-28632696D01*
X31913701Y-28566508D01*
X31935487Y-28494689D01*
X31942843Y-28420000D01*
X31942843Y-27220000D01*
X31977157Y-27220000D01*
X31979000Y-27661250D01*
X32074250Y-27756500D01*
X32996500Y-27756500D01*
X32996500Y-27736500D01*
X33123500Y-27736500D01*
X33123500Y-27756500D01*
X34045750Y-27756500D01*
X34141000Y-27661250D01*
X34142843Y-27220000D01*
X34135487Y-27145311D01*
X34113701Y-27073492D01*
X34078322Y-27007304D01*
X34030711Y-26949289D01*
X33972696Y-26901678D01*
X33906508Y-26866299D01*
X33834689Y-26844513D01*
X33760000Y-26837157D01*
X33658344Y-26837503D01*
X33703322Y-26782696D01*
X33738701Y-26716508D01*
X33760487Y-26644689D01*
X33767843Y-26570000D01*
X33766000Y-26028750D01*
X33670750Y-25933500D01*
X32961000Y-25933500D01*
X32961000Y-25953500D01*
X32834000Y-25953500D01*
X32834000Y-25933500D01*
X32124250Y-25933500D01*
X32029000Y-26028750D01*
X32027157Y-26570000D01*
X32034513Y-26644689D01*
X32056299Y-26716508D01*
X32091678Y-26782696D01*
X32139289Y-26840711D01*
X32187438Y-26880225D01*
X32147304Y-26901678D01*
X32089289Y-26949289D01*
X32041678Y-27007304D01*
X32006299Y-27073492D01*
X31984513Y-27145311D01*
X31977157Y-27220000D01*
X31942843Y-27220000D01*
X31935487Y-27145311D01*
X31913701Y-27073492D01*
X31878322Y-27007304D01*
X31830711Y-26949289D01*
X31772696Y-26901678D01*
X31706508Y-26866299D01*
X31634689Y-26844513D01*
X31619514Y-26843018D01*
X31709318Y-26769318D01*
X31787243Y-26674366D01*
X31845146Y-26566037D01*
X31880803Y-26448492D01*
X31892843Y-26326250D01*
X31892843Y-25413750D01*
X31880803Y-25291508D01*
X31845146Y-25173963D01*
X31843028Y-25170000D01*
X32027157Y-25170000D01*
X32029000Y-25711250D01*
X32124250Y-25806500D01*
X32834000Y-25806500D01*
X32834000Y-24884250D01*
X32961000Y-24884250D01*
X32961000Y-25806500D01*
X33670750Y-25806500D01*
X33766000Y-25711250D01*
X33767843Y-25170000D01*
X33760487Y-25095311D01*
X33738701Y-25023492D01*
X33703322Y-24957304D01*
X33655711Y-24899289D01*
X33597696Y-24851678D01*
X33531508Y-24816299D01*
X33459689Y-24794513D01*
X33385000Y-24787157D01*
X33056250Y-24789000D01*
X32961000Y-24884250D01*
X32834000Y-24884250D01*
X32738750Y-24789000D01*
X32410000Y-24787157D01*
X32335311Y-24794513D01*
X32263492Y-24816299D01*
X32197304Y-24851678D01*
X32139289Y-24899289D01*
X32091678Y-24957304D01*
X32056299Y-25023492D01*
X32034513Y-25095311D01*
X32027157Y-25170000D01*
X31843028Y-25170000D01*
X31787243Y-25065634D01*
X31709318Y-24970682D01*
X31614366Y-24892757D01*
X31506037Y-24834854D01*
X31388492Y-24799197D01*
X31266250Y-24787157D01*
X30778750Y-24787157D01*
X30656508Y-24799197D01*
X30538963Y-24834854D01*
X30430634Y-24892757D01*
X30335682Y-24970682D01*
X30257757Y-25065634D01*
X30199854Y-25173963D01*
X30164197Y-25291508D01*
X30152157Y-25413750D01*
X30152157Y-25447540D01*
X30075473Y-25510473D01*
X30059628Y-25529780D01*
X29471035Y-26118374D01*
X29451723Y-26134223D01*
X29388491Y-26211271D01*
X29341505Y-26299176D01*
X29312572Y-26394558D01*
X29305250Y-26468897D01*
X29305250Y-26468904D01*
X29302803Y-26493750D01*
X29305250Y-26518597D01*
X29305251Y-26871658D01*
X28724159Y-27452750D01*
X26384722Y-27452750D01*
X26386593Y-27433750D01*
X26384750Y-27317500D01*
X26370522Y-27303272D01*
X26370922Y-27013828D01*
X26384750Y-27000000D01*
X26386440Y-26893432D01*
X26400053Y-26889302D01*
X26499336Y-26836234D01*
X26586358Y-26764817D01*
X26604261Y-26743002D01*
X27077579Y-26269684D01*
X27077157Y-26345000D01*
X27084513Y-26419689D01*
X27106299Y-26491508D01*
X27141678Y-26557696D01*
X27189289Y-26615711D01*
X27247304Y-26663322D01*
X27313492Y-26698701D01*
X27385311Y-26720487D01*
X27460000Y-26727843D01*
X28001250Y-26726000D01*
X28096500Y-26630750D01*
X28096500Y-25921000D01*
X28223500Y-25921000D01*
X28223500Y-26630750D01*
X28318750Y-26726000D01*
X28860000Y-26727843D01*
X28934689Y-26720487D01*
X29006508Y-26698701D01*
X29072696Y-26663322D01*
X29130711Y-26615711D01*
X29178322Y-26557696D01*
X29213701Y-26491508D01*
X29235487Y-26419689D01*
X29242843Y-26345000D01*
X29241000Y-26016250D01*
X29145750Y-25921000D01*
X28223500Y-25921000D01*
X28096500Y-25921000D01*
X28076500Y-25921000D01*
X28076500Y-25794000D01*
X28096500Y-25794000D01*
X28096500Y-25084250D01*
X28223500Y-25084250D01*
X28223500Y-25794000D01*
X29145750Y-25794000D01*
X29241000Y-25698750D01*
X29242843Y-25370000D01*
X29235487Y-25295311D01*
X29213701Y-25223492D01*
X29178322Y-25157304D01*
X29130711Y-25099289D01*
X29072696Y-25051678D01*
X29006508Y-25016299D01*
X28934689Y-24994513D01*
X28860000Y-24987157D01*
X28318750Y-24989000D01*
X28223500Y-25084250D01*
X28096500Y-25084250D01*
X28001250Y-24989000D01*
X27627010Y-24987726D01*
X27627010Y-24845285D01*
X27703750Y-24852843D01*
X28616250Y-24852843D01*
X28738492Y-24840803D01*
X28856037Y-24805146D01*
X28964366Y-24747243D01*
X29059318Y-24669318D01*
X29137243Y-24574366D01*
X29195146Y-24466037D01*
X29230803Y-24348492D01*
X29242843Y-24226250D01*
X29242843Y-23738750D01*
X29230803Y-23616508D01*
X29200673Y-23517185D01*
X29277241Y-23466024D01*
X29386024Y-23357241D01*
X29471495Y-23229324D01*
X29530369Y-23087191D01*
X29541569Y-23030883D01*
X36203000Y-23030883D01*
X36203000Y-31549242D01*
X36203000Y-31549242D01*
G37*
X36203000Y-31549242D02*
X36025828Y-31514000D01*
X35729172Y-31514000D01*
X35438216Y-31571875D01*
X35164141Y-31685400D01*
X34917481Y-31850213D01*
X34707713Y-32059981D01*
X34542900Y-32306641D01*
X34429375Y-32580716D01*
X34371500Y-32871672D01*
X34371500Y-33168328D01*
X34372429Y-33173000D01*
X29732713Y-33173000D01*
X27752695Y-31187226D01*
X27712770Y-31112532D01*
X27649538Y-31035484D01*
X27630231Y-31019639D01*
X26629126Y-30018535D01*
X26613277Y-29999223D01*
X26536229Y-29935991D01*
X26469548Y-29900349D01*
X26386593Y-29817153D01*
X26386593Y-29283750D01*
X26384722Y-29264750D01*
X28779159Y-29264750D01*
X29284001Y-29769593D01*
X29284000Y-30800153D01*
X29281553Y-30825000D01*
X29284000Y-30849846D01*
X29284000Y-30849853D01*
X29291322Y-30924192D01*
X29320255Y-31019574D01*
X29367241Y-31107479D01*
X29430473Y-31184527D01*
X29449785Y-31200376D01*
X30059628Y-31810220D01*
X30075473Y-31829527D01*
X30152157Y-31892460D01*
X30152157Y-31926250D01*
X30164197Y-32048492D01*
X30199854Y-32166037D01*
X30257757Y-32274366D01*
X30335682Y-32369318D01*
X30430634Y-32447243D01*
X30538963Y-32505146D01*
X30656508Y-32540803D01*
X30778750Y-32552843D01*
X31266250Y-32552843D01*
X31388492Y-32540803D01*
X31506037Y-32505146D01*
X31614366Y-32447243D01*
X31709318Y-32369318D01*
X31787243Y-32274366D01*
X31843027Y-32170000D01*
X32027157Y-32170000D01*
X32034513Y-32244689D01*
X32056299Y-32316508D01*
X32091678Y-32382696D01*
X32139289Y-32440711D01*
X32197304Y-32488322D01*
X32263492Y-32523701D01*
X32335311Y-32545487D01*
X32410000Y-32552843D01*
X32738750Y-32551000D01*
X32834000Y-32455750D01*
X32834000Y-31533500D01*
X32961000Y-31533500D01*
X32961000Y-32455750D01*
X33056250Y-32551000D01*
X33385000Y-32552843D01*
X33459689Y-32545487D01*
X33531508Y-32523701D01*
X33597696Y-32488322D01*
X33655711Y-32440711D01*
X33703322Y-32382696D01*
X33738701Y-32316508D01*
X33760487Y-32244689D01*
X33767843Y-32170000D01*
X33766000Y-31628750D01*
X33670750Y-31533500D01*
X32961000Y-31533500D01*
X32834000Y-31533500D01*
X32124250Y-31533500D01*
X32029000Y-31628750D01*
X32027157Y-32170000D01*
X31843027Y-32170000D01*
X31845146Y-32166037D01*
X31880803Y-32048492D01*
X31892843Y-31926250D01*
X31892843Y-31315248D01*
X32028552Y-31179540D01*
X32029000Y-31311250D01*
X32124250Y-31406500D01*
X32834000Y-31406500D01*
X32834000Y-31386500D01*
X32961000Y-31386500D01*
X32961000Y-31406500D01*
X33670750Y-31406500D01*
X33766000Y-31311250D01*
X33767843Y-30770000D01*
X33760487Y-30695311D01*
X33738701Y-30623492D01*
X33703322Y-30557304D01*
X33658628Y-30502843D01*
X33760000Y-30502843D01*
X33834689Y-30495487D01*
X33906508Y-30473701D01*
X33972696Y-30438322D01*
X34030711Y-30390711D01*
X34078322Y-30332696D01*
X34113701Y-30266508D01*
X34135487Y-30194689D01*
X34142843Y-30120000D01*
X34142843Y-28920000D01*
X34135487Y-28845311D01*
X34113701Y-28773492D01*
X34078322Y-28707304D01*
X34047708Y-28670000D01*
X34078322Y-28632696D01*
X34113701Y-28566508D01*
X34135487Y-28494689D01*
X34142843Y-28420000D01*
X34141000Y-27978750D01*
X34045750Y-27883500D01*
X33123500Y-27883500D01*
X33123500Y-27903500D01*
X32996500Y-27903500D01*
X32996500Y-27883500D01*
X32074250Y-27883500D01*
X31979000Y-27978750D01*
X31977157Y-28420000D01*
X31984513Y-28494689D01*
X32006299Y-28566508D01*
X32041678Y-28632696D01*
X32072292Y-28670000D01*
X32041678Y-28707304D01*
X32006299Y-28773492D01*
X31984513Y-28845311D01*
X31977157Y-28920000D01*
X31977157Y-29799751D01*
X31941654Y-29835255D01*
X31941000Y-29678750D01*
X31845750Y-29583500D01*
X30923500Y-29583500D01*
X30923500Y-29603500D01*
X30796500Y-29603500D01*
X30796500Y-29583500D01*
X30776500Y-29583500D01*
X30776500Y-29456500D01*
X30796500Y-29456500D01*
X30796500Y-29436500D01*
X30923500Y-29436500D01*
X30923500Y-29456500D01*
X31845750Y-29456500D01*
X31941000Y-29361250D01*
X31942843Y-28920000D01*
X31935487Y-28845311D01*
X31913701Y-28773492D01*
X31878322Y-28707304D01*
X31847708Y-28670000D01*
X31878322Y-28632696D01*
X31913701Y-28566508D01*
X31935487Y-28494689D01*
X31942843Y-28420000D01*
X31942843Y-27220000D01*
X31977157Y-27220000D01*
X31979000Y-27661250D01*
X32074250Y-27756500D01*
X32996500Y-27756500D01*
X32996500Y-27736500D01*
X33123500Y-27736500D01*
X33123500Y-27756500D01*
X34045750Y-27756500D01*
X34141000Y-27661250D01*
X34142843Y-27220000D01*
X34135487Y-27145311D01*
X34113701Y-27073492D01*
X34078322Y-27007304D01*
X34030711Y-26949289D01*
X33972696Y-26901678D01*
X33906508Y-26866299D01*
X33834689Y-26844513D01*
X33760000Y-26837157D01*
X33658344Y-26837503D01*
X33703322Y-26782696D01*
X33738701Y-26716508D01*
X33760487Y-26644689D01*
X33767843Y-26570000D01*
X33766000Y-26028750D01*
X33670750Y-25933500D01*
X32961000Y-25933500D01*
X32961000Y-25953500D01*
X32834000Y-25953500D01*
X32834000Y-25933500D01*
X32124250Y-25933500D01*
X32029000Y-26028750D01*
X32027157Y-26570000D01*
X32034513Y-26644689D01*
X32056299Y-26716508D01*
X32091678Y-26782696D01*
X32139289Y-26840711D01*
X32187438Y-26880225D01*
X32147304Y-26901678D01*
X32089289Y-26949289D01*
X32041678Y-27007304D01*
X32006299Y-27073492D01*
X31984513Y-27145311D01*
X31977157Y-27220000D01*
X31942843Y-27220000D01*
X31935487Y-27145311D01*
X31913701Y-27073492D01*
X31878322Y-27007304D01*
X31830711Y-26949289D01*
X31772696Y-26901678D01*
X31706508Y-26866299D01*
X31634689Y-26844513D01*
X31619514Y-26843018D01*
X31709318Y-26769318D01*
X31787243Y-26674366D01*
X31845146Y-26566037D01*
X31880803Y-26448492D01*
X31892843Y-26326250D01*
X31892843Y-25413750D01*
X31880803Y-25291508D01*
X31845146Y-25173963D01*
X31843028Y-25170000D01*
X32027157Y-25170000D01*
X32029000Y-25711250D01*
X32124250Y-25806500D01*
X32834000Y-25806500D01*
X32834000Y-24884250D01*
X32961000Y-24884250D01*
X32961000Y-25806500D01*
X33670750Y-25806500D01*
X33766000Y-25711250D01*
X33767843Y-25170000D01*
X33760487Y-25095311D01*
X33738701Y-25023492D01*
X33703322Y-24957304D01*
X33655711Y-24899289D01*
X33597696Y-24851678D01*
X33531508Y-24816299D01*
X33459689Y-24794513D01*
X33385000Y-24787157D01*
X33056250Y-24789000D01*
X32961000Y-24884250D01*
X32834000Y-24884250D01*
X32738750Y-24789000D01*
X32410000Y-24787157D01*
X32335311Y-24794513D01*
X32263492Y-24816299D01*
X32197304Y-24851678D01*
X32139289Y-24899289D01*
X32091678Y-24957304D01*
X32056299Y-25023492D01*
X32034513Y-25095311D01*
X32027157Y-25170000D01*
X31843028Y-25170000D01*
X31787243Y-25065634D01*
X31709318Y-24970682D01*
X31614366Y-24892757D01*
X31506037Y-24834854D01*
X31388492Y-24799197D01*
X31266250Y-24787157D01*
X30778750Y-24787157D01*
X30656508Y-24799197D01*
X30538963Y-24834854D01*
X30430634Y-24892757D01*
X30335682Y-24970682D01*
X30257757Y-25065634D01*
X30199854Y-25173963D01*
X30164197Y-25291508D01*
X30152157Y-25413750D01*
X30152157Y-25447540D01*
X30075473Y-25510473D01*
X30059628Y-25529780D01*
X29471035Y-26118374D01*
X29451723Y-26134223D01*
X29388491Y-26211271D01*
X29341505Y-26299176D01*
X29312572Y-26394558D01*
X29305250Y-26468897D01*
X29305250Y-26468904D01*
X29302803Y-26493750D01*
X29305250Y-26518597D01*
X29305251Y-26871658D01*
X28724159Y-27452750D01*
X26384722Y-27452750D01*
X26386593Y-27433750D01*
X26384750Y-27317500D01*
X26370522Y-27303272D01*
X26370922Y-27013828D01*
X26384750Y-27000000D01*
X26386440Y-26893432D01*
X26400053Y-26889302D01*
X26499336Y-26836234D01*
X26586358Y-26764817D01*
X26604261Y-26743002D01*
X27077579Y-26269684D01*
X27077157Y-26345000D01*
X27084513Y-26419689D01*
X27106299Y-26491508D01*
X27141678Y-26557696D01*
X27189289Y-26615711D01*
X27247304Y-26663322D01*
X27313492Y-26698701D01*
X27385311Y-26720487D01*
X27460000Y-26727843D01*
X28001250Y-26726000D01*
X28096500Y-26630750D01*
X28096500Y-25921000D01*
X28223500Y-25921000D01*
X28223500Y-26630750D01*
X28318750Y-26726000D01*
X28860000Y-26727843D01*
X28934689Y-26720487D01*
X29006508Y-26698701D01*
X29072696Y-26663322D01*
X29130711Y-26615711D01*
X29178322Y-26557696D01*
X29213701Y-26491508D01*
X29235487Y-26419689D01*
X29242843Y-26345000D01*
X29241000Y-26016250D01*
X29145750Y-25921000D01*
X28223500Y-25921000D01*
X28096500Y-25921000D01*
X28076500Y-25921000D01*
X28076500Y-25794000D01*
X28096500Y-25794000D01*
X28096500Y-25084250D01*
X28223500Y-25084250D01*
X28223500Y-25794000D01*
X29145750Y-25794000D01*
X29241000Y-25698750D01*
X29242843Y-25370000D01*
X29235487Y-25295311D01*
X29213701Y-25223492D01*
X29178322Y-25157304D01*
X29130711Y-25099289D01*
X29072696Y-25051678D01*
X29006508Y-25016299D01*
X28934689Y-24994513D01*
X28860000Y-24987157D01*
X28318750Y-24989000D01*
X28223500Y-25084250D01*
X28096500Y-25084250D01*
X28001250Y-24989000D01*
X27627010Y-24987726D01*
X27627010Y-24845285D01*
X27703750Y-24852843D01*
X28616250Y-24852843D01*
X28738492Y-24840803D01*
X28856037Y-24805146D01*
X28964366Y-24747243D01*
X29059318Y-24669318D01*
X29137243Y-24574366D01*
X29195146Y-24466037D01*
X29230803Y-24348492D01*
X29242843Y-24226250D01*
X29242843Y-23738750D01*
X29230803Y-23616508D01*
X29200673Y-23517185D01*
X29277241Y-23466024D01*
X29386024Y-23357241D01*
X29471495Y-23229324D01*
X29530369Y-23087191D01*
X29541569Y-23030883D01*
X36203000Y-23030883D01*
X36203000Y-31549242D01*
M02*
