G04 #@! TF.GenerationSoftware,KiCad,Pcbnew,(5.1.4)-1*
G04 #@! TF.CreationDate,2021-10-30T23:29:11+08:00*
G04 #@! TF.ProjectId,bakeneko-60-pcb,62616b65-6e65-46b6-9f2d-36302d706362,rev?*
G04 #@! TF.SameCoordinates,Original*
G04 #@! TF.FileFunction,Copper,L1,Top*
G04 #@! TF.FilePolarity,Positive*
%FSLAX46Y46*%
G04 Gerber Fmt 4.6, Leading zero omitted, Abs format (unit mm)*
G04 Created by KiCad (PCBNEW (5.1.4)-1) date 2021-10-30 23:29:11*
%MOMM*%
%LPD*%
G04 APERTURE LIST*
%ADD10C,2.250000*%
%ADD11R,1.700000X1.700000*%
%ADD12C,1.700000*%
%ADD13C,0.800000*%
%ADD14C,0.381000*%
%ADD15C,0.250000*%
G04 APERTURE END LIST*
D10*
X269240000Y28892500D03*
X262890000Y26352500D03*
X245427500Y28892500D03*
X239077500Y26352500D03*
X226377500Y28892500D03*
X220027500Y26352500D03*
X207327500Y28892500D03*
X200977500Y26352500D03*
X188277500Y28892500D03*
X181927500Y26352500D03*
X164465000Y28892500D03*
X158115000Y26352500D03*
X145415000Y28892500D03*
X139065000Y26352500D03*
X126365000Y28892500D03*
X120015000Y26352500D03*
X107315000Y28892500D03*
X100965000Y26352500D03*
X83502500Y28892500D03*
X77152500Y26352500D03*
X64452500Y28892500D03*
X58102500Y26352500D03*
X45402500Y28892500D03*
X39052500Y26352500D03*
X26352500Y28892500D03*
X20002500Y26352500D03*
X2540000Y28892500D03*
X-3810000Y26352500D03*
X24765000Y-16510000D03*
X31115000Y-13970000D03*
X43815000Y-16510000D03*
X50165000Y-13970000D03*
X258127500Y-73660000D03*
X264477500Y-71120000D03*
X234315000Y-73660000D03*
X240665000Y-71120000D03*
X129540000Y-73660000D03*
X135890000Y-71120000D03*
X48577500Y-73660000D03*
X54927500Y-71120000D03*
X24765000Y-73660000D03*
X31115000Y-71120000D03*
X952500Y-73660000D03*
X7302500Y-71120000D03*
X260508750Y-73660000D03*
X266858750Y-71120000D03*
X236696250Y-73660000D03*
X243046250Y-71120000D03*
X212883750Y-73660000D03*
X219233750Y-71120000D03*
X189071250Y-73660000D03*
X195421250Y-71120000D03*
X246221250Y-54610000D03*
X252571250Y-52070000D03*
X191452500Y-54610000D03*
X197802500Y-52070000D03*
X143827500Y-35560000D03*
X150177500Y-33020000D03*
X48577500Y-35560000D03*
X54927500Y-33020000D03*
X177165000Y-16510000D03*
X183515000Y-13970000D03*
X100965000Y-16510000D03*
X107315000Y-13970000D03*
X224790000Y2540000D03*
X231140000Y5080000D03*
X129540000Y2540000D03*
X135890000Y5080000D03*
X91440000Y2540000D03*
X97790000Y5080000D03*
X72390000Y2540000D03*
X78740000Y5080000D03*
X210502500Y-73660000D03*
X216852500Y-71120000D03*
X117633750Y-73660000D03*
X123983750Y-71120000D03*
X46196250Y-73660000D03*
X52546250Y-71120000D03*
X22383750Y-73660000D03*
X28733750Y-71120000D03*
X-1428750Y-73660000D03*
X4921250Y-71120000D03*
X262890000Y-54610000D03*
X269240000Y-52070000D03*
X236696250Y-54610000D03*
X243046250Y-52070000D03*
X210502500Y-54610000D03*
X216852500Y-52070000D03*
X172402500Y-54610000D03*
X178752500Y-52070000D03*
X153352500Y-54610000D03*
X159702500Y-52070000D03*
X134302500Y-54610000D03*
X140652500Y-52070000D03*
X115252500Y-54610000D03*
X121602500Y-52070000D03*
X96202500Y-54610000D03*
X102552500Y-52070000D03*
X77152500Y-54610000D03*
X83502500Y-52070000D03*
X58102500Y-54610000D03*
X64452500Y-52070000D03*
X39052500Y-54610000D03*
X45402500Y-52070000D03*
X8096250Y-54610000D03*
X14446250Y-52070000D03*
X250983750Y-35560000D03*
X257333750Y-33020000D03*
X220027500Y-35560000D03*
X226377500Y-33020000D03*
X200977500Y-35560000D03*
X207327500Y-33020000D03*
X181927500Y-35560000D03*
X188277500Y-33020000D03*
X162877500Y-35560000D03*
X169227500Y-33020000D03*
X124777500Y-35560000D03*
X131127500Y-33020000D03*
X105727500Y-35560000D03*
X112077500Y-33020000D03*
X86677500Y-35560000D03*
X93027500Y-33020000D03*
X67627500Y-35560000D03*
X73977500Y-33020000D03*
X29527500Y-35560000D03*
X35877500Y-33020000D03*
X3333750Y-35560000D03*
X9683750Y-33020000D03*
X-1428750Y-35560000D03*
X4921250Y-33020000D03*
X258127500Y-16510000D03*
X264477500Y-13970000D03*
X234315000Y-16510000D03*
X240665000Y-13970000D03*
X215265000Y-16510000D03*
X221615000Y-13970000D03*
X196215000Y-16510000D03*
X202565000Y-13970000D03*
X158115000Y-16510000D03*
X164465000Y-13970000D03*
X139065000Y-16510000D03*
X145415000Y-13970000D03*
X120015000Y-16510000D03*
X126365000Y-13970000D03*
X81915000Y-16510000D03*
X88265000Y-13970000D03*
X62865000Y-16510000D03*
X69215000Y-13970000D03*
X952500Y-16510000D03*
X7302500Y-13970000D03*
X253365000Y2540000D03*
X259715000Y5080000D03*
X262890000Y2540000D03*
X269240000Y5080000D03*
X243840000Y2540000D03*
X250190000Y5080000D03*
X205740000Y2540000D03*
X212090000Y5080000D03*
X186690000Y2540000D03*
X193040000Y5080000D03*
X167640000Y2540000D03*
X173990000Y5080000D03*
X148590000Y2540000D03*
X154940000Y5080000D03*
X110490000Y2540000D03*
X116840000Y5080000D03*
X53340000Y2540000D03*
X59690000Y5080000D03*
X34290000Y2540000D03*
X40640000Y5080000D03*
X15240000Y2540000D03*
X21590000Y5080000D03*
X2540000Y5080000D03*
X-3810000Y2540000D03*
D11*
X-1270000Y-6727501D03*
D12*
X-3810000Y-6727501D03*
X-1270000Y-9267501D03*
X-3810000Y-9267501D03*
X-1270000Y-11807501D03*
X-3810000Y-11807501D03*
D13*
X1251485Y-10431484D03*
X31887500Y-24060000D03*
X23997500Y-39576250D03*
X22413750Y-45630000D03*
X31233750Y-10920000D03*
X13893750Y-21565000D03*
X13603750Y-2443750D03*
X11160000Y-22290000D03*
X25250000Y-20460000D03*
X19943750Y-44970000D03*
X27883750Y-39590000D03*
X15621260Y-59590000D03*
X10326045Y-26005739D03*
X14887500Y-78643750D03*
X9121338Y-26086250D03*
X15710000Y-5020002D03*
X22902295Y-14252418D03*
X21652295Y-14252418D03*
X14460000Y-5020002D03*
X24152295Y-14252418D03*
X16960000Y-5020002D03*
X7302500Y-26811250D03*
X17248750Y-40950000D03*
X11441251Y-26095639D03*
X270643750Y-42053125D03*
X8027500Y-23018750D03*
X6350000Y21431250D03*
X16353750Y-21306250D03*
X20360000Y-21295000D03*
X22120000Y-39260000D03*
X8164520Y-28255480D03*
X28779382Y-22859382D03*
X13854251Y-23080501D03*
X33553750Y-5020002D03*
X40204145Y-23239605D03*
D14*
X-39000Y-6727501D02*
X790000Y-7556501D01*
X-1270000Y-6727501D02*
X-39000Y-6727501D01*
X790000Y-7556501D02*
X790000Y-9969999D01*
X790000Y-9969999D02*
X1251485Y-10431484D01*
X22413750Y-41160000D02*
X23997500Y-39576250D01*
X22413750Y-45630000D02*
X22413750Y-41160000D01*
X29433750Y-13310000D02*
X31233750Y-11510000D01*
X29433750Y-16273750D02*
X29433750Y-13310000D01*
X31887500Y-24060000D02*
X31887500Y-18727500D01*
X31887500Y-18727500D02*
X29433750Y-16273750D01*
X31233750Y-10920000D02*
X31233750Y-11510000D01*
D15*
X13328065Y-21565000D02*
X13893750Y-21565000D01*
X12460000Y-20696935D02*
X13328065Y-21565000D01*
X12460000Y-16480000D02*
X12460000Y-20696935D01*
X13603750Y-2443750D02*
X13603750Y-15336250D01*
X13603750Y-15336250D02*
X12460000Y-16480000D01*
X16016998Y-20570000D02*
X24340000Y-20570000D01*
X14296998Y-22290000D02*
X16016998Y-20570000D01*
X11160000Y-22290000D02*
X14296998Y-22290000D01*
X25140000Y-20570000D02*
X25250000Y-20460000D01*
X24340000Y-20570000D02*
X25140000Y-20570000D01*
X23963002Y-38490000D02*
X26783750Y-38490000D01*
X21898240Y-40554762D02*
X22768376Y-39684626D01*
X22768376Y-39684626D02*
X23963002Y-38490000D01*
X19943750Y-44970000D02*
X20928240Y-44970000D01*
X21898240Y-44000000D02*
X21898240Y-40554762D01*
X20928240Y-44970000D02*
X21898240Y-44000000D01*
X26783750Y-38490000D02*
X27883750Y-39590000D01*
X15346270Y-59315010D02*
X15621260Y-59590000D01*
X15346270Y-54133890D02*
X15346270Y-59315010D01*
X16543759Y-52936401D02*
X15346270Y-54133890D01*
X16543759Y-41806419D02*
X16543759Y-52936401D01*
X14584364Y-39847024D02*
X16543759Y-41806419D01*
X14584364Y-36647794D02*
X14584364Y-39847024D01*
X11783760Y-33847190D02*
X14584364Y-36647794D01*
X11783759Y-28300614D02*
X11783760Y-28300615D01*
X11783759Y-27463453D02*
X11783759Y-28300614D01*
X10326045Y-26005739D02*
X11783759Y-27463453D01*
X11783760Y-28300615D02*
X11783760Y-33847190D01*
X14896260Y-78634990D02*
X14887500Y-78643750D01*
X16093750Y-52750000D02*
X14896260Y-53947490D01*
X14134354Y-36834194D02*
X14134354Y-40033424D01*
X16093749Y-41992819D02*
X16093750Y-52750000D01*
X14134354Y-40033424D02*
X16093749Y-41992819D01*
X14896260Y-53947490D02*
X14896260Y-78634990D01*
X11333750Y-34033589D02*
X12264143Y-34963982D01*
X11333750Y-28298662D02*
X11333750Y-34033589D01*
X9121338Y-26086250D02*
X11333750Y-28298662D01*
X12264143Y-34963982D02*
X14134354Y-36834194D01*
X15803750Y-5040002D02*
X15823750Y-5020002D01*
X15710000Y-11922661D02*
X15710000Y-5020002D01*
X16517331Y-12729992D02*
X15710000Y-11922661D01*
X22403751Y-12729992D02*
X16517331Y-12729992D01*
X22902295Y-14252418D02*
X22902295Y-13228536D01*
X22902295Y-13228536D02*
X22403751Y-12729992D01*
X15091245Y-5651247D02*
X14460000Y-5020002D01*
X15203750Y-5763752D02*
X15091245Y-5651247D01*
X15203750Y-12080000D02*
X15203750Y-5763752D01*
X16303750Y-13180000D02*
X15203750Y-12080000D01*
X21145562Y-13180000D02*
X16303750Y-13180000D01*
X21652295Y-14252418D02*
X21652295Y-13686733D01*
X21652295Y-13686733D02*
X21145562Y-13180000D01*
X24152295Y-14252418D02*
X24153750Y-14250963D01*
X16560001Y-5420001D02*
X16960000Y-5020002D01*
X16560001Y-5423749D02*
X16560001Y-5420001D01*
X24152295Y-12928545D02*
X23503731Y-12279981D01*
X24152295Y-14252418D02*
X24152295Y-12928545D01*
X23503731Y-12279981D02*
X16703731Y-12279981D01*
X16703731Y-12279981D02*
X16203750Y-11780000D01*
X16203750Y-11780000D02*
X16203750Y-5780000D01*
X16203750Y-5780000D02*
X16560001Y-5423749D01*
X2540000Y-9207500D02*
X7302500Y-13970000D01*
X2540000Y5080000D02*
X2540000Y-9207500D01*
X4921250Y-33020000D02*
X9683750Y-33020000D01*
X4921250Y-29638765D02*
X7302500Y-27257515D01*
X4921250Y-33020000D02*
X4921250Y-29638765D01*
X7302500Y-13970000D02*
X7302500Y-26811250D01*
X7302500Y-26811250D02*
X7302500Y-27257515D01*
X6582240Y-71050000D02*
X6687340Y-71050000D01*
X6512240Y-71120000D02*
X6582240Y-71050000D01*
X15643741Y-50872509D02*
X15643741Y-42179221D01*
X14446250Y-52070000D02*
X15643741Y-50872509D01*
X15643741Y-42179221D02*
X13684345Y-40219825D01*
X13684345Y-37020595D02*
X13684345Y-38640595D01*
X9683750Y-33020000D02*
X13684345Y-37020595D01*
X13684345Y-40219825D02*
X13684345Y-38640595D01*
X14446250Y-63976250D02*
X7302500Y-71120000D01*
X14446250Y-52070000D02*
X14446250Y-63976250D01*
X4921250Y-71120000D02*
X7302500Y-71120000D01*
X2540000Y27301510D02*
X2540000Y5080000D01*
X2540000Y28892500D02*
X2540000Y27301510D01*
X38140000Y-20995000D02*
X31115000Y-13970000D01*
X35877500Y-33020000D02*
X38140000Y-30757500D01*
X38140000Y-30757500D02*
X38140000Y-20995000D01*
X31115000Y-13970000D02*
X33065000Y-12020000D01*
X33065000Y-12020000D02*
X33065000Y-6395000D01*
X33065000Y-6395000D02*
X21590000Y5080000D01*
X35662501Y-66572499D02*
X31115000Y-71120000D01*
X35877500Y-33020000D02*
X35662501Y-33234999D01*
X35662501Y-33234999D02*
X35662501Y-66572499D01*
X28733750Y-71120000D02*
X31115000Y-71120000D01*
X26352500Y9842500D02*
X21590000Y5080000D01*
X26352500Y28892500D02*
X26352500Y9842500D01*
X15034374Y-36461394D02*
X15034374Y-39660624D01*
X12233770Y-33660790D02*
X15034374Y-36461394D01*
X40640000Y-4445000D02*
X50165000Y-13970000D01*
X40640000Y5080000D02*
X40640000Y-4445000D01*
X51490000Y-29582500D02*
X54927500Y-33020000D01*
X50165000Y-13970000D02*
X51490000Y-15295000D01*
X51490000Y-15295000D02*
X51490000Y-29582500D01*
X54927500Y-33020000D02*
X54927500Y-40232500D01*
X45402500Y-49757500D02*
X45402500Y-52070000D01*
X54927500Y-40232500D02*
X45402500Y-49757500D01*
X12233770Y-27965930D02*
X12233770Y-28340020D01*
X16323750Y-40950000D02*
X16093750Y-40720000D01*
X17248750Y-40950000D02*
X16323750Y-40950000D01*
X15034374Y-39660624D02*
X16093750Y-40720000D01*
X54927500Y-61595000D02*
X54927500Y-71120000D01*
X45402500Y-52070000D02*
X54927500Y-61595000D01*
X54927500Y-71120000D02*
X52546250Y-71120000D01*
X45402500Y9842500D02*
X40640000Y5080000D01*
X45402500Y28892500D02*
X45402500Y9842500D01*
X12233770Y-26888158D02*
X12233770Y-29438105D01*
X11441251Y-26095639D02*
X12233770Y-26888158D01*
X12233770Y-28340020D02*
X12233770Y-29438105D01*
X12233770Y-29438105D02*
X12233770Y-33660790D01*
X59690000Y-4445000D02*
X69215000Y-13970000D01*
X59690000Y5080000D02*
X59690000Y-4445000D01*
X69215000Y-28257500D02*
X73977500Y-33020000D01*
X69215000Y-13970000D02*
X69215000Y-28257500D01*
X73977500Y-42545000D02*
X64452500Y-52070000D01*
X73977500Y-33020000D02*
X73977500Y-42545000D01*
X64452500Y9842500D02*
X59690000Y5080000D01*
X64452500Y28892500D02*
X64452500Y9842500D01*
X78740000Y-4445000D02*
X88265000Y-13970000D01*
X78740000Y5080000D02*
X78740000Y-4445000D01*
X88265000Y-28257500D02*
X93027500Y-33020000D01*
X88265000Y-13970000D02*
X88265000Y-28257500D01*
X93027500Y-42545000D02*
X83502500Y-52070000D01*
X93027500Y-33020000D02*
X93027500Y-42545000D01*
X83502500Y9842500D02*
X78740000Y5080000D01*
X83502500Y28892500D02*
X83502500Y9842500D01*
X97790000Y-4445000D02*
X107315000Y-13970000D01*
X97790000Y5080000D02*
X97790000Y-4445000D01*
X107315000Y-28257500D02*
X112077500Y-33020000D01*
X107315000Y-13970000D02*
X107315000Y-28257500D01*
X112077500Y-42545000D02*
X102552500Y-52070000D01*
X112077500Y-33020000D02*
X112077500Y-42545000D01*
X116840000Y-4445000D02*
X126365000Y-13970000D01*
X116840000Y5080000D02*
X116840000Y-4445000D01*
X126365000Y-28257500D02*
X131127500Y-33020000D01*
X126365000Y-13970000D02*
X126365000Y-28257500D01*
X131127500Y-42545000D02*
X121602500Y-52070000D01*
X131127500Y-33020000D02*
X131127500Y-42545000D01*
X123983750Y-70863750D02*
X123983750Y-71120000D01*
X121602500Y-68738750D02*
X123983750Y-71120000D01*
X121602500Y-52070000D02*
X121602500Y-68738750D01*
X123983750Y-71120000D02*
X131127500Y-71120000D01*
X131127500Y-71120000D02*
X135890000Y-71120000D01*
X107315000Y14605000D02*
X116840000Y5080000D01*
X107315000Y28892500D02*
X107315000Y14605000D01*
X135890000Y-4445000D02*
X145415000Y-13970000D01*
X135890000Y5080000D02*
X135890000Y-4445000D01*
X145415000Y-28257500D02*
X150177500Y-33020000D01*
X145415000Y-13970000D02*
X145415000Y-28257500D01*
X150177500Y-42545000D02*
X140652500Y-52070000D01*
X150177500Y-33020000D02*
X150177500Y-42545000D01*
X126365000Y14605000D02*
X135890000Y5080000D01*
X126365000Y28892500D02*
X126365000Y14605000D01*
X154940000Y-4445000D02*
X164465000Y-13970000D01*
X154940000Y5080000D02*
X154940000Y-4445000D01*
X164465000Y-28257500D02*
X169227500Y-33020000D01*
X164465000Y-13970000D02*
X164465000Y-28257500D01*
X169227500Y-42545000D02*
X159702500Y-52070000D01*
X169227500Y-33020000D02*
X169227500Y-42545000D01*
X145415000Y14605000D02*
X154940000Y5080000D01*
X145415000Y28892500D02*
X145415000Y14605000D01*
X173990000Y-4445000D02*
X183515000Y-13970000D01*
X173990000Y5080000D02*
X173990000Y-4445000D01*
X183515000Y-28257500D02*
X188277500Y-33020000D01*
X183515000Y-13970000D02*
X183515000Y-28257500D01*
X188277500Y-42545000D02*
X178752500Y-52070000D01*
X188277500Y-33020000D02*
X188277500Y-42545000D01*
X164465000Y14605000D02*
X173990000Y5080000D01*
X164465000Y28892500D02*
X164465000Y14605000D01*
X193040000Y-4445000D02*
X202565000Y-13970000D01*
X193040000Y5080000D02*
X193040000Y-4445000D01*
X202565000Y-28257500D02*
X207327500Y-33020000D01*
X202565000Y-13970000D02*
X202565000Y-28257500D01*
X207327500Y-42545000D02*
X197802500Y-52070000D01*
X207327500Y-33020000D02*
X207327500Y-42545000D01*
X197802500Y-68738750D02*
X195421250Y-71120000D01*
X197802500Y-52070000D02*
X197802500Y-68738750D01*
X188277500Y9842500D02*
X193040000Y5080000D01*
X188277500Y28892500D02*
X188277500Y9842500D01*
X226377500Y-42545000D02*
X226377500Y-33020000D01*
X216852500Y-52070000D02*
X226377500Y-42545000D01*
X226377500Y-18732500D02*
X221615000Y-13970000D01*
X226377500Y-33020000D02*
X226377500Y-18732500D01*
X211875001Y4865001D02*
X212090000Y5080000D01*
X211875001Y-4230001D02*
X211875001Y4865001D01*
X221615000Y-13970000D02*
X211875001Y-4230001D01*
X216852500Y-52070000D02*
X220993750Y-56211250D01*
X220993750Y-56211250D02*
X220993750Y-69360000D01*
X220993750Y-69360000D02*
X219233750Y-71120000D01*
X216852500Y-71120000D02*
X219233750Y-71120000D01*
X207327500Y9842500D02*
X212090000Y5080000D01*
X207327500Y28892500D02*
X207327500Y9842500D01*
X231140000Y-4445000D02*
X240665000Y-13970000D01*
X231140000Y5080000D02*
X231140000Y-4445000D01*
X245440000Y-49676250D02*
X243046250Y-52070000D01*
X240665000Y-13970000D02*
X245440000Y-18745000D01*
X245440000Y-18745000D02*
X245440000Y-49676250D01*
X243046250Y-52070000D02*
X243046250Y-71120000D01*
X240665000Y-71120000D02*
X243046250Y-71120000D01*
X251446251Y-50945001D02*
X252571250Y-52070000D01*
X250177500Y-49676250D02*
X251446251Y-50945001D01*
X245440000Y-49676250D02*
X250177500Y-49676250D01*
X226377500Y9842500D02*
X231140000Y5080000D01*
X226377500Y28892500D02*
X226377500Y9842500D01*
X264325998Y-13970000D02*
X264477500Y-13970000D01*
X250190000Y165998D02*
X264325998Y-13970000D01*
X250190000Y5080000D02*
X250190000Y165998D01*
X264477500Y-25876250D02*
X257333750Y-33020000D01*
X264477500Y-13970000D02*
X264477500Y-25876250D01*
X269240000Y-44926250D02*
X269240000Y-52070000D01*
X257333750Y-33020000D02*
X269240000Y-44926250D01*
X269240000Y-68738750D02*
X266858750Y-71120000D01*
X269240000Y-52070000D02*
X269240000Y-68738750D01*
X264477500Y-71120000D02*
X266858750Y-71120000D01*
X245427500Y9842500D02*
X250190000Y5080000D01*
X245427500Y28892500D02*
X245427500Y9842500D01*
X271643750Y-41053125D02*
X270643750Y-42053125D01*
X271643750Y-3913750D02*
X271643750Y-41053125D01*
X269240000Y5080000D02*
X269240000Y-1510000D01*
X269240000Y-1510000D02*
X271643750Y-3913750D01*
X269240000Y14605000D02*
X259715000Y5080000D01*
X269240000Y28892500D02*
X269240000Y14605000D01*
X8027500Y-23018750D02*
X8027500Y-15785000D01*
X8027500Y-15785000D02*
X9128125Y-14684375D01*
X9128125Y-14684375D02*
X9128125Y-13096875D01*
X9128125Y-13096875D02*
X6350000Y-10318750D01*
X6350000Y-10318750D02*
X6350000Y21431250D01*
D14*
X16365000Y-21295000D02*
X16353750Y-21306250D01*
X20360000Y-21295000D02*
X16365000Y-21295000D01*
X14579499Y-23080501D02*
X14960000Y-22700000D01*
X16353750Y-21306250D02*
X14960000Y-22700000D01*
X8164520Y-28255480D02*
X8164520Y-24345480D01*
X8164520Y-24345480D02*
X9429499Y-23080501D01*
X27215000Y-21295000D02*
X28779382Y-22859382D01*
X20360000Y-21295000D02*
X27215000Y-21295000D01*
X28779382Y-32600618D02*
X22120000Y-39260000D01*
X28779382Y-22859382D02*
X28779382Y-32600618D01*
X9429499Y-23080501D02*
X13854251Y-23080501D01*
X13854251Y-23080501D02*
X14579499Y-23080501D01*
D15*
X40204145Y-23139605D02*
X40204145Y-23239605D01*
X40204145Y-22360395D02*
X40204145Y-23239605D01*
X33553750Y-15710000D02*
X40204145Y-22360395D01*
X33553750Y-5700000D02*
X33553750Y-5020002D01*
X33553750Y-5700000D02*
X33553750Y-15710000D01*
X33553750Y-5505703D02*
X33553750Y-5700000D01*
M02*
