G04 #@! TF.GenerationSoftware,KiCad,Pcbnew,(5.1.4)-1*
G04 #@! TF.CreationDate,2021-10-30T23:29:11+08:00*
G04 #@! TF.ProjectId,bakeneko-60-pcb,62616b65-6e65-46b6-9f2d-36302d706362,rev?*
G04 #@! TF.SameCoordinates,Original*
G04 #@! TF.FileFunction,Paste,Bot*
G04 #@! TF.FilePolarity,Positive*
%FSLAX46Y46*%
G04 Gerber Fmt 4.6, Leading zero omitted, Abs format (unit mm)*
G04 Created by KiCad (PCBNEW (5.1.4)-1) date 2021-10-30 23:29:11*
%MOMM*%
%LPD*%
G04 APERTURE LIST*
%ADD10R,1.200000X0.900000*%
%ADD11R,0.650000X1.060000*%
%ADD12R,1.400000X1.200000*%
%ADD13R,1.500000X0.550000*%
%ADD14R,0.550000X1.500000*%
%ADD15R,1.700000X1.000000*%
%ADD16C,0.100000*%
%ADD17C,0.975000*%
%ADD18C,0.600000*%
%ADD19C,1.200000*%
%ADD20C,1.250000*%
G04 APERTURE END LIST*
D10*
X257175000Y24668750D03*
X257175000Y21368750D03*
X233362500Y24668750D03*
X233362500Y21368750D03*
X214312500Y24668750D03*
X214312500Y21368750D03*
X195262500Y24668750D03*
X195262500Y21368750D03*
X176212500Y24668750D03*
X176212500Y21368750D03*
X152400000Y24668750D03*
X152400000Y21368750D03*
X133350000Y24668750D03*
X133350000Y21368750D03*
X114300000Y24668750D03*
X114300000Y21368750D03*
X95250000Y24668750D03*
X95250000Y21368750D03*
X71437500Y24668750D03*
X71437500Y21368750D03*
X52387500Y24668750D03*
X52387500Y21368750D03*
X33337500Y24668750D03*
X33337500Y21368750D03*
X14287500Y24668750D03*
X14287500Y21368750D03*
X7937500Y24668750D03*
X7937500Y21368750D03*
D11*
X30273750Y-9600000D03*
X29323750Y-9600000D03*
X28373750Y-9600000D03*
X28373750Y-7400000D03*
X30273750Y-7400000D03*
X29323750Y-7400000D03*
D10*
X228550000Y-75343750D03*
X228550000Y-78643750D03*
X204787500Y-75343750D03*
X204787500Y-78643750D03*
X183315000Y-75343750D03*
X183315000Y-78643750D03*
X44450000Y-37243750D03*
X44450000Y-40543750D03*
X41275000Y-37243750D03*
X41275000Y-40543750D03*
X77787500Y-18193750D03*
X77787500Y-21493750D03*
X74612500Y-18193750D03*
X74612500Y-21493750D03*
X55562500Y-18193750D03*
X55562500Y-21493750D03*
X58737500Y-18193750D03*
X58737500Y-21493750D03*
X239655000Y856250D03*
X239655000Y-2443750D03*
X219075000Y856250D03*
X219075000Y-2443750D03*
X11112500Y856250D03*
X11112500Y-2443750D03*
X7937500Y856250D03*
X7937500Y-2443750D03*
X-3175000Y-18987500D03*
X-3175000Y-22287500D03*
X236585000Y856250D03*
X236585000Y-2443750D03*
X252362500Y-75343750D03*
X252362500Y-78643750D03*
X111918750Y-75343750D03*
X111918750Y-78643750D03*
X40481250Y-75343750D03*
X40481250Y-78643750D03*
X16668750Y-75343750D03*
X16668750Y-78643750D03*
X12747500Y-75343750D03*
X12747500Y-78643750D03*
X258715000Y-56293750D03*
X258715000Y-59593750D03*
X230981250Y-56293750D03*
X230981250Y-59593750D03*
X204787500Y-56293750D03*
X204787500Y-59593750D03*
X185737500Y-56293750D03*
X185737500Y-59593750D03*
X166687500Y-56293750D03*
X166687500Y-59593750D03*
X147637500Y-56293750D03*
X147637500Y-59593750D03*
X128587500Y-56293750D03*
X128587500Y-59593750D03*
X109537500Y-56293750D03*
X109537500Y-59593750D03*
X90487500Y-56293750D03*
X90487500Y-59593750D03*
X71437500Y-56293750D03*
X71437500Y-59593750D03*
X52387500Y-56293750D03*
X52387500Y-59593750D03*
X33337500Y-56293750D03*
X33337500Y-59593750D03*
X19843750Y-56293750D03*
X19843750Y-59593750D03*
X245268750Y-37243750D03*
X245268750Y-40543750D03*
X214312500Y-37243750D03*
X214312500Y-40543750D03*
X195262500Y-37243750D03*
X195262500Y-40543750D03*
X176212500Y-37243750D03*
X176212500Y-40543750D03*
X157162500Y-37243750D03*
X157162500Y-40543750D03*
X138112500Y-37243750D03*
X138112500Y-40543750D03*
X119062500Y-37243750D03*
X119062500Y-40543750D03*
X100012500Y-37243750D03*
X100012500Y-40543750D03*
X80962500Y-37243750D03*
X80962500Y-40543750D03*
X61912500Y-37243750D03*
X61912500Y-40543750D03*
X15081250Y-37243750D03*
X15081250Y-40543750D03*
X252412500Y-18193750D03*
X252412500Y-21493750D03*
X228600000Y-18193750D03*
X228600000Y-21493750D03*
X209550000Y-18193750D03*
X209550000Y-21493750D03*
X190500000Y-18193750D03*
X190500000Y-21493750D03*
X171450000Y-18193750D03*
X171450000Y-21493750D03*
X152400000Y-18193750D03*
X152400000Y-21493750D03*
X133350000Y-18193750D03*
X133350000Y-21493750D03*
X114300000Y-18193750D03*
X114300000Y-21493750D03*
X95250000Y-18193750D03*
X95250000Y-21493750D03*
X200025000Y856250D03*
X200025000Y-2443750D03*
X180975000Y856250D03*
X180975000Y-2443750D03*
X161925000Y856250D03*
X161925000Y-2443750D03*
X142875000Y856250D03*
X142875000Y-2443750D03*
X123825000Y856250D03*
X123825000Y-2443750D03*
X104775000Y856250D03*
X104775000Y-2443750D03*
X85725000Y856250D03*
X85725000Y-2443750D03*
X66675000Y856250D03*
X66675000Y-2443750D03*
X47625000Y856250D03*
X47625000Y-2443750D03*
X28575000Y856250D03*
X28575000Y-2443750D03*
D12*
X33060000Y-27820000D03*
X30860000Y-27820000D03*
X30860000Y-29520000D03*
X33060000Y-29520000D03*
D13*
X13853750Y-24758750D03*
X13853750Y-25558750D03*
X13853750Y-26358750D03*
X13853750Y-27158750D03*
X13853750Y-27958750D03*
X13853750Y-28758750D03*
X13853750Y-29558750D03*
X13853750Y-30358750D03*
X13853750Y-31158750D03*
X13853750Y-31958750D03*
X13853750Y-32758750D03*
D14*
X15553750Y-34458750D03*
X16353750Y-34458750D03*
X17153750Y-34458750D03*
X17953750Y-34458750D03*
X18753750Y-34458750D03*
X19553750Y-34458750D03*
X20353750Y-34458750D03*
X21153750Y-34458750D03*
X21953750Y-34458750D03*
X22753750Y-34458750D03*
X23553750Y-34458750D03*
D13*
X25253750Y-32758750D03*
X25253750Y-31958750D03*
X25253750Y-31158750D03*
X25253750Y-30358750D03*
X25253750Y-29558750D03*
X25253750Y-28758750D03*
X25253750Y-27958750D03*
X25253750Y-27158750D03*
X25253750Y-26358750D03*
X25253750Y-25558750D03*
X25253750Y-24758750D03*
D14*
X23553750Y-23058750D03*
X22753750Y-23058750D03*
X21953750Y-23058750D03*
X21153750Y-23058750D03*
X20353750Y-23058750D03*
X19553750Y-23058750D03*
X18753750Y-23058750D03*
X17953750Y-23058750D03*
X17153750Y-23058750D03*
X16353750Y-23058750D03*
X15553750Y-23058750D03*
D15*
X49393750Y-24585000D03*
X43093750Y-24585000D03*
X49393750Y-28385000D03*
X43093750Y-28385000D03*
D16*
G36*
X21303892Y-45526174D02*
G01*
X21327553Y-45529684D01*
X21350757Y-45535496D01*
X21373279Y-45543554D01*
X21394903Y-45553782D01*
X21415420Y-45566079D01*
X21434633Y-45580329D01*
X21452357Y-45596393D01*
X21468421Y-45614117D01*
X21482671Y-45633330D01*
X21494968Y-45653847D01*
X21505196Y-45675471D01*
X21513254Y-45697993D01*
X21519066Y-45721197D01*
X21522576Y-45744858D01*
X21523750Y-45768750D01*
X21523750Y-46256250D01*
X21522576Y-46280142D01*
X21519066Y-46303803D01*
X21513254Y-46327007D01*
X21505196Y-46349529D01*
X21494968Y-46371153D01*
X21482671Y-46391670D01*
X21468421Y-46410883D01*
X21452357Y-46428607D01*
X21434633Y-46444671D01*
X21415420Y-46458921D01*
X21394903Y-46471218D01*
X21373279Y-46481446D01*
X21350757Y-46489504D01*
X21327553Y-46495316D01*
X21303892Y-46498826D01*
X21280000Y-46500000D01*
X20367500Y-46500000D01*
X20343608Y-46498826D01*
X20319947Y-46495316D01*
X20296743Y-46489504D01*
X20274221Y-46481446D01*
X20252597Y-46471218D01*
X20232080Y-46458921D01*
X20212867Y-46444671D01*
X20195143Y-46428607D01*
X20179079Y-46410883D01*
X20164829Y-46391670D01*
X20152532Y-46371153D01*
X20142304Y-46349529D01*
X20134246Y-46327007D01*
X20128434Y-46303803D01*
X20124924Y-46280142D01*
X20123750Y-46256250D01*
X20123750Y-45768750D01*
X20124924Y-45744858D01*
X20128434Y-45721197D01*
X20134246Y-45697993D01*
X20142304Y-45675471D01*
X20152532Y-45653847D01*
X20164829Y-45633330D01*
X20179079Y-45614117D01*
X20195143Y-45596393D01*
X20212867Y-45580329D01*
X20232080Y-45566079D01*
X20252597Y-45553782D01*
X20274221Y-45543554D01*
X20296743Y-45535496D01*
X20319947Y-45529684D01*
X20343608Y-45526174D01*
X20367500Y-45525000D01*
X21280000Y-45525000D01*
X21303892Y-45526174D01*
X21303892Y-45526174D01*
G37*
D17*
X20823750Y-46012500D03*
D16*
G36*
X21303892Y-47401174D02*
G01*
X21327553Y-47404684D01*
X21350757Y-47410496D01*
X21373279Y-47418554D01*
X21394903Y-47428782D01*
X21415420Y-47441079D01*
X21434633Y-47455329D01*
X21452357Y-47471393D01*
X21468421Y-47489117D01*
X21482671Y-47508330D01*
X21494968Y-47528847D01*
X21505196Y-47550471D01*
X21513254Y-47572993D01*
X21519066Y-47596197D01*
X21522576Y-47619858D01*
X21523750Y-47643750D01*
X21523750Y-48131250D01*
X21522576Y-48155142D01*
X21519066Y-48178803D01*
X21513254Y-48202007D01*
X21505196Y-48224529D01*
X21494968Y-48246153D01*
X21482671Y-48266670D01*
X21468421Y-48285883D01*
X21452357Y-48303607D01*
X21434633Y-48319671D01*
X21415420Y-48333921D01*
X21394903Y-48346218D01*
X21373279Y-48356446D01*
X21350757Y-48364504D01*
X21327553Y-48370316D01*
X21303892Y-48373826D01*
X21280000Y-48375000D01*
X20367500Y-48375000D01*
X20343608Y-48373826D01*
X20319947Y-48370316D01*
X20296743Y-48364504D01*
X20274221Y-48356446D01*
X20252597Y-48346218D01*
X20232080Y-48333921D01*
X20212867Y-48319671D01*
X20195143Y-48303607D01*
X20179079Y-48285883D01*
X20164829Y-48266670D01*
X20152532Y-48246153D01*
X20142304Y-48224529D01*
X20134246Y-48202007D01*
X20128434Y-48178803D01*
X20124924Y-48155142D01*
X20123750Y-48131250D01*
X20123750Y-47643750D01*
X20124924Y-47619858D01*
X20128434Y-47596197D01*
X20134246Y-47572993D01*
X20142304Y-47550471D01*
X20152532Y-47528847D01*
X20164829Y-47508330D01*
X20179079Y-47489117D01*
X20195143Y-47471393D01*
X20212867Y-47455329D01*
X20232080Y-47441079D01*
X20252597Y-47428782D01*
X20274221Y-47418554D01*
X20296743Y-47410496D01*
X20319947Y-47404684D01*
X20343608Y-47401174D01*
X20367500Y-47400000D01*
X21280000Y-47400000D01*
X21303892Y-47401174D01*
X21303892Y-47401174D01*
G37*
D17*
X20823750Y-47887500D03*
D16*
G36*
X24545142Y-6551174D02*
G01*
X24568803Y-6554684D01*
X24592007Y-6560496D01*
X24614529Y-6568554D01*
X24636153Y-6578782D01*
X24656670Y-6591079D01*
X24675883Y-6605329D01*
X24693607Y-6621393D01*
X24709671Y-6639117D01*
X24723921Y-6658330D01*
X24736218Y-6678847D01*
X24746446Y-6700471D01*
X24754504Y-6722993D01*
X24760316Y-6746197D01*
X24763826Y-6769858D01*
X24765000Y-6793750D01*
X24765000Y-7706250D01*
X24763826Y-7730142D01*
X24760316Y-7753803D01*
X24754504Y-7777007D01*
X24746446Y-7799529D01*
X24736218Y-7821153D01*
X24723921Y-7841670D01*
X24709671Y-7860883D01*
X24693607Y-7878607D01*
X24675883Y-7894671D01*
X24656670Y-7908921D01*
X24636153Y-7921218D01*
X24614529Y-7931446D01*
X24592007Y-7939504D01*
X24568803Y-7945316D01*
X24545142Y-7948826D01*
X24521250Y-7950000D01*
X24033750Y-7950000D01*
X24009858Y-7948826D01*
X23986197Y-7945316D01*
X23962993Y-7939504D01*
X23940471Y-7931446D01*
X23918847Y-7921218D01*
X23898330Y-7908921D01*
X23879117Y-7894671D01*
X23861393Y-7878607D01*
X23845329Y-7860883D01*
X23831079Y-7841670D01*
X23818782Y-7821153D01*
X23808554Y-7799529D01*
X23800496Y-7777007D01*
X23794684Y-7753803D01*
X23791174Y-7730142D01*
X23790000Y-7706250D01*
X23790000Y-6793750D01*
X23791174Y-6769858D01*
X23794684Y-6746197D01*
X23800496Y-6722993D01*
X23808554Y-6700471D01*
X23818782Y-6678847D01*
X23831079Y-6658330D01*
X23845329Y-6639117D01*
X23861393Y-6621393D01*
X23879117Y-6605329D01*
X23898330Y-6591079D01*
X23918847Y-6578782D01*
X23940471Y-6568554D01*
X23962993Y-6560496D01*
X23986197Y-6554684D01*
X24009858Y-6551174D01*
X24033750Y-6550000D01*
X24521250Y-6550000D01*
X24545142Y-6551174D01*
X24545142Y-6551174D01*
G37*
D17*
X24277500Y-7250000D03*
D16*
G36*
X22670142Y-6551174D02*
G01*
X22693803Y-6554684D01*
X22717007Y-6560496D01*
X22739529Y-6568554D01*
X22761153Y-6578782D01*
X22781670Y-6591079D01*
X22800883Y-6605329D01*
X22818607Y-6621393D01*
X22834671Y-6639117D01*
X22848921Y-6658330D01*
X22861218Y-6678847D01*
X22871446Y-6700471D01*
X22879504Y-6722993D01*
X22885316Y-6746197D01*
X22888826Y-6769858D01*
X22890000Y-6793750D01*
X22890000Y-7706250D01*
X22888826Y-7730142D01*
X22885316Y-7753803D01*
X22879504Y-7777007D01*
X22871446Y-7799529D01*
X22861218Y-7821153D01*
X22848921Y-7841670D01*
X22834671Y-7860883D01*
X22818607Y-7878607D01*
X22800883Y-7894671D01*
X22781670Y-7908921D01*
X22761153Y-7921218D01*
X22739529Y-7931446D01*
X22717007Y-7939504D01*
X22693803Y-7945316D01*
X22670142Y-7948826D01*
X22646250Y-7950000D01*
X22158750Y-7950000D01*
X22134858Y-7948826D01*
X22111197Y-7945316D01*
X22087993Y-7939504D01*
X22065471Y-7931446D01*
X22043847Y-7921218D01*
X22023330Y-7908921D01*
X22004117Y-7894671D01*
X21986393Y-7878607D01*
X21970329Y-7860883D01*
X21956079Y-7841670D01*
X21943782Y-7821153D01*
X21933554Y-7799529D01*
X21925496Y-7777007D01*
X21919684Y-7753803D01*
X21916174Y-7730142D01*
X21915000Y-7706250D01*
X21915000Y-6793750D01*
X21916174Y-6769858D01*
X21919684Y-6746197D01*
X21925496Y-6722993D01*
X21933554Y-6700471D01*
X21943782Y-6678847D01*
X21956079Y-6658330D01*
X21970329Y-6639117D01*
X21986393Y-6621393D01*
X22004117Y-6605329D01*
X22023330Y-6591079D01*
X22043847Y-6578782D01*
X22065471Y-6568554D01*
X22087993Y-6560496D01*
X22111197Y-6554684D01*
X22134858Y-6551174D01*
X22158750Y-6550000D01*
X22646250Y-6550000D01*
X22670142Y-6551174D01*
X22670142Y-6551174D01*
G37*
D17*
X22402500Y-7250000D03*
D16*
G36*
X24545142Y-9051174D02*
G01*
X24568803Y-9054684D01*
X24592007Y-9060496D01*
X24614529Y-9068554D01*
X24636153Y-9078782D01*
X24656670Y-9091079D01*
X24675883Y-9105329D01*
X24693607Y-9121393D01*
X24709671Y-9139117D01*
X24723921Y-9158330D01*
X24736218Y-9178847D01*
X24746446Y-9200471D01*
X24754504Y-9222993D01*
X24760316Y-9246197D01*
X24763826Y-9269858D01*
X24765000Y-9293750D01*
X24765000Y-10206250D01*
X24763826Y-10230142D01*
X24760316Y-10253803D01*
X24754504Y-10277007D01*
X24746446Y-10299529D01*
X24736218Y-10321153D01*
X24723921Y-10341670D01*
X24709671Y-10360883D01*
X24693607Y-10378607D01*
X24675883Y-10394671D01*
X24656670Y-10408921D01*
X24636153Y-10421218D01*
X24614529Y-10431446D01*
X24592007Y-10439504D01*
X24568803Y-10445316D01*
X24545142Y-10448826D01*
X24521250Y-10450000D01*
X24033750Y-10450000D01*
X24009858Y-10448826D01*
X23986197Y-10445316D01*
X23962993Y-10439504D01*
X23940471Y-10431446D01*
X23918847Y-10421218D01*
X23898330Y-10408921D01*
X23879117Y-10394671D01*
X23861393Y-10378607D01*
X23845329Y-10360883D01*
X23831079Y-10341670D01*
X23818782Y-10321153D01*
X23808554Y-10299529D01*
X23800496Y-10277007D01*
X23794684Y-10253803D01*
X23791174Y-10230142D01*
X23790000Y-10206250D01*
X23790000Y-9293750D01*
X23791174Y-9269858D01*
X23794684Y-9246197D01*
X23800496Y-9222993D01*
X23808554Y-9200471D01*
X23818782Y-9178847D01*
X23831079Y-9158330D01*
X23845329Y-9139117D01*
X23861393Y-9121393D01*
X23879117Y-9105329D01*
X23898330Y-9091079D01*
X23918847Y-9078782D01*
X23940471Y-9068554D01*
X23962993Y-9060496D01*
X23986197Y-9054684D01*
X24009858Y-9051174D01*
X24033750Y-9050000D01*
X24521250Y-9050000D01*
X24545142Y-9051174D01*
X24545142Y-9051174D01*
G37*
D17*
X24277500Y-9750000D03*
D16*
G36*
X22670142Y-9051174D02*
G01*
X22693803Y-9054684D01*
X22717007Y-9060496D01*
X22739529Y-9068554D01*
X22761153Y-9078782D01*
X22781670Y-9091079D01*
X22800883Y-9105329D01*
X22818607Y-9121393D01*
X22834671Y-9139117D01*
X22848921Y-9158330D01*
X22861218Y-9178847D01*
X22871446Y-9200471D01*
X22879504Y-9222993D01*
X22885316Y-9246197D01*
X22888826Y-9269858D01*
X22890000Y-9293750D01*
X22890000Y-10206250D01*
X22888826Y-10230142D01*
X22885316Y-10253803D01*
X22879504Y-10277007D01*
X22871446Y-10299529D01*
X22861218Y-10321153D01*
X22848921Y-10341670D01*
X22834671Y-10360883D01*
X22818607Y-10378607D01*
X22800883Y-10394671D01*
X22781670Y-10408921D01*
X22761153Y-10421218D01*
X22739529Y-10431446D01*
X22717007Y-10439504D01*
X22693803Y-10445316D01*
X22670142Y-10448826D01*
X22646250Y-10450000D01*
X22158750Y-10450000D01*
X22134858Y-10448826D01*
X22111197Y-10445316D01*
X22087993Y-10439504D01*
X22065471Y-10431446D01*
X22043847Y-10421218D01*
X22023330Y-10408921D01*
X22004117Y-10394671D01*
X21986393Y-10378607D01*
X21970329Y-10360883D01*
X21956079Y-10341670D01*
X21943782Y-10321153D01*
X21933554Y-10299529D01*
X21925496Y-10277007D01*
X21919684Y-10253803D01*
X21916174Y-10230142D01*
X21915000Y-10206250D01*
X21915000Y-9293750D01*
X21916174Y-9269858D01*
X21919684Y-9246197D01*
X21925496Y-9222993D01*
X21933554Y-9200471D01*
X21943782Y-9178847D01*
X21956079Y-9158330D01*
X21970329Y-9139117D01*
X21986393Y-9121393D01*
X22004117Y-9105329D01*
X22023330Y-9091079D01*
X22043847Y-9078782D01*
X22065471Y-9068554D01*
X22087993Y-9060496D01*
X22111197Y-9054684D01*
X22134858Y-9051174D01*
X22158750Y-9050000D01*
X22646250Y-9050000D01*
X22670142Y-9051174D01*
X22670142Y-9051174D01*
G37*
D17*
X22402500Y-9750000D03*
D16*
G36*
X41190142Y-25971174D02*
G01*
X41213803Y-25974684D01*
X41237007Y-25980496D01*
X41259529Y-25988554D01*
X41281153Y-25998782D01*
X41301670Y-26011079D01*
X41320883Y-26025329D01*
X41338607Y-26041393D01*
X41354671Y-26059117D01*
X41368921Y-26078330D01*
X41381218Y-26098847D01*
X41391446Y-26120471D01*
X41399504Y-26142993D01*
X41405316Y-26166197D01*
X41408826Y-26189858D01*
X41410000Y-26213750D01*
X41410000Y-26701250D01*
X41408826Y-26725142D01*
X41405316Y-26748803D01*
X41399504Y-26772007D01*
X41391446Y-26794529D01*
X41381218Y-26816153D01*
X41368921Y-26836670D01*
X41354671Y-26855883D01*
X41338607Y-26873607D01*
X41320883Y-26889671D01*
X41301670Y-26903921D01*
X41281153Y-26916218D01*
X41259529Y-26926446D01*
X41237007Y-26934504D01*
X41213803Y-26940316D01*
X41190142Y-26943826D01*
X41166250Y-26945000D01*
X40253750Y-26945000D01*
X40229858Y-26943826D01*
X40206197Y-26940316D01*
X40182993Y-26934504D01*
X40160471Y-26926446D01*
X40138847Y-26916218D01*
X40118330Y-26903921D01*
X40099117Y-26889671D01*
X40081393Y-26873607D01*
X40065329Y-26855883D01*
X40051079Y-26836670D01*
X40038782Y-26816153D01*
X40028554Y-26794529D01*
X40020496Y-26772007D01*
X40014684Y-26748803D01*
X40011174Y-26725142D01*
X40010000Y-26701250D01*
X40010000Y-26213750D01*
X40011174Y-26189858D01*
X40014684Y-26166197D01*
X40020496Y-26142993D01*
X40028554Y-26120471D01*
X40038782Y-26098847D01*
X40051079Y-26078330D01*
X40065329Y-26059117D01*
X40081393Y-26041393D01*
X40099117Y-26025329D01*
X40118330Y-26011079D01*
X40138847Y-25998782D01*
X40160471Y-25988554D01*
X40182993Y-25980496D01*
X40206197Y-25974684D01*
X40229858Y-25971174D01*
X40253750Y-25970000D01*
X41166250Y-25970000D01*
X41190142Y-25971174D01*
X41190142Y-25971174D01*
G37*
D17*
X40710000Y-26457500D03*
D16*
G36*
X41190142Y-24096174D02*
G01*
X41213803Y-24099684D01*
X41237007Y-24105496D01*
X41259529Y-24113554D01*
X41281153Y-24123782D01*
X41301670Y-24136079D01*
X41320883Y-24150329D01*
X41338607Y-24166393D01*
X41354671Y-24184117D01*
X41368921Y-24203330D01*
X41381218Y-24223847D01*
X41391446Y-24245471D01*
X41399504Y-24267993D01*
X41405316Y-24291197D01*
X41408826Y-24314858D01*
X41410000Y-24338750D01*
X41410000Y-24826250D01*
X41408826Y-24850142D01*
X41405316Y-24873803D01*
X41399504Y-24897007D01*
X41391446Y-24919529D01*
X41381218Y-24941153D01*
X41368921Y-24961670D01*
X41354671Y-24980883D01*
X41338607Y-24998607D01*
X41320883Y-25014671D01*
X41301670Y-25028921D01*
X41281153Y-25041218D01*
X41259529Y-25051446D01*
X41237007Y-25059504D01*
X41213803Y-25065316D01*
X41190142Y-25068826D01*
X41166250Y-25070000D01*
X40253750Y-25070000D01*
X40229858Y-25068826D01*
X40206197Y-25065316D01*
X40182993Y-25059504D01*
X40160471Y-25051446D01*
X40138847Y-25041218D01*
X40118330Y-25028921D01*
X40099117Y-25014671D01*
X40081393Y-24998607D01*
X40065329Y-24980883D01*
X40051079Y-24961670D01*
X40038782Y-24941153D01*
X40028554Y-24919529D01*
X40020496Y-24897007D01*
X40014684Y-24873803D01*
X40011174Y-24850142D01*
X40010000Y-24826250D01*
X40010000Y-24338750D01*
X40011174Y-24314858D01*
X40014684Y-24291197D01*
X40020496Y-24267993D01*
X40028554Y-24245471D01*
X40038782Y-24223847D01*
X40051079Y-24203330D01*
X40065329Y-24184117D01*
X40081393Y-24166393D01*
X40099117Y-24150329D01*
X40118330Y-24136079D01*
X40138847Y-24123782D01*
X40160471Y-24113554D01*
X40182993Y-24105496D01*
X40206197Y-24099684D01*
X40229858Y-24096174D01*
X40253750Y-24095000D01*
X41166250Y-24095000D01*
X41190142Y-24096174D01*
X41190142Y-24096174D01*
G37*
D17*
X40710000Y-24582500D03*
D16*
G36*
X36639703Y-6700722D02*
G01*
X36654264Y-6702882D01*
X36668543Y-6706459D01*
X36682403Y-6711418D01*
X36695710Y-6717712D01*
X36708336Y-6725280D01*
X36720159Y-6734048D01*
X36731066Y-6743934D01*
X36740952Y-6754841D01*
X36749720Y-6766664D01*
X36757288Y-6779290D01*
X36763582Y-6792597D01*
X36768541Y-6806457D01*
X36772118Y-6820736D01*
X36774278Y-6835297D01*
X36775000Y-6850000D01*
X36775000Y-7150000D01*
X36774278Y-7164703D01*
X36772118Y-7179264D01*
X36768541Y-7193543D01*
X36763582Y-7207403D01*
X36757288Y-7220710D01*
X36749720Y-7233336D01*
X36740952Y-7245159D01*
X36731066Y-7256066D01*
X36720159Y-7265952D01*
X36708336Y-7274720D01*
X36695710Y-7282288D01*
X36682403Y-7288582D01*
X36668543Y-7293541D01*
X36654264Y-7297118D01*
X36639703Y-7299278D01*
X36625000Y-7300000D01*
X35375000Y-7300000D01*
X35360297Y-7299278D01*
X35345736Y-7297118D01*
X35331457Y-7293541D01*
X35317597Y-7288582D01*
X35304290Y-7282288D01*
X35291664Y-7274720D01*
X35279841Y-7265952D01*
X35268934Y-7256066D01*
X35259048Y-7245159D01*
X35250280Y-7233336D01*
X35242712Y-7220710D01*
X35236418Y-7207403D01*
X35231459Y-7193543D01*
X35227882Y-7179264D01*
X35225722Y-7164703D01*
X35225000Y-7150000D01*
X35225000Y-6850000D01*
X35225722Y-6835297D01*
X35227882Y-6820736D01*
X35231459Y-6806457D01*
X35236418Y-6792597D01*
X35242712Y-6779290D01*
X35250280Y-6766664D01*
X35259048Y-6754841D01*
X35268934Y-6743934D01*
X35279841Y-6734048D01*
X35291664Y-6725280D01*
X35304290Y-6717712D01*
X35317597Y-6711418D01*
X35331457Y-6706459D01*
X35345736Y-6702882D01*
X35360297Y-6700722D01*
X35375000Y-6700000D01*
X36625000Y-6700000D01*
X36639703Y-6700722D01*
X36639703Y-6700722D01*
G37*
D18*
X36000000Y-7000000D03*
D16*
G36*
X36639703Y-7700722D02*
G01*
X36654264Y-7702882D01*
X36668543Y-7706459D01*
X36682403Y-7711418D01*
X36695710Y-7717712D01*
X36708336Y-7725280D01*
X36720159Y-7734048D01*
X36731066Y-7743934D01*
X36740952Y-7754841D01*
X36749720Y-7766664D01*
X36757288Y-7779290D01*
X36763582Y-7792597D01*
X36768541Y-7806457D01*
X36772118Y-7820736D01*
X36774278Y-7835297D01*
X36775000Y-7850000D01*
X36775000Y-8150000D01*
X36774278Y-8164703D01*
X36772118Y-8179264D01*
X36768541Y-8193543D01*
X36763582Y-8207403D01*
X36757288Y-8220710D01*
X36749720Y-8233336D01*
X36740952Y-8245159D01*
X36731066Y-8256066D01*
X36720159Y-8265952D01*
X36708336Y-8274720D01*
X36695710Y-8282288D01*
X36682403Y-8288582D01*
X36668543Y-8293541D01*
X36654264Y-8297118D01*
X36639703Y-8299278D01*
X36625000Y-8300000D01*
X35375000Y-8300000D01*
X35360297Y-8299278D01*
X35345736Y-8297118D01*
X35331457Y-8293541D01*
X35317597Y-8288582D01*
X35304290Y-8282288D01*
X35291664Y-8274720D01*
X35279841Y-8265952D01*
X35268934Y-8256066D01*
X35259048Y-8245159D01*
X35250280Y-8233336D01*
X35242712Y-8220710D01*
X35236418Y-8207403D01*
X35231459Y-8193543D01*
X35227882Y-8179264D01*
X35225722Y-8164703D01*
X35225000Y-8150000D01*
X35225000Y-7850000D01*
X35225722Y-7835297D01*
X35227882Y-7820736D01*
X35231459Y-7806457D01*
X35236418Y-7792597D01*
X35242712Y-7779290D01*
X35250280Y-7766664D01*
X35259048Y-7754841D01*
X35268934Y-7743934D01*
X35279841Y-7734048D01*
X35291664Y-7725280D01*
X35304290Y-7717712D01*
X35317597Y-7711418D01*
X35331457Y-7706459D01*
X35345736Y-7702882D01*
X35360297Y-7700722D01*
X35375000Y-7700000D01*
X36625000Y-7700000D01*
X36639703Y-7700722D01*
X36639703Y-7700722D01*
G37*
D18*
X36000000Y-8000000D03*
D16*
G36*
X36639703Y-8700722D02*
G01*
X36654264Y-8702882D01*
X36668543Y-8706459D01*
X36682403Y-8711418D01*
X36695710Y-8717712D01*
X36708336Y-8725280D01*
X36720159Y-8734048D01*
X36731066Y-8743934D01*
X36740952Y-8754841D01*
X36749720Y-8766664D01*
X36757288Y-8779290D01*
X36763582Y-8792597D01*
X36768541Y-8806457D01*
X36772118Y-8820736D01*
X36774278Y-8835297D01*
X36775000Y-8850000D01*
X36775000Y-9150000D01*
X36774278Y-9164703D01*
X36772118Y-9179264D01*
X36768541Y-9193543D01*
X36763582Y-9207403D01*
X36757288Y-9220710D01*
X36749720Y-9233336D01*
X36740952Y-9245159D01*
X36731066Y-9256066D01*
X36720159Y-9265952D01*
X36708336Y-9274720D01*
X36695710Y-9282288D01*
X36682403Y-9288582D01*
X36668543Y-9293541D01*
X36654264Y-9297118D01*
X36639703Y-9299278D01*
X36625000Y-9300000D01*
X35375000Y-9300000D01*
X35360297Y-9299278D01*
X35345736Y-9297118D01*
X35331457Y-9293541D01*
X35317597Y-9288582D01*
X35304290Y-9282288D01*
X35291664Y-9274720D01*
X35279841Y-9265952D01*
X35268934Y-9256066D01*
X35259048Y-9245159D01*
X35250280Y-9233336D01*
X35242712Y-9220710D01*
X35236418Y-9207403D01*
X35231459Y-9193543D01*
X35227882Y-9179264D01*
X35225722Y-9164703D01*
X35225000Y-9150000D01*
X35225000Y-8850000D01*
X35225722Y-8835297D01*
X35227882Y-8820736D01*
X35231459Y-8806457D01*
X35236418Y-8792597D01*
X35242712Y-8779290D01*
X35250280Y-8766664D01*
X35259048Y-8754841D01*
X35268934Y-8743934D01*
X35279841Y-8734048D01*
X35291664Y-8725280D01*
X35304290Y-8717712D01*
X35317597Y-8711418D01*
X35331457Y-8706459D01*
X35345736Y-8702882D01*
X35360297Y-8700722D01*
X35375000Y-8700000D01*
X36625000Y-8700000D01*
X36639703Y-8700722D01*
X36639703Y-8700722D01*
G37*
D18*
X36000000Y-9000000D03*
D16*
G36*
X36639703Y-9700722D02*
G01*
X36654264Y-9702882D01*
X36668543Y-9706459D01*
X36682403Y-9711418D01*
X36695710Y-9717712D01*
X36708336Y-9725280D01*
X36720159Y-9734048D01*
X36731066Y-9743934D01*
X36740952Y-9754841D01*
X36749720Y-9766664D01*
X36757288Y-9779290D01*
X36763582Y-9792597D01*
X36768541Y-9806457D01*
X36772118Y-9820736D01*
X36774278Y-9835297D01*
X36775000Y-9850000D01*
X36775000Y-10150000D01*
X36774278Y-10164703D01*
X36772118Y-10179264D01*
X36768541Y-10193543D01*
X36763582Y-10207403D01*
X36757288Y-10220710D01*
X36749720Y-10233336D01*
X36740952Y-10245159D01*
X36731066Y-10256066D01*
X36720159Y-10265952D01*
X36708336Y-10274720D01*
X36695710Y-10282288D01*
X36682403Y-10288582D01*
X36668543Y-10293541D01*
X36654264Y-10297118D01*
X36639703Y-10299278D01*
X36625000Y-10300000D01*
X35375000Y-10300000D01*
X35360297Y-10299278D01*
X35345736Y-10297118D01*
X35331457Y-10293541D01*
X35317597Y-10288582D01*
X35304290Y-10282288D01*
X35291664Y-10274720D01*
X35279841Y-10265952D01*
X35268934Y-10256066D01*
X35259048Y-10245159D01*
X35250280Y-10233336D01*
X35242712Y-10220710D01*
X35236418Y-10207403D01*
X35231459Y-10193543D01*
X35227882Y-10179264D01*
X35225722Y-10164703D01*
X35225000Y-10150000D01*
X35225000Y-9850000D01*
X35225722Y-9835297D01*
X35227882Y-9820736D01*
X35231459Y-9806457D01*
X35236418Y-9792597D01*
X35242712Y-9779290D01*
X35250280Y-9766664D01*
X35259048Y-9754841D01*
X35268934Y-9743934D01*
X35279841Y-9734048D01*
X35291664Y-9725280D01*
X35304290Y-9717712D01*
X35317597Y-9711418D01*
X35331457Y-9706459D01*
X35345736Y-9702882D01*
X35360297Y-9700722D01*
X35375000Y-9700000D01*
X36625000Y-9700000D01*
X36639703Y-9700722D01*
X36639703Y-9700722D01*
G37*
D18*
X36000000Y-10000000D03*
D16*
G36*
X40549505Y-5101204D02*
G01*
X40573773Y-5104804D01*
X40597572Y-5110765D01*
X40620671Y-5119030D01*
X40642850Y-5129520D01*
X40663893Y-5142132D01*
X40683599Y-5156747D01*
X40701777Y-5173223D01*
X40718253Y-5191401D01*
X40732868Y-5211107D01*
X40745480Y-5232150D01*
X40755970Y-5254329D01*
X40764235Y-5277428D01*
X40770196Y-5301227D01*
X40773796Y-5325495D01*
X40775000Y-5349999D01*
X40775000Y-6050001D01*
X40773796Y-6074505D01*
X40770196Y-6098773D01*
X40764235Y-6122572D01*
X40755970Y-6145671D01*
X40745480Y-6167850D01*
X40732868Y-6188893D01*
X40718253Y-6208599D01*
X40701777Y-6226777D01*
X40683599Y-6243253D01*
X40663893Y-6257868D01*
X40642850Y-6270480D01*
X40620671Y-6280970D01*
X40597572Y-6289235D01*
X40573773Y-6295196D01*
X40549505Y-6298796D01*
X40525001Y-6300000D01*
X39224999Y-6300000D01*
X39200495Y-6298796D01*
X39176227Y-6295196D01*
X39152428Y-6289235D01*
X39129329Y-6280970D01*
X39107150Y-6270480D01*
X39086107Y-6257868D01*
X39066401Y-6243253D01*
X39048223Y-6226777D01*
X39031747Y-6208599D01*
X39017132Y-6188893D01*
X39004520Y-6167850D01*
X38994030Y-6145671D01*
X38985765Y-6122572D01*
X38979804Y-6098773D01*
X38976204Y-6074505D01*
X38975000Y-6050001D01*
X38975000Y-5349999D01*
X38976204Y-5325495D01*
X38979804Y-5301227D01*
X38985765Y-5277428D01*
X38994030Y-5254329D01*
X39004520Y-5232150D01*
X39017132Y-5211107D01*
X39031747Y-5191401D01*
X39048223Y-5173223D01*
X39066401Y-5156747D01*
X39086107Y-5142132D01*
X39107150Y-5129520D01*
X39129329Y-5119030D01*
X39152428Y-5110765D01*
X39176227Y-5104804D01*
X39200495Y-5101204D01*
X39224999Y-5100000D01*
X40525001Y-5100000D01*
X40549505Y-5101204D01*
X40549505Y-5101204D01*
G37*
D19*
X39875000Y-5700000D03*
D16*
G36*
X40549505Y-10701204D02*
G01*
X40573773Y-10704804D01*
X40597572Y-10710765D01*
X40620671Y-10719030D01*
X40642850Y-10729520D01*
X40663893Y-10742132D01*
X40683599Y-10756747D01*
X40701777Y-10773223D01*
X40718253Y-10791401D01*
X40732868Y-10811107D01*
X40745480Y-10832150D01*
X40755970Y-10854329D01*
X40764235Y-10877428D01*
X40770196Y-10901227D01*
X40773796Y-10925495D01*
X40775000Y-10949999D01*
X40775000Y-11650001D01*
X40773796Y-11674505D01*
X40770196Y-11698773D01*
X40764235Y-11722572D01*
X40755970Y-11745671D01*
X40745480Y-11767850D01*
X40732868Y-11788893D01*
X40718253Y-11808599D01*
X40701777Y-11826777D01*
X40683599Y-11843253D01*
X40663893Y-11857868D01*
X40642850Y-11870480D01*
X40620671Y-11880970D01*
X40597572Y-11889235D01*
X40573773Y-11895196D01*
X40549505Y-11898796D01*
X40525001Y-11900000D01*
X39224999Y-11900000D01*
X39200495Y-11898796D01*
X39176227Y-11895196D01*
X39152428Y-11889235D01*
X39129329Y-11880970D01*
X39107150Y-11870480D01*
X39086107Y-11857868D01*
X39066401Y-11843253D01*
X39048223Y-11826777D01*
X39031747Y-11808599D01*
X39017132Y-11788893D01*
X39004520Y-11767850D01*
X38994030Y-11745671D01*
X38985765Y-11722572D01*
X38979804Y-11698773D01*
X38976204Y-11674505D01*
X38975000Y-11650001D01*
X38975000Y-10949999D01*
X38976204Y-10925495D01*
X38979804Y-10901227D01*
X38985765Y-10877428D01*
X38994030Y-10854329D01*
X39004520Y-10832150D01*
X39017132Y-10811107D01*
X39031747Y-10791401D01*
X39048223Y-10773223D01*
X39066401Y-10756747D01*
X39086107Y-10742132D01*
X39107150Y-10729520D01*
X39129329Y-10719030D01*
X39152428Y-10710765D01*
X39176227Y-10704804D01*
X39200495Y-10701204D01*
X39224999Y-10700000D01*
X40525001Y-10700000D01*
X40549505Y-10701204D01*
X40549505Y-10701204D01*
G37*
D19*
X39875000Y-11300000D03*
D16*
G36*
X14709504Y-7246204D02*
G01*
X14733773Y-7249804D01*
X14757571Y-7255765D01*
X14780671Y-7264030D01*
X14802849Y-7274520D01*
X14823893Y-7287133D01*
X14843598Y-7301747D01*
X14861777Y-7318223D01*
X14878253Y-7336402D01*
X14892867Y-7356107D01*
X14905480Y-7377151D01*
X14915970Y-7399329D01*
X14924235Y-7422429D01*
X14930196Y-7446227D01*
X14933796Y-7470496D01*
X14935000Y-7495000D01*
X14935000Y-8745000D01*
X14933796Y-8769504D01*
X14930196Y-8793773D01*
X14924235Y-8817571D01*
X14915970Y-8840671D01*
X14905480Y-8862849D01*
X14892867Y-8883893D01*
X14878253Y-8903598D01*
X14861777Y-8921777D01*
X14843598Y-8938253D01*
X14823893Y-8952867D01*
X14802849Y-8965480D01*
X14780671Y-8975970D01*
X14757571Y-8984235D01*
X14733773Y-8990196D01*
X14709504Y-8993796D01*
X14685000Y-8995000D01*
X13935000Y-8995000D01*
X13910496Y-8993796D01*
X13886227Y-8990196D01*
X13862429Y-8984235D01*
X13839329Y-8975970D01*
X13817151Y-8965480D01*
X13796107Y-8952867D01*
X13776402Y-8938253D01*
X13758223Y-8921777D01*
X13741747Y-8903598D01*
X13727133Y-8883893D01*
X13714520Y-8862849D01*
X13704030Y-8840671D01*
X13695765Y-8817571D01*
X13689804Y-8793773D01*
X13686204Y-8769504D01*
X13685000Y-8745000D01*
X13685000Y-7495000D01*
X13686204Y-7470496D01*
X13689804Y-7446227D01*
X13695765Y-7422429D01*
X13704030Y-7399329D01*
X13714520Y-7377151D01*
X13727133Y-7356107D01*
X13741747Y-7336402D01*
X13758223Y-7318223D01*
X13776402Y-7301747D01*
X13796107Y-7287133D01*
X13817151Y-7274520D01*
X13839329Y-7264030D01*
X13862429Y-7255765D01*
X13886227Y-7249804D01*
X13910496Y-7246204D01*
X13935000Y-7245000D01*
X14685000Y-7245000D01*
X14709504Y-7246204D01*
X14709504Y-7246204D01*
G37*
D20*
X14310000Y-8120000D03*
D16*
G36*
X17509504Y-7246204D02*
G01*
X17533773Y-7249804D01*
X17557571Y-7255765D01*
X17580671Y-7264030D01*
X17602849Y-7274520D01*
X17623893Y-7287133D01*
X17643598Y-7301747D01*
X17661777Y-7318223D01*
X17678253Y-7336402D01*
X17692867Y-7356107D01*
X17705480Y-7377151D01*
X17715970Y-7399329D01*
X17724235Y-7422429D01*
X17730196Y-7446227D01*
X17733796Y-7470496D01*
X17735000Y-7495000D01*
X17735000Y-8745000D01*
X17733796Y-8769504D01*
X17730196Y-8793773D01*
X17724235Y-8817571D01*
X17715970Y-8840671D01*
X17705480Y-8862849D01*
X17692867Y-8883893D01*
X17678253Y-8903598D01*
X17661777Y-8921777D01*
X17643598Y-8938253D01*
X17623893Y-8952867D01*
X17602849Y-8965480D01*
X17580671Y-8975970D01*
X17557571Y-8984235D01*
X17533773Y-8990196D01*
X17509504Y-8993796D01*
X17485000Y-8995000D01*
X16735000Y-8995000D01*
X16710496Y-8993796D01*
X16686227Y-8990196D01*
X16662429Y-8984235D01*
X16639329Y-8975970D01*
X16617151Y-8965480D01*
X16596107Y-8952867D01*
X16576402Y-8938253D01*
X16558223Y-8921777D01*
X16541747Y-8903598D01*
X16527133Y-8883893D01*
X16514520Y-8862849D01*
X16504030Y-8840671D01*
X16495765Y-8817571D01*
X16489804Y-8793773D01*
X16486204Y-8769504D01*
X16485000Y-8745000D01*
X16485000Y-7495000D01*
X16486204Y-7470496D01*
X16489804Y-7446227D01*
X16495765Y-7422429D01*
X16504030Y-7399329D01*
X16514520Y-7377151D01*
X16527133Y-7356107D01*
X16541747Y-7336402D01*
X16558223Y-7318223D01*
X16576402Y-7301747D01*
X16596107Y-7287133D01*
X16617151Y-7274520D01*
X16639329Y-7264030D01*
X16662429Y-7255765D01*
X16686227Y-7249804D01*
X16710496Y-7246204D01*
X16735000Y-7245000D01*
X17485000Y-7245000D01*
X17509504Y-7246204D01*
X17509504Y-7246204D01*
G37*
D20*
X17110000Y-8120000D03*
D16*
G36*
X19600142Y-18921174D02*
G01*
X19623803Y-18924684D01*
X19647007Y-18930496D01*
X19669529Y-18938554D01*
X19691153Y-18948782D01*
X19711670Y-18961079D01*
X19730883Y-18975329D01*
X19748607Y-18991393D01*
X19764671Y-19009117D01*
X19778921Y-19028330D01*
X19791218Y-19048847D01*
X19801446Y-19070471D01*
X19809504Y-19092993D01*
X19815316Y-19116197D01*
X19818826Y-19139858D01*
X19820000Y-19163750D01*
X19820000Y-19651250D01*
X19818826Y-19675142D01*
X19815316Y-19698803D01*
X19809504Y-19722007D01*
X19801446Y-19744529D01*
X19791218Y-19766153D01*
X19778921Y-19786670D01*
X19764671Y-19805883D01*
X19748607Y-19823607D01*
X19730883Y-19839671D01*
X19711670Y-19853921D01*
X19691153Y-19866218D01*
X19669529Y-19876446D01*
X19647007Y-19884504D01*
X19623803Y-19890316D01*
X19600142Y-19893826D01*
X19576250Y-19895000D01*
X18663750Y-19895000D01*
X18639858Y-19893826D01*
X18616197Y-19890316D01*
X18592993Y-19884504D01*
X18570471Y-19876446D01*
X18548847Y-19866218D01*
X18528330Y-19853921D01*
X18509117Y-19839671D01*
X18491393Y-19823607D01*
X18475329Y-19805883D01*
X18461079Y-19786670D01*
X18448782Y-19766153D01*
X18438554Y-19744529D01*
X18430496Y-19722007D01*
X18424684Y-19698803D01*
X18421174Y-19675142D01*
X18420000Y-19651250D01*
X18420000Y-19163750D01*
X18421174Y-19139858D01*
X18424684Y-19116197D01*
X18430496Y-19092993D01*
X18438554Y-19070471D01*
X18448782Y-19048847D01*
X18461079Y-19028330D01*
X18475329Y-19009117D01*
X18491393Y-18991393D01*
X18509117Y-18975329D01*
X18528330Y-18961079D01*
X18548847Y-18948782D01*
X18570471Y-18938554D01*
X18592993Y-18930496D01*
X18616197Y-18924684D01*
X18639858Y-18921174D01*
X18663750Y-18920000D01*
X19576250Y-18920000D01*
X19600142Y-18921174D01*
X19600142Y-18921174D01*
G37*
D17*
X19120000Y-19407500D03*
D16*
G36*
X19600142Y-17046174D02*
G01*
X19623803Y-17049684D01*
X19647007Y-17055496D01*
X19669529Y-17063554D01*
X19691153Y-17073782D01*
X19711670Y-17086079D01*
X19730883Y-17100329D01*
X19748607Y-17116393D01*
X19764671Y-17134117D01*
X19778921Y-17153330D01*
X19791218Y-17173847D01*
X19801446Y-17195471D01*
X19809504Y-17217993D01*
X19815316Y-17241197D01*
X19818826Y-17264858D01*
X19820000Y-17288750D01*
X19820000Y-17776250D01*
X19818826Y-17800142D01*
X19815316Y-17823803D01*
X19809504Y-17847007D01*
X19801446Y-17869529D01*
X19791218Y-17891153D01*
X19778921Y-17911670D01*
X19764671Y-17930883D01*
X19748607Y-17948607D01*
X19730883Y-17964671D01*
X19711670Y-17978921D01*
X19691153Y-17991218D01*
X19669529Y-18001446D01*
X19647007Y-18009504D01*
X19623803Y-18015316D01*
X19600142Y-18018826D01*
X19576250Y-18020000D01*
X18663750Y-18020000D01*
X18639858Y-18018826D01*
X18616197Y-18015316D01*
X18592993Y-18009504D01*
X18570471Y-18001446D01*
X18548847Y-17991218D01*
X18528330Y-17978921D01*
X18509117Y-17964671D01*
X18491393Y-17948607D01*
X18475329Y-17930883D01*
X18461079Y-17911670D01*
X18448782Y-17891153D01*
X18438554Y-17869529D01*
X18430496Y-17847007D01*
X18424684Y-17823803D01*
X18421174Y-17800142D01*
X18420000Y-17776250D01*
X18420000Y-17288750D01*
X18421174Y-17264858D01*
X18424684Y-17241197D01*
X18430496Y-17217993D01*
X18438554Y-17195471D01*
X18448782Y-17173847D01*
X18461079Y-17153330D01*
X18475329Y-17134117D01*
X18491393Y-17116393D01*
X18509117Y-17100329D01*
X18528330Y-17086079D01*
X18548847Y-17073782D01*
X18570471Y-17063554D01*
X18592993Y-17055496D01*
X18616197Y-17049684D01*
X18639858Y-17046174D01*
X18663750Y-17045000D01*
X19576250Y-17045000D01*
X19600142Y-17046174D01*
X19600142Y-17046174D01*
G37*
D17*
X19120000Y-17532500D03*
D16*
G36*
X31290142Y-30771174D02*
G01*
X31313803Y-30774684D01*
X31337007Y-30780496D01*
X31359529Y-30788554D01*
X31381153Y-30798782D01*
X31401670Y-30811079D01*
X31420883Y-30825329D01*
X31438607Y-30841393D01*
X31454671Y-30859117D01*
X31468921Y-30878330D01*
X31481218Y-30898847D01*
X31491446Y-30920471D01*
X31499504Y-30942993D01*
X31505316Y-30966197D01*
X31508826Y-30989858D01*
X31510000Y-31013750D01*
X31510000Y-31926250D01*
X31508826Y-31950142D01*
X31505316Y-31973803D01*
X31499504Y-31997007D01*
X31491446Y-32019529D01*
X31481218Y-32041153D01*
X31468921Y-32061670D01*
X31454671Y-32080883D01*
X31438607Y-32098607D01*
X31420883Y-32114671D01*
X31401670Y-32128921D01*
X31381153Y-32141218D01*
X31359529Y-32151446D01*
X31337007Y-32159504D01*
X31313803Y-32165316D01*
X31290142Y-32168826D01*
X31266250Y-32170000D01*
X30778750Y-32170000D01*
X30754858Y-32168826D01*
X30731197Y-32165316D01*
X30707993Y-32159504D01*
X30685471Y-32151446D01*
X30663847Y-32141218D01*
X30643330Y-32128921D01*
X30624117Y-32114671D01*
X30606393Y-32098607D01*
X30590329Y-32080883D01*
X30576079Y-32061670D01*
X30563782Y-32041153D01*
X30553554Y-32019529D01*
X30545496Y-31997007D01*
X30539684Y-31973803D01*
X30536174Y-31950142D01*
X30535000Y-31926250D01*
X30535000Y-31013750D01*
X30536174Y-30989858D01*
X30539684Y-30966197D01*
X30545496Y-30942993D01*
X30553554Y-30920471D01*
X30563782Y-30898847D01*
X30576079Y-30878330D01*
X30590329Y-30859117D01*
X30606393Y-30841393D01*
X30624117Y-30825329D01*
X30643330Y-30811079D01*
X30663847Y-30798782D01*
X30685471Y-30788554D01*
X30707993Y-30780496D01*
X30731197Y-30774684D01*
X30754858Y-30771174D01*
X30778750Y-30770000D01*
X31266250Y-30770000D01*
X31290142Y-30771174D01*
X31290142Y-30771174D01*
G37*
D17*
X31022500Y-31470000D03*
D16*
G36*
X33165142Y-30771174D02*
G01*
X33188803Y-30774684D01*
X33212007Y-30780496D01*
X33234529Y-30788554D01*
X33256153Y-30798782D01*
X33276670Y-30811079D01*
X33295883Y-30825329D01*
X33313607Y-30841393D01*
X33329671Y-30859117D01*
X33343921Y-30878330D01*
X33356218Y-30898847D01*
X33366446Y-30920471D01*
X33374504Y-30942993D01*
X33380316Y-30966197D01*
X33383826Y-30989858D01*
X33385000Y-31013750D01*
X33385000Y-31926250D01*
X33383826Y-31950142D01*
X33380316Y-31973803D01*
X33374504Y-31997007D01*
X33366446Y-32019529D01*
X33356218Y-32041153D01*
X33343921Y-32061670D01*
X33329671Y-32080883D01*
X33313607Y-32098607D01*
X33295883Y-32114671D01*
X33276670Y-32128921D01*
X33256153Y-32141218D01*
X33234529Y-32151446D01*
X33212007Y-32159504D01*
X33188803Y-32165316D01*
X33165142Y-32168826D01*
X33141250Y-32170000D01*
X32653750Y-32170000D01*
X32629858Y-32168826D01*
X32606197Y-32165316D01*
X32582993Y-32159504D01*
X32560471Y-32151446D01*
X32538847Y-32141218D01*
X32518330Y-32128921D01*
X32499117Y-32114671D01*
X32481393Y-32098607D01*
X32465329Y-32080883D01*
X32451079Y-32061670D01*
X32438782Y-32041153D01*
X32428554Y-32019529D01*
X32420496Y-31997007D01*
X32414684Y-31973803D01*
X32411174Y-31950142D01*
X32410000Y-31926250D01*
X32410000Y-31013750D01*
X32411174Y-30989858D01*
X32414684Y-30966197D01*
X32420496Y-30942993D01*
X32428554Y-30920471D01*
X32438782Y-30898847D01*
X32451079Y-30878330D01*
X32465329Y-30859117D01*
X32481393Y-30841393D01*
X32499117Y-30825329D01*
X32518330Y-30811079D01*
X32538847Y-30798782D01*
X32560471Y-30788554D01*
X32582993Y-30780496D01*
X32606197Y-30774684D01*
X32629858Y-30771174D01*
X32653750Y-30770000D01*
X33141250Y-30770000D01*
X33165142Y-30771174D01*
X33165142Y-30771174D01*
G37*
D17*
X32897500Y-31470000D03*
D16*
G36*
X31290142Y-25171174D02*
G01*
X31313803Y-25174684D01*
X31337007Y-25180496D01*
X31359529Y-25188554D01*
X31381153Y-25198782D01*
X31401670Y-25211079D01*
X31420883Y-25225329D01*
X31438607Y-25241393D01*
X31454671Y-25259117D01*
X31468921Y-25278330D01*
X31481218Y-25298847D01*
X31491446Y-25320471D01*
X31499504Y-25342993D01*
X31505316Y-25366197D01*
X31508826Y-25389858D01*
X31510000Y-25413750D01*
X31510000Y-26326250D01*
X31508826Y-26350142D01*
X31505316Y-26373803D01*
X31499504Y-26397007D01*
X31491446Y-26419529D01*
X31481218Y-26441153D01*
X31468921Y-26461670D01*
X31454671Y-26480883D01*
X31438607Y-26498607D01*
X31420883Y-26514671D01*
X31401670Y-26528921D01*
X31381153Y-26541218D01*
X31359529Y-26551446D01*
X31337007Y-26559504D01*
X31313803Y-26565316D01*
X31290142Y-26568826D01*
X31266250Y-26570000D01*
X30778750Y-26570000D01*
X30754858Y-26568826D01*
X30731197Y-26565316D01*
X30707993Y-26559504D01*
X30685471Y-26551446D01*
X30663847Y-26541218D01*
X30643330Y-26528921D01*
X30624117Y-26514671D01*
X30606393Y-26498607D01*
X30590329Y-26480883D01*
X30576079Y-26461670D01*
X30563782Y-26441153D01*
X30553554Y-26419529D01*
X30545496Y-26397007D01*
X30539684Y-26373803D01*
X30536174Y-26350142D01*
X30535000Y-26326250D01*
X30535000Y-25413750D01*
X30536174Y-25389858D01*
X30539684Y-25366197D01*
X30545496Y-25342993D01*
X30553554Y-25320471D01*
X30563782Y-25298847D01*
X30576079Y-25278330D01*
X30590329Y-25259117D01*
X30606393Y-25241393D01*
X30624117Y-25225329D01*
X30643330Y-25211079D01*
X30663847Y-25198782D01*
X30685471Y-25188554D01*
X30707993Y-25180496D01*
X30731197Y-25174684D01*
X30754858Y-25171174D01*
X30778750Y-25170000D01*
X31266250Y-25170000D01*
X31290142Y-25171174D01*
X31290142Y-25171174D01*
G37*
D17*
X31022500Y-25870000D03*
D16*
G36*
X33165142Y-25171174D02*
G01*
X33188803Y-25174684D01*
X33212007Y-25180496D01*
X33234529Y-25188554D01*
X33256153Y-25198782D01*
X33276670Y-25211079D01*
X33295883Y-25225329D01*
X33313607Y-25241393D01*
X33329671Y-25259117D01*
X33343921Y-25278330D01*
X33356218Y-25298847D01*
X33366446Y-25320471D01*
X33374504Y-25342993D01*
X33380316Y-25366197D01*
X33383826Y-25389858D01*
X33385000Y-25413750D01*
X33385000Y-26326250D01*
X33383826Y-26350142D01*
X33380316Y-26373803D01*
X33374504Y-26397007D01*
X33366446Y-26419529D01*
X33356218Y-26441153D01*
X33343921Y-26461670D01*
X33329671Y-26480883D01*
X33313607Y-26498607D01*
X33295883Y-26514671D01*
X33276670Y-26528921D01*
X33256153Y-26541218D01*
X33234529Y-26551446D01*
X33212007Y-26559504D01*
X33188803Y-26565316D01*
X33165142Y-26568826D01*
X33141250Y-26570000D01*
X32653750Y-26570000D01*
X32629858Y-26568826D01*
X32606197Y-26565316D01*
X32582993Y-26559504D01*
X32560471Y-26551446D01*
X32538847Y-26541218D01*
X32518330Y-26528921D01*
X32499117Y-26514671D01*
X32481393Y-26498607D01*
X32465329Y-26480883D01*
X32451079Y-26461670D01*
X32438782Y-26441153D01*
X32428554Y-26419529D01*
X32420496Y-26397007D01*
X32414684Y-26373803D01*
X32411174Y-26350142D01*
X32410000Y-26326250D01*
X32410000Y-25413750D01*
X32411174Y-25389858D01*
X32414684Y-25366197D01*
X32420496Y-25342993D01*
X32428554Y-25320471D01*
X32438782Y-25298847D01*
X32451079Y-25278330D01*
X32465329Y-25259117D01*
X32481393Y-25241393D01*
X32499117Y-25225329D01*
X32518330Y-25211079D01*
X32538847Y-25198782D01*
X32560471Y-25188554D01*
X32582993Y-25180496D01*
X32606197Y-25174684D01*
X32629858Y-25171174D01*
X32653750Y-25170000D01*
X33141250Y-25170000D01*
X33165142Y-25171174D01*
X33165142Y-25171174D01*
G37*
D17*
X32897500Y-25870000D03*
D16*
G36*
X13453892Y-19051174D02*
G01*
X13477553Y-19054684D01*
X13500757Y-19060496D01*
X13523279Y-19068554D01*
X13544903Y-19078782D01*
X13565420Y-19091079D01*
X13584633Y-19105329D01*
X13602357Y-19121393D01*
X13618421Y-19139117D01*
X13632671Y-19158330D01*
X13644968Y-19178847D01*
X13655196Y-19200471D01*
X13663254Y-19222993D01*
X13669066Y-19246197D01*
X13672576Y-19269858D01*
X13673750Y-19293750D01*
X13673750Y-20206250D01*
X13672576Y-20230142D01*
X13669066Y-20253803D01*
X13663254Y-20277007D01*
X13655196Y-20299529D01*
X13644968Y-20321153D01*
X13632671Y-20341670D01*
X13618421Y-20360883D01*
X13602357Y-20378607D01*
X13584633Y-20394671D01*
X13565420Y-20408921D01*
X13544903Y-20421218D01*
X13523279Y-20431446D01*
X13500757Y-20439504D01*
X13477553Y-20445316D01*
X13453892Y-20448826D01*
X13430000Y-20450000D01*
X12942500Y-20450000D01*
X12918608Y-20448826D01*
X12894947Y-20445316D01*
X12871743Y-20439504D01*
X12849221Y-20431446D01*
X12827597Y-20421218D01*
X12807080Y-20408921D01*
X12787867Y-20394671D01*
X12770143Y-20378607D01*
X12754079Y-20360883D01*
X12739829Y-20341670D01*
X12727532Y-20321153D01*
X12717304Y-20299529D01*
X12709246Y-20277007D01*
X12703434Y-20253803D01*
X12699924Y-20230142D01*
X12698750Y-20206250D01*
X12698750Y-19293750D01*
X12699924Y-19269858D01*
X12703434Y-19246197D01*
X12709246Y-19222993D01*
X12717304Y-19200471D01*
X12727532Y-19178847D01*
X12739829Y-19158330D01*
X12754079Y-19139117D01*
X12770143Y-19121393D01*
X12787867Y-19105329D01*
X12807080Y-19091079D01*
X12827597Y-19078782D01*
X12849221Y-19068554D01*
X12871743Y-19060496D01*
X12894947Y-19054684D01*
X12918608Y-19051174D01*
X12942500Y-19050000D01*
X13430000Y-19050000D01*
X13453892Y-19051174D01*
X13453892Y-19051174D01*
G37*
D17*
X13186250Y-19750000D03*
D16*
G36*
X15328892Y-19051174D02*
G01*
X15352553Y-19054684D01*
X15375757Y-19060496D01*
X15398279Y-19068554D01*
X15419903Y-19078782D01*
X15440420Y-19091079D01*
X15459633Y-19105329D01*
X15477357Y-19121393D01*
X15493421Y-19139117D01*
X15507671Y-19158330D01*
X15519968Y-19178847D01*
X15530196Y-19200471D01*
X15538254Y-19222993D01*
X15544066Y-19246197D01*
X15547576Y-19269858D01*
X15548750Y-19293750D01*
X15548750Y-20206250D01*
X15547576Y-20230142D01*
X15544066Y-20253803D01*
X15538254Y-20277007D01*
X15530196Y-20299529D01*
X15519968Y-20321153D01*
X15507671Y-20341670D01*
X15493421Y-20360883D01*
X15477357Y-20378607D01*
X15459633Y-20394671D01*
X15440420Y-20408921D01*
X15419903Y-20421218D01*
X15398279Y-20431446D01*
X15375757Y-20439504D01*
X15352553Y-20445316D01*
X15328892Y-20448826D01*
X15305000Y-20450000D01*
X14817500Y-20450000D01*
X14793608Y-20448826D01*
X14769947Y-20445316D01*
X14746743Y-20439504D01*
X14724221Y-20431446D01*
X14702597Y-20421218D01*
X14682080Y-20408921D01*
X14662867Y-20394671D01*
X14645143Y-20378607D01*
X14629079Y-20360883D01*
X14614829Y-20341670D01*
X14602532Y-20321153D01*
X14592304Y-20299529D01*
X14584246Y-20277007D01*
X14578434Y-20253803D01*
X14574924Y-20230142D01*
X14573750Y-20206250D01*
X14573750Y-19293750D01*
X14574924Y-19269858D01*
X14578434Y-19246197D01*
X14584246Y-19222993D01*
X14592304Y-19200471D01*
X14602532Y-19178847D01*
X14614829Y-19158330D01*
X14629079Y-19139117D01*
X14645143Y-19121393D01*
X14662867Y-19105329D01*
X14682080Y-19091079D01*
X14702597Y-19078782D01*
X14724221Y-19068554D01*
X14746743Y-19060496D01*
X14769947Y-19054684D01*
X14793608Y-19051174D01*
X14817500Y-19050000D01*
X15305000Y-19050000D01*
X15328892Y-19051174D01*
X15328892Y-19051174D01*
G37*
D17*
X15061250Y-19750000D03*
D16*
G36*
X24265142Y-37211174D02*
G01*
X24288803Y-37214684D01*
X24312007Y-37220496D01*
X24334529Y-37228554D01*
X24356153Y-37238782D01*
X24376670Y-37251079D01*
X24395883Y-37265329D01*
X24413607Y-37281393D01*
X24429671Y-37299117D01*
X24443921Y-37318330D01*
X24456218Y-37338847D01*
X24466446Y-37360471D01*
X24474504Y-37382993D01*
X24480316Y-37406197D01*
X24483826Y-37429858D01*
X24485000Y-37453750D01*
X24485000Y-38366250D01*
X24483826Y-38390142D01*
X24480316Y-38413803D01*
X24474504Y-38437007D01*
X24466446Y-38459529D01*
X24456218Y-38481153D01*
X24443921Y-38501670D01*
X24429671Y-38520883D01*
X24413607Y-38538607D01*
X24395883Y-38554671D01*
X24376670Y-38568921D01*
X24356153Y-38581218D01*
X24334529Y-38591446D01*
X24312007Y-38599504D01*
X24288803Y-38605316D01*
X24265142Y-38608826D01*
X24241250Y-38610000D01*
X23753750Y-38610000D01*
X23729858Y-38608826D01*
X23706197Y-38605316D01*
X23682993Y-38599504D01*
X23660471Y-38591446D01*
X23638847Y-38581218D01*
X23618330Y-38568921D01*
X23599117Y-38554671D01*
X23581393Y-38538607D01*
X23565329Y-38520883D01*
X23551079Y-38501670D01*
X23538782Y-38481153D01*
X23528554Y-38459529D01*
X23520496Y-38437007D01*
X23514684Y-38413803D01*
X23511174Y-38390142D01*
X23510000Y-38366250D01*
X23510000Y-37453750D01*
X23511174Y-37429858D01*
X23514684Y-37406197D01*
X23520496Y-37382993D01*
X23528554Y-37360471D01*
X23538782Y-37338847D01*
X23551079Y-37318330D01*
X23565329Y-37299117D01*
X23581393Y-37281393D01*
X23599117Y-37265329D01*
X23618330Y-37251079D01*
X23638847Y-37238782D01*
X23660471Y-37228554D01*
X23682993Y-37220496D01*
X23706197Y-37214684D01*
X23729858Y-37211174D01*
X23753750Y-37210000D01*
X24241250Y-37210000D01*
X24265142Y-37211174D01*
X24265142Y-37211174D01*
G37*
D17*
X23997500Y-37910000D03*
D16*
G36*
X22390142Y-37211174D02*
G01*
X22413803Y-37214684D01*
X22437007Y-37220496D01*
X22459529Y-37228554D01*
X22481153Y-37238782D01*
X22501670Y-37251079D01*
X22520883Y-37265329D01*
X22538607Y-37281393D01*
X22554671Y-37299117D01*
X22568921Y-37318330D01*
X22581218Y-37338847D01*
X22591446Y-37360471D01*
X22599504Y-37382993D01*
X22605316Y-37406197D01*
X22608826Y-37429858D01*
X22610000Y-37453750D01*
X22610000Y-38366250D01*
X22608826Y-38390142D01*
X22605316Y-38413803D01*
X22599504Y-38437007D01*
X22591446Y-38459529D01*
X22581218Y-38481153D01*
X22568921Y-38501670D01*
X22554671Y-38520883D01*
X22538607Y-38538607D01*
X22520883Y-38554671D01*
X22501670Y-38568921D01*
X22481153Y-38581218D01*
X22459529Y-38591446D01*
X22437007Y-38599504D01*
X22413803Y-38605316D01*
X22390142Y-38608826D01*
X22366250Y-38610000D01*
X21878750Y-38610000D01*
X21854858Y-38608826D01*
X21831197Y-38605316D01*
X21807993Y-38599504D01*
X21785471Y-38591446D01*
X21763847Y-38581218D01*
X21743330Y-38568921D01*
X21724117Y-38554671D01*
X21706393Y-38538607D01*
X21690329Y-38520883D01*
X21676079Y-38501670D01*
X21663782Y-38481153D01*
X21653554Y-38459529D01*
X21645496Y-38437007D01*
X21639684Y-38413803D01*
X21636174Y-38390142D01*
X21635000Y-38366250D01*
X21635000Y-37453750D01*
X21636174Y-37429858D01*
X21639684Y-37406197D01*
X21645496Y-37382993D01*
X21653554Y-37360471D01*
X21663782Y-37338847D01*
X21676079Y-37318330D01*
X21690329Y-37299117D01*
X21706393Y-37281393D01*
X21724117Y-37265329D01*
X21743330Y-37251079D01*
X21763847Y-37238782D01*
X21785471Y-37228554D01*
X21807993Y-37220496D01*
X21831197Y-37214684D01*
X21854858Y-37211174D01*
X21878750Y-37210000D01*
X22366250Y-37210000D01*
X22390142Y-37211174D01*
X22390142Y-37211174D01*
G37*
D17*
X22122500Y-37910000D03*
D16*
G36*
X9378892Y-28859924D02*
G01*
X9402553Y-28863434D01*
X9425757Y-28869246D01*
X9448279Y-28877304D01*
X9469903Y-28887532D01*
X9490420Y-28899829D01*
X9509633Y-28914079D01*
X9527357Y-28930143D01*
X9543421Y-28947867D01*
X9557671Y-28967080D01*
X9569968Y-28987597D01*
X9580196Y-29009221D01*
X9588254Y-29031743D01*
X9594066Y-29054947D01*
X9597576Y-29078608D01*
X9598750Y-29102500D01*
X9598750Y-30015000D01*
X9597576Y-30038892D01*
X9594066Y-30062553D01*
X9588254Y-30085757D01*
X9580196Y-30108279D01*
X9569968Y-30129903D01*
X9557671Y-30150420D01*
X9543421Y-30169633D01*
X9527357Y-30187357D01*
X9509633Y-30203421D01*
X9490420Y-30217671D01*
X9469903Y-30229968D01*
X9448279Y-30240196D01*
X9425757Y-30248254D01*
X9402553Y-30254066D01*
X9378892Y-30257576D01*
X9355000Y-30258750D01*
X8867500Y-30258750D01*
X8843608Y-30257576D01*
X8819947Y-30254066D01*
X8796743Y-30248254D01*
X8774221Y-30240196D01*
X8752597Y-30229968D01*
X8732080Y-30217671D01*
X8712867Y-30203421D01*
X8695143Y-30187357D01*
X8679079Y-30169633D01*
X8664829Y-30150420D01*
X8652532Y-30129903D01*
X8642304Y-30108279D01*
X8634246Y-30085757D01*
X8628434Y-30062553D01*
X8624924Y-30038892D01*
X8623750Y-30015000D01*
X8623750Y-29102500D01*
X8624924Y-29078608D01*
X8628434Y-29054947D01*
X8634246Y-29031743D01*
X8642304Y-29009221D01*
X8652532Y-28987597D01*
X8664829Y-28967080D01*
X8679079Y-28947867D01*
X8695143Y-28930143D01*
X8712867Y-28914079D01*
X8732080Y-28899829D01*
X8752597Y-28887532D01*
X8774221Y-28877304D01*
X8796743Y-28869246D01*
X8819947Y-28863434D01*
X8843608Y-28859924D01*
X8867500Y-28858750D01*
X9355000Y-28858750D01*
X9378892Y-28859924D01*
X9378892Y-28859924D01*
G37*
D17*
X9111250Y-29558750D03*
D16*
G36*
X7503892Y-28859924D02*
G01*
X7527553Y-28863434D01*
X7550757Y-28869246D01*
X7573279Y-28877304D01*
X7594903Y-28887532D01*
X7615420Y-28899829D01*
X7634633Y-28914079D01*
X7652357Y-28930143D01*
X7668421Y-28947867D01*
X7682671Y-28967080D01*
X7694968Y-28987597D01*
X7705196Y-29009221D01*
X7713254Y-29031743D01*
X7719066Y-29054947D01*
X7722576Y-29078608D01*
X7723750Y-29102500D01*
X7723750Y-30015000D01*
X7722576Y-30038892D01*
X7719066Y-30062553D01*
X7713254Y-30085757D01*
X7705196Y-30108279D01*
X7694968Y-30129903D01*
X7682671Y-30150420D01*
X7668421Y-30169633D01*
X7652357Y-30187357D01*
X7634633Y-30203421D01*
X7615420Y-30217671D01*
X7594903Y-30229968D01*
X7573279Y-30240196D01*
X7550757Y-30248254D01*
X7527553Y-30254066D01*
X7503892Y-30257576D01*
X7480000Y-30258750D01*
X6992500Y-30258750D01*
X6968608Y-30257576D01*
X6944947Y-30254066D01*
X6921743Y-30248254D01*
X6899221Y-30240196D01*
X6877597Y-30229968D01*
X6857080Y-30217671D01*
X6837867Y-30203421D01*
X6820143Y-30187357D01*
X6804079Y-30169633D01*
X6789829Y-30150420D01*
X6777532Y-30129903D01*
X6767304Y-30108279D01*
X6759246Y-30085757D01*
X6753434Y-30062553D01*
X6749924Y-30038892D01*
X6748750Y-30015000D01*
X6748750Y-29102500D01*
X6749924Y-29078608D01*
X6753434Y-29054947D01*
X6759246Y-29031743D01*
X6767304Y-29009221D01*
X6777532Y-28987597D01*
X6789829Y-28967080D01*
X6804079Y-28947867D01*
X6820143Y-28930143D01*
X6837867Y-28914079D01*
X6857080Y-28899829D01*
X6877597Y-28887532D01*
X6899221Y-28877304D01*
X6921743Y-28869246D01*
X6944947Y-28863434D01*
X6968608Y-28859924D01*
X6992500Y-28858750D01*
X7480000Y-28858750D01*
X7503892Y-28859924D01*
X7503892Y-28859924D01*
G37*
D17*
X7236250Y-29558750D03*
D16*
G36*
X28640142Y-25371174D02*
G01*
X28663803Y-25374684D01*
X28687007Y-25380496D01*
X28709529Y-25388554D01*
X28731153Y-25398782D01*
X28751670Y-25411079D01*
X28770883Y-25425329D01*
X28788607Y-25441393D01*
X28804671Y-25459117D01*
X28818921Y-25478330D01*
X28831218Y-25498847D01*
X28841446Y-25520471D01*
X28849504Y-25542993D01*
X28855316Y-25566197D01*
X28858826Y-25589858D01*
X28860000Y-25613750D01*
X28860000Y-26101250D01*
X28858826Y-26125142D01*
X28855316Y-26148803D01*
X28849504Y-26172007D01*
X28841446Y-26194529D01*
X28831218Y-26216153D01*
X28818921Y-26236670D01*
X28804671Y-26255883D01*
X28788607Y-26273607D01*
X28770883Y-26289671D01*
X28751670Y-26303921D01*
X28731153Y-26316218D01*
X28709529Y-26326446D01*
X28687007Y-26334504D01*
X28663803Y-26340316D01*
X28640142Y-26343826D01*
X28616250Y-26345000D01*
X27703750Y-26345000D01*
X27679858Y-26343826D01*
X27656197Y-26340316D01*
X27632993Y-26334504D01*
X27610471Y-26326446D01*
X27588847Y-26316218D01*
X27568330Y-26303921D01*
X27549117Y-26289671D01*
X27531393Y-26273607D01*
X27515329Y-26255883D01*
X27501079Y-26236670D01*
X27488782Y-26216153D01*
X27478554Y-26194529D01*
X27470496Y-26172007D01*
X27464684Y-26148803D01*
X27461174Y-26125142D01*
X27460000Y-26101250D01*
X27460000Y-25613750D01*
X27461174Y-25589858D01*
X27464684Y-25566197D01*
X27470496Y-25542993D01*
X27478554Y-25520471D01*
X27488782Y-25498847D01*
X27501079Y-25478330D01*
X27515329Y-25459117D01*
X27531393Y-25441393D01*
X27549117Y-25425329D01*
X27568330Y-25411079D01*
X27588847Y-25398782D01*
X27610471Y-25388554D01*
X27632993Y-25380496D01*
X27656197Y-25374684D01*
X27679858Y-25371174D01*
X27703750Y-25370000D01*
X28616250Y-25370000D01*
X28640142Y-25371174D01*
X28640142Y-25371174D01*
G37*
D17*
X28160000Y-25857500D03*
D16*
G36*
X28640142Y-23496174D02*
G01*
X28663803Y-23499684D01*
X28687007Y-23505496D01*
X28709529Y-23513554D01*
X28731153Y-23523782D01*
X28751670Y-23536079D01*
X28770883Y-23550329D01*
X28788607Y-23566393D01*
X28804671Y-23584117D01*
X28818921Y-23603330D01*
X28831218Y-23623847D01*
X28841446Y-23645471D01*
X28849504Y-23667993D01*
X28855316Y-23691197D01*
X28858826Y-23714858D01*
X28860000Y-23738750D01*
X28860000Y-24226250D01*
X28858826Y-24250142D01*
X28855316Y-24273803D01*
X28849504Y-24297007D01*
X28841446Y-24319529D01*
X28831218Y-24341153D01*
X28818921Y-24361670D01*
X28804671Y-24380883D01*
X28788607Y-24398607D01*
X28770883Y-24414671D01*
X28751670Y-24428921D01*
X28731153Y-24441218D01*
X28709529Y-24451446D01*
X28687007Y-24459504D01*
X28663803Y-24465316D01*
X28640142Y-24468826D01*
X28616250Y-24470000D01*
X27703750Y-24470000D01*
X27679858Y-24468826D01*
X27656197Y-24465316D01*
X27632993Y-24459504D01*
X27610471Y-24451446D01*
X27588847Y-24441218D01*
X27568330Y-24428921D01*
X27549117Y-24414671D01*
X27531393Y-24398607D01*
X27515329Y-24380883D01*
X27501079Y-24361670D01*
X27488782Y-24341153D01*
X27478554Y-24319529D01*
X27470496Y-24297007D01*
X27464684Y-24273803D01*
X27461174Y-24250142D01*
X27460000Y-24226250D01*
X27460000Y-23738750D01*
X27461174Y-23714858D01*
X27464684Y-23691197D01*
X27470496Y-23667993D01*
X27478554Y-23645471D01*
X27488782Y-23623847D01*
X27501079Y-23603330D01*
X27515329Y-23584117D01*
X27531393Y-23566393D01*
X27549117Y-23550329D01*
X27568330Y-23536079D01*
X27588847Y-23523782D01*
X27610471Y-23513554D01*
X27632993Y-23505496D01*
X27656197Y-23499684D01*
X27679858Y-23496174D01*
X27703750Y-23495000D01*
X28616250Y-23495000D01*
X28640142Y-23496174D01*
X28640142Y-23496174D01*
G37*
D17*
X28160000Y-23982500D03*
M02*
