G04 #@! TF.GenerationSoftware,KiCad,Pcbnew,(5.1.4)-1*
G04 #@! TF.CreationDate,2021-10-30T23:29:11+08:00*
G04 #@! TF.ProjectId,bakeneko-60-pcb,62616b65-6e65-46b6-9f2d-36302d706362,rev?*
G04 #@! TF.SameCoordinates,Original*
G04 #@! TF.FileFunction,Legend,Bot*
G04 #@! TF.FilePolarity,Positive*
%FSLAX46Y46*%
G04 Gerber Fmt 4.6, Leading zero omitted, Abs format (unit mm)*
G04 Created by KiCad (PCBNEW (5.1.4)-1) date 2021-10-30 23:29:11*
%MOMM*%
%LPD*%
G04 APERTURE LIST*
%ADD10C,0.150000*%
%ADD11C,0.120000*%
%ADD12C,0.250000*%
G04 APERTURE END LIST*
D10*
X252335104Y-80431696D02*
X252198199Y-80479315D01*
X252156532Y-80526934D01*
X252120818Y-80622172D01*
X252138675Y-80765029D01*
X252198199Y-80860267D01*
X252251770Y-80907886D01*
X252352961Y-80955505D01*
X252733913Y-80955505D01*
X252608913Y-79955505D01*
X252275580Y-79955505D01*
X252186294Y-80003125D01*
X252144627Y-80050744D01*
X252108913Y-80145982D01*
X252120818Y-80241220D01*
X252180342Y-80336458D01*
X252233913Y-80384077D01*
X252335104Y-80431696D01*
X252668437Y-80431696D01*
X251305342Y-80955505D02*
X251239866Y-80431696D01*
X251275580Y-80336458D01*
X251364866Y-80288839D01*
X251555342Y-80288839D01*
X251656532Y-80336458D01*
X251299389Y-80907886D02*
X251400580Y-80955505D01*
X251638675Y-80955505D01*
X251727961Y-80907886D01*
X251763675Y-80812648D01*
X251751770Y-80717410D01*
X251692247Y-80622172D01*
X251591056Y-80574553D01*
X251352961Y-80574553D01*
X251251770Y-80526934D01*
X250829151Y-80955505D02*
X250704151Y-79955505D01*
X250686294Y-80574553D02*
X250448199Y-80955505D01*
X250364866Y-80288839D02*
X250793437Y-80669791D01*
X249632723Y-80907886D02*
X249733913Y-80955505D01*
X249924389Y-80955505D01*
X250013675Y-80907886D01*
X250049389Y-80812648D01*
X250001770Y-80431696D01*
X249942247Y-80336458D01*
X249841056Y-80288839D01*
X249650580Y-80288839D01*
X249561294Y-80336458D01*
X249525580Y-80431696D01*
X249537485Y-80526934D01*
X250025580Y-80622172D01*
X249079151Y-80288839D02*
X249162485Y-80955505D01*
X249091056Y-80384077D02*
X249037485Y-80336458D01*
X248936294Y-80288839D01*
X248793437Y-80288839D01*
X248704151Y-80336458D01*
X248668437Y-80431696D01*
X248733913Y-80955505D01*
X247870818Y-80907886D02*
X247972008Y-80955505D01*
X248162485Y-80955505D01*
X248251770Y-80907886D01*
X248287485Y-80812648D01*
X248239866Y-80431696D01*
X248180342Y-80336458D01*
X248079151Y-80288839D01*
X247888675Y-80288839D01*
X247799389Y-80336458D01*
X247763675Y-80431696D01*
X247775580Y-80526934D01*
X248263675Y-80622172D01*
X247400580Y-80955505D02*
X247275580Y-79955505D01*
X247257723Y-80574553D02*
X247019627Y-80955505D01*
X246936294Y-80288839D02*
X247364866Y-80669791D01*
X246448199Y-80955505D02*
X246537485Y-80907886D01*
X246579151Y-80860267D01*
X246614866Y-80765029D01*
X246579151Y-80479315D01*
X246519627Y-80384077D01*
X246466056Y-80336458D01*
X246364866Y-80288839D01*
X246222008Y-80288839D01*
X246132723Y-80336458D01*
X246091056Y-80384077D01*
X246055342Y-80479315D01*
X246091056Y-80765029D01*
X246150580Y-80860267D01*
X246204151Y-80907886D01*
X246305342Y-80955505D01*
X246448199Y-80955505D01*
X244894627Y-79955505D02*
X244227961Y-79955505D01*
X244781532Y-80955505D01*
X243656532Y-79955505D02*
X243561294Y-79955505D01*
X243472008Y-80003125D01*
X243430342Y-80050744D01*
X243394627Y-80145982D01*
X243370818Y-80336458D01*
X243400580Y-80574553D01*
X243472008Y-80765029D01*
X243531532Y-80860267D01*
X243585104Y-80907886D01*
X243686294Y-80955505D01*
X243781532Y-80955505D01*
X243870818Y-80907886D01*
X243912485Y-80860267D01*
X243948199Y-80765029D01*
X243972008Y-80574553D01*
X243942247Y-80336458D01*
X243870818Y-80145982D01*
X243811294Y-80050744D01*
X243757723Y-80003125D01*
X243656532Y-79955505D01*
X242269627Y-80288839D02*
X242114866Y-80955505D01*
X241793437Y-80288839D01*
X240972008Y-80955505D02*
X241543437Y-80955505D01*
X241257723Y-80955505D02*
X241132723Y-79955505D01*
X241245818Y-80098363D01*
X241352961Y-80193601D01*
X241454151Y-80241220D01*
X240531532Y-80860267D02*
X240489866Y-80907886D01*
X240543437Y-80955505D01*
X240585104Y-80907886D01*
X240531532Y-80860267D01*
X240543437Y-80955505D01*
X239751770Y-79955505D02*
X239656532Y-79955505D01*
X239567247Y-80003125D01*
X239525580Y-80050744D01*
X239489866Y-80145982D01*
X239466056Y-80336458D01*
X239495818Y-80574553D01*
X239567247Y-80765029D01*
X239626770Y-80860267D01*
X239680342Y-80907886D01*
X239781532Y-80955505D01*
X239876770Y-80955505D01*
X239966056Y-80907886D01*
X240007723Y-80860267D01*
X240043437Y-80765029D01*
X240067247Y-80574553D01*
X240037485Y-80336458D01*
X239966056Y-80145982D01*
X239906532Y-80050744D01*
X239852961Y-80003125D01*
X239751770Y-79955505D01*
X258138675Y-82605505D02*
X258013675Y-81605505D01*
X258061294Y-81986458D02*
X257960104Y-81938839D01*
X257769627Y-81938839D01*
X257680342Y-81986458D01*
X257638675Y-82034077D01*
X257602961Y-82129315D01*
X257638675Y-82415029D01*
X257698199Y-82510267D01*
X257751770Y-82557886D01*
X257852961Y-82605505D01*
X258043437Y-82605505D01*
X258132723Y-82557886D01*
X256805342Y-82605505D02*
X256739866Y-82081696D01*
X256775580Y-81986458D01*
X256864866Y-81938839D01*
X257055342Y-81938839D01*
X257156532Y-81986458D01*
X256799389Y-82557886D02*
X256900580Y-82605505D01*
X257138675Y-82605505D01*
X257227961Y-82557886D01*
X257263675Y-82462648D01*
X257251770Y-82367410D01*
X257192247Y-82272172D01*
X257091056Y-82224553D01*
X256852961Y-82224553D01*
X256751770Y-82176934D01*
X256370818Y-82557886D02*
X256281532Y-82605505D01*
X256091056Y-82605505D01*
X255989866Y-82557886D01*
X255930342Y-82462648D01*
X255924389Y-82415029D01*
X255960104Y-82319791D01*
X256049389Y-82272172D01*
X256192247Y-82272172D01*
X256281532Y-82224553D01*
X256317247Y-82129315D01*
X256311294Y-82081696D01*
X256251770Y-81986458D01*
X256150580Y-81938839D01*
X256007723Y-81938839D01*
X255918437Y-81986458D01*
X255132723Y-82557886D02*
X255233913Y-82605505D01*
X255424389Y-82605505D01*
X255513675Y-82557886D01*
X255549389Y-82462648D01*
X255501770Y-82081696D01*
X255442247Y-81986458D01*
X255341056Y-81938839D01*
X255150580Y-81938839D01*
X255061294Y-81986458D01*
X255025580Y-82081696D01*
X255037485Y-82176934D01*
X255525580Y-82272172D01*
X254233913Y-82605505D02*
X254108913Y-81605505D01*
X254227961Y-82557886D02*
X254329151Y-82605505D01*
X254519627Y-82605505D01*
X254608913Y-82557886D01*
X254650580Y-82510267D01*
X254686294Y-82415029D01*
X254650580Y-82129315D01*
X254591056Y-82034077D01*
X254537485Y-81986458D01*
X254436294Y-81938839D01*
X254245818Y-81938839D01*
X254156532Y-81986458D01*
X252852961Y-82605505D02*
X252942247Y-82557886D01*
X252983913Y-82510267D01*
X253019627Y-82415029D01*
X252983913Y-82129315D01*
X252924389Y-82034077D01*
X252870818Y-81986458D01*
X252769627Y-81938839D01*
X252626770Y-81938839D01*
X252537485Y-81986458D01*
X252495818Y-82034077D01*
X252460104Y-82129315D01*
X252495818Y-82415029D01*
X252555342Y-82510267D01*
X252608913Y-82557886D01*
X252710104Y-82605505D01*
X252852961Y-82605505D01*
X252007723Y-81938839D02*
X252091056Y-82605505D01*
X252019627Y-82034077D02*
X251966056Y-81986458D01*
X251864866Y-81938839D01*
X251722008Y-81938839D01*
X251632723Y-81986458D01*
X251597008Y-82081696D01*
X251662485Y-82605505D01*
X250483913Y-81938839D02*
X250102961Y-81938839D01*
X250299389Y-81605505D02*
X250406532Y-82462648D01*
X250370818Y-82557886D01*
X250281532Y-82605505D01*
X250186294Y-82605505D01*
X249852961Y-82605505D02*
X249727961Y-81605505D01*
X249424389Y-82605505D02*
X249358913Y-82081696D01*
X249394627Y-81986458D01*
X249483913Y-81938839D01*
X249626770Y-81938839D01*
X249727961Y-81986458D01*
X249781532Y-82034077D01*
X248561294Y-82557886D02*
X248662485Y-82605505D01*
X248852961Y-82605505D01*
X248942247Y-82557886D01*
X248977961Y-82462648D01*
X248930342Y-82081696D01*
X248870818Y-81986458D01*
X248769627Y-81938839D01*
X248579151Y-81938839D01*
X248489866Y-81986458D01*
X248454151Y-82081696D01*
X248466056Y-82176934D01*
X248954151Y-82272172D01*
X246930342Y-82081696D02*
X246793437Y-82129315D01*
X246751770Y-82176934D01*
X246716056Y-82272172D01*
X246733913Y-82415029D01*
X246793437Y-82510267D01*
X246847008Y-82557886D01*
X246948199Y-82605505D01*
X247329151Y-82605505D01*
X247204151Y-81605505D01*
X246870818Y-81605505D01*
X246781532Y-81653125D01*
X246739866Y-81700744D01*
X246704151Y-81795982D01*
X246716056Y-81891220D01*
X246775580Y-81986458D01*
X246829151Y-82034077D01*
X246930342Y-82081696D01*
X247263675Y-82081696D01*
X245900580Y-82605505D02*
X245835104Y-82081696D01*
X245870818Y-81986458D01*
X245960104Y-81938839D01*
X246150580Y-81938839D01*
X246251770Y-81986458D01*
X245894627Y-82557886D02*
X245995818Y-82605505D01*
X246233913Y-82605505D01*
X246323199Y-82557886D01*
X246358913Y-82462648D01*
X246347008Y-82367410D01*
X246287485Y-82272172D01*
X246186294Y-82224553D01*
X245948199Y-82224553D01*
X245847008Y-82176934D01*
X245424389Y-82605505D02*
X245299389Y-81605505D01*
X245281532Y-82224553D02*
X245043437Y-82605505D01*
X244960104Y-81938839D02*
X245388675Y-82319791D01*
X244227961Y-82557886D02*
X244329151Y-82605505D01*
X244519627Y-82605505D01*
X244608913Y-82557886D01*
X244644627Y-82462648D01*
X244597008Y-82081696D01*
X244537485Y-81986458D01*
X244436294Y-81938839D01*
X244245818Y-81938839D01*
X244156532Y-81986458D01*
X244120818Y-82081696D01*
X244132723Y-82176934D01*
X244620818Y-82272172D01*
X243674389Y-81938839D02*
X243757723Y-82605505D01*
X243686294Y-82034077D02*
X243632723Y-81986458D01*
X243531532Y-81938839D01*
X243388675Y-81938839D01*
X243299389Y-81986458D01*
X243263675Y-82081696D01*
X243329151Y-82605505D01*
X242466056Y-82557886D02*
X242567247Y-82605505D01*
X242757723Y-82605505D01*
X242847008Y-82557886D01*
X242882723Y-82462648D01*
X242835104Y-82081696D01*
X242775580Y-81986458D01*
X242674389Y-81938839D01*
X242483913Y-81938839D01*
X242394627Y-81986458D01*
X242358913Y-82081696D01*
X242370818Y-82176934D01*
X242858913Y-82272172D01*
X241995818Y-82605505D02*
X241870818Y-81605505D01*
X241852961Y-82224553D02*
X241614866Y-82605505D01*
X241531532Y-81938839D02*
X241960104Y-82319791D01*
X241043437Y-82605505D02*
X241132723Y-82557886D01*
X241174389Y-82510267D01*
X241210104Y-82415029D01*
X241174389Y-82129315D01*
X241114866Y-82034077D01*
X241061294Y-81986458D01*
X240960104Y-81938839D01*
X240817247Y-81938839D01*
X240727961Y-81986458D01*
X240686294Y-82034077D01*
X240650580Y-82129315D01*
X240686294Y-82415029D01*
X240745818Y-82510267D01*
X240799389Y-82557886D01*
X240900580Y-82605505D01*
X241043437Y-82605505D01*
X238966056Y-81605505D02*
X239156532Y-81605505D01*
X239257723Y-81653125D01*
X239311294Y-81700744D01*
X239424389Y-81843601D01*
X239495818Y-82034077D01*
X239543437Y-82415029D01*
X239507723Y-82510267D01*
X239466056Y-82557886D01*
X239376770Y-82605505D01*
X239186294Y-82605505D01*
X239085104Y-82557886D01*
X239031532Y-82510267D01*
X238972008Y-82415029D01*
X238942247Y-82176934D01*
X238977961Y-82081696D01*
X239019627Y-82034077D01*
X239108913Y-81986458D01*
X239299389Y-81986458D01*
X239400580Y-82034077D01*
X239454151Y-82081696D01*
X239513675Y-82176934D01*
X238251770Y-81605505D02*
X238156532Y-81605505D01*
X238067247Y-81653125D01*
X238025580Y-81700744D01*
X237989866Y-81795982D01*
X237966056Y-81986458D01*
X237995818Y-82224553D01*
X238067247Y-82415029D01*
X238126770Y-82510267D01*
X238180342Y-82557886D01*
X238281532Y-82605505D01*
X238376770Y-82605505D01*
X238466056Y-82557886D01*
X238507723Y-82510267D01*
X238543437Y-82415029D01*
X238567247Y-82224553D01*
X238537485Y-81986458D01*
X238466056Y-81795982D01*
X238406532Y-81700744D01*
X238352961Y-81653125D01*
X238251770Y-81605505D01*
X236864866Y-81938839D02*
X236710104Y-82605505D01*
X236388675Y-81938839D01*
X236061294Y-81605505D02*
X235442247Y-81605505D01*
X235823199Y-81986458D01*
X235680342Y-81986458D01*
X235591056Y-82034077D01*
X235549389Y-82081696D01*
X235513675Y-82176934D01*
X235543437Y-82415029D01*
X235602961Y-82510267D01*
X235656532Y-82557886D01*
X235757723Y-82605505D01*
X236043437Y-82605505D01*
X236132723Y-82557886D01*
X236174389Y-82510267D01*
X235126770Y-82510267D02*
X235085104Y-82557886D01*
X235138675Y-82605505D01*
X235180342Y-82557886D01*
X235126770Y-82510267D01*
X235138675Y-82605505D01*
X234347008Y-81605505D02*
X234251770Y-81605505D01*
X234162485Y-81653125D01*
X234120818Y-81700744D01*
X234085104Y-81795982D01*
X234061294Y-81986458D01*
X234091056Y-82224553D01*
X234162485Y-82415029D01*
X234222008Y-82510267D01*
X234275580Y-82557886D01*
X234376770Y-82605505D01*
X234472008Y-82605505D01*
X234561294Y-82557886D01*
X234602961Y-82510267D01*
X234638675Y-82415029D01*
X234662485Y-82224553D01*
X234632723Y-81986458D01*
X234561294Y-81795982D01*
X234501770Y-81700744D01*
X234448199Y-81653125D01*
X234347008Y-81605505D01*
X250043437Y-84255505D02*
X249918437Y-83255505D01*
X249966056Y-83636458D02*
X249864866Y-83588839D01*
X249674389Y-83588839D01*
X249585104Y-83636458D01*
X249543437Y-83684077D01*
X249507723Y-83779315D01*
X249543437Y-84065029D01*
X249602961Y-84160267D01*
X249656532Y-84207886D01*
X249757723Y-84255505D01*
X249948199Y-84255505D01*
X250037485Y-84207886D01*
X249150580Y-83588839D02*
X248995818Y-84255505D01*
X248674389Y-83588839D02*
X248995818Y-84255505D01*
X249120818Y-84493601D01*
X249174389Y-84541220D01*
X249275580Y-84588839D01*
X247614866Y-84255505D02*
X247489866Y-83255505D01*
X247472008Y-83874553D02*
X247233913Y-84255505D01*
X247150580Y-83588839D02*
X247579151Y-83969791D01*
X246805342Y-84255505D02*
X246680342Y-83255505D01*
X246662485Y-83874553D02*
X246424389Y-84255505D01*
X246341056Y-83588839D02*
X246769627Y-83969791D01*
X245567247Y-84255505D02*
X245501770Y-83731696D01*
X245537485Y-83636458D01*
X245626770Y-83588839D01*
X245817247Y-83588839D01*
X245918437Y-83636458D01*
X245561294Y-84207886D02*
X245662485Y-84255505D01*
X245900580Y-84255505D01*
X245989866Y-84207886D01*
X246025580Y-84112648D01*
X246013675Y-84017410D01*
X245954151Y-83922172D01*
X245852961Y-83874553D01*
X245614866Y-83874553D01*
X245513675Y-83826934D01*
X245150580Y-83588839D02*
X244769627Y-83588839D01*
X244966056Y-83255505D02*
X245073199Y-84112648D01*
X245037485Y-84207886D01*
X244948199Y-84255505D01*
X244852961Y-84255505D01*
X244091056Y-84255505D02*
X244025580Y-83731696D01*
X244061294Y-83636458D01*
X244150580Y-83588839D01*
X244341056Y-83588839D01*
X244442247Y-83636458D01*
X244085104Y-84207886D02*
X244186294Y-84255505D01*
X244424389Y-84255505D01*
X244513675Y-84207886D01*
X244549389Y-84112648D01*
X244537485Y-84017410D01*
X244477961Y-83922172D01*
X244376770Y-83874553D01*
X244138675Y-83874553D01*
X244037485Y-83826934D01*
X243531532Y-83588839D02*
X243614866Y-84255505D01*
X243543437Y-83684077D02*
X243489866Y-83636458D01*
X243388675Y-83588839D01*
X243245818Y-83588839D01*
X243156532Y-83636458D01*
X243120818Y-83731696D01*
X243186294Y-84255505D01*
X242567247Y-84255505D02*
X242656532Y-84207886D01*
X242698199Y-84160267D01*
X242733913Y-84065029D01*
X242698199Y-83779315D01*
X242638675Y-83684077D01*
X242585104Y-83636458D01*
X242483913Y-83588839D01*
X242341056Y-83588839D01*
X242251770Y-83636458D01*
X242210104Y-83684077D01*
X242174389Y-83779315D01*
X242210104Y-84065029D01*
X242269627Y-84160267D01*
X242323199Y-84207886D01*
X242424389Y-84255505D01*
X242567247Y-84255505D01*
D11*
X258175000Y20768750D02*
X258175000Y24668750D01*
X256175000Y20768750D02*
X256175000Y24668750D01*
X258175000Y20768750D02*
X256175000Y20768750D01*
X234362500Y20768750D02*
X234362500Y24668750D01*
X232362500Y20768750D02*
X232362500Y24668750D01*
X234362500Y20768750D02*
X232362500Y20768750D01*
X215312500Y20768750D02*
X215312500Y24668750D01*
X213312500Y20768750D02*
X213312500Y24668750D01*
X215312500Y20768750D02*
X213312500Y20768750D01*
X196262500Y20768750D02*
X196262500Y24668750D01*
X194262500Y20768750D02*
X194262500Y24668750D01*
X196262500Y20768750D02*
X194262500Y20768750D01*
X177212500Y20768750D02*
X177212500Y24668750D01*
X175212500Y20768750D02*
X175212500Y24668750D01*
X177212500Y20768750D02*
X175212500Y20768750D01*
X153400000Y20768750D02*
X153400000Y24668750D01*
X151400000Y20768750D02*
X151400000Y24668750D01*
X153400000Y20768750D02*
X151400000Y20768750D01*
X134350000Y20768750D02*
X134350000Y24668750D01*
X132350000Y20768750D02*
X132350000Y24668750D01*
X134350000Y20768750D02*
X132350000Y20768750D01*
X115300000Y20768750D02*
X115300000Y24668750D01*
X113300000Y20768750D02*
X113300000Y24668750D01*
X115300000Y20768750D02*
X113300000Y20768750D01*
X96250000Y20768750D02*
X96250000Y24668750D01*
X94250000Y20768750D02*
X94250000Y24668750D01*
X96250000Y20768750D02*
X94250000Y20768750D01*
X72437500Y20768750D02*
X72437500Y24668750D01*
X70437500Y20768750D02*
X70437500Y24668750D01*
X72437500Y20768750D02*
X70437500Y20768750D01*
X53387500Y20768750D02*
X53387500Y24668750D01*
X51387500Y20768750D02*
X51387500Y24668750D01*
X53387500Y20768750D02*
X51387500Y20768750D01*
X34337500Y20768750D02*
X34337500Y24668750D01*
X32337500Y20768750D02*
X32337500Y24668750D01*
X34337500Y20768750D02*
X32337500Y20768750D01*
X15287500Y20768750D02*
X15287500Y24668750D01*
X13287500Y20768750D02*
X13287500Y24668750D01*
X15287500Y20768750D02*
X13287500Y20768750D01*
X8937500Y20768750D02*
X8937500Y24668750D01*
X6937500Y20768750D02*
X6937500Y24668750D01*
X8937500Y20768750D02*
X6937500Y20768750D01*
X27713750Y-9400000D02*
X27713750Y-7600000D01*
X30933750Y-7600000D02*
X30933750Y-10050000D01*
X229550000Y-79243750D02*
X229550000Y-75343750D01*
X227550000Y-79243750D02*
X227550000Y-75343750D01*
X229550000Y-79243750D02*
X227550000Y-79243750D01*
X205787500Y-79243750D02*
X205787500Y-75343750D01*
X203787500Y-79243750D02*
X203787500Y-75343750D01*
X205787500Y-79243750D02*
X203787500Y-79243750D01*
X184315000Y-79243750D02*
X184315000Y-75343750D01*
X182315000Y-79243750D02*
X182315000Y-75343750D01*
X184315000Y-79243750D02*
X182315000Y-79243750D01*
X45450000Y-41143750D02*
X45450000Y-37243750D01*
X43450000Y-41143750D02*
X43450000Y-37243750D01*
X45450000Y-41143750D02*
X43450000Y-41143750D01*
X42275000Y-41143750D02*
X42275000Y-37243750D01*
X40275000Y-41143750D02*
X40275000Y-37243750D01*
X42275000Y-41143750D02*
X40275000Y-41143750D01*
X78787500Y-22093750D02*
X78787500Y-18193750D01*
X76787500Y-22093750D02*
X76787500Y-18193750D01*
X78787500Y-22093750D02*
X76787500Y-22093750D01*
X75612500Y-22093750D02*
X75612500Y-18193750D01*
X73612500Y-22093750D02*
X73612500Y-18193750D01*
X75612500Y-22093750D02*
X73612500Y-22093750D01*
X56562500Y-22093750D02*
X56562500Y-18193750D01*
X54562500Y-22093750D02*
X54562500Y-18193750D01*
X56562500Y-22093750D02*
X54562500Y-22093750D01*
X59737500Y-22093750D02*
X59737500Y-18193750D01*
X57737500Y-22093750D02*
X57737500Y-18193750D01*
X59737500Y-22093750D02*
X57737500Y-22093750D01*
X240655000Y-3043750D02*
X240655000Y856250D01*
X238655000Y-3043750D02*
X238655000Y856250D01*
X240655000Y-3043750D02*
X238655000Y-3043750D01*
X220075000Y-3043750D02*
X220075000Y856250D01*
X218075000Y-3043750D02*
X218075000Y856250D01*
X220075000Y-3043750D02*
X218075000Y-3043750D01*
X12112500Y-3043750D02*
X12112500Y856250D01*
X10112500Y-3043750D02*
X10112500Y856250D01*
X12112500Y-3043750D02*
X10112500Y-3043750D01*
X8937500Y-3043750D02*
X8937500Y856250D01*
X6937500Y-3043750D02*
X6937500Y856250D01*
X8937500Y-3043750D02*
X6937500Y-3043750D01*
X-2175000Y-22887500D02*
X-2175000Y-18987500D01*
X-4175000Y-22887500D02*
X-4175000Y-18987500D01*
X-2175000Y-22887500D02*
X-4175000Y-22887500D01*
X237585000Y-3043750D02*
X237585000Y856250D01*
X235585000Y-3043750D02*
X235585000Y856250D01*
X237585000Y-3043750D02*
X235585000Y-3043750D01*
X253362500Y-79243750D02*
X253362500Y-75343750D01*
X251362500Y-79243750D02*
X251362500Y-75343750D01*
X253362500Y-79243750D02*
X251362500Y-79243750D01*
X112918750Y-79243750D02*
X112918750Y-75343750D01*
X110918750Y-79243750D02*
X110918750Y-75343750D01*
X112918750Y-79243750D02*
X110918750Y-79243750D01*
X41481250Y-79243750D02*
X41481250Y-75343750D01*
X39481250Y-79243750D02*
X39481250Y-75343750D01*
X41481250Y-79243750D02*
X39481250Y-79243750D01*
X17668750Y-79243750D02*
X17668750Y-75343750D01*
X15668750Y-79243750D02*
X15668750Y-75343750D01*
X17668750Y-79243750D02*
X15668750Y-79243750D01*
X13747500Y-79243750D02*
X13747500Y-75343750D01*
X11747500Y-79243750D02*
X11747500Y-75343750D01*
X13747500Y-79243750D02*
X11747500Y-79243750D01*
X259715000Y-60193750D02*
X259715000Y-56293750D01*
X257715000Y-60193750D02*
X257715000Y-56293750D01*
X259715000Y-60193750D02*
X257715000Y-60193750D01*
X231981250Y-60193750D02*
X231981250Y-56293750D01*
X229981250Y-60193750D02*
X229981250Y-56293750D01*
X231981250Y-60193750D02*
X229981250Y-60193750D01*
X205787500Y-60193750D02*
X205787500Y-56293750D01*
X203787500Y-60193750D02*
X203787500Y-56293750D01*
X205787500Y-60193750D02*
X203787500Y-60193750D01*
X186737500Y-60193750D02*
X186737500Y-56293750D01*
X184737500Y-60193750D02*
X184737500Y-56293750D01*
X186737500Y-60193750D02*
X184737500Y-60193750D01*
X167687500Y-60193750D02*
X167687500Y-56293750D01*
X165687500Y-60193750D02*
X165687500Y-56293750D01*
X167687500Y-60193750D02*
X165687500Y-60193750D01*
X148637500Y-60193750D02*
X148637500Y-56293750D01*
X146637500Y-60193750D02*
X146637500Y-56293750D01*
X148637500Y-60193750D02*
X146637500Y-60193750D01*
X129587500Y-60193750D02*
X129587500Y-56293750D01*
X127587500Y-60193750D02*
X127587500Y-56293750D01*
X129587500Y-60193750D02*
X127587500Y-60193750D01*
X110537500Y-60193750D02*
X110537500Y-56293750D01*
X108537500Y-60193750D02*
X108537500Y-56293750D01*
X110537500Y-60193750D02*
X108537500Y-60193750D01*
X91487500Y-60193750D02*
X91487500Y-56293750D01*
X89487500Y-60193750D02*
X89487500Y-56293750D01*
X91487500Y-60193750D02*
X89487500Y-60193750D01*
X72437500Y-60193750D02*
X72437500Y-56293750D01*
X70437500Y-60193750D02*
X70437500Y-56293750D01*
X72437500Y-60193750D02*
X70437500Y-60193750D01*
X53387500Y-60193750D02*
X53387500Y-56293750D01*
X51387500Y-60193750D02*
X51387500Y-56293750D01*
X53387500Y-60193750D02*
X51387500Y-60193750D01*
X34337500Y-60193750D02*
X34337500Y-56293750D01*
X32337500Y-60193750D02*
X32337500Y-56293750D01*
X34337500Y-60193750D02*
X32337500Y-60193750D01*
X20843750Y-60193750D02*
X20843750Y-56293750D01*
X18843750Y-60193750D02*
X18843750Y-56293750D01*
X20843750Y-60193750D02*
X18843750Y-60193750D01*
X246268750Y-41143750D02*
X246268750Y-37243750D01*
X244268750Y-41143750D02*
X244268750Y-37243750D01*
X246268750Y-41143750D02*
X244268750Y-41143750D01*
X215312500Y-41143750D02*
X215312500Y-37243750D01*
X213312500Y-41143750D02*
X213312500Y-37243750D01*
X215312500Y-41143750D02*
X213312500Y-41143750D01*
X196262500Y-41143750D02*
X196262500Y-37243750D01*
X194262500Y-41143750D02*
X194262500Y-37243750D01*
X196262500Y-41143750D02*
X194262500Y-41143750D01*
X177212500Y-41143750D02*
X177212500Y-37243750D01*
X175212500Y-41143750D02*
X175212500Y-37243750D01*
X177212500Y-41143750D02*
X175212500Y-41143750D01*
X158162500Y-41143750D02*
X158162500Y-37243750D01*
X156162500Y-41143750D02*
X156162500Y-37243750D01*
X158162500Y-41143750D02*
X156162500Y-41143750D01*
X139112500Y-41143750D02*
X139112500Y-37243750D01*
X137112500Y-41143750D02*
X137112500Y-37243750D01*
X139112500Y-41143750D02*
X137112500Y-41143750D01*
X120062500Y-41143750D02*
X120062500Y-37243750D01*
X118062500Y-41143750D02*
X118062500Y-37243750D01*
X120062500Y-41143750D02*
X118062500Y-41143750D01*
X101012500Y-41143750D02*
X101012500Y-37243750D01*
X99012500Y-41143750D02*
X99012500Y-37243750D01*
X101012500Y-41143750D02*
X99012500Y-41143750D01*
X81962500Y-41143750D02*
X81962500Y-37243750D01*
X79962500Y-41143750D02*
X79962500Y-37243750D01*
X81962500Y-41143750D02*
X79962500Y-41143750D01*
X62912500Y-41143750D02*
X62912500Y-37243750D01*
X60912500Y-41143750D02*
X60912500Y-37243750D01*
X62912500Y-41143750D02*
X60912500Y-41143750D01*
X16081250Y-41143750D02*
X16081250Y-37243750D01*
X14081250Y-41143750D02*
X14081250Y-37243750D01*
X16081250Y-41143750D02*
X14081250Y-41143750D01*
X253412500Y-22093750D02*
X253412500Y-18193750D01*
X251412500Y-22093750D02*
X251412500Y-18193750D01*
X253412500Y-22093750D02*
X251412500Y-22093750D01*
X229600000Y-22093750D02*
X229600000Y-18193750D01*
X227600000Y-22093750D02*
X227600000Y-18193750D01*
X229600000Y-22093750D02*
X227600000Y-22093750D01*
X210550000Y-22093750D02*
X210550000Y-18193750D01*
X208550000Y-22093750D02*
X208550000Y-18193750D01*
X210550000Y-22093750D02*
X208550000Y-22093750D01*
X191500000Y-22093750D02*
X191500000Y-18193750D01*
X189500000Y-22093750D02*
X189500000Y-18193750D01*
X191500000Y-22093750D02*
X189500000Y-22093750D01*
X172450000Y-22093750D02*
X172450000Y-18193750D01*
X170450000Y-22093750D02*
X170450000Y-18193750D01*
X172450000Y-22093750D02*
X170450000Y-22093750D01*
X153400000Y-22093750D02*
X153400000Y-18193750D01*
X151400000Y-22093750D02*
X151400000Y-18193750D01*
X153400000Y-22093750D02*
X151400000Y-22093750D01*
X134350000Y-22093750D02*
X134350000Y-18193750D01*
X132350000Y-22093750D02*
X132350000Y-18193750D01*
X134350000Y-22093750D02*
X132350000Y-22093750D01*
X115300000Y-22093750D02*
X115300000Y-18193750D01*
X113300000Y-22093750D02*
X113300000Y-18193750D01*
X115300000Y-22093750D02*
X113300000Y-22093750D01*
X96250000Y-22093750D02*
X96250000Y-18193750D01*
X94250000Y-22093750D02*
X94250000Y-18193750D01*
X96250000Y-22093750D02*
X94250000Y-22093750D01*
X201025000Y-3043750D02*
X201025000Y856250D01*
X199025000Y-3043750D02*
X199025000Y856250D01*
X201025000Y-3043750D02*
X199025000Y-3043750D01*
X181975000Y-3043750D02*
X181975000Y856250D01*
X179975000Y-3043750D02*
X179975000Y856250D01*
X181975000Y-3043750D02*
X179975000Y-3043750D01*
X162925000Y-3043750D02*
X162925000Y856250D01*
X160925000Y-3043750D02*
X160925000Y856250D01*
X162925000Y-3043750D02*
X160925000Y-3043750D01*
X143875000Y-3043750D02*
X143875000Y856250D01*
X141875000Y-3043750D02*
X141875000Y856250D01*
X143875000Y-3043750D02*
X141875000Y-3043750D01*
X124825000Y-3043750D02*
X124825000Y856250D01*
X122825000Y-3043750D02*
X122825000Y856250D01*
X124825000Y-3043750D02*
X122825000Y-3043750D01*
X105775000Y-3043750D02*
X105775000Y856250D01*
X103775000Y-3043750D02*
X103775000Y856250D01*
X105775000Y-3043750D02*
X103775000Y-3043750D01*
X86725000Y-3043750D02*
X86725000Y856250D01*
X84725000Y-3043750D02*
X84725000Y856250D01*
X86725000Y-3043750D02*
X84725000Y-3043750D01*
X67675000Y-3043750D02*
X67675000Y856250D01*
X65675000Y-3043750D02*
X65675000Y856250D01*
X67675000Y-3043750D02*
X65675000Y-3043750D01*
X48625000Y-3043750D02*
X48625000Y856250D01*
X46625000Y-3043750D02*
X46625000Y856250D01*
X48625000Y-3043750D02*
X46625000Y-3043750D01*
X29575000Y-3043750D02*
X29575000Y856250D01*
X27575000Y-3043750D02*
X27575000Y856250D01*
X29575000Y-3043750D02*
X27575000Y-3043750D01*
X33960000Y-30320000D02*
X29960000Y-30320000D01*
X33960000Y-27020000D02*
X33960000Y-30320000D01*
D10*
X14953750Y-23583750D02*
X14953750Y-22308750D01*
X14378750Y-33933750D02*
X14378750Y-33258750D01*
X24728750Y-33933750D02*
X24728750Y-33258750D01*
X24728750Y-23583750D02*
X24728750Y-24258750D01*
X14378750Y-23583750D02*
X14378750Y-24258750D01*
X24728750Y-23583750D02*
X24053750Y-23583750D01*
X24728750Y-33933750D02*
X24053750Y-33933750D01*
X14378750Y-33933750D02*
X15053750Y-33933750D01*
X14378750Y-23583750D02*
X14953750Y-23583750D01*
D11*
X44993750Y-29235000D02*
X47493750Y-29235000D01*
X43493750Y-27485000D02*
X43493750Y-25485000D01*
X44993750Y-23735000D02*
X47493750Y-23735000D01*
X48993750Y-27485000D02*
X48993750Y-25485000D01*
X44543750Y-28785000D02*
X44993750Y-29235000D01*
X47943750Y-28785000D02*
X47493750Y-29235000D01*
X47943750Y-24185000D02*
X47493750Y-23735000D01*
X44543750Y-24185000D02*
X44993750Y-23735000D01*
X20113750Y-47208578D02*
X20113750Y-46691422D01*
X21533750Y-47208578D02*
X21533750Y-46691422D01*
X23081422Y-6540000D02*
X23598578Y-6540000D01*
X23081422Y-7960000D02*
X23598578Y-7960000D01*
X23081422Y-9040000D02*
X23598578Y-9040000D01*
X23081422Y-10460000D02*
X23598578Y-10460000D01*
X41420000Y-25261422D02*
X41420000Y-25778578D01*
X40000000Y-25261422D02*
X40000000Y-25778578D01*
D12*
X-5040000Y-8017501D02*
X-40000Y-8017501D01*
X-40000Y-8017501D02*
X-40000Y-5517501D01*
X-40000Y-5517501D02*
X-5040000Y-5517501D01*
X-5040000Y-5517501D02*
X-5040000Y-8017501D01*
D11*
X38715000Y-5390000D02*
X36215000Y-5390000D01*
X36215000Y-5390000D02*
X36215000Y-6440000D01*
X36215000Y-6440000D02*
X35225000Y-6440000D01*
X38715000Y-11610000D02*
X36215000Y-11610000D01*
X36215000Y-11610000D02*
X36215000Y-10560000D01*
X40685000Y-6560000D02*
X40685000Y-10440000D01*
X15107936Y-9030000D02*
X16312064Y-9030000D01*
X15107936Y-7210000D02*
X16312064Y-7210000D01*
X19830000Y-18211422D02*
X19830000Y-18728578D01*
X18410000Y-18211422D02*
X18410000Y-18728578D01*
X32218578Y-32180000D02*
X31701422Y-32180000D01*
X32218578Y-30760000D02*
X31701422Y-30760000D01*
X32218578Y-26580000D02*
X31701422Y-26580000D01*
X32218578Y-25160000D02*
X31701422Y-25160000D01*
X14382328Y-20460000D02*
X13865172Y-20460000D01*
X14382328Y-19040000D02*
X13865172Y-19040000D01*
X22801422Y-37200000D02*
X23318578Y-37200000D01*
X22801422Y-38620000D02*
X23318578Y-38620000D01*
X7915172Y-28848750D02*
X8432328Y-28848750D01*
X7915172Y-30268750D02*
X8432328Y-30268750D01*
X28870000Y-24661422D02*
X28870000Y-25178578D01*
X27450000Y-24661422D02*
X27450000Y-25178578D01*
D10*
X259627380Y24233035D02*
X258627380Y24233035D01*
X258627380Y23994940D01*
X258675000Y23852083D01*
X258770238Y23756845D01*
X258865476Y23709226D01*
X259055952Y23661607D01*
X259198809Y23661607D01*
X259389285Y23709226D01*
X259484523Y23756845D01*
X259579761Y23852083D01*
X259627380Y23994940D01*
X259627380Y24233035D01*
X258627380Y23328273D02*
X258627380Y22661607D01*
X259627380Y23090178D01*
X258627380Y22375892D02*
X258627380Y21709226D01*
X259627380Y22137797D01*
X235814880Y24233035D02*
X234814880Y24233035D01*
X234814880Y23994940D01*
X234862500Y23852083D01*
X234957738Y23756845D01*
X235052976Y23709226D01*
X235243452Y23661607D01*
X235386309Y23661607D01*
X235576785Y23709226D01*
X235672023Y23756845D01*
X235767261Y23852083D01*
X235814880Y23994940D01*
X235814880Y24233035D01*
X234814880Y23328273D02*
X234814880Y22661607D01*
X235814880Y23090178D01*
X234814880Y21852083D02*
X234814880Y22042559D01*
X234862500Y22137797D01*
X234910119Y22185416D01*
X235052976Y22280654D01*
X235243452Y22328273D01*
X235624404Y22328273D01*
X235719642Y22280654D01*
X235767261Y22233035D01*
X235814880Y22137797D01*
X235814880Y21947321D01*
X235767261Y21852083D01*
X235719642Y21804464D01*
X235624404Y21756845D01*
X235386309Y21756845D01*
X235291071Y21804464D01*
X235243452Y21852083D01*
X235195833Y21947321D01*
X235195833Y22137797D01*
X235243452Y22233035D01*
X235291071Y22280654D01*
X235386309Y22328273D01*
X216764880Y24233035D02*
X215764880Y24233035D01*
X215764880Y23994940D01*
X215812500Y23852083D01*
X215907738Y23756845D01*
X216002976Y23709226D01*
X216193452Y23661607D01*
X216336309Y23661607D01*
X216526785Y23709226D01*
X216622023Y23756845D01*
X216717261Y23852083D01*
X216764880Y23994940D01*
X216764880Y24233035D01*
X215764880Y23328273D02*
X215764880Y22661607D01*
X216764880Y23090178D01*
X215764880Y21804464D02*
X215764880Y22280654D01*
X216241071Y22328273D01*
X216193452Y22280654D01*
X216145833Y22185416D01*
X216145833Y21947321D01*
X216193452Y21852083D01*
X216241071Y21804464D01*
X216336309Y21756845D01*
X216574404Y21756845D01*
X216669642Y21804464D01*
X216717261Y21852083D01*
X216764880Y21947321D01*
X216764880Y22185416D01*
X216717261Y22280654D01*
X216669642Y22328273D01*
X197714880Y24233035D02*
X196714880Y24233035D01*
X196714880Y23994940D01*
X196762500Y23852083D01*
X196857738Y23756845D01*
X196952976Y23709226D01*
X197143452Y23661607D01*
X197286309Y23661607D01*
X197476785Y23709226D01*
X197572023Y23756845D01*
X197667261Y23852083D01*
X197714880Y23994940D01*
X197714880Y24233035D01*
X196714880Y23328273D02*
X196714880Y22661607D01*
X197714880Y23090178D01*
X197048214Y21852083D02*
X197714880Y21852083D01*
X196667261Y22090178D02*
X197381547Y22328273D01*
X197381547Y21709226D01*
X178664880Y24233035D02*
X177664880Y24233035D01*
X177664880Y23994940D01*
X177712500Y23852083D01*
X177807738Y23756845D01*
X177902976Y23709226D01*
X178093452Y23661607D01*
X178236309Y23661607D01*
X178426785Y23709226D01*
X178522023Y23756845D01*
X178617261Y23852083D01*
X178664880Y23994940D01*
X178664880Y24233035D01*
X177664880Y23328273D02*
X177664880Y22661607D01*
X178664880Y23090178D01*
X177664880Y22375892D02*
X177664880Y21756845D01*
X178045833Y22090178D01*
X178045833Y21947321D01*
X178093452Y21852083D01*
X178141071Y21804464D01*
X178236309Y21756845D01*
X178474404Y21756845D01*
X178569642Y21804464D01*
X178617261Y21852083D01*
X178664880Y21947321D01*
X178664880Y22233035D01*
X178617261Y22328273D01*
X178569642Y22375892D01*
X154852380Y24233035D02*
X153852380Y24233035D01*
X153852380Y23994940D01*
X153900000Y23852083D01*
X153995238Y23756845D01*
X154090476Y23709226D01*
X154280952Y23661607D01*
X154423809Y23661607D01*
X154614285Y23709226D01*
X154709523Y23756845D01*
X154804761Y23852083D01*
X154852380Y23994940D01*
X154852380Y24233035D01*
X153852380Y23328273D02*
X153852380Y22661607D01*
X154852380Y23090178D01*
X153947619Y22328273D02*
X153900000Y22280654D01*
X153852380Y22185416D01*
X153852380Y21947321D01*
X153900000Y21852083D01*
X153947619Y21804464D01*
X154042857Y21756845D01*
X154138095Y21756845D01*
X154280952Y21804464D01*
X154852380Y22375892D01*
X154852380Y21756845D01*
X135802380Y24233035D02*
X134802380Y24233035D01*
X134802380Y23994940D01*
X134850000Y23852083D01*
X134945238Y23756845D01*
X135040476Y23709226D01*
X135230952Y23661607D01*
X135373809Y23661607D01*
X135564285Y23709226D01*
X135659523Y23756845D01*
X135754761Y23852083D01*
X135802380Y23994940D01*
X135802380Y24233035D01*
X134802380Y23328273D02*
X134802380Y22661607D01*
X135802380Y23090178D01*
X135802380Y21756845D02*
X135802380Y22328273D01*
X135802380Y22042559D02*
X134802380Y22042559D01*
X134945238Y22137797D01*
X135040476Y22233035D01*
X135088095Y22328273D01*
X116752380Y24233035D02*
X115752380Y24233035D01*
X115752380Y23994940D01*
X115800000Y23852083D01*
X115895238Y23756845D01*
X115990476Y23709226D01*
X116180952Y23661607D01*
X116323809Y23661607D01*
X116514285Y23709226D01*
X116609523Y23756845D01*
X116704761Y23852083D01*
X116752380Y23994940D01*
X116752380Y24233035D01*
X115752380Y23328273D02*
X115752380Y22661607D01*
X116752380Y23090178D01*
X115752380Y22090178D02*
X115752380Y21994940D01*
X115800000Y21899702D01*
X115847619Y21852083D01*
X115942857Y21804464D01*
X116133333Y21756845D01*
X116371428Y21756845D01*
X116561904Y21804464D01*
X116657142Y21852083D01*
X116704761Y21899702D01*
X116752380Y21994940D01*
X116752380Y22090178D01*
X116704761Y22185416D01*
X116657142Y22233035D01*
X116561904Y22280654D01*
X116371428Y22328273D01*
X116133333Y22328273D01*
X115942857Y22280654D01*
X115847619Y22233035D01*
X115800000Y22185416D01*
X115752380Y22090178D01*
X97702380Y24233035D02*
X96702380Y24233035D01*
X96702380Y23994940D01*
X96750000Y23852083D01*
X96845238Y23756845D01*
X96940476Y23709226D01*
X97130952Y23661607D01*
X97273809Y23661607D01*
X97464285Y23709226D01*
X97559523Y23756845D01*
X97654761Y23852083D01*
X97702380Y23994940D01*
X97702380Y24233035D01*
X96702380Y22804464D02*
X96702380Y22994940D01*
X96750000Y23090178D01*
X96797619Y23137797D01*
X96940476Y23233035D01*
X97130952Y23280654D01*
X97511904Y23280654D01*
X97607142Y23233035D01*
X97654761Y23185416D01*
X97702380Y23090178D01*
X97702380Y22899702D01*
X97654761Y22804464D01*
X97607142Y22756845D01*
X97511904Y22709226D01*
X97273809Y22709226D01*
X97178571Y22756845D01*
X97130952Y22804464D01*
X97083333Y22899702D01*
X97083333Y23090178D01*
X97130952Y23185416D01*
X97178571Y23233035D01*
X97273809Y23280654D01*
X97702380Y22233035D02*
X97702380Y22042559D01*
X97654761Y21947321D01*
X97607142Y21899702D01*
X97464285Y21804464D01*
X97273809Y21756845D01*
X96892857Y21756845D01*
X96797619Y21804464D01*
X96750000Y21852083D01*
X96702380Y21947321D01*
X96702380Y22137797D01*
X96750000Y22233035D01*
X96797619Y22280654D01*
X96892857Y22328273D01*
X97130952Y22328273D01*
X97226190Y22280654D01*
X97273809Y22233035D01*
X97321428Y22137797D01*
X97321428Y21947321D01*
X97273809Y21852083D01*
X97226190Y21804464D01*
X97130952Y21756845D01*
X73889880Y24233035D02*
X72889880Y24233035D01*
X72889880Y23994940D01*
X72937500Y23852083D01*
X73032738Y23756845D01*
X73127976Y23709226D01*
X73318452Y23661607D01*
X73461309Y23661607D01*
X73651785Y23709226D01*
X73747023Y23756845D01*
X73842261Y23852083D01*
X73889880Y23994940D01*
X73889880Y24233035D01*
X72889880Y22804464D02*
X72889880Y22994940D01*
X72937500Y23090178D01*
X72985119Y23137797D01*
X73127976Y23233035D01*
X73318452Y23280654D01*
X73699404Y23280654D01*
X73794642Y23233035D01*
X73842261Y23185416D01*
X73889880Y23090178D01*
X73889880Y22899702D01*
X73842261Y22804464D01*
X73794642Y22756845D01*
X73699404Y22709226D01*
X73461309Y22709226D01*
X73366071Y22756845D01*
X73318452Y22804464D01*
X73270833Y22899702D01*
X73270833Y23090178D01*
X73318452Y23185416D01*
X73366071Y23233035D01*
X73461309Y23280654D01*
X73318452Y22137797D02*
X73270833Y22233035D01*
X73223214Y22280654D01*
X73127976Y22328273D01*
X73080357Y22328273D01*
X72985119Y22280654D01*
X72937500Y22233035D01*
X72889880Y22137797D01*
X72889880Y21947321D01*
X72937500Y21852083D01*
X72985119Y21804464D01*
X73080357Y21756845D01*
X73127976Y21756845D01*
X73223214Y21804464D01*
X73270833Y21852083D01*
X73318452Y21947321D01*
X73318452Y22137797D01*
X73366071Y22233035D01*
X73413690Y22280654D01*
X73508928Y22328273D01*
X73699404Y22328273D01*
X73794642Y22280654D01*
X73842261Y22233035D01*
X73889880Y22137797D01*
X73889880Y21947321D01*
X73842261Y21852083D01*
X73794642Y21804464D01*
X73699404Y21756845D01*
X73508928Y21756845D01*
X73413690Y21804464D01*
X73366071Y21852083D01*
X73318452Y21947321D01*
X54839880Y24233035D02*
X53839880Y24233035D01*
X53839880Y23994940D01*
X53887500Y23852083D01*
X53982738Y23756845D01*
X54077976Y23709226D01*
X54268452Y23661607D01*
X54411309Y23661607D01*
X54601785Y23709226D01*
X54697023Y23756845D01*
X54792261Y23852083D01*
X54839880Y23994940D01*
X54839880Y24233035D01*
X53839880Y22804464D02*
X53839880Y22994940D01*
X53887500Y23090178D01*
X53935119Y23137797D01*
X54077976Y23233035D01*
X54268452Y23280654D01*
X54649404Y23280654D01*
X54744642Y23233035D01*
X54792261Y23185416D01*
X54839880Y23090178D01*
X54839880Y22899702D01*
X54792261Y22804464D01*
X54744642Y22756845D01*
X54649404Y22709226D01*
X54411309Y22709226D01*
X54316071Y22756845D01*
X54268452Y22804464D01*
X54220833Y22899702D01*
X54220833Y23090178D01*
X54268452Y23185416D01*
X54316071Y23233035D01*
X54411309Y23280654D01*
X53839880Y22375892D02*
X53839880Y21709226D01*
X54839880Y22137797D01*
X35789880Y24233035D02*
X34789880Y24233035D01*
X34789880Y23994940D01*
X34837500Y23852083D01*
X34932738Y23756845D01*
X35027976Y23709226D01*
X35218452Y23661607D01*
X35361309Y23661607D01*
X35551785Y23709226D01*
X35647023Y23756845D01*
X35742261Y23852083D01*
X35789880Y23994940D01*
X35789880Y24233035D01*
X34789880Y22804464D02*
X34789880Y22994940D01*
X34837500Y23090178D01*
X34885119Y23137797D01*
X35027976Y23233035D01*
X35218452Y23280654D01*
X35599404Y23280654D01*
X35694642Y23233035D01*
X35742261Y23185416D01*
X35789880Y23090178D01*
X35789880Y22899702D01*
X35742261Y22804464D01*
X35694642Y22756845D01*
X35599404Y22709226D01*
X35361309Y22709226D01*
X35266071Y22756845D01*
X35218452Y22804464D01*
X35170833Y22899702D01*
X35170833Y23090178D01*
X35218452Y23185416D01*
X35266071Y23233035D01*
X35361309Y23280654D01*
X34789880Y21852083D02*
X34789880Y22042559D01*
X34837500Y22137797D01*
X34885119Y22185416D01*
X35027976Y22280654D01*
X35218452Y22328273D01*
X35599404Y22328273D01*
X35694642Y22280654D01*
X35742261Y22233035D01*
X35789880Y22137797D01*
X35789880Y21947321D01*
X35742261Y21852083D01*
X35694642Y21804464D01*
X35599404Y21756845D01*
X35361309Y21756845D01*
X35266071Y21804464D01*
X35218452Y21852083D01*
X35170833Y21947321D01*
X35170833Y22137797D01*
X35218452Y22233035D01*
X35266071Y22280654D01*
X35361309Y22328273D01*
X16739880Y24233035D02*
X15739880Y24233035D01*
X15739880Y23994940D01*
X15787500Y23852083D01*
X15882738Y23756845D01*
X15977976Y23709226D01*
X16168452Y23661607D01*
X16311309Y23661607D01*
X16501785Y23709226D01*
X16597023Y23756845D01*
X16692261Y23852083D01*
X16739880Y23994940D01*
X16739880Y24233035D01*
X15739880Y22804464D02*
X15739880Y22994940D01*
X15787500Y23090178D01*
X15835119Y23137797D01*
X15977976Y23233035D01*
X16168452Y23280654D01*
X16549404Y23280654D01*
X16644642Y23233035D01*
X16692261Y23185416D01*
X16739880Y23090178D01*
X16739880Y22899702D01*
X16692261Y22804464D01*
X16644642Y22756845D01*
X16549404Y22709226D01*
X16311309Y22709226D01*
X16216071Y22756845D01*
X16168452Y22804464D01*
X16120833Y22899702D01*
X16120833Y23090178D01*
X16168452Y23185416D01*
X16216071Y23233035D01*
X16311309Y23280654D01*
X15739880Y21804464D02*
X15739880Y22280654D01*
X16216071Y22328273D01*
X16168452Y22280654D01*
X16120833Y22185416D01*
X16120833Y21947321D01*
X16168452Y21852083D01*
X16216071Y21804464D01*
X16311309Y21756845D01*
X16549404Y21756845D01*
X16644642Y21804464D01*
X16692261Y21852083D01*
X16739880Y21947321D01*
X16739880Y22185416D01*
X16692261Y22280654D01*
X16644642Y22328273D01*
X10389880Y24233035D02*
X9389880Y24233035D01*
X9389880Y23994940D01*
X9437500Y23852083D01*
X9532738Y23756845D01*
X9627976Y23709226D01*
X9818452Y23661607D01*
X9961309Y23661607D01*
X10151785Y23709226D01*
X10247023Y23756845D01*
X10342261Y23852083D01*
X10389880Y23994940D01*
X10389880Y24233035D01*
X9389880Y22804464D02*
X9389880Y22994940D01*
X9437500Y23090178D01*
X9485119Y23137797D01*
X9627976Y23233035D01*
X9818452Y23280654D01*
X10199404Y23280654D01*
X10294642Y23233035D01*
X10342261Y23185416D01*
X10389880Y23090178D01*
X10389880Y22899702D01*
X10342261Y22804464D01*
X10294642Y22756845D01*
X10199404Y22709226D01*
X9961309Y22709226D01*
X9866071Y22756845D01*
X9818452Y22804464D01*
X9770833Y22899702D01*
X9770833Y23090178D01*
X9818452Y23185416D01*
X9866071Y23233035D01*
X9961309Y23280654D01*
X9723214Y21852083D02*
X10389880Y21852083D01*
X9342261Y22090178D02*
X10056547Y22328273D01*
X10056547Y21709226D01*
X31676130Y-7738095D02*
X32485654Y-7738095D01*
X32580892Y-7785714D01*
X32628511Y-7833333D01*
X32676130Y-7928571D01*
X32676130Y-8119047D01*
X32628511Y-8214285D01*
X32580892Y-8261904D01*
X32485654Y-8309523D01*
X31676130Y-8309523D01*
X32676130Y-9309523D02*
X32676130Y-8738095D01*
X32676130Y-9023809D02*
X31676130Y-9023809D01*
X31818988Y-8928571D01*
X31914226Y-8833333D01*
X31961845Y-8738095D01*
X35097440Y-28157559D02*
X35573630Y-28157559D01*
X34573630Y-27824226D02*
X35097440Y-28157559D01*
X34573630Y-28490892D01*
X35573630Y-29348035D02*
X35573630Y-28776607D01*
X35573630Y-29062321D02*
X34573630Y-29062321D01*
X34716488Y-28967083D01*
X34811726Y-28871845D01*
X34859345Y-28776607D01*
X11556130Y-27996845D02*
X12365654Y-27996845D01*
X12460892Y-28044464D01*
X12508511Y-28092083D01*
X12556130Y-28187321D01*
X12556130Y-28377797D01*
X12508511Y-28473035D01*
X12460892Y-28520654D01*
X12365654Y-28568273D01*
X11556130Y-28568273D01*
X11651369Y-28996845D02*
X11603750Y-29044464D01*
X11556130Y-29139702D01*
X11556130Y-29377797D01*
X11603750Y-29473035D01*
X11651369Y-29520654D01*
X11746607Y-29568273D01*
X11841845Y-29568273D01*
X11984702Y-29520654D01*
X12556130Y-28949226D01*
X12556130Y-29568273D01*
X47577083Y-30639761D02*
X47434226Y-30687380D01*
X47196130Y-30687380D01*
X47100892Y-30639761D01*
X47053273Y-30592142D01*
X47005654Y-30496904D01*
X47005654Y-30401666D01*
X47053273Y-30306428D01*
X47100892Y-30258809D01*
X47196130Y-30211190D01*
X47386607Y-30163571D01*
X47481845Y-30115952D01*
X47529464Y-30068333D01*
X47577083Y-29973095D01*
X47577083Y-29877857D01*
X47529464Y-29782619D01*
X47481845Y-29735000D01*
X47386607Y-29687380D01*
X47148511Y-29687380D01*
X47005654Y-29735000D01*
X46672321Y-29687380D02*
X46434226Y-30687380D01*
X46243750Y-29973095D01*
X46053273Y-30687380D01*
X45815178Y-29687380D01*
X44910416Y-30687380D02*
X45481845Y-30687380D01*
X45196130Y-30687380D02*
X45196130Y-29687380D01*
X45291369Y-29830238D01*
X45386607Y-29925476D01*
X45481845Y-29973095D01*
X22926130Y-46783333D02*
X22449940Y-46450000D01*
X22926130Y-46211904D02*
X21926130Y-46211904D01*
X21926130Y-46592857D01*
X21973750Y-46688095D01*
X22021369Y-46735714D01*
X22116607Y-46783333D01*
X22259464Y-46783333D01*
X22354702Y-46735714D01*
X22402321Y-46688095D01*
X22449940Y-46592857D01*
X22449940Y-46211904D01*
X21926130Y-47116666D02*
X21926130Y-47735714D01*
X22307083Y-47402380D01*
X22307083Y-47545238D01*
X22354702Y-47640476D01*
X22402321Y-47688095D01*
X22497559Y-47735714D01*
X22735654Y-47735714D01*
X22830892Y-47688095D01*
X22878511Y-47640476D01*
X22926130Y-47545238D01*
X22926130Y-47259523D01*
X22878511Y-47164285D01*
X22830892Y-47116666D01*
X23556666Y-6118630D02*
X23890000Y-5642440D01*
X24128095Y-6118630D02*
X24128095Y-5118630D01*
X23747142Y-5118630D01*
X23651904Y-5166250D01*
X23604285Y-5213869D01*
X23556666Y-5309107D01*
X23556666Y-5451964D01*
X23604285Y-5547202D01*
X23651904Y-5594821D01*
X23747142Y-5642440D01*
X24128095Y-5642440D01*
X23175714Y-5213869D02*
X23128095Y-5166250D01*
X23032857Y-5118630D01*
X22794761Y-5118630D01*
X22699523Y-5166250D01*
X22651904Y-5213869D01*
X22604285Y-5309107D01*
X22604285Y-5404345D01*
X22651904Y-5547202D01*
X23223333Y-6118630D01*
X22604285Y-6118630D01*
X23506666Y-11852380D02*
X23840000Y-11376190D01*
X24078095Y-11852380D02*
X24078095Y-10852380D01*
X23697142Y-10852380D01*
X23601904Y-10900000D01*
X23554285Y-10947619D01*
X23506666Y-11042857D01*
X23506666Y-11185714D01*
X23554285Y-11280952D01*
X23601904Y-11328571D01*
X23697142Y-11376190D01*
X24078095Y-11376190D01*
X22554285Y-11852380D02*
X23125714Y-11852380D01*
X22840000Y-11852380D02*
X22840000Y-10852380D01*
X22935238Y-10995238D01*
X23030476Y-11090476D01*
X23125714Y-11138095D01*
X41173630Y-22677083D02*
X40697440Y-22343750D01*
X41173630Y-22105654D02*
X40173630Y-22105654D01*
X40173630Y-22486607D01*
X40221250Y-22581845D01*
X40268869Y-22629464D01*
X40364107Y-22677083D01*
X40506964Y-22677083D01*
X40602202Y-22629464D01*
X40649821Y-22581845D01*
X40697440Y-22486607D01*
X40697440Y-22105654D01*
X40506964Y-23534226D02*
X41173630Y-23534226D01*
X40126011Y-23296130D02*
X40840297Y-23058035D01*
X40840297Y-23677083D01*
X-5218571Y-12219881D02*
X-5218571Y-11219881D01*
X-5551904Y-11934167D01*
X-5885238Y-11219881D01*
X-5885238Y-12219881D01*
X-6361428Y-12219881D02*
X-6361428Y-11219881D01*
X-6790000Y-12172262D02*
X-6932857Y-12219881D01*
X-7170952Y-12219881D01*
X-7266190Y-12172262D01*
X-7313809Y-12124643D01*
X-7361428Y-12029405D01*
X-7361428Y-11934167D01*
X-7313809Y-11838929D01*
X-7266190Y-11791310D01*
X-7170952Y-11743691D01*
X-6980476Y-11696072D01*
X-6885238Y-11648453D01*
X-6837619Y-11600834D01*
X-6790000Y-11505596D01*
X-6790000Y-11410358D01*
X-6837619Y-11315120D01*
X-6885238Y-11267501D01*
X-6980476Y-11219881D01*
X-7218571Y-11219881D01*
X-7361428Y-11267501D01*
X-7980476Y-11219881D02*
X-8170952Y-11219881D01*
X-8266190Y-11267501D01*
X-8361428Y-11362739D01*
X-8409047Y-11553215D01*
X-8409047Y-11886548D01*
X-8361428Y-12077024D01*
X-8266190Y-12172262D01*
X-8170952Y-12219881D01*
X-7980476Y-12219881D01*
X-7885238Y-12172262D01*
X-7790000Y-12077024D01*
X-7742380Y-11886548D01*
X-7742380Y-11553215D01*
X-7790000Y-11362739D01*
X-7885238Y-11267501D01*
X-7980476Y-11219881D01*
X2793333Y-11219881D02*
X2460000Y-12219881D01*
X2126666Y-11219881D01*
X1221904Y-12124643D02*
X1269523Y-12172262D01*
X1412380Y-12219881D01*
X1507619Y-12219881D01*
X1650476Y-12172262D01*
X1745714Y-12077024D01*
X1793333Y-11981786D01*
X1840952Y-11791310D01*
X1840952Y-11648453D01*
X1793333Y-11457977D01*
X1745714Y-11362739D01*
X1650476Y-11267501D01*
X1507619Y-11219881D01*
X1412380Y-11219881D01*
X1269523Y-11267501D01*
X1221904Y-11315120D01*
X221904Y-12124643D02*
X269523Y-12172262D01*
X412380Y-12219881D01*
X507619Y-12219881D01*
X650476Y-12172262D01*
X745714Y-12077024D01*
X793333Y-11981786D01*
X840952Y-11791310D01*
X840952Y-11648453D01*
X793333Y-11457977D01*
X745714Y-11362739D01*
X650476Y-11267501D01*
X507619Y-11219881D01*
X412380Y-11219881D01*
X269523Y-11267501D01*
X221904Y-11315120D01*
X-5254285Y-9672262D02*
X-5397142Y-9719881D01*
X-5635238Y-9719881D01*
X-5730476Y-9672262D01*
X-5778095Y-9624643D01*
X-5825714Y-9529405D01*
X-5825714Y-9434167D01*
X-5778095Y-9338929D01*
X-5730476Y-9291310D01*
X-5635238Y-9243691D01*
X-5444761Y-9196072D01*
X-5349523Y-9148453D01*
X-5301904Y-9100834D01*
X-5254285Y-9005596D01*
X-5254285Y-8910358D01*
X-5301904Y-8815120D01*
X-5349523Y-8767501D01*
X-5444761Y-8719881D01*
X-5682857Y-8719881D01*
X-5825714Y-8767501D01*
X-6825714Y-9624643D02*
X-6778095Y-9672262D01*
X-6635238Y-9719881D01*
X-6540000Y-9719881D01*
X-6397142Y-9672262D01*
X-6301904Y-9577024D01*
X-6254285Y-9481786D01*
X-6206666Y-9291310D01*
X-6206666Y-9148453D01*
X-6254285Y-8957977D01*
X-6301904Y-8862739D01*
X-6397142Y-8767501D01*
X-6540000Y-8719881D01*
X-6635238Y-8719881D01*
X-6778095Y-8767501D01*
X-6825714Y-8815120D01*
X-7254285Y-9719881D02*
X-7254285Y-8719881D01*
X-7825714Y-9719881D02*
X-7397142Y-9148453D01*
X-7825714Y-8719881D02*
X-7254285Y-9291310D01*
X3281428Y-9719881D02*
X3281428Y-8719881D01*
X2948095Y-9434167D01*
X2614761Y-8719881D01*
X2614761Y-9719881D01*
X1948095Y-8719881D02*
X1757619Y-8719881D01*
X1662380Y-8767501D01*
X1567142Y-8862739D01*
X1519523Y-9053215D01*
X1519523Y-9386548D01*
X1567142Y-9577024D01*
X1662380Y-9672262D01*
X1757619Y-9719881D01*
X1948095Y-9719881D01*
X2043333Y-9672262D01*
X2138571Y-9577024D01*
X2186190Y-9386548D01*
X2186190Y-9053215D01*
X2138571Y-8862739D01*
X2043333Y-8767501D01*
X1948095Y-8719881D01*
X1138571Y-9672262D02*
X995714Y-9719881D01*
X757619Y-9719881D01*
X662380Y-9672262D01*
X614761Y-9624643D01*
X567142Y-9529405D01*
X567142Y-9434167D01*
X614761Y-9338929D01*
X662380Y-9291310D01*
X757619Y-9243691D01*
X948095Y-9196072D01*
X1043333Y-9148453D01*
X1090952Y-9100834D01*
X1138571Y-9005596D01*
X1138571Y-8910358D01*
X1090952Y-8815120D01*
X1043333Y-8767501D01*
X948095Y-8719881D01*
X709999Y-8719881D01*
X567142Y-8767501D01*
X138571Y-9719881D02*
X138571Y-8719881D01*
X-6242380Y-7219881D02*
X-5909047Y-6743691D01*
X-5670952Y-7219881D02*
X-5670952Y-6219881D01*
X-6051904Y-6219881D01*
X-6147142Y-6267501D01*
X-6194761Y-6315120D01*
X-6242380Y-6410358D01*
X-6242380Y-6553215D01*
X-6194761Y-6648453D01*
X-6147142Y-6696072D01*
X-6051904Y-6743691D01*
X-5670952Y-6743691D01*
X-6623333Y-7172262D02*
X-6766190Y-7219881D01*
X-7004285Y-7219881D01*
X-7099523Y-7172262D01*
X-7147142Y-7124643D01*
X-7194761Y-7029405D01*
X-7194761Y-6934167D01*
X-7147142Y-6838929D01*
X-7099523Y-6791310D01*
X-7004285Y-6743691D01*
X-6813809Y-6696072D01*
X-6718571Y-6648453D01*
X-6670952Y-6600834D01*
X-6623333Y-6505596D01*
X-6623333Y-6410358D01*
X-6670952Y-6315120D01*
X-6718571Y-6267501D01*
X-6813809Y-6219881D01*
X-7051904Y-6219881D01*
X-7194761Y-6267501D01*
X-7480476Y-6219881D02*
X-8051904Y-6219881D01*
X-7766190Y-7219881D02*
X-7766190Y-6219881D01*
X2471904Y-6267501D02*
X2567142Y-6219881D01*
X2710000Y-6219881D01*
X2852857Y-6267501D01*
X2948095Y-6362739D01*
X2995714Y-6457977D01*
X3043333Y-6648453D01*
X3043333Y-6791310D01*
X2995714Y-6981786D01*
X2948095Y-7077024D01*
X2852857Y-7172262D01*
X2710000Y-7219881D01*
X2614761Y-7219881D01*
X2471904Y-7172262D01*
X2424285Y-7124643D01*
X2424285Y-6791310D01*
X2614761Y-6791310D01*
X1995714Y-7219881D02*
X1995714Y-6219881D01*
X1424285Y-7219881D01*
X1424285Y-6219881D01*
X948095Y-7219881D02*
X948095Y-6219881D01*
X710000Y-6219881D01*
X567142Y-6267501D01*
X471904Y-6362739D01*
X424285Y-6457977D01*
X376666Y-6648453D01*
X376666Y-6791310D01*
X424285Y-6981786D01*
X471904Y-7077024D01*
X567142Y-7172262D01*
X710000Y-7219881D01*
X948095Y-7219881D01*
X33472380Y-8166666D02*
X34186666Y-8166666D01*
X34329523Y-8119047D01*
X34424761Y-8023809D01*
X34472380Y-7880952D01*
X34472380Y-7785714D01*
X34472380Y-9166666D02*
X34472380Y-8595238D01*
X34472380Y-8880952D02*
X33472380Y-8880952D01*
X33615238Y-8785714D01*
X33710476Y-8690476D01*
X33758095Y-8595238D01*
X16043333Y-9868571D02*
X16376666Y-9868571D01*
X16376666Y-10392380D02*
X16376666Y-9392380D01*
X15900476Y-9392380D01*
X14995714Y-10392380D02*
X15567142Y-10392380D01*
X15281428Y-10392380D02*
X15281428Y-9392380D01*
X15376666Y-9535238D01*
X15471904Y-9630476D01*
X15567142Y-9678095D01*
X17827142Y-18303333D02*
X17874761Y-18255714D01*
X17922380Y-18112857D01*
X17922380Y-18017619D01*
X17874761Y-17874761D01*
X17779523Y-17779523D01*
X17684285Y-17731904D01*
X17493809Y-17684285D01*
X17350952Y-17684285D01*
X17160476Y-17731904D01*
X17065238Y-17779523D01*
X16970000Y-17874761D01*
X16922380Y-18017619D01*
X16922380Y-18112857D01*
X16970000Y-18255714D01*
X17017619Y-18303333D01*
X16922380Y-19160476D02*
X16922380Y-18970000D01*
X16970000Y-18874761D01*
X17017619Y-18827142D01*
X17160476Y-18731904D01*
X17350952Y-18684285D01*
X17731904Y-18684285D01*
X17827142Y-18731904D01*
X17874761Y-18779523D01*
X17922380Y-18874761D01*
X17922380Y-19065238D01*
X17874761Y-19160476D01*
X17827142Y-19208095D01*
X17731904Y-19255714D01*
X17493809Y-19255714D01*
X17398571Y-19208095D01*
X17350952Y-19160476D01*
X17303333Y-19065238D01*
X17303333Y-18874761D01*
X17350952Y-18779523D01*
X17398571Y-18731904D01*
X17493809Y-18684285D01*
X34902916Y-31788392D02*
X34950535Y-31836011D01*
X35093392Y-31883630D01*
X35188630Y-31883630D01*
X35331488Y-31836011D01*
X35426726Y-31740773D01*
X35474345Y-31645535D01*
X35521964Y-31455059D01*
X35521964Y-31312202D01*
X35474345Y-31121726D01*
X35426726Y-31026488D01*
X35331488Y-30931250D01*
X35188630Y-30883630D01*
X35093392Y-30883630D01*
X34950535Y-30931250D01*
X34902916Y-30978869D01*
X34569583Y-30883630D02*
X33902916Y-30883630D01*
X34331488Y-31883630D01*
X34902916Y-26188392D02*
X34950535Y-26236011D01*
X35093392Y-26283630D01*
X35188630Y-26283630D01*
X35331488Y-26236011D01*
X35426726Y-26140773D01*
X35474345Y-26045535D01*
X35521964Y-25855059D01*
X35521964Y-25712202D01*
X35474345Y-25521726D01*
X35426726Y-25426488D01*
X35331488Y-25331250D01*
X35188630Y-25283630D01*
X35093392Y-25283630D01*
X34950535Y-25331250D01*
X34902916Y-25378869D01*
X33998154Y-25283630D02*
X34474345Y-25283630D01*
X34521964Y-25759821D01*
X34474345Y-25712202D01*
X34379107Y-25664583D01*
X34141011Y-25664583D01*
X34045773Y-25712202D01*
X33998154Y-25759821D01*
X33950535Y-25855059D01*
X33950535Y-26093154D01*
X33998154Y-26188392D01*
X34045773Y-26236011D01*
X34141011Y-26283630D01*
X34379107Y-26283630D01*
X34474345Y-26236011D01*
X34521964Y-26188392D01*
X14290416Y-18457142D02*
X14338035Y-18504761D01*
X14480892Y-18552380D01*
X14576130Y-18552380D01*
X14718988Y-18504761D01*
X14814226Y-18409523D01*
X14861845Y-18314285D01*
X14909464Y-18123809D01*
X14909464Y-17980952D01*
X14861845Y-17790476D01*
X14814226Y-17695238D01*
X14718988Y-17600000D01*
X14576130Y-17552380D01*
X14480892Y-17552380D01*
X14338035Y-17600000D01*
X14290416Y-17647619D01*
X13433273Y-17885714D02*
X13433273Y-18552380D01*
X13671369Y-17504761D02*
X13909464Y-18219047D01*
X13290416Y-18219047D01*
X23226666Y-39917142D02*
X23274285Y-39964761D01*
X23417142Y-40012380D01*
X23512380Y-40012380D01*
X23655238Y-39964761D01*
X23750476Y-39869523D01*
X23798095Y-39774285D01*
X23845714Y-39583809D01*
X23845714Y-39440952D01*
X23798095Y-39250476D01*
X23750476Y-39155238D01*
X23655238Y-39060000D01*
X23512380Y-39012380D01*
X23417142Y-39012380D01*
X23274285Y-39060000D01*
X23226666Y-39107619D01*
X22893333Y-39012380D02*
X22274285Y-39012380D01*
X22607619Y-39393333D01*
X22464761Y-39393333D01*
X22369523Y-39440952D01*
X22321904Y-39488571D01*
X22274285Y-39583809D01*
X22274285Y-39821904D01*
X22321904Y-39917142D01*
X22369523Y-39964761D01*
X22464761Y-40012380D01*
X22750476Y-40012380D01*
X22845714Y-39964761D01*
X22893333Y-39917142D01*
X8340416Y-31565892D02*
X8388035Y-31613511D01*
X8530892Y-31661130D01*
X8626130Y-31661130D01*
X8768988Y-31613511D01*
X8864226Y-31518273D01*
X8911845Y-31423035D01*
X8959464Y-31232559D01*
X8959464Y-31089702D01*
X8911845Y-30899226D01*
X8864226Y-30803988D01*
X8768988Y-30708750D01*
X8626130Y-30661130D01*
X8530892Y-30661130D01*
X8388035Y-30708750D01*
X8340416Y-30756369D01*
X7959464Y-30756369D02*
X7911845Y-30708750D01*
X7816607Y-30661130D01*
X7578511Y-30661130D01*
X7483273Y-30708750D01*
X7435654Y-30756369D01*
X7388035Y-30851607D01*
X7388035Y-30946845D01*
X7435654Y-31089702D01*
X8007083Y-31661130D01*
X7388035Y-31661130D01*
X28505892Y-21989583D02*
X28553511Y-21941964D01*
X28601130Y-21799107D01*
X28601130Y-21703869D01*
X28553511Y-21561011D01*
X28458273Y-21465773D01*
X28363035Y-21418154D01*
X28172559Y-21370535D01*
X28029702Y-21370535D01*
X27839226Y-21418154D01*
X27743988Y-21465773D01*
X27648750Y-21561011D01*
X27601130Y-21703869D01*
X27601130Y-21799107D01*
X27648750Y-21941964D01*
X27696369Y-21989583D01*
X28601130Y-22941964D02*
X28601130Y-22370535D01*
X28601130Y-22656250D02*
X27601130Y-22656250D01*
X27743988Y-22561011D01*
X27839226Y-22465773D01*
X27886845Y-22370535D01*
M02*
