G04 #@! TF.GenerationSoftware,KiCad,Pcbnew,(5.1.4)-1*
G04 #@! TF.CreationDate,2021-10-30T23:29:11+08:00*
G04 #@! TF.ProjectId,bakeneko-60-pcb,62616b65-6e65-46b6-9f2d-36302d706362,rev?*
G04 #@! TF.SameCoordinates,Original*
G04 #@! TF.FileFunction,Soldermask,Top*
G04 #@! TF.FilePolarity,Negative*
%FSLAX46Y46*%
G04 Gerber Fmt 4.6, Leading zero omitted, Abs format (unit mm)*
G04 Created by KiCad (PCBNEW (5.1.4)-1) date 2021-10-30 23:29:11*
%MOMM*%
%LPD*%
G04 APERTURE LIST*
%ADD10C,4.087800*%
%ADD11C,1.850000*%
%ADD12C,3.148000*%
%ADD13R,1.800000X1.800000*%
%ADD14C,1.800000*%
G04 APERTURE END LIST*
D10*
X266700000Y23812500D03*
D11*
X261620000Y23812500D03*
X271780000Y23812500D03*
D10*
X242887500Y23812500D03*
D11*
X237807500Y23812500D03*
X247967500Y23812500D03*
D10*
X223837500Y23812500D03*
D11*
X218757500Y23812500D03*
X228917500Y23812500D03*
D10*
X204787500Y23812500D03*
D11*
X199707500Y23812500D03*
X209867500Y23812500D03*
D10*
X185737500Y23812500D03*
D11*
X180657500Y23812500D03*
X190817500Y23812500D03*
D10*
X161925000Y23812500D03*
D11*
X156845000Y23812500D03*
X167005000Y23812500D03*
D10*
X142875000Y23812500D03*
D11*
X137795000Y23812500D03*
X147955000Y23812500D03*
D10*
X123825000Y23812500D03*
D11*
X118745000Y23812500D03*
X128905000Y23812500D03*
D10*
X104775000Y23812500D03*
D11*
X99695000Y23812500D03*
X109855000Y23812500D03*
D10*
X80962500Y23812500D03*
D11*
X75882500Y23812500D03*
X86042500Y23812500D03*
D10*
X61912500Y23812500D03*
D11*
X56832500Y23812500D03*
X66992500Y23812500D03*
D10*
X42862500Y23812500D03*
D11*
X37782500Y23812500D03*
X47942500Y23812500D03*
D10*
X23812500Y23812500D03*
D11*
X18732500Y23812500D03*
X28892500Y23812500D03*
D10*
X0Y23812500D03*
D11*
X-5080000Y23812500D03*
X5080000Y23812500D03*
X33655000Y-19050000D03*
X23495000Y-19050000D03*
D10*
X28575000Y-19050000D03*
D11*
X52705000Y-19050000D03*
X42545000Y-19050000D03*
D10*
X47625000Y-19050000D03*
D11*
X267017500Y-76200000D03*
X256857500Y-76200000D03*
D10*
X261937500Y-76200000D03*
D11*
X243205000Y-76200000D03*
X233045000Y-76200000D03*
D10*
X238125000Y-76200000D03*
X190500000Y-67945000D03*
X76200000Y-67945000D03*
D12*
X190500000Y-83185000D03*
X76200000Y-83185000D03*
D11*
X138430000Y-76200000D03*
X128270000Y-76200000D03*
D10*
X133350000Y-76200000D03*
D11*
X57467500Y-76200000D03*
X47307500Y-76200000D03*
D10*
X52387500Y-76200000D03*
D11*
X33655000Y-76200000D03*
X23495000Y-76200000D03*
D10*
X28575000Y-76200000D03*
D11*
X9842500Y-76200000D03*
X-317500Y-76200000D03*
D10*
X4762500Y-76200000D03*
D11*
X269398750Y-76200000D03*
X259238750Y-76200000D03*
D10*
X264318750Y-76200000D03*
D11*
X245586250Y-76200000D03*
X235426250Y-76200000D03*
D10*
X240506250Y-76200000D03*
D11*
X221773750Y-76200000D03*
X211613750Y-76200000D03*
D10*
X216693750Y-76200000D03*
D11*
X197961250Y-76200000D03*
X187801250Y-76200000D03*
D10*
X192881250Y-76200000D03*
X261937500Y-65405000D03*
X238125000Y-65405000D03*
D12*
X261937500Y-50165000D03*
X238125000Y-50165000D03*
D11*
X255111250Y-57150000D03*
X244951250Y-57150000D03*
D10*
X250031250Y-57150000D03*
D11*
X200342500Y-57150000D03*
X190182500Y-57150000D03*
D10*
X195262500Y-57150000D03*
D11*
X152717500Y-38100000D03*
X142557500Y-38100000D03*
D10*
X147637500Y-38100000D03*
D11*
X57467500Y-38100000D03*
X47307500Y-38100000D03*
D10*
X52387500Y-38100000D03*
D11*
X186055000Y-19050000D03*
X175895000Y-19050000D03*
D10*
X180975000Y-19050000D03*
D11*
X109855000Y-19050000D03*
X99695000Y-19050000D03*
D10*
X104775000Y-19050000D03*
D11*
X233680000Y0D03*
X223520000Y0D03*
D10*
X228600000Y0D03*
D11*
X138430000Y0D03*
X128270000Y0D03*
D10*
X133350000Y0D03*
D11*
X100330000Y0D03*
X90170000Y0D03*
D10*
X95250000Y0D03*
D11*
X81280000Y0D03*
X71120000Y0D03*
D10*
X76200000Y0D03*
D11*
X219392500Y-76200000D03*
X209232500Y-76200000D03*
D10*
X214312500Y-76200000D03*
X171443650Y-67945000D03*
X71443850Y-67945000D03*
D12*
X171443650Y-83185000D03*
X71443850Y-83185000D03*
D11*
X126523750Y-76200000D03*
X116363750Y-76200000D03*
D10*
X121443750Y-76200000D03*
D11*
X55086250Y-76200000D03*
X44926250Y-76200000D03*
D10*
X50006250Y-76200000D03*
D11*
X31273750Y-76200000D03*
X21113750Y-76200000D03*
D10*
X26193750Y-76200000D03*
D11*
X7461250Y-76200000D03*
X-2698750Y-76200000D03*
D10*
X2381250Y-76200000D03*
D11*
X271780000Y-57150000D03*
X261620000Y-57150000D03*
D10*
X266700000Y-57150000D03*
D11*
X245586250Y-57150000D03*
X235426250Y-57150000D03*
D10*
X240506250Y-57150000D03*
D11*
X219392500Y-57150000D03*
X209232500Y-57150000D03*
D10*
X214312500Y-57150000D03*
D11*
X181292500Y-57150000D03*
X171132500Y-57150000D03*
D10*
X176212500Y-57150000D03*
D11*
X162242500Y-57150000D03*
X152082500Y-57150000D03*
D10*
X157162500Y-57150000D03*
D11*
X143192500Y-57150000D03*
X133032500Y-57150000D03*
D10*
X138112500Y-57150000D03*
D11*
X124142500Y-57150000D03*
X113982500Y-57150000D03*
D10*
X119062500Y-57150000D03*
D11*
X105092500Y-57150000D03*
X94932500Y-57150000D03*
D10*
X100012500Y-57150000D03*
D11*
X86042500Y-57150000D03*
X75882500Y-57150000D03*
D10*
X80962500Y-57150000D03*
D11*
X66992500Y-57150000D03*
X56832500Y-57150000D03*
D10*
X61912500Y-57150000D03*
D11*
X47942500Y-57150000D03*
X37782500Y-57150000D03*
D10*
X42862500Y-57150000D03*
X23812500Y-65405000D03*
X0Y-65405000D03*
D12*
X23812500Y-50165000D03*
X0Y-50165000D03*
D11*
X16986250Y-57150000D03*
X6826250Y-57150000D03*
D10*
X11906250Y-57150000D03*
X266700000Y-46355000D03*
X242887500Y-46355000D03*
D12*
X266700000Y-31115000D03*
X242887500Y-31115000D03*
D11*
X259873750Y-38100000D03*
X249713750Y-38100000D03*
D10*
X254793750Y-38100000D03*
D11*
X228917500Y-38100000D03*
X218757500Y-38100000D03*
D10*
X223837500Y-38100000D03*
D11*
X209867500Y-38100000D03*
X199707500Y-38100000D03*
D10*
X204787500Y-38100000D03*
D11*
X190817500Y-38100000D03*
X180657500Y-38100000D03*
D10*
X185737500Y-38100000D03*
D11*
X171767500Y-38100000D03*
X161607500Y-38100000D03*
D10*
X166687500Y-38100000D03*
D11*
X133667500Y-38100000D03*
X123507500Y-38100000D03*
D10*
X128587500Y-38100000D03*
D11*
X114617500Y-38100000D03*
X104457500Y-38100000D03*
D10*
X109537500Y-38100000D03*
D11*
X95567500Y-38100000D03*
X85407500Y-38100000D03*
D10*
X90487500Y-38100000D03*
D11*
X76517500Y-38100000D03*
X66357500Y-38100000D03*
D10*
X71437500Y-38100000D03*
D11*
X38417500Y-38100000D03*
X28257500Y-38100000D03*
D10*
X33337500Y-38100000D03*
D11*
X12223750Y-38100000D03*
X2063750Y-38100000D03*
D10*
X7143750Y-38100000D03*
D11*
X7461250Y-38100000D03*
X-2698750Y-38100000D03*
D10*
X2381250Y-38100000D03*
D11*
X267017500Y-19050000D03*
X256857500Y-19050000D03*
D10*
X261937500Y-19050000D03*
D11*
X243205000Y-19050000D03*
X233045000Y-19050000D03*
D10*
X238125000Y-19050000D03*
D11*
X224155000Y-19050000D03*
X213995000Y-19050000D03*
D10*
X219075000Y-19050000D03*
D11*
X205105000Y-19050000D03*
X194945000Y-19050000D03*
D10*
X200025000Y-19050000D03*
D11*
X167005000Y-19050000D03*
X156845000Y-19050000D03*
D10*
X161925000Y-19050000D03*
D11*
X147955000Y-19050000D03*
X137795000Y-19050000D03*
D10*
X142875000Y-19050000D03*
D11*
X128905000Y-19050000D03*
X118745000Y-19050000D03*
D10*
X123825000Y-19050000D03*
D11*
X90805000Y-19050000D03*
X80645000Y-19050000D03*
D10*
X85725000Y-19050000D03*
D11*
X71755000Y-19050000D03*
X61595000Y-19050000D03*
D10*
X66675000Y-19050000D03*
D11*
X9842500Y-19050000D03*
X-317500Y-19050000D03*
D10*
X4762500Y-19050000D03*
X269081250Y-8255000D03*
X245268750Y-8255000D03*
D12*
X269081250Y6985000D03*
X245268750Y6985000D03*
D11*
X262255000Y0D03*
X252095000Y0D03*
D10*
X257175000Y0D03*
D11*
X271780000Y0D03*
X261620000Y0D03*
D10*
X266700000Y0D03*
D11*
X252730000Y0D03*
X242570000Y0D03*
D10*
X247650000Y0D03*
D11*
X214630000Y0D03*
X204470000Y0D03*
D10*
X209550000Y0D03*
D11*
X195580000Y0D03*
X185420000Y0D03*
D10*
X190500000Y0D03*
D11*
X176530000Y0D03*
X166370000Y0D03*
D10*
X171450000Y0D03*
D11*
X157480000Y0D03*
X147320000Y0D03*
D10*
X152400000Y0D03*
D11*
X119380000Y0D03*
X109220000Y0D03*
D10*
X114300000Y0D03*
D11*
X62230000Y0D03*
X52070000Y0D03*
D10*
X57150000Y0D03*
D11*
X43180000Y0D03*
X33020000Y0D03*
D10*
X38100000Y0D03*
D11*
X24130000Y0D03*
X13970000Y0D03*
D10*
X19050000Y0D03*
X0Y0D03*
D11*
X-5080000Y0D03*
X5080000Y0D03*
D13*
X-1270000Y-6727501D03*
D14*
X-3810000Y-6727501D03*
X-1270000Y-9267501D03*
X-3810000Y-9267501D03*
X-1270000Y-11807501D03*
X-3810000Y-11807501D03*
M02*
