G04 #@! TF.GenerationSoftware,KiCad,Pcbnew,(5.1.4)-1*
G04 #@! TF.CreationDate,2021-10-30T23:29:11+08:00*
G04 #@! TF.ProjectId,bakeneko-60-pcb,62616b65-6e65-46b6-9f2d-36302d706362,rev?*
G04 #@! TF.SameCoordinates,Original*
G04 #@! TF.FileFunction,Profile,NP*
%FSLAX46Y46*%
G04 Gerber Fmt 4.6, Leading zero omitted, Abs format (unit mm)*
G04 Created by KiCad (PCBNEW (5.1.4)-1) date 2021-10-30 23:29:11*
%MOMM*%
%LPD*%
G04 APERTURE LIST*
%ADD10C,0.200000*%
G04 APERTURE END LIST*
D10*
X275700000Y-82950000D02*
G75*
G02X273450000Y-85200000I-2250000J0D01*
G01*
X273450000Y32812500D02*
G75*
G02X275700000Y30562500I0J-2250000D01*
G01*
X240918072Y32006048D02*
G75*
G02X242248106Y32812500I1330034J-693548D01*
G01*
X221044427Y-84393548D02*
G75*
G02X226630572Y-84393548I2793073J-1456452D01*
G01*
X227960606Y-85200000D02*
G75*
G02X226630572Y-84393548I0J1500000D01*
G01*
X234001894Y32812500D02*
G75*
G02X235331929Y32006049I1J-1500000D01*
G01*
X24451894Y32812500D02*
G75*
G02X25781929Y32006049I1J-1500000D01*
G01*
X219714395Y-85200000D02*
X46985606Y-85200000D01*
X273450000Y-85200000D02*
X227960606Y-85200000D01*
X273450000Y32812500D02*
X242248106Y32812500D01*
X114939394Y32812500D02*
G75*
G02X116269429Y32006049I1J-1500000D01*
G01*
X-9000000Y30562500D02*
G75*
G02X-6750000Y32812500I2250000J0D01*
G01*
X234001895Y32812500D02*
X123185606Y32812500D01*
X-9000000Y-82950000D02*
X-9000000Y30562500D01*
X31368071Y32006049D02*
G75*
G02X25781929Y32006049I-2793071J1456451D01*
G01*
X40069427Y-84393548D02*
G75*
G02X45655572Y-84393548I2793073J-1456452D01*
G01*
X-6750000Y-85200000D02*
G75*
G02X-9000000Y-82950000I0J2250000D01*
G01*
X114939395Y32812500D02*
X32698106Y32812500D01*
X121855572Y32006048D02*
G75*
G02X123185606Y32812500I1330034J-693548D01*
G01*
X38739395Y-85200000D02*
X-6750000Y-85200000D01*
X31368072Y32006048D02*
G75*
G02X32698106Y32812500I1330034J-693548D01*
G01*
X40069429Y-84393548D02*
G75*
G02X38739395Y-85200000I-1330034J693548D01*
G01*
X46985606Y-85200000D02*
G75*
G02X45655572Y-84393548I0J1500000D01*
G01*
X275700000Y-82950000D02*
X275700000Y30562500D01*
X240918071Y32006049D02*
G75*
G02X235331929Y32006049I-2793071J1456451D01*
G01*
X24451895Y32812500D02*
X-6750000Y32812500D01*
X121855571Y32006049D02*
G75*
G02X116269429Y32006049I-2793071J1456451D01*
G01*
X221044429Y-84393548D02*
G75*
G02X219714395Y-85200000I-1330034J693548D01*
G01*
M02*
